<?xml version="1.0" encoding="utf-8"?>
<!-- Generator: Adobe Illustrator 26.0.1, SVG Export Plug-In . SVG Version: 6.00 Build 0)  -->
<svg version="1.1" id="Layer_1" xmlns="http://www.w3.org/2000/svg" xmlns:xlink="http://www.w3.org/1999/xlink" x="0px" y="0px"
	 viewBox="0 0 200 200" style="enable-background:new 0 0 200 200;" xml:space="preserve">
<style type="text/css">
	.st0{fill:#F466BA;}
	.st1{fill:#FFFFFF;}
	.st2{fill:#F89DC6;}
	.st3{fill:#B42026;}
	.st4{fill:#EF3643;}
	.st5{fill:#190D07;}
	.st6{fill:#D53F4C;}
	.st7{fill:#D42049;}
	.st8{fill:#040606;}
	.st9{fill:#751449;}
	.st10{fill:#510D2C;}
	.st11{fill:#76214F;}
	.st12{fill:#C42289;}
	.st13{fill:#A41C6F;}
	.st14{fill:#D03D9A;}
	.st15{fill:#7A171B;}
	.st16{fill:#C62C36;}
	.st17{fill:#F24F57;}
	.st18{fill:#65BED9;}
	.st19{fill:#FF929D;}
	.st20{fill:#F56E1D;}
	.st21{fill:#D93B5A;}
	.st22{fill:#EDC1C2;}
	.st23{fill:#010101;}
	.st24{fill:#030303;}
	.st25{fill:#F8FBFB;}
	.st26{fill:#F5F8F8;}
	.st27{fill:#F6F9F9;}
	.st28{fill:#66CEF5;}
	.st29{fill:#EF8F8F;}
	.st30{fill:#FFE164;}
	.st31{fill:#F7C1C1;}
	.st32{fill:#B6ECFF;}
</style>
<path class="st6" d="M100.2,129.6c14.4,0,25.9,6,27.9,14.1h1.6c-0.1-1.3-0.3-2.6-0.6-3.8c-0.1-0.5-0.2-1-0.4-1.5
	c-1.3-4.5-3.7-8.7-7-12H80c-0.5,0.5-0.9,0.9-1.3,1.4c-2.6,3.1-4.5,6.7-5.7,10.6c-0.1,0.5-0.3,0.9-0.4,1.4c-0.3,1.3-0.5,2.6-0.6,4
	h0.3C74.2,135.6,85.8,129.6,100.2,129.6z"/>
<path class="st5" d="M133.9,136.8c-1.5-5.3-4.4-10.3-8.3-14.3c-0.2-0.2-0.4-0.4-0.6-0.6c-0.1-0.1-0.2-0.2-0.3-0.3c0,0,0,0,0,0
	c-0.7-0.7-1.4-1.3-2.2-1.9c-6.1-5-13.8-7.7-21.7-7.7c-7.6,0-14.8,2.4-20.7,7c-0.1,0-0.1,0.1-0.2,0.1c-0.1,0.1-0.1,0.1-0.2,0.2
	c-0.8,0.6-1.5,1.2-2.3,2l-0.1,0.1c-0.1,0.1-0.2,0.2-0.4,0.3c0,0,0,0,0,0c-0.8,0.8-1.6,1.7-2.4,2.6c-3.1,3.7-5.4,7.9-6.7,12.5
	c-0.2,0.6-0.3,1.2-0.5,1.7c-0.6,2.6-0.9,5.3-0.9,7.9c0,1.5,1.2,2.7,2.7,2.7h5.6h50.8h6.9c1.5,0,2.7-1.2,2.7-2.7
	c0-2.7-0.3-5.3-0.9-7.8C134.2,138,134,137.3,133.9,136.8z M87.2,120.8c4.1-2.2,8.8-3.4,13.6-3.4c4.8,0,9.4,1.2,13.6,3.4H87.2z
	 M72.6,139.7c0.1-0.5,0.2-0.9,0.4-1.4c1.1-3.9,3-7.4,5.7-10.6c0.4-0.5,0.8-1,1.3-1.4h41.7c3.3,3.4,5.7,7.5,7,12
	c0.1,0.5,0.3,1,0.4,1.5c0.3,1.3,0.5,2.5,0.6,3.8H128c-1.9-8.1-13.5-14.1-27.9-14.1c-14.4,0-25.9,6-27.9,14.1H72
	C72.1,142.3,72.3,141,72.6,139.7z M100.2,135.1c11.3,0,19.7,4.2,22,8.6H78.1C80.4,139.2,88.9,135.1,100.2,135.1z"/>
<path class="st1" d="M100.8,117.4c-4.8,0-9.4,1.2-13.6,3.4h27.2C110.2,118.6,105.6,117.4,100.8,117.4z"/>
<path class="st7" d="M100.2,135.1c-11.3,0-19.7,4.2-22,8.6h44.1C119.9,139.2,111.5,135.1,100.2,135.1z"/>
<path class="st5" d="M32,81.8c0,12.9,10.5,23.4,23.4,23.4c12.9,0,23.4-10.5,23.4-23.4c0-13-10.5-23.4-23.4-23.4
	C42.5,58.4,32,68.9,32,81.8z M63.6,87.9c3.6,0,6.5,2.9,6.5,6.5c0,3.6-2.9,6.5-6.5,6.5c-3.6,0-6.5-2.9-6.5-6.5
	C57.1,90.8,60,87.9,63.6,87.9z M48.1,83.7c-5.7,0-10.3-4.6-10.3-10.3c0-5.7,4.6-10.3,10.3-10.3s10.3,4.6,10.3,10.3
	C58.4,79,53.8,83.7,48.1,83.7z"/>
<path class="st1" d="M48.1,63c-5.7,0-10.3,4.6-10.3,10.3c0,5.7,4.6,10.3,10.3,10.3S58.4,79,58.4,73.3C58.4,67.6,53.8,63,48.1,63z"/>
<path class="st1" d="M63.6,100.8c3.6,0,6.5-2.9,6.5-6.5c0-3.6-2.9-6.5-6.5-6.5c-3.6,0-6.5,2.9-6.5,6.5
	C57.1,97.9,60,100.8,63.6,100.8z"/>
<path class="st5" d="M146.8,58.2c-12.9,0-23.4,10.5-23.4,23.4c0,12.9,10.5,23.4,23.4,23.4c12.9,0,23.4-10.5,23.4-23.4
	C170.2,68.7,159.7,58.2,146.8,58.2z M139.4,83.5c-5.7,0-10.3-4.6-10.3-10.3c0-5.7,4.6-10.3,10.3-10.3c5.7,0,10.3,4.6,10.3,10.3
	C149.8,78.9,145.1,83.5,139.4,83.5z M155,100.7c-3.6,0-6.5-2.9-6.5-6.5c0-3.6,2.9-6.5,6.5-6.5c3.6,0,6.5,2.9,6.5,6.5
	C161.4,97.8,158.5,100.7,155,100.7z"/>
<path class="st1" d="M139.4,62.8c-5.7,0-10.3,4.6-10.3,10.3c0,5.7,4.6,10.3,10.3,10.3c5.7,0,10.3-4.6,10.3-10.3
	C149.8,67.5,145.1,62.8,139.4,62.8z"/>
<path class="st1" d="M155,87.7c-3.6,0-6.5,2.9-6.5,6.5c0,3.6,2.9,6.5,6.5,6.5c3.6,0,6.5-2.9,6.5-6.5C161.4,90.6,158.5,87.7,155,87.7
	z"/>
<path class="st7" d="M153.2,106.7c-9.3,0-16.8,3.5-16.8,7.8c0,4.3,7.5,7.8,16.8,7.8c9.3,0,16.8-3.5,16.8-7.8
	C170,110.2,162.5,106.7,153.2,106.7z"/>
<path class="st7" d="M47.1,107.2c-9.3,0-16.8,3.5-16.8,7.8s7.5,7.8,16.8,7.8c9.3,0,16.8-3.5,16.8-7.8S56.4,107.2,47.1,107.2z"/>
<path class="st5" d="M175,51c-0.2,0.1-22.5,5-33.3-11c-0.9-1.3-2.6-1.6-3.8-0.7c-1.3,0.9-1.6,2.6-0.7,3.8
	c8,11.9,20.7,14.2,29.5,14.2c5.4,0,9.3-0.9,9.7-1c1.5-0.4,2.4-1.8,2-3.3C178,51.6,176.5,50.7,175,51z"/>
<path class="st5" d="M67.5,44.9c0.9-1.3,0.5-3-0.7-3.8c-1.3-0.9-3-0.5-3.8,0.7c-10.8,16-33.1,11-33.3,11c-1.5-0.3-3,0.6-3.3,2
	c-0.4,1.5,0.6,3,2,3.3c0.4,0.1,4.3,1,9.7,1C46.8,59.1,59.4,56.8,67.5,44.9z"/>
</svg>
