<?xml version="1.0" encoding="utf-8"?>
<!-- Generator: Adobe Illustrator 26.0.1, SVG Export Plug-In . SVG Version: 6.00 Build 0)  -->
<svg version="1.1" id="Layer_1" xmlns="http://www.w3.org/2000/svg" xmlns:xlink="http://www.w3.org/1999/xlink" x="0px" y="0px"
	 viewBox="0 0 200 200" style="enable-background:new 0 0 200 200;" xml:space="preserve">
<style type="text/css">
	.st0{fill:#F466BA;}
	.st1{fill:#FFFFFF;}
	.st2{fill:#F89DC6;}
	.st3{fill:#B42026;}
	.st4{fill:#EF3643;}
	.st5{fill:#190D07;}
	.st6{fill:#D53F4C;}
	.st7{fill:#D42049;}
	.st8{fill:#040606;}
	.st9{fill:#751449;}
	.st10{fill:#510D2C;}
	.st11{fill:#76214F;}
	.st12{fill:#C42289;}
	.st13{fill:#A41C6F;}
	.st14{fill:#D03D9A;}
	.st15{fill:#7A171B;}
	.st16{fill:#C62C36;}
	.st17{fill:#F24F57;}
	.st18{fill:#65BED9;}
	.st19{fill:#FF929D;}
	.st20{fill:#F56E1D;}
	.st21{fill:#D93B5A;}
	.st22{fill:#EDC1C2;}
	.st23{fill:#010101;}
	.st24{fill:#030303;}
	.st25{fill:#F8FBFB;}
	.st26{fill:#F5F8F8;}
	.st27{fill:#F6F9F9;}
	.st28{fill:#66CEF5;}
	.st29{fill:#EF8F8F;}
	.st30{fill:#FFE164;}
	.st31{fill:#F7C1C1;}
	.st32{fill:#B6ECFF;}
</style>
<path class="st5" d="M89.7,86.4c0-1.7-1.3-3-3-3s-3,1.3-3,3c0,10.5-8.5,19-18.9,19c-10.5,0-19-8.5-19-19c0-1.7-1.3-3-3-3s-3,1.3-3,3
	c0,13.8,11.2,25,25,25C78.6,111.4,89.7,100.2,89.7,86.4z"/>
<path class="st5" d="M169.1,83.4c-1.7,0-3,1.3-3,3c0,10.5-8.5,19-18.9,19s-18.9-8.5-18.9-19c0-1.7-1.3-3-3-3s-3,1.3-3,3
	c0,13.8,11.2,25,24.9,25s24.9-11.2,24.9-25C172.1,84.7,170.8,83.4,169.1,83.4z"/>
<path class="st5" d="M174.7,69.5l-50.8-11.1c-1.6-0.4-3.2,0.7-3.6,2.3c-0.4,1.6,0.7,3.2,2.3,3.6l50.8,11.1c0.2,0,0.4,0.1,0.6,0.1
	c1.4,0,2.6-1,2.9-2.4C177.4,71.4,176.3,69.8,174.7,69.5z"/>
<path class="st5" d="M35.9,75.4c0.2,0,0.4,0,0.6-0.1l50.8-11.1c1.6-0.4,2.6-2,2.3-3.6c-0.4-1.6-2-2.6-3.6-2.3L35.3,69.5
	c-1.6,0.4-2.6,2-2.3,3.6C33.3,74.4,34.6,75.4,35.9,75.4z"/>
<path class="st28" d="M50.5,115.6c-3.2,4.1-6.7,9.4-6.7,12c0,4,3.3,7.3,7.3,7.3c4,0,7.3-3.3,7.3-7.3C58.3,125.2,54.6,120,50.5,115.6
	z"/>
<path class="st5" d="M50.2,108.1c-0.8,0-1.6,0.4-2.1,1c-1.7,1.9-10.2,12-10.2,18.5c0,7.3,6,13.3,13.3,13.3c7.3,0,13.3-6,13.3-13.3
	c0-6.6-10-16.7-12-18.6C51.8,108.4,51,108.1,50.2,108.1z M51.1,134.9c-4,0-7.3-3.3-7.3-7.3c0-2.6,3.4-7.9,6.7-12
	c4.1,4.4,7.9,9.7,7.9,12C58.3,131.6,55.1,134.9,51.1,134.9z"/>
<path class="st6" d="M133.8,137.5c-1.3-4.3-3.6-8.3-6.7-11.6H86.5c-0.4,0.4-0.8,0.9-1.2,1.3c-2.6,3-4.4,6.5-5.5,10.3
	c-0.2,0.5-0.3,0.9-0.4,1.4c-0.2,0.7-0.3,1.4-0.4,2.2c3-7.3,13.8-12.5,27.1-12.5c14.1,0,25.5,5.9,27.6,13.9h1
	c-0.1-1.2-0.3-2.3-0.6-3.4C134.1,138.5,134,138,133.8,137.5z"/>
<path class="st5" d="M75.7,148.4h5.5h49.9h6.8c1.7,0,3-1.3,3-3c0-2.7-0.3-5.3-0.9-7.8c-0.1-0.6-0.3-1.2-0.5-1.8
	c-1.5-5.3-4.4-10.2-8.2-14.2c-0.2-0.2-0.4-0.4-0.5-0.5l-0.3-0.3c0,0,0,0,0,0c0,0-0.1-0.1-0.1-0.1c-0.6-0.6-1.2-1.2-1.9-1.7
	c0,0-0.1-0.1-0.1-0.1c-3.4-2.8-7.2-4.8-11.3-6.1c0,0-0.1,0-0.1,0c-0.2-0.1-0.4-0.1-0.6-0.2c-3.1-0.9-6.3-1.4-9.5-1.4
	c-0.5,0-0.9,0-1.4,0c-0.5,0-1,0.1-1.5,0.1c-6,0.5-11.7,2.6-16.6,6.1c-0.4,0.3-0.8,0.6-1.1,0.8c-0.1,0.1-0.2,0.2-0.3,0.2
	c-0.7,0.6-1.4,1.2-2.2,1.9l-0.1,0.1c-0.1,0.1-0.3,0.2-0.4,0.4c0,0,0,0,0,0c-0.8,0.8-1.6,1.6-2.4,2.5c-3.1,3.7-5.3,7.9-6.6,12.4
	c-0.2,0.6-0.3,1.1-0.5,1.7c-0.6,2.6-0.9,5.2-0.9,7.9C72.7,147,74.1,148.4,75.7,148.4z M85.1,142.4c2.5-4.1,10.5-7.9,21.1-7.9
	c10.6,0,18.6,3.8,21.1,7.9H85.1z M133.8,142.4c-2.1-8-13.5-13.9-27.6-13.9c-13.3,0-24.2,5.2-27.1,12.5c0.1-0.7,0.2-1.4,0.4-2.2
	c0.1-0.5,0.2-0.9,0.4-1.4c1.1-3.8,2.9-7.2,5.5-10.3c0.4-0.5,0.8-0.9,1.2-1.3h40.6c3.1,3.3,5.4,7.3,6.7,11.6c0.1,0.5,0.3,1,0.4,1.5
	c0.3,1.1,0.5,2.3,0.6,3.4H133.8z M94.7,119.9c3.7-1.8,7.8-2.7,12.1-2.7c4.3,0,8.4,0.9,12.1,2.7H94.7z"/>
<path class="st1" d="M118.9,119.9c-3.7-1.8-7.8-2.7-12.1-2.7c-4.3,0-8.4,0.9-12.1,2.7H118.9z"/>
<path class="st7" d="M106.2,134.5c-10.6,0-18.6,3.8-21.1,7.9h42.2C124.8,138.3,116.9,134.5,106.2,134.5z"/>
</svg>
