<?xml version="1.0" encoding="utf-8"?>
<!-- Generator: Adobe Illustrator 26.0.1, SVG Export Plug-In . SVG Version: 6.00 Build 0)  -->
<svg version="1.1" id="Layer_1" xmlns="http://www.w3.org/2000/svg" xmlns:xlink="http://www.w3.org/1999/xlink" x="0px" y="0px"
	 viewBox="0 0 200 200" style="enable-background:new 0 0 200 200;" xml:space="preserve">
<style type="text/css">
	.st0{fill:#F466BA;}
	.st1{fill:#FFFFFF;}
	.st2{fill:#F89DC6;}
	.st3{fill:#B42026;}
	.st4{fill:#EF3643;}
	.st5{fill:#190D07;}
	.st6{fill:#D53F4C;}
	.st7{fill:#D42049;}
	.st8{fill:#040606;}
	.st9{fill:#751449;}
	.st10{fill:#510D2C;}
	.st11{fill:#76214F;}
	.st12{fill:#C42289;}
	.st13{fill:#A41C6F;}
	.st14{fill:#D03D9A;}
	.st15{fill:#7A171B;}
	.st16{fill:#C62C36;}
	.st17{fill:#F24F57;}
	.st18{fill:#65BED9;}
	.st19{fill:#FF929D;}
	.st20{fill:#F56E1D;}
	.st21{fill:#D93B5A;}
	.st22{fill:#EDC1C2;}
	.st23{fill:#010101;}
	.st24{fill:#030303;}
	.st25{fill:#F8FBFB;}
	.st26{fill:#F5F8F8;}
	.st27{fill:#F6F9F9;}
	.st28{fill:#66CEF5;}
	.st29{fill:#EF8F8F;}
	.st30{fill:#FFE164;}
	.st31{fill:#F7C1C1;}
	.st32{fill:#B6ECFF;}
</style>
<path class="st7" d="M42.7,122.7c11.8,0,21.3-4.4,21.3-9.9c0-2.7-2.3-5.1-6.1-6.9c-0.3,0-0.6,0-0.9,0c-4.4,0-8.6-1.1-12.3-3
	c-0.7,0-1.3,0-2,0c-11.8,0-21.3,4.4-21.3,9.8C21.4,118.3,30.9,122.7,42.7,122.7z"/>
<path class="st7" d="M162.6,103c-0.7,0-1.3,0-2,0c-3.7,1.9-7.9,3-12.3,3c-0.3,0-0.6,0-0.9,0c-3.7,1.8-6.1,4.2-6.1,6.9
	c0,5.4,9.5,9.9,21.3,9.9s21.3-4.4,21.3-9.9C183.9,107.4,174.4,103,162.6,103z"/>
<path class="st5" d="M57.9,106c14.6-0.5,26.4-12.5,26.4-27.3c0-1.7-1.3-3-3-3s-3,1.3-3,3c0,11.8-9.6,21.3-21.3,21.3
	c-11.8,0-21.3-9.6-21.3-21.3c0-1.7-1.3-3-3-3c-1.7,0-3,1.3-3,3c0,10.6,6.1,19.9,15,24.4c3.7,1.9,7.9,3,12.3,3
	C57.3,106,57.6,106,57.9,106z"/>
<path class="st5" d="M160.6,103.1c8.9-4.5,15-13.7,15-24.4c0-1.7-1.3-3-3-3s-3,1.3-3,3c0,11.8-9.6,21.3-21.3,21.3S127,90.5,127,78.7
	c0-1.7-1.3-3-3-3s-3,1.3-3,3c0,14.8,11.8,26.8,26.4,27.3c0.3,0,0.6,0,0.9,0C152.7,106,156.9,105,160.6,103.1z"/>
<path class="st5" d="M166.8,38.1c-0.9-1.4-2.8-1.8-4.1-0.9l-48.4,31.2c-1.4,0.9-1.8,2.8-0.9,4.1c0.6,0.9,1.5,1.4,2.5,1.4
	c0.6,0,1.1-0.2,1.6-0.5l48.4-31.2C167.3,41.3,167.7,39.5,166.8,38.1z"/>
<path class="st5" d="M38.4,38.1c-0.9,1.4-0.5,3.2,0.9,4.1l48.4,31.2c0.5,0.3,1.1,0.5,1.6,0.5c1,0,2-0.5,2.5-1.4
	c0.9-1.4,0.5-3.2-0.9-4.1L42.6,37.2C41.2,36.3,39.3,36.7,38.4,38.1z"/>
<path class="st5" d="M104.4,119.7c-16.8,0-30,7.3-30,16.6c0,1.7,1.3,3,3,3s3-1.3,3-3c0-5,9.9-10.6,24-10.6c14.2,0,24,5.6,24,10.6
	c0,1.7,1.3,3,3,3s3-1.3,3-3C134.4,127,121.2,119.7,104.4,119.7z"/>
</svg>
