<?xml version="1.0" encoding="utf-8"?>
<!-- Generator: Adobe Illustrator 26.0.1, SVG Export Plug-In . SVG Version: 6.00 Build 0)  -->
<svg version="1.1" id="Layer_1" xmlns="http://www.w3.org/2000/svg" xmlns:xlink="http://www.w3.org/1999/xlink" x="0px" y="0px"
	 viewBox="0 0 200 200" style="enable-background:new 0 0 200 200;" xml:space="preserve">
<style type="text/css">
	.st0{fill:#F466BA;}
	.st1{fill:#FFFFFF;}
	.st2{fill:#F89DC6;}
	.st3{fill:#B42026;}
	.st4{fill:#EF3643;}
	.st5{fill:#190D07;}
	.st6{fill:#D53F4C;}
	.st7{fill:#D42049;}
	.st8{fill:#040606;}
	.st9{fill:#751449;}
	.st10{fill:#510D2C;}
	.st11{fill:#76214F;}
	.st12{fill:#C42289;}
	.st13{fill:#A41C6F;}
	.st14{fill:#D03D9A;}
	.st15{fill:#7A171B;}
	.st16{fill:#C62C36;}
	.st17{fill:#F24F57;}
	.st18{fill:#65BED9;}
	.st19{fill:#FF929D;}
	.st20{fill:#F56E1D;}
	.st21{fill:#D93B5A;}
	.st22{fill:#EDC1C2;}
	.st23{fill:#010101;}
	.st24{fill:#030303;}
	.st25{fill:#F8FBFB;}
	.st26{fill:#F5F8F8;}
	.st27{fill:#F6F9F9;}
	.st28{fill:#66CEF5;}
	.st29{fill:#EF8F8F;}
	.st30{fill:#FFE164;}
	.st31{fill:#F7C1C1;}
	.st32{fill:#B6ECFF;}
</style>
<path class="st1" d="M39.3,60.2c-6.3,0-11.4,5.1-11.4,11.5c0,6.3,5.1,11.5,11.4,11.5S50.7,78,50.7,71.6
	C50.7,65.3,45.6,60.2,39.3,60.2z"/>
<path class="st1" d="M56.5,87.7c-3.9,0-7.1,3.2-7.1,7.2c0,4,3.2,7.2,7.1,7.2s7.1-3.2,7.1-7.2C63.6,91,60.4,87.7,56.5,87.7z"/>
<path class="st5" d="M148.3,55l11.1-7.1c1.3-0.8,1.6-2.5,0.8-3.8c-0.8-1.3-2.5-1.6-3.8-0.8l-44.9,29c-1.3,0.8-1.6,2.5-0.8,3.8
	c0.5,0.8,1.4,1.3,2.3,1.3c0.5,0,1-0.1,1.5-0.4L122,72c-1,2.8-1.6,5.8-1.6,8.9c0,14.3,11.6,26,25.9,26c14.3,0,25.9-11.6,25.9-26
	C172.2,67.2,161.6,56,148.3,55z M138.2,82.9c-6.3,0-11.4-5.1-11.4-11.5c0-1,0.1-1.9,0.4-2.8l13.1-8.4c5.3,1,9.4,5.6,9.4,11.3
	C149.6,77.8,144.5,82.9,138.2,82.9z M155.4,101.9c-3.9,0-7.1-3.2-7.1-7.2s3.2-7.2,7.1-7.2s7.1,3.2,7.1,7.2S159.3,101.9,155.4,101.9z
	"/>
<path class="st1" d="M140.2,60.2l-13.1,8.4c-0.2,0.9-0.4,1.9-0.4,2.8c0,6.3,5.1,11.5,11.4,11.5c6.3,0,11.4-5.1,11.4-11.5
	C149.6,65.8,145.5,61.2,140.2,60.2z"/>
<path class="st1" d="M155.4,87.6c-3.9,0-7.1,3.2-7.1,7.2s3.2,7.2,7.1,7.2s7.1-3.2,7.1-7.2S159.3,87.6,155.4,87.6z"/>
<path class="st7" d="M43.8,108c-10,0-18,3.7-18,8.4c0,4.6,8.1,8.4,18,8.4c10,0,18-3.7,18-8.4C61.8,111.8,53.7,108,43.8,108z"/>
<ellipse class="st7" cx="152" cy="116.4" rx="18" ry="8.4"/>
<path class="st5" d="M78.8,77c0.5,0.3,1,0.4,1.5,0.4c0.9,0,1.8-0.4,2.3-1.3c0.8-1.3,0.5-3-0.8-3.8l-19-12.2
	c-0.9-0.7-1.8-1.3-2.8-1.8L36.8,43.4c-1.3-0.8-3-0.5-3.8,0.8c-0.8,1.3-0.5,3,0.8,3.8L45,55.2C31.8,56.4,21.5,67.5,21.5,81
	c0,14.3,11.6,26,25.9,26c14.3,0,25.9-11.6,25.9-26c0-3-0.5-5.8-1.4-8.5L78.8,77z M39.3,83.1c-6.3,0-11.4-5.1-11.4-11.5
	c0-6.3,5.1-11.5,11.4-11.5s11.4,5.1,11.4,11.5C50.7,78,45.6,83.1,39.3,83.1z M56.5,102.1c-3.9,0-7.1-3.2-7.1-7.2
	c0-4,3.2-7.2,7.1-7.2s7.1,3.2,7.1,7.2C63.6,98.9,60.4,102.1,56.5,102.1z"/>
<path class="st6" d="M109.7,137.2c0-9.8-5.7-17.9-12.7-17.9c-7,0-12.7,8-12.7,17.9C84.2,147,90,155,97,155
	C104,155,109.7,147,109.7,137.2z"/>
<path class="st5" d="M97,113.9c-10,0-18.2,10.5-18.2,23.3c0,12.9,8.2,23.3,18.2,23.3c10,0,18.2-10.5,18.2-23.3
	C115.2,124.3,107,113.9,97,113.9z M84.2,137.2c0-9.8,5.7-17.9,12.7-17.9c7,0,12.7,8,12.7,17.9c0,9.8-5.7,17.9-12.7,17.9
	C90,155,84.2,147,84.2,137.2z"/>
</svg>
