<?xml version="1.0" encoding="utf-8"?>
<!-- Generator: Adobe Illustrator 26.0.1, SVG Export Plug-In . SVG Version: 6.00 Build 0)  -->
<svg version="1.1" id="Layer_1" xmlns="http://www.w3.org/2000/svg" xmlns:xlink="http://www.w3.org/1999/xlink" x="0px" y="0px"
	 viewBox="0 0 200 200" style="enable-background:new 0 0 200 200;" xml:space="preserve">
<style type="text/css">
	.st0{fill:#F466BA;}
	.st1{fill:#FFFFFF;}
	.st2{fill:#F89DC6;}
	.st3{fill:#B42026;}
	.st4{fill:#EF3643;}
	.st5{fill:#190D07;}
	.st6{fill:#D53F4C;}
	.st7{fill:#D42049;}
	.st8{fill:#040606;}
	.st9{fill:#751449;}
	.st10{fill:#510D2C;}
	.st11{fill:#76214F;}
	.st12{fill:#C42289;}
	.st13{fill:#A41C6F;}
	.st14{fill:#D03D9A;}
	.st15{fill:#7A171B;}
	.st16{fill:#C62C36;}
	.st17{fill:#F24F57;}
	.st18{fill:#65BED9;}
	.st19{fill:#FF929D;}
	.st20{fill:#F56E1D;}
	.st21{fill:#D93B5A;}
	.st22{fill:#EDC1C2;}
	.st23{fill:#010101;}
	.st24{fill:#030303;}
	.st25{fill:#F8FBFB;}
	.st26{fill:#F5F8F8;}
	.st27{fill:#F6F9F9;}
	.st28{fill:#66CEF5;}
	.st29{fill:#EF8F8F;}
	.st30{fill:#FFE164;}
	.st31{fill:#F7C1C1;}
	.st32{fill:#B6ECFF;}
</style>
<path class="st5" d="M37.2,100.9c0.5,0.9,1.5,1.4,2.5,1.4c0.5,0,1-0.1,1.4-0.4l39.4-22.7c0.9-0.5,1.4-1.5,1.4-2.5c0-1-0.5-2-1.4-2.5
	L41.1,51.5c-1.4-0.8-3.1-0.3-3.9,1.1c-0.8,1.4-0.3,3.1,1.1,3.9l35.1,20.2L38.2,97C36.8,97.8,36.4,99.6,37.2,100.9z"/>
<path class="st5" d="M121.1,79.3l39.4,22.7c0.5,0.3,0.9,0.4,1.4,0.4c1,0,2-0.5,2.5-1.4c0.8-1.4,0.3-3.1-1.1-3.9l-35.1-20.2
	l35.1-20.2c1.4-0.8,1.8-2.6,1.1-3.9s-2.6-1.8-3.9-1.1l-39.4,22.7c-0.9,0.5-1.4,1.5-1.4,2.5C119.7,77.8,120.2,78.8,121.1,79.3z"/>
<path class="st7" d="M41.8,106.4c-11.3,0-20.4,4.2-20.4,9.4c0,5.2,9.1,9.4,20.4,9.4c11.3,0,20.4-4.2,20.4-9.4
	C62.2,110.6,53.1,106.4,41.8,106.4z"/>
<path class="st7" d="M163.6,106.4c-11.3,0-20.4,4.2-20.4,9.4c0,5.2,9.1,9.4,20.4,9.4c11.3,0,20.4-4.2,20.4-9.4
	C184,110.6,174.9,106.4,163.6,106.4z"/>
<path class="st5" d="M127.9,113c-1.6,0-2.9,1.3-2.9,2.9c0,5.1-9.3,10.7-22.7,10.7c-13.4,0-22.7-5.6-22.7-10.7c0-1.6-1.3-2.9-2.9-2.9
	s-2.9,1.3-2.9,2.9c0,9.2,12.5,16.4,28.4,16.4c15.9,0,28.4-7.2,28.4-16.4C130.7,114.2,129.5,113,127.9,113z"/>
</svg>
