<?xml version="1.0" encoding="utf-8"?>
<!-- Generator: Adobe Illustrator 26.0.1, SVG Export Plug-In . SVG Version: 6.00 Build 0)  -->
<svg version="1.1" id="Layer_1" xmlns="http://www.w3.org/2000/svg" xmlns:xlink="http://www.w3.org/1999/xlink" x="0px" y="0px"
	 viewBox="0 0 200 200" style="enable-background:new 0 0 200 200;" xml:space="preserve">
<style type="text/css">
	.st0{fill:#F466BA;}
	.st1{fill:#FFFFFF;}
	.st2{fill:#F89DC6;}
	.st3{fill:#B42026;}
	.st4{fill:#EF3643;}
	.st5{fill:#190D07;}
	.st6{fill:#D53F4C;}
	.st7{fill:#D42049;}
	.st8{fill:#040606;}
	.st9{fill:#751449;}
	.st10{fill:#510D2C;}
	.st11{fill:#76214F;}
	.st12{fill:#C42289;}
	.st13{fill:#A41C6F;}
	.st14{fill:#D03D9A;}
	.st15{fill:#7A171B;}
	.st16{fill:#C62C36;}
	.st17{fill:#F24F57;}
	.st18{fill:#65BED9;}
	.st19{fill:#FF929D;}
	.st20{fill:#F56E1D;}
	.st21{fill:#D93B5A;}
	.st22{fill:#EDC1C2;}
	.st23{fill:#010101;}
	.st24{fill:#030303;}
	.st25{fill:#F8FBFB;}
	.st26{fill:#F5F8F8;}
	.st27{fill:#F6F9F9;}
	.st28{fill:#66CEF5;}
	.st29{fill:#EF8F8F;}
	.st30{fill:#FFE164;}
	.st31{fill:#F7C1C1;}
	.st32{fill:#B6ECFF;}
</style>
<path class="st6" d="M123.3,125.3H89c-0.2,1.2-0.4,2.4-0.4,3.6c0,1.6,0.2,3.2,0.7,4.8c0.1,0.5,0.1,0.9,0.1,1.4
	c-0.1,0.3-0.1,0.5-0.1,0.8v13c0,2.2,1.8,4,4,4c2.2,0,4-1.8,4-4v-0.4c0-0.9,0.4-1.8,1.2-2.4s1.7-0.7,2.7-0.5c1.6,0.5,3.4,0.7,5.1,0.7
	c5.5,0,10.6-2.5,14-7c2.3-3.1,3.5-6.7,3.5-10.5C123.7,127.7,123.5,126.5,123.3,125.3z"/>
<path class="st1" d="M91.5,119.3h29.3c-3.2-4.8-8.7-7.9-14.7-7.9S94.7,114.5,91.5,119.3z"/>
<path class="st5" d="M106.1,105.4c-1.9,0-3.7,0.2-5.5,0.7c-6.5,1.6-12.1,5.9-15.3,11.9c-0.6,1.1-1.1,2.2-1.5,3.4
	c-0.8,2.4-1.2,5-1.2,7.6c0,1.9,0.2,3.8,0.7,5.7c-0.1,0.4-0.1,0.8-0.1,1.3v13c0,5.5,4.5,10,10,10c4.4,0,8.1-2.8,9.4-6.7
	c1.2,0.2,2.3,0.3,3.5,0.3c7.4,0,14.3-3.4,18.8-9.3c3.1-4.1,4.8-9,4.8-14.2c0-2.6-0.4-5.1-1.2-7.6
	C125.2,111.8,116.2,105.4,106.1,105.4z M106.1,146.4c-1.7,0-3.4-0.3-5.1-0.7c-0.9-0.3-1.9-0.1-2.7,0.5s-1.2,1.5-1.2,2.4v0.4
	c0,2.2-1.8,4-4,4c-2.2,0-4-1.8-4-4v-13c0-0.3,0-0.5,0.1-0.8c0.1-0.5,0.1-0.9-0.1-1.4c-0.4-1.6-0.7-3.2-0.7-4.8
	c0-1.2,0.1-2.4,0.4-3.6h34.3c0.2,1.2,0.4,2.4,0.4,3.6c0,3.8-1.2,7.5-3.5,10.5C116.8,143.9,111.7,146.4,106.1,146.4z M106.1,111.4
	c6,0,11.5,3,14.7,7.9H91.5C94.7,114.5,100.1,111.4,106.1,111.4z"/>
<path class="st5" d="M60.2,61.4c-10.2,0-18.8,6.8-21.5,16.1c0,0-0.1,0-0.1,0c-0.4,0-1,0.1-1.4-0.1l-0.7-0.1c-0.2,0-0.4-0.1-0.6-0.2
	c-0.4-0.1-0.8-0.3-1.2-0.5c-0.2-0.1-0.3-0.2-0.5-0.3c-0.1-0.1-0.2-0.1-0.3-0.2C34,76,33.9,76,33.8,75.9c-0.1-0.1-0.3-0.2-0.4-0.4
	c-0.1-0.1-0.2-0.3-0.4-0.4c-0.2-0.3-0.4-0.6-0.5-0.8c-0.2-0.3-0.2-0.5-0.3-0.7C32.1,73.3,32,73.1,32,73c0-0.1,0-0.2,0-0.2
	c0-0.1-0.1-0.2-0.2-0.2c-0.1-0.1-0.3,0-0.4,0.1l0,0c0,0,0,0.1-0.1,0.2c-0.1,0.1-0.1,0.3-0.2,0.6c0,0.3-0.1,0.6-0.1,1
	c0,0.4,0,0.8,0.1,1.3c0.1,0.2,0.1,0.5,0.2,0.7c0.1,0.3,0.2,0.5,0.3,0.8c0.1,0.1,0.1,0.3,0.2,0.4c0.1,0.1,0.1,0.3,0.2,0.4
	c0.2,0.3,0.3,0.6,0.5,0.8c0.4,0.5,0.8,1,1.3,1.4c0.3,0.2,0.5,0.5,0.8,0.6l0.8,0.5c0.6,0.4,1.1,0.7,1.7,1c0.2,0.2,0.5,0.3,0.7,0.4
	c0,0.2,0,0.4,0,0.7c0,0.7,0,1.5,0.1,2.2c-0.3,0-0.7,0-1,0c-0.4,0-1,0.1-1.4-0.1L35,85.7c-0.2,0-0.4-0.1-0.6-0.2
	c-0.4-0.1-0.8-0.3-1.2-0.5c-0.2-0.1-0.3-0.2-0.5-0.3c-0.1-0.1-0.2-0.1-0.3-0.2c-0.1-0.1-0.1-0.1-0.2-0.2c-0.1-0.1-0.3-0.2-0.4-0.4
	c-0.1-0.1-0.2-0.3-0.4-0.4c-0.2-0.3-0.4-0.6-0.5-0.8c-0.2-0.3-0.2-0.5-0.3-0.7c-0.1-0.2-0.1-0.4-0.2-0.5c0-0.1,0-0.2,0-0.2
	c0-0.1-0.1-0.2-0.2-0.2c-0.1-0.1-0.3,0-0.4,0.1l0,0c0,0,0,0.1-0.1,0.2c-0.1,0.1-0.1,0.3-0.2,0.6c0,0.3-0.1,0.6-0.1,1
	c0,0.4,0,0.8,0.1,1.3c0.1,0.2,0.1,0.5,0.2,0.7c0.1,0.3,0.2,0.5,0.3,0.8c0.1,0.1,0.1,0.3,0.2,0.4c0.1,0.1,0.1,0.3,0.2,0.4
	c0.2,0.3,0.3,0.6,0.5,0.8c0.4,0.5,0.8,1,1.3,1.4c0.3,0.2,0.5,0.5,0.8,0.6l0.8,0.5c0.6,0.4,1.1,0.7,1.7,1c0.6,0.4,1.2,0.6,1.7,0.7
	c0.3,0.1,0.6,0.1,0.9,0.1c0.3,0,0.6,0,0.8-0.1c0.1,0,0.3,0,0.4-0.1c3.2,8.3,11.3,14.2,20.8,14.2c12.3,0,22.3-10,22.3-22.3
	S72.5,61.4,60.2,61.4z M53.2,85.4c-5.4,0-9.9-4.4-9.9-9.8c0-5.4,4.4-9.8,9.9-9.8c5.4,0,9.9,4.4,9.9,9.8C63.1,81,58.6,85.4,53.2,85.4
	z M68,101.8c-3.4,0-6.2-2.8-6.2-6.2s2.8-6.2,6.2-6.2c3.4,0,6.2,2.8,6.2,6.2S71.4,101.8,68,101.8z"/>
<ellipse transform="matrix(1 -1.051855e-03 1.051855e-03 1 -7.949863e-02 5.600498e-02)" class="st1" cx="53.2" cy="75.6" rx="9.9" ry="9.8"/>
<path class="st1" d="M68,89.4c-3.4,0-6.2,2.8-6.2,6.2s2.8,6.2,6.2,6.2c3.4,0,6.2-2.8,6.2-6.2S71.4,89.4,68,89.4z"/>
<path class="st5" d="M176,81.4c0-0.1-0.1-0.2-0.1-0.2l0,0c0-0.1-0.1-0.1-0.2-0.1c-0.2,0-0.3,0.1-0.3,0.3c0,0,0,0.1,0,0.2
	c0,0.1-0.1,0.3-0.2,0.5c-0.1,0.2-0.2,0.5-0.3,0.7c-0.1,0.3-0.3,0.6-0.5,0.8c-0.1,0.1-0.2,0.3-0.4,0.4c-0.1,0.1-0.3,0.3-0.4,0.4
	c-0.1,0.1-0.1,0.1-0.2,0.2c-0.1,0.1-0.2,0.1-0.3,0.2c-0.2,0.1-0.3,0.2-0.5,0.3c-0.4,0.2-0.7,0.4-1.2,0.5c-0.2,0.1-0.4,0.2-0.6,0.2
	l-0.7,0.1c-0.4,0.1-0.9,0.1-1.4,0.1c-0.3,0-0.6,0-1,0c0.1-0.7,0.1-1.5,0.1-2.2c0-0.2,0-0.5,0-0.7c0.2-0.1,0.5-0.2,0.7-0.4
	c0.6-0.4,1.1-0.6,1.7-1l0.8-0.5c0.3-0.2,0.5-0.4,0.8-0.6c0.5-0.4,0.9-0.9,1.3-1.4c0.2-0.3,0.3-0.5,0.5-0.8c0.1-0.1,0.1-0.3,0.2-0.4
	c0.1-0.1,0.1-0.3,0.2-0.4c0.1-0.3,0.2-0.5,0.3-0.8c0.1-0.3,0.1-0.5,0.2-0.8c0.1-0.5,0.1-0.9,0.1-1.3c0-0.4-0.1-0.7-0.1-1
	c-0.1-0.3-0.1-0.5-0.2-0.6c0-0.1-0.1-0.2-0.1-0.2l0,0c0-0.1-0.1-0.1-0.2-0.1c-0.2,0-0.3,0.1-0.3,0.3c0,0,0,0.1,0,0.2
	c0,0.1-0.1,0.3-0.2,0.5c-0.1,0.2-0.2,0.5-0.3,0.7c-0.1,0.3-0.3,0.6-0.5,0.8c-0.1,0.1-0.2,0.3-0.4,0.4c-0.1,0.1-0.3,0.3-0.4,0.4
	c-0.1,0.1-0.1,0.1-0.2,0.2c-0.1,0.1-0.2,0.1-0.3,0.2c-0.2,0.1-0.3,0.2-0.5,0.3c-0.4,0.2-0.7,0.4-1.2,0.5c-0.2,0.1-0.4,0.2-0.6,0.2
	l-0.7,0.1c-0.4,0.1-0.9,0.1-1.4,0.1c0,0-0.1,0-0.1,0c-2.7-9.3-11.3-16.1-21.5-16.1c-12.3,0-22.3,10-22.3,22.3s10,22.3,22.3,22.3
	c9.5,0,17.6-5.9,20.8-14.2c0.1,0,0.3,0.1,0.4,0.1c0.3,0,0.5,0.1,0.8,0.1c0.3,0,0.6-0.1,0.9-0.1c0.6-0.1,1.2-0.3,1.7-0.7
	c0.6-0.4,1.1-0.6,1.7-1l0.8-0.5c0.3-0.2,0.5-0.4,0.8-0.6c0.5-0.4,0.9-1,1.3-1.4c0.2-0.3,0.3-0.5,0.5-0.8c0.1-0.1,0.1-0.3,0.2-0.4
	c0.1-0.1,0.1-0.3,0.2-0.4c0.1-0.3,0.2-0.5,0.3-0.8c0.1-0.3,0.1-0.5,0.2-0.7c0.1-0.5,0.1-0.9,0.1-1.3c0-0.4-0.1-0.7-0.1-1
	C176.1,81.7,176.1,81.5,176,81.4z M139.9,85.4c-5.4,0-9.9-4.4-9.9-9.8s4.4-9.8,9.9-9.8c5.4,0,9.9,4.4,9.9,9.8S145.4,85.4,139.9,85.4
	z M154.8,101.7c-3.4,0-6.2-2.8-6.2-6.2c0-3.4,2.8-6.2,6.2-6.2c3.4,0,6.2,2.8,6.2,6.2C160.9,98.9,158.2,101.7,154.8,101.7z"/>
<ellipse transform="matrix(1.058539e-03 -1 1 1.058539e-03 64.2741 215.3835)" class="st1" cx="139.9" cy="75.5" rx="9.8" ry="9.9"/>
<path class="st1" d="M154.8,89.3c-3.4,0-6.2,2.8-6.2,6.2c0,3.4,2.8,6.2,6.2,6.2c3.4,0,6.2-2.8,6.2-6.2
	C160.9,92.1,158.2,89.3,154.8,89.3z"/>
<path class="st5" d="M73.6,41.8C62.6,58,39.9,52.9,39.7,52.9c-1.6-0.4-3.2,0.6-3.6,2.2c-0.4,1.6,0.6,3.2,2.2,3.6
	c0.4,0.1,4.4,1,9.9,1c9,0,22-2.4,30.3-14.6c0.9-1.4,0.6-3.2-0.8-4.2C76.4,40,74.6,40.4,73.6,41.8z"/>
<path class="st5" d="M172.6,52.9c-0.2,0.1-22.9,5.1-33.9-11.1c-0.9-1.4-2.8-1.7-4.2-0.8c-1.4,0.9-1.7,2.8-0.8,4.2
	c8.3,12.2,21.3,14.6,30.3,14.6c5.5,0,9.5-0.9,9.9-1c1.6-0.4,2.6-2,2.2-3.6C175.9,53.5,174.2,52.5,172.6,52.9z"/>
<path class="st7" d="M151,107.1c-9.1,0-16.5,3.4-16.5,7.6s7.4,7.6,16.5,7.6c9.1,0,16.5-3.4,16.5-7.6S160.1,107.1,151,107.1z"/>
<path class="st7" d="M56.5,107.6c-9.1,0-16.5,3.4-16.5,7.6s7.4,7.6,16.5,7.6c9.1,0,16.5-3.4,16.5-7.6S65.6,107.6,56.5,107.6z"/>
</svg>
