<?xml version="1.0" encoding="utf-8"?>
<!-- Generator: Adobe Illustrator 26.0.1, SVG Export Plug-In . SVG Version: 6.00 Build 0)  -->
<svg version="1.1" id="Layer_1" xmlns="http://www.w3.org/2000/svg" xmlns:xlink="http://www.w3.org/1999/xlink" x="0px" y="0px"
	 viewBox="0 0 200 200" style="enable-background:new 0 0 200 200;" xml:space="preserve">
<style type="text/css">
	.st0{fill:#F466BA;}
	.st1{fill:#FFFFFF;}
	.st2{fill:#F89DC6;}
	.st3{fill:#B42026;}
	.st4{fill:#EF3643;}
	.st5{fill:#190D07;}
	.st6{fill:#D53F4C;}
	.st7{fill:#D42049;}
	.st8{fill:#040606;}
	.st9{fill:#751449;}
	.st10{fill:#510D2C;}
	.st11{fill:#76214F;}
	.st12{fill:#C42289;}
	.st13{fill:#A41C6F;}
	.st14{fill:#D03D9A;}
	.st15{fill:#7A171B;}
	.st16{fill:#C62C36;}
	.st17{fill:#F24F57;}
	.st18{fill:#65BED9;}
	.st19{fill:#FF929D;}
	.st20{fill:#F56E1D;}
	.st21{fill:#D93B5A;}
	.st22{fill:#EDC1C2;}
	.st23{fill:#010101;}
	.st24{fill:#030303;}
	.st25{fill:#F8FBFB;}
	.st26{fill:#F5F8F8;}
	.st27{fill:#F6F9F9;}
	.st28{fill:#66CEF5;}
	.st29{fill:#EF8F8F;}
	.st30{fill:#FFE164;}
	.st31{fill:#F7C1C1;}
	.st32{fill:#B6ECFF;}
</style>
<path class="st6" d="M71.6,120.7c0,3.7,2.4,7,6.3,9c2.4-5.8,11.4-9.8,22.7-9.8c11.3,0,20.3,4.1,22.7,9.9c3.2-1.6,6.2-5,6.2-9
	c0-6-6.2-10.8-13.9-10.8c-1.9,0-3.9,0.4-5.9,0.9c-2,0.4-4.1,0.9-6.3,1c-3.4,0.2-6.8-0.4-10.1-0.8c-2.8-0.4-5.5-0.8-8.1-0.8
	c-2.2,0-4.4,0.3-6.4,1.1C75.2,112.8,71.6,116.3,71.6,120.7z"/>
<path class="st7" d="M110.8,130.2c2.5,0.5,4.8,1,7.1,0.9c-2-3-8.7-5.8-17.3-5.8c-8.8,0-15.6,2.9-17.4,6c0.8,0.1,1.6,0.2,2.4,0.2
	c2.7,0,5.4-0.5,8.3-1.1c4.1-0.8,8.3-1.6,12.8-0.9C108.1,129.7,109.5,130,110.8,130.2z"/>
<path class="st5" d="M94.9,135.7c3.8-0.7,7.3-1.4,10.9-0.9c1.3,0.2,2.7,0.5,3.9,0.7c1,0.2,1.9,0.4,2.9,0.6c2.1,0.4,4.3,0.6,6.7,0.4
	c0.8-0.1,1.7-0.2,2.6-0.4c1.1-0.3,2.1-0.6,3.2-1.1c4.9-2.2,9.9-7.5,9.9-14.2c0-9-8.7-16.3-19.4-16.3c-2.5,0-4.8,0.5-7.1,1
	c-1.9,0.4-3.7,0.8-5.4,0.9c-2.8,0.1-5.9-0.3-9-0.8c-5.7-0.9-11.7-1.7-17.4,0.7c-6.4,2.7-10.5,8.4-10.5,14.5c0,7,5.3,13.1,13.1,15.4
	c2,0.6,4.1,0.9,6.3,0.9C88.8,137,91.9,136.3,94.9,135.7z M85.1,110.1c2.6,0,5.3,0.4,8.1,0.8c3.3,0.5,6.7,1,10.1,0.8
	c2.2-0.1,4.3-0.6,6.3-1c2.1-0.5,4-0.9,5.9-0.9c7.7,0,13.9,4.8,13.9,10.8c0,4.1-3.1,7.4-6.2,9c-2.4-5.8-11.4-9.9-22.7-9.9
	c-11.3,0-20.3,4-22.7,9.8c-3.8-2-6.3-5.3-6.3-9c0-4.4,3.6-7.9,7.2-9.4C80.8,110.4,82.9,110.1,85.1,110.1z M93.8,130.4
	c-2.9,0.6-5.6,1.1-8.3,1.1c-0.8,0-1.6-0.1-2.4-0.2c1.8-3.1,8.7-6,17.4-6c8.6,0,15.3,2.8,17.3,5.8c-2.3,0.1-4.6-0.4-7.1-0.9
	c-1.3-0.3-2.7-0.6-4.2-0.8C102.1,128.8,97.9,129.6,93.8,130.4z"/>
<path class="st5" d="M61.1,60.4c-11.4,0-20.7,9.3-20.7,20.7c0,11.4,9.2,20.7,20.7,20.7c11.4,0,20.7-9.3,20.7-20.7
	C81.8,69.7,72.5,60.4,61.1,60.4z M54.7,82.8c-5,0-9.1-4.1-9.1-9.1c0-5,4.1-9.1,9.1-9.1c5,0,9.1,4.1,9.1,9.1
	C63.8,78.7,59.7,82.8,54.7,82.8z M68.4,97.9c-3.2,0-5.7-2.6-5.7-5.7c0-3.2,2.5-5.7,5.7-5.7c3.1,0,5.7,2.6,5.7,5.7
	C74.1,95.4,71.5,97.9,68.4,97.9z"/>
<ellipse class="st1" cx="54.7" cy="73.6" rx="9.1" ry="9.1"/>
<path class="st1" d="M68.4,86.5c-3.2,0-5.7,2.6-5.7,5.7c0,3.2,2.5,5.7,5.7,5.7c3.1,0,5.7-2.6,5.7-5.7C74.1,89,71.5,86.5,68.4,86.5z"
	/>
<path class="st5" d="M140,60.3c-11.4,0-20.7,9.3-20.7,20.7s9.2,20.7,20.7,20.7c11.4,0,20.7-9.3,20.7-20.7S151.4,60.3,140,60.3z
	 M133.5,82.7c-5,0-9.1-4.1-9.1-9.1c0-5,4.1-9.1,9.1-9.1s9.1,4.1,9.1,9.1C142.6,78.6,138.6,82.7,133.5,82.7z M147.2,97.8
	c-3.2,0-5.7-2.6-5.7-5.7c0-3.2,2.5-5.7,5.7-5.7c3.1,0,5.7,2.6,5.7,5.7C152.9,95.2,150.4,97.8,147.2,97.8z"/>
<path class="st1" d="M133.5,64.4c-5,0-9.1,4.1-9.1,9.1c0,5,4.1,9.1,9.1,9.1s9.1-4.1,9.1-9.1C142.6,68.5,138.6,64.4,133.5,64.4z"/>
<path class="st1" d="M147.2,86.4c-3.2,0-5.7,2.6-5.7,5.7c0,3.2,2.5,5.7,5.7,5.7c3.1,0,5.7-2.6,5.7-5.7
	C152.9,88.9,150.4,86.4,147.2,86.4z"/>
<path class="st5" d="M71.2,43.4C61.4,57.8,42,53.5,41.1,53.3c-1.5-0.3-2.9,0.6-3.3,2c-0.3,1.5,0.6,2.9,2,3.3
	c0.4,0.1,3.9,0.9,8.9,0.9c8,0,19.6-2.1,27-13.1c0.8-1.2,0.5-2.9-0.7-3.8C73.8,41.8,72.1,42.1,71.2,43.4z"/>
<path class="st5" d="M162.5,55.3c-0.3-1.5-1.8-2.4-3.3-2c-0.2,0-20.3,4.6-30.1-9.9c-0.8-1.2-2.5-1.6-3.8-0.7
	c-1.2,0.8-1.6,2.5-0.7,3.8c7.4,10.9,19,13.1,27,13.1c4.9,0,8.5-0.8,8.9-0.9C162,58.3,162.9,56.8,162.5,55.3z"/>
<path class="st7" d="M140.5,110.1c0,4.7,8.1,8.4,18.2,8.4s18.2-3.8,18.2-8.4s-8.1-8.4-18.2-8.4S140.5,105.5,140.5,110.1z"/>
<path class="st7" d="M45.7,118.6c10,0,18.2-3.8,18.2-8.4c0-4.7-8.1-8.4-18.2-8.4s-18.2,3.8-18.2,8.4
	C27.5,114.8,35.6,118.6,45.7,118.6z"/>
</svg>
