<?xml version="1.0" encoding="utf-8"?>
<!-- Generator: Adobe Illustrator 26.0.1, SVG Export Plug-In . SVG Version: 6.00 Build 0)  -->
<svg version="1.1" id="Layer_1" xmlns="http://www.w3.org/2000/svg" xmlns:xlink="http://www.w3.org/1999/xlink" x="0px" y="0px"
	 viewBox="0 0 200 200" style="enable-background:new 0 0 200 200;" xml:space="preserve">
<style type="text/css">
	.st0{fill:#F466BA;}
	.st1{fill:#FFFFFF;}
	.st2{fill:#F89DC6;}
	.st3{fill:#B42026;}
	.st4{fill:#EF3643;}
	.st5{fill:#190D07;}
	.st6{fill:#D53F4C;}
	.st7{fill:#D42049;}
	.st8{fill:#040606;}
	.st9{fill:#751449;}
	.st10{fill:#510D2C;}
	.st11{fill:#76214F;}
	.st12{fill:#C42289;}
	.st13{fill:#A41C6F;}
	.st14{fill:#D03D9A;}
	.st15{fill:#7A171B;}
	.st16{fill:#C62C36;}
	.st17{fill:#F24F57;}
	.st18{fill:#65BED9;}
	.st19{fill:#FF929D;}
	.st20{fill:#F56E1D;}
	.st21{fill:#D93B5A;}
	.st22{fill:#EDC1C2;}
	.st23{fill:#010101;}
	.st24{fill:#030303;}
	.st25{fill:#F8FBFB;}
	.st26{fill:#F5F8F8;}
	.st27{fill:#F6F9F9;}
	.st28{fill:#66CEF5;}
	.st29{fill:#EF8F8F;}
	.st30{fill:#FFE164;}
	.st31{fill:#F7C1C1;}
	.st32{fill:#B6ECFF;}
</style>
<path class="st6" d="M92.9,134.1c13.7,0,24.8,5.8,26.6,13.5h1.6c-0.1-1.3-0.3-2.5-0.6-3.7c-0.1-0.5-0.2-1-0.4-1.4
	c-1.3-4.3-3.6-8.3-6.7-11.6H73.6c-0.4,0.4-0.8,0.9-1.3,1.4c-2.5,3-4.3,6.4-5.4,10.1c-0.1,0.5-0.3,0.9-0.4,1.4
	c-0.3,1.3-0.5,2.5-0.6,3.8h0.4C68.1,139.9,79.2,134.1,92.9,134.1z"/>
<path class="st5" d="M125.1,141c-1.5-5.1-4.2-9.9-7.9-13.7c-0.2-0.2-0.4-0.4-0.5-0.5c-0.1-0.1-0.2-0.2-0.3-0.3c0,0,0,0,0,0
	c-0.7-0.6-1.4-1.3-2.1-1.8c-5.4-4.4-12.1-7-19-7.4c-0.6,0-1.1,0-1.7,0c-7.3,0-14.2,2.3-20,6.8c0,0,0,0,0,0c0,0,0,0,0,0
	c0,0-0.1,0.1-0.1,0.1c-0.8,0.6-1.5,1.2-2.3,1.9c-0.1,0.1-0.1,0.1-0.2,0.2c0,0-0.1,0.1-0.1,0.1c0,0-0.1,0.1-0.1,0.1c0,0,0,0,0,0
	c-0.8,0.8-1.6,1.6-2.3,2.5c-3,3.6-5.1,7.6-6.4,12c-0.2,0.5-0.3,1.1-0.4,1.7c-0.6,2.5-0.9,5-0.9,7.6c0,1.4,1.2,2.6,2.6,2.6h5.4h48.5
	h6.6c1.4,0,2.6-1.2,2.6-2.6c0-2.6-0.3-5.1-0.8-7.5C125.4,142.2,125.2,141.6,125.1,141z M106.7,125.7H80.3c4-2.2,8.5-3.3,13.2-3.3
	C98.2,122.4,102.7,123.5,106.7,125.7z M66.6,143.8c0.1-0.4,0.2-0.9,0.4-1.4c1.1-3.7,2.9-7.1,5.4-10.1c0.4-0.5,0.8-0.9,1.3-1.4h39.8
	c3.1,3.2,5.4,7.2,6.7,11.6c0.1,0.5,0.3,0.9,0.4,1.4c0.3,1.2,0.5,2.5,0.6,3.7h-1.6c-1.8-7.7-12.8-13.5-26.6-13.5
	c-13.8,0-24.8,5.8-26.6,13.5h-0.4C66.1,146.4,66.3,145.1,66.6,143.8z M71.8,147.6c2.2-4.3,10.2-8.3,21.1-8.3c10.9,0,18.9,4,21.1,8.3
	H71.8z"/>
<path class="st1" d="M80.3,125.7h26.3c-4-2.2-8.5-3.3-13.2-3.3C88.8,122.4,84.4,123.5,80.3,125.7z"/>
<path class="st7" d="M92.9,139.3c-10.9,0-18.9,4-21.1,8.3H114C111.8,143.3,103.8,139.3,92.9,139.3z"/>
<path class="st5" d="M50.1,65.8c-12.4,0-22.4,10.1-22.4,22.5c0,12.4,10,22.5,22.4,22.5s22.4-10.1,22.4-22.5
	C72.5,75.9,62.5,65.8,50.1,65.8z M43.1,90.1c-5.4,0-9.9-4.4-9.9-9.9c0-5.5,4.4-9.9,9.9-9.9s9.9,4.4,9.9,9.9
	C53,85.6,48.6,90.1,43.1,90.1z M58,106.5c-3.4,0-6.2-2.8-6.2-6.2c0-3.4,2.8-6.2,6.2-6.2c3.4,0,6.2,2.8,6.2,6.2
	C64.1,103.7,61.4,106.5,58,106.5z"/>
<ellipse class="st1" cx="43.1" cy="80.2" rx="9.9" ry="9.9"/>
<path class="st1" d="M58,94.1c-3.4,0-6.2,2.8-6.2,6.2c0,3.4,2.8,6.2,6.2,6.2c3.4,0,6.2-2.8,6.2-6.2C64.1,96.9,61.4,94.1,58,94.1z"/>
<path class="st5" d="M137.4,65.7c-12.4,0-22.4,10.1-22.4,22.5c0,12.4,10,22.5,22.4,22.5s22.4-10.1,22.4-22.5
	C159.8,75.8,149.8,65.7,137.4,65.7z M130.4,89.9c-5.4,0-9.9-4.4-9.9-9.9c0-5.5,4.4-9.9,9.9-9.9c5.4,0,9.9,4.4,9.9,9.9
	C140.3,85.5,135.9,89.9,130.4,89.9z M145.3,106.4c-3.4,0-6.2-2.8-6.2-6.2c0-3.4,2.8-6.2,6.2-6.2c3.4,0,6.2,2.8,6.2,6.2
	C151.4,103.6,148.7,106.4,145.3,106.4z"/>
<path class="st1" d="M130.4,70.1c-5.4,0-9.9,4.4-9.9,9.9c0,5.5,4.4,9.9,9.9,9.9c5.4,0,9.9-4.4,9.9-9.9
	C140.3,74.6,135.9,70.1,130.4,70.1z"/>
<path class="st1" d="M145.3,94c-3.4,0-6.2,2.8-6.2,6.2c0,3.4,2.8,6.2,6.2,6.2c3.4,0,6.2-2.8,6.2-6.2C151.4,96.8,148.7,94,145.3,94z"
	/>
<path class="st7" d="M143.6,112.1c-8.9,0-16,3.3-16,7.4c0,4.1,7.2,7.4,16,7.4c8.8,0,16-3.3,16-7.4
	C159.6,115.5,152.5,112.1,143.6,112.1z"/>
<path class="st7" d="M42.2,112.6c-8.8,0-16,3.3-16,7.4c0,4.1,7.2,7.4,16,7.4c8.9,0,16-3.3,16-7.4C58.2,115.9,51.1,112.6,42.2,112.6z
	"/>
<path class="st5" d="M164.5,58.8c-0.2,0.1-21.5,4.8-31.9-10.5c-0.8-1.2-2.4-1.5-3.6-0.7c-1.2,0.8-1.5,2.4-0.7,3.6
	c7.7,11.4,19.8,13.6,28.1,13.6c5.1,0,8.9-0.8,9.2-0.9c1.4-0.3,2.2-1.7,1.9-3.1C167.2,59.4,165.8,58.5,164.5,58.8z"/>
<path class="st5" d="M61.7,52.9c0.8-1.2,0.5-2.8-0.7-3.6c-1.2-0.8-2.8-0.5-3.6,0.7C47,65.4,25.7,60.6,25.5,60.5
	c-1.4-0.3-2.8,0.5-3.1,1.9c-0.3,1.4,0.5,2.8,1.9,3.1c0.4,0.1,4.1,0.9,9.2,0.9C41.9,66.5,54,64.3,61.7,52.9z"/>
</svg>
