<?xml version="1.0" encoding="utf-8"?>
<!-- Generator: Adobe Illustrator 26.0.1, SVG Export Plug-In . SVG Version: 6.00 Build 0)  -->
<svg version="1.1" id="Layer_1" xmlns="http://www.w3.org/2000/svg" xmlns:xlink="http://www.w3.org/1999/xlink" x="0px" y="0px"
	 viewBox="0 0 200 200" style="enable-background:new 0 0 200 200;" xml:space="preserve">
<style type="text/css">
	.st0{fill:#F466BA;}
	.st1{fill:#FFFFFF;}
	.st2{fill:#F89DC6;}
	.st3{fill:#B42026;}
	.st4{fill:#EF3643;}
	.st5{fill:#190D07;}
	.st6{fill:#D53F4C;}
	.st7{fill:#D42049;}
	.st8{fill:#040606;}
	.st9{fill:#751449;}
	.st10{fill:#510D2C;}
	.st11{fill:#76214F;}
	.st12{fill:#C42289;}
	.st13{fill:#A41C6F;}
	.st14{fill:#D03D9A;}
	.st15{fill:#7A171B;}
	.st16{fill:#C62C36;}
	.st17{fill:#F24F57;}
	.st18{fill:#65BED9;}
	.st19{fill:#FF929D;}
	.st20{fill:#F56E1D;}
	.st21{fill:#D93B5A;}
	.st22{fill:#EDC1C2;}
	.st23{fill:#010101;}
	.st24{fill:#030303;}
	.st25{fill:#F8FBFB;}
	.st26{fill:#F5F8F8;}
	.st27{fill:#F6F9F9;}
	.st28{fill:#66CEF5;}
	.st29{fill:#EF8F8F;}
	.st30{fill:#FFE164;}
	.st31{fill:#F7C1C1;}
	.st32{fill:#B6ECFF;}
</style>
<path d="M37.9,105.8c2.1-0.1,3.8-1.9,3.7-4h0v0c0,0,0-0.2,0-0.4c0-0.8,0-2.6,0.4-5c0.2-1.7,0.6-3.7,1.3-5.7c0.5-1.5,1.1-3,1.8-4.4
	c1.1-2.1,2.6-4,4.5-5.4c0.9-0.7,2-1.3,3.2-1.9c1.2-0.5,2.6-0.9,4.1-1.1c0.9-0.1,1.7-0.2,2.5-0.2c1.7,0,3.3,0.3,4.7,0.7
	c1.2,0.4,2.4,1,3.4,1.7c1.9,1.2,3.5,2.8,4.9,4.6c2.1,2.7,3.6,5.7,4.5,8.1c0.5,1.2,0.8,2.2,1,2.9c0.1,0.3,0.2,0.6,0.2,0.8
	c0,0.1,0,0.2,0.1,0.2l0,0l0,0l0,0l0,0v0l0,0c0.5,2,2.6,3.3,4.7,2.8c2.1-0.5,3.3-2.6,2.8-4.6c0-0.1-0.4-1.6-1.3-3.8
	c-0.6-1.7-1.5-3.8-2.8-6c-1.8-3.3-4.4-7-8.1-9.9c-1.8-1.5-3.9-2.7-6.3-3.6c-2.4-0.9-5-1.4-7.9-1.4c-1.2,0-2.3,0.1-3.6,0.3
	c-2.6,0.4-4.9,1.1-7,2.1c-1.8,0.9-3.4,2-4.9,3.2c-2.5,2.1-4.3,4.7-5.7,7.3c-2.1,3.9-3.1,7.9-3.7,11.3c-0.6,3.4-0.6,6-0.6,7.3
	c0,0.4,0,0.7,0,0.7C34,104.2,35.8,105.9,37.9,105.8z"/>
<path d="M155.2,101.8L155.2,101.8L155.2,101.8c-0.1,2.1,1.6,3.9,3.7,4c2.1,0.1,3.9-1.6,4-3.7c0,0,0-0.3,0-0.7c0-1.1-0.1-3.2-0.4-6
	c-0.3-2.1-0.8-4.5-1.5-7c-0.6-1.9-1.4-3.8-2.4-5.7c-1.5-2.9-3.6-5.6-6.5-7.9c-1.4-1.1-3.1-2.1-4.9-2.9c-1.8-0.8-3.8-1.3-6-1.6
	c-1.2-0.2-2.4-0.3-3.6-0.3c-2.6,0-4.9,0.4-7.1,1.1c-1.9,0.6-3.6,1.5-5.2,2.5c-2.7,1.8-4.9,4-6.7,6.3c-2.7,3.5-4.5,7.1-5.6,9.9
	c-1.1,2.8-1.6,4.7-1.7,4.9c-0.5,2.1,0.7,4.1,2.8,4.6c2.1,0.5,4.1-0.7,4.7-2.8c0-0.1,0.4-1.5,1.1-3.4c0.6-1.4,1.3-3.2,2.4-5
	c1.5-2.7,3.6-5.4,6.1-7.4c1.3-1,2.6-1.8,4.1-2.3c1.5-0.6,3.2-0.9,5.1-0.9c0.8,0,1.6,0.1,2.5,0.2c1.8,0.3,3.4,0.8,4.8,1.4
	c1.2,0.6,2.2,1.3,3.1,2.1c1.6,1.4,2.9,3.1,3.9,5.1c1.5,2.9,2.4,6.2,2.9,9c0.5,2.8,0.5,5.1,0.5,6
	C155.2,101.6,155.2,101.7,155.2,101.8L155.2,101.8z"/>
<path d="M62.2,55.3c1.9,0-0.1-10.1-4.6-9.6c-4.5,0.5-25,7.7-31,27.2C34.1,57.4,60.3,55.2,62.2,55.3z"/>
<path d="M135.9,45.1c-4.4-0.7-6.9,9.3-5,9.4c1.9,0,28,3.3,34.9,19.1C160.6,53.8,140.4,45.8,135.9,45.1z"/>
<path d="M76.8,124.1c0,15.2,10.8,40.9,24.1,40.9c13.3,0,24.1-25.8,24.1-40.9H76.8z M100.9,161.9c-7.3,0-13.7-9.2-17.3-19.2
	c0,0,5.4-5.9,17.3-5.9c12,0,17.3,5.9,17.3,5.9C114.6,152.7,108.2,161.9,100.9,161.9z"/>
<path class="st21" d="M100.9,136.9c-11.9,0-17.3,5.9-17.3,5.9c3.6,10,10,19.2,17.3,19.2c7.3,0,13.7-9.2,17.3-19.2
	C118.2,142.7,112.8,136.9,100.9,136.9z"/>
</svg>
