<?xml version="1.0" encoding="utf-8"?>
<!-- Generator: Adobe Illustrator 26.0.1, SVG Export Plug-In . SVG Version: 6.00 Build 0)  -->
<svg version="1.1" id="Layer_1" xmlns="http://www.w3.org/2000/svg" xmlns:xlink="http://www.w3.org/1999/xlink" x="0px" y="0px"
	 viewBox="0 0 200 200" style="enable-background:new 0 0 200 200;" xml:space="preserve">
<style type="text/css">
	.st0{fill:#F466BA;}
	.st1{fill:#FFFFFF;}
	.st2{fill:#F89DC6;}
	.st3{fill:#B42026;}
	.st4{fill:#EF3643;}
	.st5{fill:#190D07;}
	.st6{fill:#D53F4C;}
	.st7{fill:#D42049;}
	.st8{fill:#040606;}
	.st9{fill:#751449;}
	.st10{fill:#510D2C;}
	.st11{fill:#76214F;}
	.st12{fill:#C42289;}
	.st13{fill:#A41C6F;}
	.st14{fill:#D03D9A;}
	.st15{fill:#7A171B;}
	.st16{fill:#C62C36;}
	.st17{fill:#F24F57;}
	.st18{fill:#65BED9;}
	.st19{fill:#FF929D;}
	.st20{fill:#F56E1D;}
	.st21{fill:#D93B5A;}
	.st22{fill:#EDC1C2;}
	.st23{fill:#010101;}
	.st24{fill:#030303;}
	.st25{fill:#F8FBFB;}
	.st26{fill:#F5F8F8;}
	.st27{fill:#F6F9F9;}
	.st28{fill:#66CEF5;}
	.st29{fill:#EF8F8F;}
	.st30{fill:#FFE164;}
	.st31{fill:#F7C1C1;}
	.st32{fill:#B6ECFF;}
</style>
<path class="st5" d="M60.8,85.3c7.9,0,15.2,0.9,21.3,2.5c0.6-2,0.8-4.2,0.8-6.4c0-13.7-11.1-24.9-24.9-24.9
	c-13.8,0-24.9,11.1-24.9,24.9c0,2.8,0.5,5.5,1.3,7.9C41.4,86.8,50.6,85.3,60.8,85.3z M75.7,74.1c3.2,0,5.7,2.6,5.7,5.7
	c0,3.2-2.6,5.7-5.7,5.7c-3.2,0-5.7-2.6-5.7-5.7C69.9,76.6,72.5,74.1,75.7,74.1z M50.2,63c5.2,0,9.4,4.2,9.4,9.4
	c0,5.2-4.2,9.4-9.4,9.4c-5.2,0-9.4-4.2-9.4-9.4C40.8,67.2,45,63,50.2,63z"/>
<path class="st1" d="M50.2,81.8c5.2,0,9.4-4.2,9.4-9.4c0-5.2-4.2-9.4-9.4-9.4c-5.2,0-9.4,4.2-9.4,9.4C40.8,77.6,45,81.8,50.2,81.8z"
	/>
<path class="st1" d="M75.7,85.5c3.2,0,5.7-2.6,5.7-5.7c0-3.2-2.6-5.7-5.7-5.7c-3.2,0-5.7,2.6-5.7,5.7C69.9,83,72.5,85.5,75.7,85.5z"
	/>
<path class="st5" d="M136.7,56.5c-13.8,0-24.9,11.1-24.9,24.9c0,2.8,0.5,5.5,1.3,7.9c6.9-2.5,16.2-4,26.4-4c7.9,0,15.2,0.9,21.3,2.5
	c0.6-2,0.8-4.2,0.8-6.4C161.6,67.7,150.4,56.5,136.7,56.5z M128.9,81.8c-5.2,0-9.4-4.2-9.4-9.4c0-5.2,4.2-9.4,9.4-9.4
	c5.2,0,9.4,4.2,9.4,9.4C138.3,77.6,134.1,81.8,128.9,81.8z M160.1,79.8c0,3.2-2.6,5.7-5.7,5.7c-3.2,0-5.7-2.6-5.7-5.7
	c0-3.2,2.6-5.7,5.7-5.7C157.5,74.1,160.1,76.6,160.1,79.8z"/>
<path class="st1" d="M128.9,63c-5.2,0-9.4,4.2-9.4,9.4c0,5.2,4.2,9.4,9.4,9.4c5.2,0,9.4-4.2,9.4-9.4C138.3,67.2,134.1,63,128.9,63z"
	/>
<path class="st1" d="M148.6,79.8c0,3.2,2.6,5.7,5.7,5.7c3.2,0,5.7-2.6,5.7-5.7c0-3.2-2.6-5.7-5.7-5.7
	C151.1,74.1,148.6,76.6,148.6,79.8z"/>
<path class="st5" d="M61.2,103.2c0-1.3-1.1-2.4-2.4-2.4s-2.4,1.1-2.4,2.4c0,16,14.6,29.5,34.6,32.1c0.1,0,0.2,0,0.3,0
	c0.9,1.8,2.2,3.5,3.6,5l9.5,9.5c3.8,3.8,8.9,5.9,14.4,5.9c5.4,0,10.5-2.1,14.4-5.9c0,0,0,0,0,0c3.8-3.8,5.9-8.9,5.9-14.4
	c0-5.4-2.1-10.5-5.9-14.3l-0.2-0.2c0.7-0.9,1.5-1.8,2.1-2.8c3-4.6,4.6-9.8,4.6-15c0-1.3-1.1-2.4-2.4-2.4s-2.4,1.1-2.4,2.4
	c0,4.3-1.3,8.5-3.8,12.3c-0.9,1.4-2,2.7-3.1,3.9C121,126.7,109.8,131,98,131c-0.2,0-0.4,0-0.6,0c-1.4,0-2.8-0.2-4.2-0.4
	c-0.3-0.1-0.7,0-1,0.1c-0.2,0-0.4,0-0.6-0.1C74,128.3,61.2,116.8,61.2,103.2z M115.5,132.9l5.1,5.1c0.5,0.5,1.1,0.7,1.7,0.7
	c0.6,0,1.2-0.2,1.7-0.7c0.9-0.9,0.9-2.5,0-3.4l-3.7-3.7c3.5-1.7,6.6-3.8,9.4-6.3l0.1,0.1c2.9,2.9,4.5,6.8,4.5,10.9
	c0,4.1-1.6,8-4.5,10.9c-2.9,2.9-6.8,4.5-11,4.5c-4.1,0-8-1.6-11-4.5l-9.5-9.5c-0.4-0.4-0.7-0.8-1-1.2c0,0,0,0,0,0c0.3,0,0.5,0,0.8,0
	C104.2,135.9,110.1,134.8,115.5,132.9z"/>
<path class="st7" d="M97.2,135.8c0.3,0.4,0.7,0.8,1,1.2l9.5,9.5c2.9,2.9,6.8,4.5,11,4.5c4.1,0,8-1.6,11-4.5
	c2.9-2.9,4.5-6.8,4.5-10.9c0-4.1-1.6-8-4.5-10.9l-0.1-0.1c-2.7,2.5-5.9,4.6-9.4,6.3l3.7,3.7c0.9,0.9,0.9,2.5,0,3.4
	c-0.5,0.5-1.1,0.7-1.7,0.7c-0.6,0-1.2-0.2-1.7-0.7l-5.1-5.1c-5.4,1.9-11.3,3-17.5,3C97.7,135.9,97.5,135.9,97.2,135.8
	C97.2,135.8,97.2,135.8,97.2,135.8z"/>
</svg>
