<?xml version="1.0" encoding="utf-8"?>
<!-- Generator: Adobe Illustrator 26.0.1, SVG Export Plug-In . SVG Version: 6.00 Build 0)  -->
<svg version="1.1" id="Layer_1" xmlns="http://www.w3.org/2000/svg" xmlns:xlink="http://www.w3.org/1999/xlink" x="0px" y="0px"
	 viewBox="0 0 200 200" style="enable-background:new 0 0 200 200;" xml:space="preserve">
<style type="text/css">
	.st0{fill:#F466BA;}
	.st1{fill:#FFFFFF;}
	.st2{fill:#F89DC6;}
	.st3{fill:#B42026;}
	.st4{fill:#EF3643;}
	.st5{fill:#190D07;}
	.st6{fill:#D53F4C;}
	.st7{fill:#D42049;}
	.st8{fill:#040606;}
	.st9{fill:#751449;}
	.st10{fill:#510D2C;}
	.st11{fill:#76214F;}
	.st12{fill:#C42289;}
	.st13{fill:#A41C6F;}
	.st14{fill:#D03D9A;}
	.st15{fill:#7A171B;}
	.st16{fill:#C62C36;}
	.st17{fill:#F24F57;}
	.st18{fill:#65BED9;}
	.st19{fill:#FF929D;}
	.st20{fill:#F56E1D;}
	.st21{fill:#D93B5A;}
	.st22{fill:#EDC1C2;}
	.st23{fill:#010101;}
	.st24{fill:#030303;}
	.st25{fill:#F8FBFB;}
	.st26{fill:#F5F8F8;}
	.st27{fill:#F6F9F9;}
	.st28{fill:#66CEF5;}
	.st29{fill:#EF8F8F;}
	.st30{fill:#FFE164;}
	.st31{fill:#F7C1C1;}
	.st32{fill:#B6ECFF;}
</style>
<path class="st6" d="M78.1,123.9c1.4,3.2,3.3,6.2,5.8,8.7c0.1,0.1,0.2,0.2,0.3,0.3c0,0,0.1,0.1,0.1,0.1c0.1,0.1,0.2,0.2,0.3,0.3
	c5.2-4.9,12.1-7.7,19.4-7.7c7.6,0,14.7,3,20,8.3c0.1-0.1,0.2-0.1,0.3-0.2c0.9-0.8,1.7-1.7,2.4-2.6c1.8-2.2,3.3-4.6,4.4-7.2H78.1z"/>
<path class="st5" d="M71.8,122C71.8,122,71.8,122,71.8,122C71.8,122,71.8,122,71.8,122C71.8,122.1,71.8,122.1,71.8,122
	c1.5,5.3,4.4,10.2,8.2,14.2c0.2,0.2,0.3,0.4,0.5,0.5c0.8,0.8,1.6,1.5,2.5,2.2c6.1,5,13.7,7.7,21.5,7.7c0.5,0,0.9,0,1.4,0
	c0.5,0,1-0.1,1.5-0.1c6.5-0.6,12.6-2.9,17.8-6.9c0,0,0,0,0,0c0,0,0,0,0,0c0,0,0,0,0,0c0.8-0.6,1.6-1.3,2.5-2.1c1-1,2-2,2.9-3
	c3.1-3.7,5.3-7.9,6.7-12.5c0.2-0.6,0.3-1.1,0.4-1.7c0.6-2.6,0.9-5.2,0.9-7.9c0-1.5-1.2-2.6-2.6-2.6h-63c-1.5,0-2.6,1.2-2.6,2.6
	c0,2.6,0.3,5.3,0.9,7.8C71.5,120.9,71.7,121.5,71.8,122z M104.6,141.4c-5.7,0-11.2-1.6-15.8-4.8c4.2-3.7,9.6-5.8,15.2-5.8
	c5.9,0,11.5,2.2,15.7,6.2C115.2,140,110,141.4,104.6,141.4z M124.2,133.7c-0.1,0.1-0.2,0.2-0.3,0.2c-5.3-5.3-12.4-8.3-20-8.3
	c-7.2,0-14.1,2.8-19.4,7.7c-0.1-0.1-0.2-0.2-0.3-0.3c0,0-0.1-0.1-0.1-0.1c-0.1-0.1-0.2-0.2-0.3-0.3c-2.4-2.5-4.4-5.5-5.8-8.7h53
	c-1.1,2.6-2.6,5-4.4,7.2C125.9,132,125.1,132.9,124.2,133.7z M132.8,118.7H76.4c-0.3-1.2-0.4-2.4-0.5-3.6h57.5
	C133.2,116.3,133,117.5,132.8,118.7z"/>
<path class="st7" d="M104,130.9c-5.6,0-11,2.1-15.2,5.8c4.7,3.1,10.1,4.8,15.8,4.8c5.4,0,10.6-1.5,15.1-4.3
	C115.5,133.2,109.9,130.9,104,130.9z"/>
<path class="st1" d="M75.9,115.1c0.1,1.2,0.3,2.4,0.5,3.6h56.4c0.3-1.2,0.4-2.4,0.5-3.6H75.9z"/>
<path class="st5" d="M86,73.4c0-0.9-0.5-1.8-1.3-2.3L47,49.2c-1.3-0.7-2.9-0.3-3.6,1c-0.7,1.3-0.3,2.9,1,3.6l33.8,19.6L44.3,93
	c-1.3,0.7-1.7,2.3-1,3.6c0.5,0.8,1.4,1.3,2.3,1.3c0.4,0,0.9-0.1,1.3-0.4l37.7-21.9C85.5,75.2,86,74.3,86,73.4z"/>
<path class="st5" d="M165.1,50.2c-0.7-1.3-2.3-1.7-3.6-1l-37.7,21.9c-0.8,0.5-1.3,1.3-1.3,2.3c0,0.9,0.5,1.8,1.3,2.3l37.7,21.9
	c0.4,0.2,0.9,0.4,1.3,0.4c0.9,0,1.8-0.5,2.3-1.3c0.7-1.3,0.3-2.9-1-3.6l-33.8-19.6l33.8-19.6C165.4,53.1,165.8,51.4,165.1,50.2z"/>
<path class="st7" d="M160.2,105.1c-8.8,0-15.9,3.3-15.9,7.4c0,4.1,7.1,7.4,15.9,7.4c8.8,0,15.9-3.3,15.9-7.4
	C176.1,108.4,169,105.1,160.2,105.1z"/>
<ellipse class="st7" cx="47.8" cy="109.5" rx="15.9" ry="7.4"/>
</svg>
