<?xml version="1.0" encoding="utf-8"?>
<!-- Generator: Adobe Illustrator 26.0.1, SVG Export Plug-In . SVG Version: 6.00 Build 0)  -->
<svg version="1.1" id="Layer_1" xmlns="http://www.w3.org/2000/svg" xmlns:xlink="http://www.w3.org/1999/xlink" x="0px" y="0px"
	 viewBox="0 0 200 200" style="enable-background:new 0 0 200 200;" xml:space="preserve">
<style type="text/css">
	.st0{fill:#F466BA;}
	.st1{fill:#FFFFFF;}
	.st2{fill:#F89DC6;}
	.st3{fill:#B42026;}
	.st4{fill:#EF3643;}
	.st5{fill:#190D07;}
	.st6{fill:#D53F4C;}
	.st7{fill:#D42049;}
	.st8{fill:#040606;}
	.st9{fill:#751449;}
	.st10{fill:#510D2C;}
	.st11{fill:#76214F;}
	.st12{fill:#C42289;}
	.st13{fill:#A41C6F;}
	.st14{fill:#D03D9A;}
	.st15{fill:#7A171B;}
	.st16{fill:#C62C36;}
	.st17{fill:#F24F57;}
	.st18{fill:#65BED9;}
	.st19{fill:#FF929D;}
	.st20{fill:#F56E1D;}
	.st21{fill:#D93B5A;}
	.st22{fill:#EDC1C2;}
	.st23{fill:#010101;}
	.st24{fill:#030303;}
	.st25{fill:#F8FBFB;}
	.st26{fill:#F5F8F8;}
	.st27{fill:#F6F9F9;}
	.st28{fill:#66CEF5;}
	.st29{fill:#EF8F8F;}
	.st30{fill:#FFE164;}
	.st31{fill:#F7C1C1;}
	.st32{fill:#B6ECFF;}
</style>
<path class="st6" d="M77.5,133c1.5,3.5,3.7,6.7,6.3,9.5c0.1,0.1,0.3,0.3,0.4,0.4c0,0,0.1,0,0.1,0.1c0.1,0.1,0.2,0.2,0.3,0.3
	c5.8-5.4,13.5-8.5,21.6-8.5c8.4,0,16.4,3.3,22.3,9.2c0.1-0.1,0.2-0.1,0.2-0.2c1-0.9,1.9-1.9,2.7-2.8c2-2.4,3.6-5,4.9-7.8H77.5z"/>
<path class="st7" d="M123.6,147.5c-4.7-4.4-10.9-6.8-17.4-6.8c-6.2,0-12.2,2.3-16.8,6.3c5.2,3.4,11.2,5.2,17.5,5.2
	C112.9,152.2,118.6,150.6,123.6,147.5z"/>
<path class="st1" d="M74.9,123.2c0.1,1.3,0.3,2.6,0.6,3.8h62.8c0.3-1.3,0.5-2.5,0.6-3.8H74.9z"/>
<path class="st5" d="M142,117.2H71.8c-1.7,0-3,1.3-3,3c0,2.9,0.3,5.8,1,8.7c0.2,0.7,0.3,1.3,0.5,2c0,0,0,0,0,0
	c1.7,5.9,4.9,11.4,9.2,15.8c0.2,0.2,0.4,0.4,0.6,0.6c0.9,0.9,1.9,1.7,2.8,2.5c6.8,5.5,15.3,8.5,24,8.5c0.5,0,1.1,0,1.6,0
	c1,0,2-0.1,3-0.2c0.1,0,0.2,0,0.3,0c6.7-0.8,12.9-3.4,18.3-7.5c0.9-0.7,1.9-1.5,2.8-2.3c1.2-1.1,2.3-2.2,3.2-3.4
	c3.5-4.1,6-8.8,7.4-13.8c0.2-0.6,0.4-1.3,0.5-1.9c0.7-2.9,1-5.8,1-8.8C145,118.5,143.7,117.2,142,117.2z M89.4,147
	c4.6-4,10.6-6.3,16.8-6.3c6.5,0,12.7,2.5,17.4,6.8c-5,3.1-10.7,4.7-16.7,4.7C100.6,152.2,94.6,150.4,89.4,147z M128.7,143.7
	c-0.1,0.1-0.2,0.1-0.2,0.2c-5.9-5.9-13.9-9.2-22.3-9.2c-8,0-15.8,3.1-21.6,8.5c-0.1-0.1-0.2-0.2-0.3-0.3c0,0-0.1,0-0.1-0.1
	c-0.1-0.1-0.3-0.3-0.4-0.4c-2.7-2.7-4.8-6-6.3-9.5h58.8c-1.2,2.8-2.9,5.4-4.9,7.8C130.7,141.8,129.7,142.7,128.7,143.7z M138.3,127
	H75.5c-0.3-1.3-0.5-2.5-0.6-3.8h63.9C138.7,124.5,138.6,125.7,138.3,127z"/>
<path class="st5" d="M38.6,102.6c0.6,1,1.6,1.5,2.6,1.5c0.5,0,1-0.1,1.5-0.4l42.1-24.2c0.9-0.5,1.5-1.5,1.5-2.6
	c0-1.1-0.6-2.1-1.5-2.6L42.7,50.1c-1.4-0.8-3.3-0.3-4.1,1.1c-0.8,1.4-0.3,3.3,1.1,4.1l37.6,21.6L39.7,98.5
	C38.3,99.4,37.8,101.2,38.6,102.6z"/>
<path class="st5" d="M174.4,51.2c-0.8-1.4-2.7-1.9-4.1-1.1l-42.1,24.2c-0.9,0.5-1.5,1.5-1.5,2.6c0,1.1,0.6,2.1,1.5,2.6l42.1,24.2
	c0.5,0.3,1,0.4,1.5,0.4c1,0,2-0.5,2.6-1.5c0.8-1.4,0.3-3.3-1.1-4.1l-37.5-21.6l37.5-21.6C174.7,54.4,175.2,52.6,174.4,51.2z"/>
<ellipse class="st7" cx="168.9" cy="120.2" rx="17.7" ry="8.2"/>
<path class="st7" d="M43.6,108.7c-9.8,0-17.7,3.7-17.7,8.2c0,4.5,7.9,8.2,17.7,8.2s17.7-3.7,17.7-8.2
	C61.3,112.4,53.4,108.7,43.6,108.7z"/>
</svg>
