<?xml version="1.0" encoding="utf-8"?>
<!-- Generator: Adobe Illustrator 26.0.1, SVG Export Plug-In . SVG Version: 6.00 Build 0)  -->
<svg version="1.1" id="Layer_1" xmlns="http://www.w3.org/2000/svg" xmlns:xlink="http://www.w3.org/1999/xlink" x="0px" y="0px"
	 viewBox="0 0 200 200" style="enable-background:new 0 0 200 200;" xml:space="preserve">
<style type="text/css">
	.st0{fill:#F466BA;}
	.st1{fill:#FFFFFF;}
	.st2{fill:#F89DC6;}
	.st3{fill:#B42026;}
	.st4{fill:#EF3643;}
	.st5{fill:#190D07;}
	.st6{fill:#D53F4C;}
	.st7{fill:#D42049;}
	.st8{fill:#040606;}
	.st9{fill:#751449;}
	.st10{fill:#510D2C;}
	.st11{fill:#76214F;}
	.st12{fill:#C42289;}
	.st13{fill:#A41C6F;}
	.st14{fill:#D03D9A;}
	.st15{fill:#7A171B;}
	.st16{fill:#C62C36;}
	.st17{fill:#F24F57;}
	.st18{fill:#65BED9;}
	.st19{fill:#FF929D;}
	.st20{fill:#F56E1D;}
	.st21{fill:#D93B5A;}
	.st22{fill:#EDC1C2;}
	.st23{fill:#010101;}
	.st24{fill:#030303;}
	.st25{fill:#F8FBFB;}
	.st26{fill:#F5F8F8;}
	.st27{fill:#F6F9F9;}
	.st28{fill:#66CEF5;}
	.st29{fill:#EF8F8F;}
	.st30{fill:#FFE164;}
	.st31{fill:#F7C1C1;}
	.st32{fill:#B6ECFF;}
</style>
<path class="st5" d="M81.1,82.5c0-13.2-10.7-23.9-23.9-23.9c-13.2,0-23.9,10.7-23.9,23.9s10.7,23.9,23.9,23.9
	C70.4,106.4,81.1,95.7,81.1,82.5z M65.6,88.7c3.6,0,6.6,3,6.6,6.6c0,3.6-3,6.6-6.6,6.6c-3.6,0-6.6-3-6.6-6.6
	C59,91.6,62,88.7,65.6,88.7z M49.8,84.4c-5.8,0-10.5-4.7-10.5-10.5s4.7-10.5,10.5-10.5c5.8,0,10.5,4.7,10.5,10.5
	S55.6,84.4,49.8,84.4z"/>
<path class="st1" d="M49.8,63.3c-5.8,0-10.5,4.7-10.5,10.5s4.7,10.5,10.5,10.5c5.8,0,10.5-4.7,10.5-10.5S55.6,63.3,49.8,63.3z"/>
<path class="st1" d="M65.6,101.9c3.6,0,6.6-3,6.6-6.6c0-3.6-3-6.6-6.6-6.6c-3.6,0-6.6,3-6.6,6.6C59,98.9,62,101.9,65.6,101.9z"/>
<path class="st5" d="M148.5,58.5c-13.2,0-23.9,10.7-23.9,23.9c0,13.2,10.7,23.9,23.9,23.9c13.2,0,23.9-10.7,23.9-23.9
	C172.3,69.2,161.6,58.5,148.5,58.5z M141,84.3c-5.8,0-10.5-4.7-10.5-10.5c0-5.8,4.7-10.5,10.5-10.5c5.8,0,10.5,4.7,10.5,10.5
	C151.5,79.5,146.8,84.3,141,84.3z M156.8,101.7c-3.6,0-6.6-2.9-6.6-6.6c0-3.6,3-6.6,6.6-6.6s6.6,3,6.6,6.6
	C163.4,98.8,160.5,101.7,156.8,101.7z"/>
<path class="st1" d="M141,63.2c-5.8,0-10.5,4.7-10.5,10.5c0,5.8,4.7,10.5,10.5,10.5c5.8,0,10.5-4.7,10.5-10.5
	C151.5,67.9,146.8,63.2,141,63.2z"/>
<ellipse class="st1" cx="156.8" cy="95.1" rx="6.6" ry="6.6"/>
<path class="st5" d="M132.7,118.2c0-1.5-1.2-2.7-2.7-2.7c-1.5,0-2.7,1.2-2.7,2.7c0,14.5-11.8,26.3-26.3,26.3s-26.3-11.8-26.3-26.3
	c0-1.5-1.2-2.7-2.7-2.7s-2.7,1.2-2.7,2.7c0,17.5,14.2,31.7,31.7,31.7C118.4,149.9,132.7,135.6,132.7,118.2z"/>
<path class="st7" d="M31.1,115.1c0,4.2,7.4,7.7,16.6,7.7c9.2,0,16.6-3.4,16.6-7.7c0-4.2-7.4-7.7-16.6-7.7
	C38.6,107.5,31.1,110.9,31.1,115.1z"/>
<path class="st7" d="M172.5,115.1c0-4.2-7.4-7.7-16.6-7.7c-9.2,0-16.6,3.4-16.6,7.7c0,4.2,7.4,7.7,16.6,7.7
	C165.1,122.8,172.5,119.4,172.5,115.1z"/>
</svg>
