<?xml version="1.0" encoding="utf-8"?>
<!-- Generator: Adobe Illustrator 26.0.1, SVG Export Plug-In . SVG Version: 6.00 Build 0)  -->
<svg version="1.1" id="Layer_1" xmlns="http://www.w3.org/2000/svg" xmlns:xlink="http://www.w3.org/1999/xlink" x="0px" y="0px"
	 viewBox="0 0 200 200" style="enable-background:new 0 0 200 200;" xml:space="preserve">
<style type="text/css">
	.st0{fill:#F466BA;}
	.st1{fill:#FFFFFF;}
	.st2{fill:#F89DC6;}
	.st3{fill:#B42026;}
	.st4{fill:#EF3643;}
	.st5{fill:#190D07;}
	.st6{fill:#D53F4C;}
	.st7{fill:#D42049;}
	.st8{fill:#040606;}
	.st9{fill:#751449;}
	.st10{fill:#510D2C;}
	.st11{fill:#76214F;}
	.st12{fill:#C42289;}
	.st13{fill:#A41C6F;}
	.st14{fill:#D03D9A;}
	.st15{fill:#7A171B;}
	.st16{fill:#C62C36;}
	.st17{fill:#F24F57;}
	.st18{fill:#65BED9;}
	.st19{fill:#FF929D;}
	.st20{fill:#F56E1D;}
	.st21{fill:#D93B5A;}
	.st22{fill:#EDC1C2;}
	.st23{fill:#010101;}
	.st24{fill:#030303;}
	.st25{fill:#F8FBFB;}
	.st26{fill:#F5F8F8;}
	.st27{fill:#F6F9F9;}
	.st28{fill:#66CEF5;}
	.st29{fill:#EF8F8F;}
	.st30{fill:#FFE164;}
	.st31{fill:#F7C1C1;}
	.st32{fill:#B6ECFF;}
</style>
<path class="st5" d="M29.9,89.7c0.3,0.2,0.6,0.5,0.9,0.7l1,0.6c0.7,0.5,1.3,0.8,2,1.2c0.7,0.4,1.4,0.6,2,0.8c0.3,0.1,0.7,0.1,1,0.1
	c0.3,0,0.7,0,1-0.1c0.1,0,0.2,0,0.3-0.1c3.8,10.1,13.4,17.3,24.7,17.3c14.6,0,26.4-11.9,26.4-26.6c0-14.7-11.8-26.6-26.4-26.6
	c-12.1,0-22.4,8.3-25.5,19.5c0,0-0.1,0-0.1,0c-0.3,0-0.6,0-0.8,0c-0.3,0-0.6-0.1-0.8-0.1l-0.8-0.2c-0.3-0.1-0.5-0.2-0.7-0.3
	c-0.5-0.2-0.9-0.4-1.4-0.6c-0.2-0.1-0.4-0.3-0.6-0.4c-0.1-0.1-0.2-0.1-0.3-0.2c-0.1-0.1-0.2-0.2-0.3-0.2c-0.2-0.2-0.4-0.3-0.5-0.5
	c-0.1-0.2-0.3-0.4-0.4-0.5c-0.2-0.4-0.5-0.7-0.6-1c-0.2-0.3-0.3-0.6-0.4-0.9c-0.1-0.3-0.1-0.5-0.2-0.6c0-0.1,0-0.2,0-0.2
	c0-0.1-0.1-0.2-0.2-0.3c-0.2-0.1-0.3,0-0.4,0.1l0,0c0,0,0,0.1-0.1,0.2c-0.1,0.2-0.1,0.4-0.2,0.7c0,0.3-0.1,0.7-0.1,1.1
	c0,0.5,0,1,0.1,1.5c0.1,0.3,0.1,0.6,0.2,0.9c0.1,0.3,0.2,0.6,0.3,0.9c0.1,0.2,0.1,0.3,0.2,0.5c0.1,0.2,0.2,0.3,0.3,0.5
	c0.2,0.3,0.4,0.6,0.6,0.9c0.5,0.6,1,1.2,1.6,1.7c0.3,0.2,0.6,0.5,0.9,0.7l1,0.6c0.7,0.5,1.3,0.8,2,1.2c0.3,0.2,0.5,0.3,0.8,0.4
	c0,0.4,0,0.8,0,1.1c0,1,0.1,2,0.2,3c-0.4,0-0.9,0-1.3,0c-0.3,0-0.6,0-0.8,0c-0.3,0-0.5-0.1-0.8-0.1L33,86.3
	c-0.3-0.1-0.5-0.2-0.7-0.3c-0.5-0.2-0.9-0.4-1.4-0.6c-0.2-0.1-0.4-0.3-0.6-0.4c-0.1-0.1-0.2-0.1-0.3-0.2c-0.1-0.1-0.2-0.2-0.3-0.2
	c-0.2-0.2-0.4-0.3-0.5-0.5c-0.1-0.2-0.3-0.4-0.4-0.5c-0.2-0.4-0.5-0.7-0.6-1c-0.2-0.3-0.3-0.6-0.4-0.9c-0.1-0.3-0.1-0.5-0.2-0.6
	c0-0.1-0.1-0.2-0.1-0.2c0-0.1-0.1-0.2-0.2-0.3c-0.2-0.1-0.3,0-0.4,0.1l0,0c0,0,0,0.1-0.1,0.2c-0.1,0.2-0.1,0.4-0.2,0.7
	c0,0.3-0.1,0.7-0.1,1.1c0,0.5,0,1,0.1,1.5c0.1,0.3,0.1,0.6,0.2,0.9c0.1,0.3,0.2,0.6,0.3,0.9c0.1,0.2,0.1,0.3,0.2,0.5
	c0.1,0.2,0.2,0.3,0.3,0.5c0.2,0.3,0.4,0.6,0.6,0.9C28.8,88.6,29.3,89.2,29.9,89.7z M72.2,90.6c4,0,7.3,3.3,7.3,7.3
	c0,4.1-3.3,7.3-7.3,7.3s-7.3-3.3-7.3-7.3C64.9,93.8,68.1,90.6,72.2,90.6z M54.6,62.3c6.4,0,11.7,5.2,11.7,11.7
	c0,6.5-5.2,11.7-11.7,11.7c-6.4,0-11.7-5.2-11.7-11.7C43,67.6,48.2,62.3,54.6,62.3z"/>
<path class="st5" d="M183.9,79c0-0.2-0.1-0.2-0.1-0.2l0,0c0-0.1-0.1-0.2-0.2-0.2c-0.2,0-0.3,0.1-0.3,0.3c0,0,0,0.1-0.1,0.2
	c0,0.1-0.1,0.3-0.2,0.6c-0.1,0.3-0.2,0.6-0.4,0.9c-0.1,0.3-0.4,0.7-0.6,1c-0.1,0.2-0.3,0.3-0.4,0.5c-0.1,0.2-0.3,0.3-0.5,0.5
	c-0.1,0.1-0.2,0.2-0.3,0.2c-0.1,0.1-0.2,0.1-0.3,0.2c-0.2,0.1-0.4,0.3-0.6,0.4c-0.5,0.2-0.9,0.5-1.4,0.6c-0.2,0.1-0.5,0.2-0.7,0.3
	l-0.8,0.2c-0.3,0.1-0.5,0.1-0.8,0.1c-0.3,0-0.6,0-0.8,0c-0.5,0-1.1,0-1.6,0c-0.3,0-0.5,0.1-0.7,0.2c-0.1,0-0.3,0.1-0.4,0.1
	c-0.5-1.6-1.1-3.1-1.8-4.5c0.2-0.1,0.5-0.2,0.7-0.4c0.7-0.4,1.3-0.7,2-1.2l1-0.6c0.3-0.2,0.6-0.5,0.9-0.7c0.6-0.5,1.1-1.1,1.6-1.7
	c0.2-0.3,0.4-0.6,0.6-0.9c0.1-0.2,0.2-0.3,0.3-0.5c0.1-0.2,0.1-0.3,0.2-0.5c0.1-0.3,0.3-0.6,0.3-0.9c0.1-0.3,0.1-0.6,0.2-0.9
	c0.1-0.6,0.1-1.1,0.1-1.5c0-0.4-0.1-0.8-0.1-1.1c-0.1-0.3-0.1-0.5-0.2-0.7c0-0.2-0.1-0.2-0.1-0.2l0,0c0-0.1-0.1-0.2-0.2-0.2
	c-0.2,0-0.3,0.1-0.3,0.3c0,0,0,0.1-0.1,0.2c0,0.1-0.1,0.3-0.2,0.6c-0.1,0.3-0.2,0.6-0.4,0.9c-0.1,0.3-0.4,0.7-0.6,1
	c-0.1,0.2-0.3,0.3-0.4,0.5c-0.1,0.2-0.3,0.3-0.5,0.5c-0.1,0.1-0.2,0.2-0.3,0.2c-0.1,0.1-0.2,0.1-0.3,0.2c-0.2,0.1-0.4,0.3-0.6,0.4
	c-0.5,0.2-0.9,0.5-1.4,0.6c-0.3,0.1-0.5,0.2-0.7,0.3l-0.8,0.2c-0.3,0.1-0.5,0.1-0.8,0.1c-0.3,0-0.6,0-0.8,0c-0.5,0-1.1-0.1-1.6,0
	c-0.3,0-0.5,0.1-0.7,0.2c-0.1,0-0.3,0.1-0.4,0.2c-4.9-5.7-12.1-9.3-20.2-9.3c-14.8,0-26.8,12.1-26.8,26.9c0,1.7,1.3,3,3,3s3-1.3,3-3
	c0-11.5,9.3-20.9,20.8-20.9s20.8,9.4,20.8,20.9c0,1.7,1.3,3,3,3s3-1.3,3-3c0-0.5,0-1,0-1.5c0.1,0,0.2,0,0.3,0c0.3,0,0.7-0.1,1-0.1
	c0.7-0.2,1.4-0.4,2-0.8c0.7-0.4,1.3-0.7,2-1.2l1-0.6c0.3-0.2,0.6-0.5,0.9-0.7c0.6-0.5,1.1-1.1,1.6-1.7c0.2-0.3,0.4-0.6,0.6-0.9
	c0.1-0.2,0.2-0.3,0.3-0.5c0.1-0.2,0.1-0.3,0.2-0.5c0.1-0.3,0.3-0.6,0.3-0.9c0.1-0.3,0.2-0.6,0.2-0.9c0.1-0.6,0.1-1.1,0.1-1.5
	c0-0.4-0.1-0.8-0.1-1.1C184,79.5,184,79.2,183.9,79z"/>
<path class="st1" d="M54.6,85.8c6.4,0,11.7-5.2,11.7-11.7c0-6.5-5.2-11.7-11.7-11.7c-6.4,0-11.7,5.2-11.7,11.7
	C43,80.6,48.2,85.8,54.6,85.8z"/>
<path class="st1" d="M72.2,105.2c4,0,7.3-3.3,7.3-7.3c0-4.1-3.3-7.3-7.3-7.3s-7.3,3.3-7.3,7.3C64.9,102,68.1,105.2,72.2,105.2z"/>
<path class="st7" d="M163.2,108.4c-9.3,0-16.9,3.5-16.9,7.9c0,4.4,7.6,7.9,16.9,7.9c9.3,0,16.9-3.5,16.9-7.9
	C180.1,111.9,172.5,108.4,163.2,108.4z"/>
<path class="st7" d="M46.1,110.3c-9.3,0-16.9,3.5-16.9,7.9c0,4.3,7.6,7.9,16.9,7.9c9.3,0,16.9-3.5,16.9-7.9
	C63,113.8,55.4,110.3,46.1,110.3z"/>
<path class="st7" d="M132.6,152.4c2.5-2.5,2.5-6.7,0-9.2l-6.1-6.2c-2.1,4-5.1,7.3-8.6,9.7l5.6,5.7c1.2,1.2,2.8,1.9,4.5,1.9
	c0,0,0,0,0,0c0,0,0,0,0,0C129.8,154.3,131.4,153.6,132.6,152.4z"/>
<path class="st5" d="M128.9,131c0.4-1.5,0.7-3,0.9-4.6c0.2-1.6-1-3.1-2.6-3.3c-1.6-0.2-3.1,1-3.3,2.6c-0.3,2.3-0.8,4.5-1.7,6.5
	c-0.5,1.2-1.1,2.4-1.8,3.5c-0.7,1.1-1.5,2.1-2.4,3.1c-1.7,1.9-3.8,3.4-6,4.5c-2.5,1.2-5.1,1.8-7.8,1.8c-10,0-18.5-8.3-19.8-19.4
	c-0.2-1.6-1.7-2.8-3.3-2.6c-1.6,0.2-2.8,1.7-2.6,3.3c1.7,14.1,12.8,24.7,25.8,24.7c2.8,0,5.6-0.5,8.2-1.4l7,7
	c2.4,2.4,5.5,3.7,8.8,3.7c0,0,0,0,0.1,0c3.3,0,6.4-1.3,8.8-3.7c0,0,0,0,0,0c4.8-4.9,4.8-12.8,0-17.7L128.9,131z M128.1,154.3
	c-1.7,0-3.3-0.7-4.5-1.9l-5.6-5.7c3.5-2.4,6.5-5.7,8.6-9.7l6.1,6.2c2.5,2.5,2.5,6.7,0,9.2C131.4,153.6,129.8,154.3,128.1,154.3
	C128.1,154.3,128.1,154.3,128.1,154.3C128.1,154.3,128.1,154.3,128.1,154.3z"/>
</svg>
