<?xml version="1.0" encoding="utf-8"?>
<!-- Generator: Adobe Illustrator 26.0.1, SVG Export Plug-In . SVG Version: 6.00 Build 0)  -->
<svg version="1.1" id="Layer_1" xmlns="http://www.w3.org/2000/svg" xmlns:xlink="http://www.w3.org/1999/xlink" x="0px" y="0px"
	 viewBox="0 0 200 200" style="enable-background:new 0 0 200 200;" xml:space="preserve">
<style type="text/css">
	.st0{fill:#F466BA;}
	.st1{fill:#FFFFFF;}
	.st2{fill:#F89DC6;}
	.st3{fill:#B42026;}
	.st4{fill:#EF3643;}
	.st5{fill:#190D07;}
	.st6{fill:#D53F4C;}
	.st7{fill:#D42049;}
	.st8{fill:#040606;}
	.st9{fill:#751449;}
	.st10{fill:#510D2C;}
	.st11{fill:#76214F;}
	.st12{fill:#C42289;}
	.st13{fill:#A41C6F;}
	.st14{fill:#D03D9A;}
	.st15{fill:#7A171B;}
	.st16{fill:#C62C36;}
	.st17{fill:#F24F57;}
	.st18{fill:#65BED9;}
	.st19{fill:#FF929D;}
	.st20{fill:#F56E1D;}
	.st21{fill:#D93B5A;}
	.st22{fill:#EDC1C2;}
	.st23{fill:#010101;}
	.st24{fill:#030303;}
	.st25{fill:#F8FBFB;}
	.st26{fill:#F5F8F8;}
	.st27{fill:#F6F9F9;}
	.st28{fill:#66CEF5;}
	.st29{fill:#EF8F8F;}
	.st30{fill:#FFE164;}
	.st31{fill:#F7C1C1;}
	.st32{fill:#B6ECFF;}
</style>
<path class="st6" d="M120.4,141.5c0.3-0.5,0.5-1.1,0.8-1.6c0.6-1.3,1.3-2.5,2-3.7c1.5-2.6,2.8-4.9,2.8-7.5c0-0.6,0-1.1-0.1-1.6H76.1
	c-0.1,0.5-0.1,1.1-0.1,1.6c0,2.7,1.3,4.9,2.8,7.5c0.7,1.2,1.4,2.4,2,3.7c0.3,0.6,0.5,1.1,0.8,1.6c5.2-4.1,12.1-6.3,19.5-6.3
	C108.3,135.2,115.2,137.5,120.4,141.5z"/>
<path class="st5" d="M123.5,147.3c0.9-1.6,1.8-3.3,2.7-5.1c0.5-1.1,1.1-2.1,1.7-3.3c1.6-2.9,3.5-6.1,3.5-10.2c0-1.7-0.2-3.4-0.6-5.1
	c-2.3-9.1-10.5-15.5-19.9-15.5H91c-2.4,0-4.6,0.4-6.8,1.1c-6.4,2.2-11.4,7.5-13.1,14.3c0,0,0,0,0,0c-0.4,1.6-0.6,3.4-0.6,5.1
	c0,4.1,1.9,7.4,3.5,10.2c0.6,1.1,1.2,2.2,1.7,3.3c0.8,1.9,1.7,3.6,2.7,5.1c5.6,9.3,13.2,14.1,22.6,14.1c1.2,0,2.3-0.1,3.4-0.2
	C112.2,160.1,118.6,155.5,123.5,147.3z M84.3,146.3c4.2-3.6,10.3-5.7,16.7-5.7c6.4,0,12.4,2.1,16.7,5.7c-4.4,6.4-9.9,9.6-16.7,9.6
	C94.1,155.9,88.7,152.8,84.3,146.3z M91,113.6h19.9c5.6,0,10.7,3.1,13.3,7.9H77.8C80.3,116.8,85.4,113.6,91,113.6z M80.7,139.9
	c-0.6-1.3-1.3-2.5-2-3.7c-1.5-2.6-2.8-4.9-2.8-7.5c0-0.6,0-1.1,0.1-1.6h49.8c0.1,0.5,0.1,1.1,0.1,1.6c0,2.7-1.3,4.9-2.8,7.5
	c-0.7,1.2-1.4,2.4-2,3.7c-0.3,0.6-0.5,1.1-0.8,1.6c-5.2-4.1-12.1-6.3-19.5-6.3c-7.4,0-14.3,2.3-19.5,6.3
	C81.2,141,81,140.5,80.7,139.9z"/>
<path class="st7" d="M117.6,146.3c-4.2-3.6-10.3-5.7-16.7-5.7c-6.4,0-12.4,2.1-16.7,5.7c4.4,6.4,9.9,9.6,16.7,9.6
	C107.8,155.9,113.2,152.8,117.6,146.3z"/>
<path class="st1" d="M77.8,121.6h46.4c-2.6-4.8-7.6-7.9-13.3-7.9H91C85.4,113.6,80.3,116.8,77.8,121.6z"/>
<path class="st5" d="M75.8,82.9c0-13.1-10.6-23.7-23.7-23.7c-13.1,0-23.7,10.6-23.7,23.7c0,13.1,10.6,23.7,23.7,23.7
	C65.2,106.5,75.8,95.9,75.8,82.9z M44.8,84.7c-5.8,0-10.4-4.7-10.4-10.4c0-5.8,4.7-10.4,10.4-10.4c5.8,0,10.4,4.7,10.4,10.4
	C55.2,80.1,50.5,84.7,44.8,84.7z M60.5,102c-3.6,0-6.5-2.9-6.5-6.5c0-3.6,2.9-6.5,6.5-6.5c3.6,0,6.5,2.9,6.5,6.5
	C67,99.1,64.1,102,60.5,102z"/>
<path class="st1" d="M44.8,63.9c-5.8,0-10.4,4.7-10.4,10.4c0,5.8,4.7,10.4,10.4,10.4c5.8,0,10.4-4.7,10.4-10.4
	C55.2,68.5,50.5,63.9,44.8,63.9z"/>
<path class="st1" d="M60.5,89c-3.6,0-6.5,2.9-6.5,6.5c0,3.6,2.9,6.5,6.5,6.5c3.6,0,6.5-2.9,6.5-6.5C67,91.9,64.1,89,60.5,89z"/>
<path class="st5" d="M169,81.7c0-13.1-10.6-23.7-23.7-23.7c-13.1,0-23.7,10.6-23.7,23.7c0,13.1,10.6,23.7,23.7,23.7
	C158.5,105.4,169,94.8,169,81.7z M153.7,87.8c3.6,0,6.5,2.9,6.5,6.5c0,3.6-2.9,6.5-6.5,6.5c-3.6,0-6.5-2.9-6.5-6.5
	C147.1,90.8,150.1,87.8,153.7,87.8z M138,83.6c-5.8,0-10.4-4.7-10.4-10.4c0-5.8,4.7-10.4,10.4-10.4c5.8,0,10.4,4.7,10.4,10.4
	C148.4,78.9,143.7,83.6,138,83.6z"/>
<path class="st1" d="M138,62.7c-5.8,0-10.4,4.7-10.4,10.4c0,5.8,4.7,10.4,10.4,10.4c5.8,0,10.4-4.7,10.4-10.4
	C148.4,67.4,143.7,62.7,138,62.7z"/>
<path class="st1" d="M153.7,100.9c3.6,0,6.5-2.9,6.5-6.5c0-3.6-2.9-6.5-6.5-6.5c-3.6,0-6.5,2.9-6.5,6.5
	C147.1,98,150.1,100.9,153.7,100.9z"/>
<path class="st7" d="M155.3,122.4c9.5,0,17.2-3.6,17.2-8c0-4.4-7.7-7.9-17.2-7.9c-9.5,0-17.2,3.6-17.2,7.9
	C138.2,118.9,145.8,122.4,155.3,122.4z"/>
<path class="st7" d="M29.4,115c0,4.4,7.7,8,17.2,8c9.5,0,17.2-3.6,17.2-8c0-4.4-7.7-8-17.2-8C37.1,107,29.4,110.6,29.4,115z"/>
<path class="st5" d="M26.1,66.9C31,58.5,40,53.3,49.6,53.3c1.5,0,2.7-1.2,2.7-2.7s-1.2-2.7-2.7-2.7c-11.6,0-22.4,6.2-28.2,16.3
	c-0.8,1.3-0.3,3,1,3.7c0.4,0.2,0.9,0.4,1.4,0.4C24.7,68.3,25.6,67.8,26.1,66.9z"/>
<path class="st5" d="M173.7,61c-5.9-9.9-16.6-16-28.1-16c-1.5,0-2.7,1.2-2.7,2.7s1.2,2.7,2.7,2.7c9.5,0,18.5,5.1,23.3,13.3
	c0.5,0.9,1.4,1.3,2.4,1.3c0.5,0,1-0.1,1.4-0.4C174,64,174.4,62.3,173.7,61z"/>
</svg>
