<?xml version="1.0" encoding="utf-8"?>
<!-- Generator: Adobe Illustrator 26.0.1, SVG Export Plug-In . SVG Version: 6.00 Build 0)  -->
<svg version="1.1" id="Layer_1" xmlns="http://www.w3.org/2000/svg" xmlns:xlink="http://www.w3.org/1999/xlink" x="0px" y="0px"
	 viewBox="0 0 200 200" style="enable-background:new 0 0 200 200;" xml:space="preserve">
<style type="text/css">
	.st0{fill:#F466BA;}
	.st1{fill:#FFFFFF;}
	.st2{fill:#F89DC6;}
	.st3{fill:#B42026;}
	.st4{fill:#EF3643;}
	.st5{fill:#190D07;}
	.st6{fill:#D53F4C;}
	.st7{fill:#D42049;}
	.st8{fill:#040606;}
	.st9{fill:#751449;}
	.st10{fill:#510D2C;}
	.st11{fill:#76214F;}
	.st12{fill:#C42289;}
	.st13{fill:#A41C6F;}
	.st14{fill:#D03D9A;}
	.st15{fill:#7A171B;}
	.st16{fill:#C62C36;}
	.st17{fill:#F24F57;}
	.st18{fill:#65BED9;}
	.st19{fill:#FF929D;}
	.st20{fill:#F56E1D;}
	.st21{fill:#D93B5A;}
	.st22{fill:#EDC1C2;}
	.st23{fill:#010101;}
	.st24{fill:#030303;}
	.st25{fill:#F8FBFB;}
	.st26{fill:#F5F8F8;}
	.st27{fill:#F6F9F9;}
	.st28{fill:#66CEF5;}
	.st29{fill:#EF8F8F;}
	.st30{fill:#FFE164;}
	.st31{fill:#F7C1C1;}
	.st32{fill:#B6ECFF;}
</style>
<path d="M50.6,88.7c-0.3,1.4-0.7,2.9-1,4.3c-0.5,2.1,0.8,4.2,2.9,4.7c0.3,0.1,0.6,0.1,0.9,0.1v0c1.8,0,3.4-1.2,3.8-3
	c0.5-2.1,1-4.3,1.5-6.4c2.4-0.5,4.7-1.5,6.7-2.6c4.9-2.8,9-8.5,6.4-14.1c-1.4-3-4.5-5.1-8.6-5.7c0.4-2.5,0.7-5.1,1-7.6l4.8,0.9
	c2.1,0.4,4.2-1,4.5-3.1c0.4-2.1-1-4.2-3.1-4.5l-5.6-1c0.1-1.5,0.1-3,0.2-4.6c0-2.2-1.7-3.9-3.9-4h-0.1c-2.1,0-3.9,1.7-3.9,3.9
	c0,1.2-0.1,2.3-0.1,3.5c-0.7,0-1.3,0-2,0.1c-5.4,0.7-9.8,5.5-10.1,11c-0.3,5.3,3.2,10.4,8.2,12.2c0.3,0.1,0.6,0.2,0.9,0.3
	c-0.5,2.7-1.1,5.5-1.7,8.2c-1.6-0.2-3.1-0.8-4.2-1.9c-1.5-1.5-4-1.5-5.5,0c-1.5,1.5-1.5,4,0,5.5C44.9,86.9,47.7,88.2,50.6,88.7z
	 M64.7,74.9c0.4,0.8-1,2.8-3.2,4.1c-0.3,0.1-0.5,0.3-0.8,0.4c0.4-1.9,0.8-3.8,1.2-5.8C63.4,73.9,64.5,74.4,64.7,74.9z M52.7,60.8
	c0.1-1.7,1.6-3.4,3.3-3.6c0.1,0,0.3,0,0.4,0c-0.3,2.6-0.6,5.3-1,7.9C53.8,64.3,52.6,62.5,52.7,60.8z"/>
<path d="M155.8,57.1c2.2-0.1,3.8-2,3.7-4.1c-0.1-2.1-2-3.8-4.2-3.7c-2.1,0.1-4.2,0.4-6.3,0.7c-0.2-1.2-0.5-2.4-0.8-3.6
	c-0.5-2.1-2.6-3.4-4.7-3c-2.1,0.5-3.4,2.6-3,4.7c0.3,1.1,0.5,2.3,0.7,3.4c-0.5,0.1-1,0.3-1.5,0.4c-4.6,1.3-7.6,5.8-7.1,10.6
	c0.4,3.9,3.1,7.4,6.8,8.7c1.9,0.7,3.7,0.7,5.4,0.5c0.4,3,0.8,5.9,1.1,8.9c-2.7,0.8-5.7,1.2-8.5,1.2h-0.1c-2.2,0-3.9,1.7-3.9,3.9
	c0,2.2,1.7,3.9,3.9,3.9h0.1v0c3.1,0,6.2-0.4,9.2-1.1c0.1,1.2,0.2,2.4,0.3,3.6c0.1,2.1,1.9,3.6,3.9,3.6c0.1,0,0.2,0,0.3,0
	c2.2-0.1,3.8-2,3.6-4.2c-0.1-2-0.3-3.9-0.5-5.9c3-1.6,6.3-4.3,7.7-8.5c1.6-4.9,0-11.4-5.4-13.7c-1.8-0.8-3.5-1-5.2-0.9
	c-0.3-1.7-0.6-3.4-0.9-5C152.4,57.4,154.1,57.2,155.8,57.1z M153.6,70.8c1.2,0.5,1.6,2.7,1.1,4.2c-0.2,0.6-0.6,1.3-1.2,1.9
	c-0.2-2.1-0.5-4.2-0.8-6.3C153,70.6,153.3,70.7,153.6,70.8z M143.8,64.1c-0.6,0-1.1,0-1.6-0.2c-0.8-0.3-1.5-1.2-1.6-2.1
	c-0.1-1.1,0.6-2.1,1.5-2.4c0.3-0.1,0.6-0.1,0.9-0.2C143.2,60.9,143.5,62.5,143.8,64.1z"/>
<path d="M123.1,124.4C123.1,124.4,123.1,124.4,123.1,124.4c0.7-3.2,0.6-22.1,0.3-25.1c0-0.5-0.1-1.7-1-2.6c-1.2-1.3-3-1.2-3.7-1.1
	c-3.8,0.2-7.8,0.3-11.8,0.5c-8.4,0.4-17.1,0.8-25.1,1c-1.3,0-2.3,1.1-2.3,2.4l0.7,23.3c0.2,2.6,1.1,5.2,2.6,7.5
	c1.2,1.8,2.7,3.5,4.4,4.9c-0.2,4-0.2,8.1,0,12.1c0.2,3.9,0.9,8.3,4.3,11.1c2,1.6,4.7,2.4,8.2,2.4l0,0c0.3,0,0.6,0,0.9,0
	c5.5-0.2,9.7-1.9,12.3-5c3.1-3.8,3.1-8.9,3.1-12.6l0-7.6c2.4-1.9,4.4-4.2,5.7-6.9C122.3,127.3,122.8,126,123.1,124.4z M100.4,156.1
	c-2.7,0.1-4.7-0.3-5.9-1.3c-2-1.6-2.4-4.8-2.6-7.7c-0.3-5.4-0.2-10.9,0.4-16.3c2.7,0.6,5.4,1.1,8.1,1.3v9.7c0,1.3,1.1,2.3,2.3,2.3
	c1.3,0,2.3-1,2.3-2.3v-9.5c2.1,0,4.1,0,6.2-0.2l0,10.9c0,3.9-0.2,7.4-2.1,9.7C107.1,155.4,103.3,156,100.4,156.1z"/>
<path class="st29" d="M111.3,132.2c-2,0.2-4.1,0.2-6.2,0.2v9.5c0,1.3-1.1,2.3-2.3,2.3c-1.3,0-2.3-1.1-2.3-2.3v-9.7
	c-2.7-0.3-5.5-0.7-8.1-1.3c-0.6,5.4-0.7,10.9-0.4,16.3c0.2,2.9,0.6,6.1,2.6,7.7c1.2,1,3.2,1.5,5.9,1.3c2.9-0.1,6.7-0.7,8.8-3.3
	c1.9-2.3,2.1-5.8,2.1-9.7L111.3,132.2z"/>
</svg>
