<?xml version="1.0" encoding="utf-8"?>
<!-- Generator: Adobe Illustrator 26.0.1, SVG Export Plug-In . SVG Version: 6.00 Build 0)  -->
<svg version="1.1" id="Layer_1" xmlns="http://www.w3.org/2000/svg" xmlns:xlink="http://www.w3.org/1999/xlink" x="0px" y="0px"
	 viewBox="0 0 200 200" style="enable-background:new 0 0 200 200;" xml:space="preserve">
<style type="text/css">
	.st0{fill:#F466BA;}
	.st1{fill:#FFFFFF;}
	.st2{fill:#F89DC6;}
	.st3{fill:#B42026;}
	.st4{fill:#EF3643;}
	.st5{fill:#190D07;}
	.st6{fill:#D53F4C;}
	.st7{fill:#D42049;}
	.st8{fill:#040606;}
	.st9{fill:#751449;}
	.st10{fill:#510D2C;}
	.st11{fill:#76214F;}
	.st12{fill:#C42289;}
	.st13{fill:#A41C6F;}
	.st14{fill:#D03D9A;}
	.st15{fill:#7A171B;}
	.st16{fill:#C62C36;}
	.st17{fill:#F24F57;}
	.st18{fill:#65BED9;}
	.st19{fill:#FF929D;}
	.st20{fill:#F56E1D;}
	.st21{fill:#D93B5A;}
	.st22{fill:#EDC1C2;}
	.st23{fill:#010101;}
	.st24{fill:#030303;}
	.st25{fill:#F8FBFB;}
	.st26{fill:#F5F8F8;}
	.st27{fill:#F6F9F9;}
	.st28{fill:#66CEF5;}
	.st29{fill:#EF8F8F;}
	.st30{fill:#FFE164;}
	.st31{fill:#F7C1C1;}
	.st32{fill:#B6ECFF;}
</style>
<path d="M49.2,92.7L48,93.1c0,0-0.1,0-0.1,0c-2.3,1-4.1,3-5.1,5.5c-1,2.8-0.9,5.9,0.4,8.3c2,3.9,6.5,6.4,11.1,6.4
	c0.8,0,1.6-0.1,2.4-0.2c1.9-0.4,3.5-1.1,4.8-2.1c2.3-1.9,3.7-5,3.6-8.2c-0.1-2-0.7-4.1-2-5.8C60.1,92.6,54.4,90.9,49.2,92.7z
	 M51.9,100.6c-0.1,0.1-0.3,0.3-0.5,0.4c-0.7,0.4-1.7,0.3-2.5-0.2c-1.3-0.8-1.2-2-0.7-2.9c0.3-0.6,1-1,1.7-1l0,0
	c0.3,0,0.6,0.1,0.8,0.2c0.2,0.1,0.3,0.1,0.4,0.2c0.6,0.4,1,1,1.1,1.6C52.4,99.4,52.3,100.1,51.9,100.6z"/>
<path d="M138.2,111.2c1.5,0.6,3.2,1.2,5,1.2l0,0h0c4.9,0,8.5-4.2,9.9-8.3c0.7-1.9,0.8-3.6,0.3-5c-0.6-2-2.1-3.4-3.3-4.3
	c-2-1.5-4.3-2.7-6.7-3.4c-0.3-0.1-0.7-0.2-1-0.2c-4-0.7-8.1,1.2-9.9,4.8c-1.1,2.1-1.6,4.5-1.6,6.8c0,1.3,0.2,2.3,0.6,3.2
	C133,108.8,135.8,110.2,138.2,111.2z M139.1,95.8L139.1,95.8c0.1,0,0.2,0,0.3,0c1,0.1,1.7,1,1.7,2c0,0.2,0,0.3-0.1,0.5
	c-0.2,0.7-0.6,1.3-1,1.6c-0.5,0.4-1.3,0.6-1.8,0.4c-0.2-0.1-0.3-0.2-0.5-0.3c-0.6-0.5-0.9-1.4-0.7-2.4
	C137.2,96.2,138.1,95.8,139.1,95.8z"/>
<path class="st1" d="M51.1,97.2c-0.1-0.1-0.2-0.2-0.4-0.2c-0.3-0.1-0.6-0.2-0.8-0.2l0,0c-0.7,0-1.4,0.4-1.7,1
	c-0.5,0.9-0.5,2.1,0.7,2.9c0.9,0.5,1.8,0.6,2.5,0.2c0.2-0.1,0.3-0.2,0.5-0.4c0.4-0.4,0.5-1.2,0.3-1.8C52,98.2,51.6,97.6,51.1,97.2z"
	/>
<path class="st1" d="M136.9,97.5c-0.2,1,0.1,1.9,0.7,2.4c0.2,0.1,0.3,0.2,0.5,0.3c0.5,0.2,1.3,0.1,1.8-0.4c0.5-0.4,0.8-0.9,1-1.6
	c0-0.1,0.1-0.3,0.1-0.5c0-1.1-0.7-2-1.7-2c-0.1,0-0.2,0-0.3,0h0C138.1,95.8,137.2,96.2,136.9,97.5z"/>
<path d="M75.3,110.5L75.3,110.5c0.9,0,1.9-0.1,2.8-0.3c0.3-0.1,1.1-0.3,1.7-1c0.5-0.6,0.5-1.3,0.5-1.6l0.2-3.6
	c11.7-0.7,23.5-0.7,35.2-0.1c0,0.6,0,1.2-0.1,1.8c0,0.7,0,1.8,0.7,2.7c0.8,1.1,2.1,1.3,3,1.3h0c0.4,0,0.8,0,1-0.1l1-0.1
	c0.1,0.3,0.3,0.6,0.4,0.9c1.8,3.4,5.1,5.5,7.4,6.8l1.1,0.6c2.5,1.4,5.2,2.9,8.1,3.8c2.3,0.7,4.5,1.1,6.7,1.1h0
	c5.5,0,10.2-2.4,13.5-7.1c3.8-5.5,5.5-12.1,4.4-18.3c-1.1-6.6-5.4-12.5-11.1-15.3c-3.4-1.7-7.1-2.5-10.6-2.4
	c-5.1,0.1-10.8,2.5-14.8,6.3c-2,1.9-3.4,4-4.3,6.2c-0.4,1-0.8,2.2-1.1,3.4c-1.1,0-2.3,0.1-3.4,0.5c-0.3,0.1-0.9,0.3-1.3,0.8
	c-0.4,0.5-0.5,1.1-0.5,1.4c0,0.8-0.1,1.6-0.1,2.5c-11.7-0.6-23.5-0.6-35.2,0l0-0.7c0-0.5,0.1-1.5-0.7-2.3c-0.6-0.7-1.5-0.8-1.9-0.8
	c-0.7-0.1-1.5-0.1-2.2-0.1c-0.2-1.3-0.5-2.5-0.9-3.6C71.6,83.8,60.7,78,51.2,80.5l-5.8,1.2c0,0-0.1,0-0.1,0c-3.5,0.9-6.7,3.4-9,7
	c-2.2,3.4-3.3,7.2-4,10.2c-0.8,3.6-1.5,7.7,0.2,11.5c0.9,2,2.3,3.7,3.8,5.4c1.8,2,3.8,4.1,6.2,5.8c3.6,2.5,8,3.8,12.4,3.8l0,0
	c2.3,0,4.6-0.4,6.8-1.1c6.3-2.1,11.5-7.4,13.5-13.8C75.2,110.5,75.3,110.5,75.3,110.5z M128.7,88.3c3.4-3.2,8.4-5.3,12.7-5.4
	c0.1,0,0.2,0,0.4,0v0c2.9,0,5.9,0.7,8.7,2.1c4.8,2.4,8.4,7.3,9.3,13c0.9,5.4-0.5,11.2-3.9,16c-3.7,5.2-9.7,7-16.6,4.8
	c-2.6-0.8-5.1-2.2-7.5-3.6l-1.1-0.6c-3.2-1.8-5.1-3.5-6.1-5.5c-1.6-3-1.6-7.2-0.8-11.1c0.1-0.1,0.1-0.3,0.1-0.5c0-0.1,0-0.2,0-0.3
	c0.3-1.4,0.7-2.7,1.2-3.8C125.8,91.5,127,89.8,128.7,88.3z M118.8,105.7c0-2.2,0.1-4.5,0.3-6.8c0.4-0.1,0.9-0.2,1.3-0.2
	c-0.4,2.5-0.5,5.2,0,7.7l-0.4,0c-0.3,0-0.6,0-0.7,0c-0.3,0-0.4,0-0.4,0C118.8,106.4,118.8,105.9,118.8,105.7z M77.4,100l-0.3,7.2
	c-0.4,0.1-0.8,0.1-1.3,0.1c0.4-2.1,0.5-4.3,0.3-6.8c0-0.2,0-0.4,0-0.5C76.6,99.9,77,99.9,77.4,100z M72.1,109.5
	c-1.7,5.4-6.1,9.9-11.5,11.7c-5.4,1.8-11.6,0.9-16.3-2.3c-2.1-1.5-3.9-3.4-5.6-5.3c-1.4-1.5-2.5-2.9-3.2-4.5c-1.3-3-0.7-6.5,0-9.6
	c0.6-2.7,1.6-6.2,3.5-9.2c1.9-2.9,4.4-4.9,7.1-5.6l0,0l5.8-1.2c7.9-2.1,17.3,2.9,20,10.6c0.6,1.8,1,3.9,1.2,6.5
	C73.2,104,72.9,106.9,72.1,109.5z"/>
<path d="M106.2,129.6c-0.6,0.7-1.1,1.4-1.7,2.1c-1.9,1.9-4.8,2.9-7.5,2.5c-2.7-0.4-5.2-2.1-6.5-4.5c-0.4-0.8-1.4-1.1-2.2-0.6
	c-0.8,0.4-1.1,1.4-0.6,2.1c1.8,3.3,5.2,5.6,8.9,6.2c0.5,0.1,1.1,0.1,1.6,0.1l0,0c3.2,0,6.4-1.3,8.6-3.5c0.8-0.8,1.4-1.6,2-2.4
	c0.5-0.7,0.4-1.7-0.3-2.2C107.7,128.8,106.7,128.9,106.2,129.6z"/>
</svg>
