<?xml version="1.0" encoding="utf-8"?>
<!-- Generator: Adobe Illustrator 26.0.1, SVG Export Plug-In . SVG Version: 6.00 Build 0)  -->
<svg version="1.1" id="Layer_1" xmlns="http://www.w3.org/2000/svg" xmlns:xlink="http://www.w3.org/1999/xlink" x="0px" y="0px"
	 viewBox="0 0 200 200" style="enable-background:new 0 0 200 200;" xml:space="preserve">
<style type="text/css">
	.st0{fill:#F466BA;}
	.st1{fill:#FFFFFF;}
	.st2{fill:#F89DC6;}
	.st3{fill:#B42026;}
	.st4{fill:#EF3643;}
	.st5{fill:#190D07;}
	.st6{fill:#D53F4C;}
	.st7{fill:#D42049;}
	.st8{fill:#040606;}
	.st9{fill:#751449;}
	.st10{fill:#510D2C;}
	.st11{fill:#76214F;}
	.st12{fill:#C42289;}
	.st13{fill:#A41C6F;}
	.st14{fill:#D03D9A;}
	.st15{fill:#7A171B;}
	.st16{fill:#C62C36;}
	.st17{fill:#F24F57;}
	.st18{fill:#65BED9;}
	.st19{fill:#FF929D;}
	.st20{fill:#F56E1D;}
	.st21{fill:#D93B5A;}
	.st22{fill:#EDC1C2;}
	.st23{fill:#010101;}
	.st24{fill:#030303;}
	.st25{fill:#F8FBFB;}
	.st26{fill:#F5F8F8;}
	.st27{fill:#F6F9F9;}
	.st28{fill:#66CEF5;}
	.st29{fill:#EF8F8F;}
	.st30{fill:#FFE164;}
	.st31{fill:#F7C1C1;}
	.st32{fill:#B6ECFF;}
</style>
<path d="M72.2,112c0-2.1-0.7-4.3-2.1-6.5c-2.6-4.1-7.2-6.9-11.8-7.4c-4.4-0.4-8.8,1.3-11.6,4.4c-2.7,3.1-3.8,8-2.5,12.1
	c1,3.5,3.5,6,6.7,7c2.7,0.8,5.6-0.2,7.7-2.6c2.3-2.7,3-6.3,1.8-9.1c-0.8-1.8-2.9-3-5-2.9c-1.9,0.1-3.4,1.3-3.9,3
	c-0.5,1.7,0.4,3.5,2.1,4c0.2,0.1,0.4,0.1,0.6,0.1c-0.1,0.2-0.3,0.4-0.4,0.6c-0.4,0.5-0.9,0.7-1.1,0.7c-1.2-0.3-2-1.2-2.4-2.6
	c-0.6-2.1-0.1-4.7,1.2-6.1c1.4-1.6,3.9-2.5,6.2-2.3c2.7,0.3,5.4,2,7,4.5c0.7,1.1,1.1,2.1,1.1,3c-0.1,5.6-7.2,11.1-12.8,11.6
	c-6,0.5-12.7-3.8-14.3-9.2c-0.7-2.5-0.1-5.1,0.5-6.9c1.7-4.6,4.3-8.2,7.4-10.1c3.2-2,7.2-2.6,10.8-1.6l1.1,0.3
	c3.7,1,6.2,1.6,10.4,4.7c1.4,1,3.4,0.7,4.5-0.7c1-1.4,0.7-3.4-0.7-4.5c-5.2-3.8-8.6-4.7-12.5-5.8l-1.1-0.3
	c-5.3-1.4-11.2-0.5-15.8,2.4c-4.3,2.7-7.9,7.5-10,13.4c-1.4,3.8-1.6,7.6-0.6,10.9c2.3,7.9,10.9,13.8,19.5,13.8l0,0
	c0.5,0,1,0,1.5-0.1C62.1,129.1,72.1,121.2,72.2,112z"/>
<path d="M149.5,130.3c8.5-1.6,15.6-10.4,15.7-19.5c0.1-8.5-6.8-19.2-15.9-20.3c-2.1-0.2-4.4,0.2-6.7,1.4c-4.3,2.2-7.6,6.4-8.5,11
	c-0.9,4.3,0.4,8.9,3.2,11.9c2.8,3,7.6,4.5,11.8,3.7c3.6-0.7,6.4-2.8,7.6-6c1.1-2.6,0.3-5.6-1.9-7.9c-2.4-2.6-6-3.6-8.8-2.7
	c-1.9,0.7-3.3,2.6-3.4,4.7c-0.1,1.9,1,3.5,2.6,4.2c1.6,0.7,3.5-0.1,4.2-1.7c0.1-0.2,0.1-0.4,0.2-0.6c0.2,0.1,0.4,0.3,0.6,0.5
	c0.5,0.5,0.6,1,0.6,1.1c-0.5,1.1-1.4,1.9-2.9,2.1c-2.1,0.4-4.7-0.4-6-1.8c-1.5-1.6-2.1-4.1-1.7-6.4c0.5-2.7,2.5-5.2,5.2-6.6
	c1.2-0.6,2.2-0.9,3.1-0.8c5.6,0.6,10.4,8.2,10.3,13.8c-0.1,6-5,12.3-10.6,13.3c-2.6,0.5-5.1-0.4-6.8-1.2c-4.4-2.1-7.7-5.1-9.4-8.3
	c-1.7-3.3-1.9-7.4-0.5-10.9l0.4-1.1c1.4-3.6,2.3-6,5.7-9.8c1.2-1.3,1.1-3.3-0.2-4.5c-1.3-1.2-3.3-1.1-4.5,0.2
	c-4.3,4.8-5.5,8.1-7,11.9l-0.4,1c-1.9,5.1-1.7,11.1,0.8,16c2.3,4.6,6.7,8.6,12.3,11.3c2.7,1.3,5.4,1.9,8,1.9l0,0
	C147.7,130.5,148.6,130.4,149.5,130.3z"/>
<path d="M76.6,150.7c-2.6-0.8-4.7-2.4-5.8-4.6c-0.5-0.9-1.6-1.3-2.6-0.9c-0.9,0.5-1.3,1.6-0.9,2.6c1.5,3.1,4.5,5.5,8.1,6.5
	c3.6,1,7.4,0.6,10.4-1.2c0.5-0.3,1-0.6,1.5-1c1.3-0.9,2.6-1.8,3.6-1.6c0.6,0.1,1.3,0.6,2,1.2l0.2,0.1c3.1,2.3,6,3.5,8.7,3.5v0
	c1.1,0,2.2-0.2,3.2-0.6c1-0.4,1.9-1,2.6-1.5c0.7-0.5,1.4-0.9,2-1.2c1.9-0.7,3.9,0.1,6.4,1c1.7,0.7,3.5,1.4,5.5,1.6
	c4.6,0.5,9.3-2.2,11.2-6.4c0.4-1,0-2.1-0.9-2.5s-2.1,0-2.5,0.9c-1.2,2.7-4.4,4.5-7.3,4.2c-1.4-0.2-2.9-0.7-4.5-1.3
	c-2.7-1.1-5.8-2.2-9.1-1.1c-1.1,0.4-2,1.1-2.9,1.6c-0.7,0.5-1.3,0.9-1.9,1.1c-2.8,1.1-6.3-1-8.1-2.4l-0.2-0.1
	c-1-0.7-2.1-1.6-3.5-1.9c-2.6-0.5-4.8,1-6.6,2.2c-0.4,0.3-0.9,0.6-1.3,0.9C81.9,151.2,79.2,151.5,76.6,150.7z"/>
<path d="M132.1,55.9c-2-2.3-4.7-3.7-6.8-4.7c-4.9-2.3-9.4-3.6-13.8-3.8c-1.2-0.1-2.8,0-4.3,0.6c-1.8,0.8-3.1,2.3-3.4,4
	c-0.4,2.4,1.2,4.9,4.1,6.4c4.1,2.1,8.7,2.3,12.4,2.3c3.4,0,6.8-0.2,10.1-0.7c0.7,1.2,0.8,2.4,0.5,3.5c-0.3,1-1.1,1.9-2.3,2.5
	c-2.5-2.3-7.3-3.3-11.8-4c-0.5-0.1-0.8-0.1-1.2-0.2c-1.2-0.2-2.5-0.4-3.9-0.1c-1.9,0.5-3.3,2-3.5,3.7c-0.2,1.5,0.6,3.1,2,4.1
	c1,0.7,2.2,1,3.2,1.3c4.3,0.9,8.7,0.9,13,0c-0.1,0.4-0.3,0.7-0.4,1c-2,4.3-5,8-8.9,10.7c-0.9,0.6-1.1,1.8-0.5,2.7
	c0.4,0.5,1,0.8,1.6,0.8h0c0.4,0,0.8-0.1,1.1-0.3c4.4-3.1,8-7.3,10.2-12.2c0.5-1.1,1-2.5,0.9-4c2-1.1,3.5-2.7,4.1-4.7
	c0.6-1.8,0.5-3.7-0.3-5.5c1-0.4,2-1,2.7-2c1.1-1.7,1.1-4-0.1-6.2c-1.6-3-3.6-5.9-7.1-7.4c-1-0.4-2.1,0.1-2.5,1.1
	c-0.4,1,0.1,2.1,1.1,2.5c2.3,0.9,3.7,2.9,5.2,5.7c0.5,0.9,0.6,1.8,0.3,2.2C133.5,55.5,132.8,55.7,132.1,55.9z M120.2,56.9
	c-3.2,0-7.3-0.2-10.6-1.9c-1.1-0.6-2.2-1.6-2.1-2.4c0.1-0.4,0.5-0.9,1.1-1.1c0.6-0.3,1.3-0.3,2-0.3c0.2,0,0.4,0,0.6,0
	c3.8,0.2,7.9,1.3,12.3,3.4c1.1,0.5,2.4,1.2,3.5,2C124.8,56.8,122.5,56.9,120.2,56.9z M114.2,67.1c-0.8-0.2-1.4-0.3-1.8-0.6
	c-0.3-0.2-0.4-0.5-0.4-0.5c0-0.1,0.2-0.3,0.6-0.4c0.2-0.1,0.4-0.1,0.7-0.1l0,0c0.5,0,1,0.1,1.6,0.2c0.4,0.1,0.8,0.1,1.2,0.2
	c1.5,0.2,4.7,0.8,7.2,1.7C120.3,67.8,117.2,67.7,114.2,67.1z"/>
</svg>
