<?xml version="1.0" encoding="utf-8"?>
<!-- Generator: Adobe Illustrator 26.0.1, SVG Export Plug-In . SVG Version: 6.00 Build 0)  -->
<svg version="1.1" id="Layer_1" xmlns="http://www.w3.org/2000/svg" xmlns:xlink="http://www.w3.org/1999/xlink" x="0px" y="0px"
	 viewBox="0 0 200 200" style="enable-background:new 0 0 200 200;" xml:space="preserve">
<style type="text/css">
	.st0{fill:#F466BA;}
	.st1{fill:#FFFFFF;}
	.st2{fill:#F89DC6;}
	.st3{fill:#B42026;}
	.st4{fill:#EF3643;}
	.st5{fill:#190D07;}
	.st6{fill:#D53F4C;}
	.st7{fill:#D42049;}
	.st8{fill:#040606;}
	.st9{fill:#751449;}
	.st10{fill:#510D2C;}
	.st11{fill:#76214F;}
	.st12{fill:#C42289;}
	.st13{fill:#A41C6F;}
	.st14{fill:#D03D9A;}
	.st15{fill:#7A171B;}
	.st16{fill:#C62C36;}
	.st17{fill:#F24F57;}
	.st18{fill:#65BED9;}
	.st19{fill:#FF929D;}
	.st20{fill:#F56E1D;}
	.st21{fill:#D93B5A;}
	.st22{fill:#EDC1C2;}
	.st23{fill:#010101;}
	.st24{fill:#030303;}
	.st25{fill:#F8FBFB;}
	.st26{fill:#F5F8F8;}
	.st27{fill:#F6F9F9;}
	.st28{fill:#66CEF5;}
	.st29{fill:#EF8F8F;}
	.st30{fill:#FFE164;}
	.st31{fill:#F7C1C1;}
	.st32{fill:#B6ECFF;}
</style>
<path d="M66,101.5c-1.4,0.7-2,2.4-1.3,3.8c2.8,5.7,8.6,10,15.6,11.4c1.6,0.3,3.3,0.5,4.9,0.5l0,0c5.2,0,10.2-1.7,13.9-4.9
	c1.2-1,1.3-2.8,0.3-4c-1-1.2-2.8-1.3-4-0.3c-3.5,3-8.8,4.2-14,3.1c-5.2-1.1-9.6-4.2-11.6-8.4C69.1,101.3,67.4,100.8,66,101.5z"/>
<path d="M169.2,99.9c-1.4-0.7-3.1-0.2-3.8,1.2c-2.9,5.6-6.9,9.4-11.3,10.8c-5.3,1.7-11.2-0.7-13.3-5.5c-0.6-1.4-2.3-2.1-3.7-1.5
	c-1.4,0.6-2.1,2.3-1.5,3.7c2.6,5.8,8.6,9.4,14.9,9.4v0c1.7,0,3.5-0.3,5.3-0.8c7.4-2.4,12-8.7,14.6-13.6
	C171.2,102.3,170.6,100.6,169.2,99.9z"/>
<path class="st1" d="M137.8,130.1c-3.9-3.7-9.3-4.9-14.9-4.9c-4.6,0-9.3,0.9-13.3,1.9c-4.8,1.3-8.6,2.6-10.3,6.7
	c-0.6,1.6-0.5,3.4,0.5,4.5c0.8,1,1.4,1.6,4,0.6l5.8-2.1c5.1-1.7,9.2-1.8,15-1.5c2,0.1,4.1,0.3,6.1,0.9c0.1,0,0.4,0.1,0.6,0.2
	c0.9,0.3,1.7,0.6,2.4,1c2,0.9,3.7,1.6,5.2,1c1.3-0.6,1.9-2.3,1.7-3.7C140.3,132.7,138.9,131.1,137.8,130.1z"/>
<path d="M108.8,123.8c-5.3,1.4-10.3,3.2-12.6,8.7c-1.1,2.7-0.7,5.8,1,7.9c1.3,1.6,2.7,2.3,4.5,2.3l0,0c1,0,2.1-0.2,3.3-0.7l5.7-2.1
	c4.6-1.5,8.2-1.6,13.7-1.3c1.8,0.1,3.6,0.2,5.4,0.7c0.1,0,0.3,0.1,0.4,0.1c0.7,0.2,1.3,0.5,2.1,0.8c2.4,1,5.1,2.2,7.9,1h0
	c2.6-1.1,4.2-4.2,3.7-7.3c-0.3-2.3-1.6-4.5-3.8-6.6C131.8,119.8,118.5,121.2,108.8,123.8z M138.9,138.4c-1.4,0.6-3.2-0.1-5.2-1
	c-0.8-0.3-1.5-0.7-2.4-1c-0.2-0.1-0.4-0.1-0.6-0.2c-2-0.6-4.1-0.7-6.1-0.9c-5.8-0.4-9.9-0.2-15,1.5l-5.8,2.1c-2.6,0.9-3.2,0.4-4-0.6
	c-0.9-1.1-1.1-2.9-0.5-4.5c1.7-4.2,5.5-5.5,10.3-6.7c4-1.1,8.7-1.9,13.3-1.9c5.5,0,10.9,1.3,14.9,4.9c1.1,1,2.5,2.7,2.7,4.6
	C140.8,136,140.2,137.8,138.9,138.4z"/>
<path d="M102.2,95c0.5-0.8,0.2-1.8-0.6-2.3c-7-4.2-14.6-7.3-22.6-9.1c-0.9-0.2-1.8,0.3-2,1.3c-0.2,0.9,0.3,1.8,1.3,2
	c7.6,1.8,14.9,4.7,21.7,8.7c0.3,0.2,0.6,0.2,0.9,0.2C101.3,95.8,101.9,95.5,102.2,95z"/>
<polygon points="100.7,95.8 100.7,95.8 100.7,95.8 "/>
<path d="M132.6,96c6.9-4.5,14.8-7.5,22.8-8.9c0.9-0.2,1.5-1,1.4-1.9c-0.2-0.9-1-1.5-2-1.4c-8.5,1.5-16.9,4.7-24.1,9.4
	c-0.8,0.5-1,1.6-0.5,2.3c0.3,0.5,0.9,0.8,1.4,0.8v0C132,96.3,132.3,96.2,132.6,96z"/>
<path class="st30" d="M49.8,62.7c0.9,0.5,1.9,0.7,2.9,0.4l2.1-0.8l-0.5,0.1c-2.6,0.7-5.3-0.6-6.5-3l0.2,0.9
	C48.3,61.4,49,62.2,49.8,62.7z"/>
<path class="st30" d="M46.8,91.6L47,92l0.3-0.1C47.1,91.9,46.9,91.7,46.8,91.6z"/>
<path class="st30" d="M25.5,79.6l0.5-0.1c-0.2-0.8,0.3-1.6,1.1-1.9l11.7-4.2c0,0,0.1,0,0.1,0c1.9-0.5,3.8-0.2,5.5,0.7
	c1.7,1,2.9,2.5,3.4,4.4c0,0.1,0,0.1,0,0.2l1.9,11.7c0.1,0.3,0,0.7-0.1,1l4.4-1.2l-3.1-11.5c-1-3.9,1.3-7.9,5.2-8.9
	c0.1,0,0.1,0,0.2,0l11.7-1.8l-2.2-8.4l-0.7,0.2c0.2,0.2,0.3,0.4,0.4,0.6c0.3,0.9-0.1,1.8-1,2.2l-10.8,3.9c0,0-0.1,0-0.1,0
	c-0.6,0.2-1.3,0.2-1.9,0.2l0,0c-1.3,0-2.5-0.3-3.6-1c-1.7-1-2.9-2.5-3.4-4.4c0,0,0-0.1,0-0.1l-2-11.8c-0.2-0.9,0.5-1.8,1.4-1.9
	c0.2,0,0.3,0,0.5,0L44.5,47l-8.3,2.2l4.1,11.1c0,0.1,0,0.1,0.1,0.2c1,3.9-1.3,7.9-5.2,8.9c-0.1,0-0.2,0-0.2,0l-11.7,1.4l-0.1,0
	L25.5,79.6z"/>
<path class="st30" d="M42.8,76.9c-0.9-0.5-1.9-0.7-2.9-0.4l-0.1,0c1.9,0.5,3.5,1.9,4,4l2.4,9.2l-1.7-10.5
	C44.4,78.3,43.7,77.4,42.8,76.9z"/>
<path d="M49.9,90.3L48,78.6c0-0.1,0-0.1,0-0.2c-0.5-1.9-1.7-3.4-3.4-4.4c-1.7-1-3.6-1.2-5.5-0.7c-0.1,0-0.1,0-0.1,0l-11.7,4.2
	c-0.8,0.3-1.2,1.1-1.1,1.9c0,0.1,0,0.2,0.1,0.2c0.3,0.9,1.3,1.3,2.2,1l11.6-4.2l0.1,0c1-0.2,2-0.1,2.9,0.4c0.9,0.5,1.5,1.3,1.8,2.3
	l1.7,10.5l0.2,1.1c0,0.3,0.2,0.5,0.3,0.7c0.1,0.2,0.3,0.3,0.4,0.4c0.3,0.2,0.6,0.3,1,0.3v0c0.1,0,0.2,0,0.3,0c0.6-0.1,1-0.5,1.3-0.9
	C49.9,91,49.9,90.7,49.9,90.3z"/>
<path d="M35.1,69.4c3.9-1,6.2-5,5.2-8.9c0-0.1,0-0.1-0.1-0.2l-4.1-11.1l-0.8-2.1c-0.3-0.9-1.3-1.3-2.2-1c-0.9,0.3-1.3,1.3-1,2.2
	l4.9,13.1c0.5,2-0.7,4.1-2.7,4.7l-12.5,1.5c-0.9,0.1-1.6,0.9-1.5,1.9c0.1,0.9,0.8,1.5,1.7,1.5v0c0.1,0,0.1,0,0.2,0l1-0.1l11.7-1.4
	C35,69.4,35.1,69.4,35.1,69.4z"/>
<path d="M44.1,47.4c-0.9,0.2-1.5,1-1.4,1.9l2,11.8c0,0.1,0,0.1,0,0.1c0.5,1.9,1.7,3.4,3.4,4.4c1.1,0.7,2.4,1,3.6,1l0,0
	c0.6,0,1.3-0.1,1.9-0.2c0,0,0.1,0,0.1,0l10.8-3.9c0.9-0.3,1.3-1.3,1-2.2c-0.1-0.2-0.2-0.5-0.4-0.6c-0.5-0.4-1.1-0.6-1.7-0.4
	l-8.6,3.1l-2.1,0.8c-1,0.2-2,0.1-2.9-0.4c-0.9-0.5-1.5-1.3-1.8-2.3l-0.2-0.9L46,48.8c-0.1-0.8-0.8-1.3-1.5-1.4
	C44.4,47.4,44.2,47.4,44.1,47.4z"/>
<path d="M56.3,69.7c-3.9,1-6.2,5-5.2,8.9l3.1,11.5l0,0c0.2,0.8,0.9,1.3,1.6,1.3c0.1,0,0.3,0,0.4-0.1c0.9-0.2,1.4-1.2,1.2-2.1
	l-3.1-11.5c-0.5-2,0.7-4.2,2.7-4.7l12.3-1.9c0.9-0.1,1.6-1,1.4-1.9c-0.1-0.9-1-1.6-1.9-1.4l-0.7,0.1l-11.7,1.8
	C56.4,69.7,56.3,69.7,56.3,69.7z"/>
</svg>
