<?xml version="1.0" encoding="utf-8"?>
<!-- Generator: Adobe Illustrator 26.0.1, SVG Export Plug-In . SVG Version: 6.00 Build 0)  -->
<svg version="1.1" id="Layer_1" xmlns="http://www.w3.org/2000/svg" xmlns:xlink="http://www.w3.org/1999/xlink" x="0px" y="0px"
	 viewBox="0 0 200 200" style="enable-background:new 0 0 200 200;" xml:space="preserve">
<style type="text/css">
	.st0{fill:#F466BA;}
	.st1{fill:#FFFFFF;}
	.st2{fill:#F89DC6;}
	.st3{fill:#B42026;}
	.st4{fill:#EF3643;}
	.st5{fill:#190D07;}
	.st6{fill:#D53F4C;}
	.st7{fill:#D42049;}
	.st8{fill:#040606;}
	.st9{fill:#751449;}
	.st10{fill:#510D2C;}
	.st11{fill:#76214F;}
	.st12{fill:#C42289;}
	.st13{fill:#A41C6F;}
	.st14{fill:#D03D9A;}
	.st15{fill:#7A171B;}
	.st16{fill:#C62C36;}
	.st17{fill:#F24F57;}
	.st18{fill:#65BED9;}
	.st19{fill:#FF929D;}
	.st20{fill:#F56E1D;}
	.st21{fill:#D93B5A;}
	.st22{fill:#EDC1C2;}
	.st23{fill:#010101;}
	.st24{fill:#030303;}
	.st25{fill:#F8FBFB;}
	.st26{fill:#F5F8F8;}
	.st27{fill:#F6F9F9;}
	.st28{fill:#66CEF5;}
	.st29{fill:#EF8F8F;}
	.st30{fill:#FFE164;}
	.st31{fill:#F7C1C1;}
	.st32{fill:#B6ECFF;}
</style>
<path class="st1" d="M72.9,137.5c1.2,0.9,1.7,2.3,1.4,3.6c-0.1,0.2-0.1,0.5-0.1,0.7c-0.1,0.8,0.1,1.6,0.3,1.7c0.4,0.3,0.9,0.2,1.2,0
	c0.2-0.2,0.3-0.6,0.4-1c0-0.1,0.1-0.3,0.1-0.4c0,0,0-0.1,0-0.1c0.3-1.6,1.7-2.8,3.4-2.8h0.2c2,0,3.5-0.4,4.7-1.1
	c1-0.6,1.9-1.6,2.7-3c0.9-1.5,1.3-3,1.3-4.3c0-1.4-0.7-2.7-1.7-3.3c-0.7-0.4-1.6-0.6-2.5-0.6l0,0c-0.8,0-1.7,0.1-2.7,0.2l-7.6,1.1
	c-1.5,0.2-2.7,1.4-3,2.9l-0.1,0.5c0,0.1,0,0.1-0.1,0.2C70,134,71.3,136.3,72.9,137.5z"/>
<path d="M71.2,141.4c-0.2,1.5,0.1,3.6,1.5,4.6c0.7,0.5,1.5,0.7,2.3,0.7c1,0,2-0.4,2.7-1.1c0.7-0.7,1-1.6,1.1-2.3l0.1-0.4
	c0-0.1,0.1-0.3,0.1-0.4c0-0.2,0.3-0.3,0.5-0.3h0.2c2.6,0,4.6-0.5,6.2-1.5c1.4-0.9,2.6-2.2,3.7-4c1.2-2,1.7-4,1.7-5.8
	c-0.1-2.4-1.2-4.6-3-5.8c-2.4-1.5-5.3-1.1-7.2-0.8l-7.6,1.1c-2.8,0.4-5,2.6-5.5,5.3l-0.1,0.4c-0.9,3,0.4,6.6,3.3,8.7
	c0.2,0.1,0.3,0.3,0.3,0.6C71.3,140.7,71.2,141.1,71.2,141.4z M70.7,132c0-0.1,0-0.1,0.1-0.2l0.1-0.5c0.3-1.5,1.5-2.7,3-2.9l7.6-1.1
	c0.9-0.1,1.8-0.2,2.7-0.2l0,0c1,0,1.8,0.2,2.5,0.6c1,0.6,1.6,1.9,1.7,3.3c0,1.3-0.4,2.7-1.3,4.3c-0.8,1.4-1.7,2.4-2.7,3
	c-1.1,0.7-2.6,1-4.7,1.1h-0.2c-1.7,0-3.1,1.2-3.4,2.8c0,0,0,0.1,0,0.1c0,0.1-0.1,0.3-0.1,0.4c-0.1,0.4-0.2,0.8-0.4,1
	c-0.3,0.3-0.8,0.3-1.2,0c-0.2-0.1-0.4-0.9-0.3-1.7c0-0.2,0.1-0.5,0.1-0.7c0.3-1.4-0.2-2.8-1.4-3.6C71.3,136.3,70,134,70.7,132z"/>
<path d="M117.4,103.4c-6.7,1.9-13.6,2.7-20.5,2.4c-1.4,0-2.5,1-2.6,2.4c-0.1,1.4,1,2.5,2.4,2.6c1,0,2,0.1,3,0.1v0
	c6.5,0,12.9-0.9,19.1-2.7c1.3-0.4,2.1-1.7,1.7-3.1C120.1,103.8,118.7,103,117.4,103.4z"/>
<path d="M38.7,106.4c-1.4,0-2.5,1-2.6,2.4c0,1.4,1,2.5,2.4,2.5c4.5,0.1,9,0.2,13.6,0.2h0c3.1,0,6.1,0,9.2-0.1c1.4,0,2.5-1.2,2.4-2.5
	c0-1.4-1.2-2.5-2.5-2.4C53.8,106.6,46.2,106.6,38.7,106.4z"/>
<path d="M135.4,82.9c0.1-0.5,0-1-0.4-1.4c-0.3-0.4-0.9-0.5-1.3-0.4c-4.2,0.8-8.5,1.2-12.8,1.2c-0.8,0-1.5,0.7-1.5,1.5
	c0,0.8,0.7,1.5,1.5,1.5c3.1,0,6.2-0.2,9.2-0.6c-3.2,3.3-6.1,6.9-8.7,10.6c-0.3,0.4-0.3,1-0.1,1.5c0.2,0.5,0.7,0.8,1.3,0.8
	c0.7,0,1.4,0,2,0l0,0c3.7,0,7.4-0.4,11-1.2c0.8-0.2,1.3-1,1.1-1.8c-0.2-0.8-1-1.3-1.8-1.1c-3.1,0.7-6.3,1-9.5,1.1
	c2.5-3.4,5.3-6.6,8.4-9.6C134.5,84.6,135.2,84,135.4,82.9z"/>
<path d="M151.1,66.3c-0.1-0.5-0.3-0.9-0.7-1.1c-0.4-0.2-0.9-0.3-1.3-0.1c-3.1,1.2-6.1,2.7-9.1,4.1c-2,1-4.1,2-6.1,2.9
	c-0.8,0.3-1.1,1.2-0.8,2c0.3,0.8,1.2,1.1,2,0.8c2.1-0.9,4.2-1.9,6.2-2.9c2.2-1.1,4.5-2.2,6.8-3.2c-0.4,2.9-2.2,5.5-4.1,8.3
	c-1.8,2.5-3.6,5.2-4.3,8.1c-0.4,1.6,0.1,2.9,1.3,3.3c0.3,0.1,0.6,0.1,0.8,0.1l0,0c0.3,0,0.6-0.1,0.8-0.1c4-0.9,7.7-2.8,11.3-4.6
	c1-0.5,2.1-1,3.1-1.5c0.7-0.4,1.1-1.2,0.7-2c-0.4-0.7-1.2-1.1-2-0.7c-1.1,0.5-2.1,1-3.2,1.6c-3.2,1.6-6.5,3.2-9.9,4.1
	c0.7-2.3,2.2-4.4,3.8-6.7C149,75,151.6,71.1,151.1,66.3z"/>
</svg>
