<?xml version="1.0" encoding="utf-8"?>
<!-- Generator: Adobe Illustrator 26.0.1, SVG Export Plug-In . SVG Version: 6.00 Build 0)  -->
<svg version="1.1" id="Layer_1" xmlns="http://www.w3.org/2000/svg" xmlns:xlink="http://www.w3.org/1999/xlink" x="0px" y="0px"
	 viewBox="0 0 200 200" style="enable-background:new 0 0 200 200;" xml:space="preserve">
<style type="text/css">
	.st0{fill:#F466BA;}
	.st1{fill:#FFFFFF;}
	.st2{fill:#F89DC6;}
	.st3{fill:#B42026;}
	.st4{fill:#EF3643;}
	.st5{fill:#190D07;}
	.st6{fill:#D53F4C;}
	.st7{fill:#D42049;}
	.st8{fill:#040606;}
	.st9{fill:#751449;}
	.st10{fill:#510D2C;}
	.st11{fill:#76214F;}
	.st12{fill:#C42289;}
	.st13{fill:#A41C6F;}
	.st14{fill:#D03D9A;}
	.st15{fill:#7A171B;}
	.st16{fill:#C62C36;}
	.st17{fill:#F24F57;}
	.st18{fill:#65BED9;}
	.st19{fill:#FF929D;}
	.st20{fill:#F56E1D;}
	.st21{fill:#D93B5A;}
	.st22{fill:#EDC1C2;}
	.st23{fill:#010101;}
	.st24{fill:#030303;}
	.st25{fill:#F8FBFB;}
	.st26{fill:#F5F8F8;}
	.st27{fill:#F6F9F9;}
	.st28{fill:#66CEF5;}
	.st29{fill:#EF8F8F;}
	.st30{fill:#FFE164;}
	.st31{fill:#F7C1C1;}
	.st32{fill:#B6ECFF;}
</style>
<path class="st31" d="M45,103.6L45,103.6c-0.6,0-1.2-0.1-1.8-0.3c-1.8-0.7-3.1-2.3-3.3-4.2l0-0.4c-1.6,0.2-3.1,0.6-4.5,1.2
	c-4.1,1.8-7.4,5.8-6.8,10.4c0.1,0.8,0.4,1.7,0.8,2.4c2.2,4.1,6.1,4.3,9.8,4.2c5.4-0.1,11.1-0.9,15.1-4.3c1.5-1.3,2.8-3.1,2.7-5
	c-0.1-3.5-3-6.1-6.4-7.6l-2.3,2.2C47.5,103.1,46.3,103.6,45,103.6z"/>
<path class="st31" d="M139.7,107.2c-0.1,1.9,1.1,3.7,2.6,5.1c3.9,3.5,9.6,4.5,14.9,4.8c3.7,0.2,7.7,0.1,10-3.9
	c0.4-0.7,0.7-1.6,0.9-2.4c0.8-4.6-2.3-8.6-6.4-10.6c-0.7-0.3-1.4-0.6-2.2-0.8c-0.3,1.8-1.5,3.4-3.3,4c-0.6,0.2-1.2,0.3-1.8,0.3l0,0
	c-1.3,0-2.5-0.5-3.5-1.4l-3.2-3c-0.1,0-0.2,0-0.2,0.1C143.7,100.5,139.9,103.2,139.7,107.2z"/>
<path class="st30" d="M61.4,86.3c-0.7-1.5-0.7-3.3,0.2-4.7l3.6-6.2c0.4-0.7,0.1-1.4-0.1-1.6s-0.6-0.8-1.5-0.7L56.5,74
	c-1.7,0.2-3.3-0.4-4.4-1.6l-4.8-5.3c-0.4-0.4-0.8-0.5-1.1-0.5c-0.2,0-0.3,0-0.4,0.1c-0.3,0.1-0.9,0.3-1.1,1.2l-1.3,7.1
	c-0.3,1.6-1.4,3-2.9,3.7l-6.6,2.9c-0.8,0.3-0.9,1-0.9,1.3c0,0.3,0,1,0.8,1.4l6.4,3.4c1.5,0.8,2.4,2.3,2.6,3.9l0.8,7.2
	c0.1,0.8,0.7,1.2,1,1.3c0.3,0.1,0.9,0.3,1.6-0.3l5.2-5c1.2-1.1,2.9-1.6,4.5-1.3l7.1,1.5c0.8,0.2,1.3-0.3,1.5-0.5
	c0.2-0.2,0.5-0.8,0.2-1.6L61.4,86.3z"/>
<path d="M63.2,69.6l-7.2,0.9c-0.5,0.1-1-0.1-1.3-0.5l-4.8-5.4c-1.3-1.4-3.3-2-5.1-1.5c-1.9,0.5-3.3,2-3.6,3.9l-1.3,7.1
	c-0.1,0.5-0.4,0.9-0.9,1.1l-6.6,2.9c-1.8,0.8-2.9,2.5-3,4.4c-0.1,1.9,0.9,3.7,2.6,4.6l6.4,3.4c0.4,0.2,0.7,0.7,0.8,1.2l0.7,6.8
	l0,0.4c0.2,1.9,1.5,3.5,3.3,4.2c0.6,0.2,1.2,0.3,1.8,0.3l0,0c1.3,0,2.5-0.5,3.5-1.4l2.3-2.2l3-2.8c0.4-0.3,0.9-0.5,1.4-0.4l7.1,1.5
	c1.9,0.4,3.8-0.3,5-1.8c1.2-1.5,1.4-3.6,0.6-5.3l-3.1-6.5c-0.2-0.4-0.2-1,0.1-1.4l3.6-6.2c1-1.7,0.9-3.7-0.2-5.3
	C67,70.2,65.2,69.3,63.2,69.6z M64.4,94.4c-0.2,0.2-0.7,0.7-1.5,0.5l-7.1-1.5c-1.6-0.3-3.3,0.1-4.5,1.3l-5.2,5
	c-0.6,0.6-1.3,0.4-1.6,0.3c-0.3-0.1-0.9-0.4-1-1.3l-0.8-7.2c-0.2-1.7-1.2-3.1-2.6-3.9l-6.4-3.4c-0.7-0.4-0.8-1.1-0.8-1.4
	c0-0.3,0.1-1,0.9-1.3l6.6-2.9c1.5-0.7,2.6-2.1,2.9-3.7l1.3-7.1c0.2-0.8,0.8-1.1,1.1-1.2c0.1,0,0.3-0.1,0.4-0.1
	c0.3,0,0.7,0.1,1.1,0.5l4.8,5.3c1.1,1.2,2.8,1.8,4.4,1.6l7.2-0.9c0.8-0.1,1.3,0.4,1.5,0.7s0.5,0.9,0.1,1.6l-3.6,6.2
	c-0.8,1.4-0.9,3.2-0.2,4.7l3.1,6.5C64.9,93.5,64.5,94.1,64.4,94.4z"/>
<path class="st30" d="M143.6,93.4c0.4-0.1,0.7-0.1,1.1-0.1c1.3,0,2.5,0.5,3.5,1.4l5.2,5c0.6,0.6,1.3,0.4,1.6,0.3
	c0.3-0.1,0.9-0.4,1-1.3l0.8-7.2c0.2-1.7,1.2-3.1,2.6-3.9l6.4-3.4c0.7-0.4,0.8-1.1,0.8-1.4c0-0.3-0.1-1-0.9-1.3l-6.6-2.9
	c-1.5-0.7-2.6-2.1-2.9-3.7l-1.3-7.1c-0.2-0.8-0.8-1.1-1.1-1.2c-0.3-0.1-1-0.2-1.5,0.4l-4.8,5.3c-1.1,1.2-2.8,1.8-4.4,1.6l-7.2-0.9
	c-0.8-0.1-1.3,0.4-1.5,0.7c-0.2,0.2-0.5,0.9-0.1,1.6l3.6,6.2c0.8,1.4,0.9,3.2,0.2,4.7l-3.1,6.5c-0.4,0.8,0,1.4,0.2,1.6
	c0.2,0.2,0.7,0.7,1.5,0.5L143.6,93.4z"/>
<path d="M154.4,103.6L154.4,103.6c0.6,0,1.2-0.1,1.8-0.3c1.8-0.6,3-2.2,3.3-4c0-0.1,0-0.1,0-0.2l0.8-7.2c0.1-0.5,0.4-0.9,0.8-1.2
	l6.4-3.4c1.7-0.9,2.7-2.7,2.6-4.6c-0.1-1.9-1.2-3.6-3-4.4l-6.6-2.9c-0.5-0.2-0.8-0.6-0.9-1.1l-1.3-7.1c-0.4-1.9-1.7-3.4-3.6-3.9
	c-1.9-0.5-3.8,0-5.1,1.5l-4.8,5.3c-0.3,0.4-0.8,0.6-1.3,0.5l-7.2-0.9c-1.9-0.2-3.8,0.6-4.9,2.2c-1.1,1.6-1.1,3.7-0.2,5.3l3.6,6.2
	c0.2,0.4,0.3,1,0.1,1.4l-3.1,6.5c-0.8,1.8-0.6,3.8,0.6,5.3c1.2,1.5,3.1,2.2,5,1.8l7.1-1.5c0.5-0.1,1,0,1.4,0.4l2.1,2l3.2,3
	C151.9,103.1,153.1,103.6,154.4,103.6z M135,94.4c-0.2-0.2-0.5-0.8-0.2-1.6l3.1-6.5c0.7-1.5,0.7-3.3-0.2-4.7l-3.6-6.2
	c-0.4-0.7-0.1-1.4,0.1-1.6c0.2-0.2,0.6-0.8,1.5-0.7l7.2,0.9c1.7,0.2,3.3-0.4,4.4-1.6l4.8-5.3c0.6-0.6,1.3-0.5,1.5-0.4
	c0.3,0.1,0.9,0.3,1.1,1.2l1.3,7.1c0.3,1.6,1.4,3,2.9,3.7l6.6,2.9c0.8,0.3,0.9,1,0.9,1.3c0,0.3,0,1-0.8,1.4l-6.4,3.4
	c-1.5,0.8-2.4,2.3-2.6,3.9l-0.8,7.2c-0.1,0.8-0.7,1.2-1,1.3c-0.3,0.1-0.9,0.3-1.6-0.3l-5.2-5c-0.9-0.9-2.2-1.4-3.5-1.4
	c-0.3,0-0.7,0-1.1,0.1l-7.1,1.5C135.7,95.1,135.2,94.6,135,94.4z"/>
<path class="st29" d="M101.6,144.8c6.1-1.1,11.8-5.2,15.3-10.7c-5.8-1.7-12.8-3.2-19.8-1.9l-0.2,0c-0.6,0.1-1.4,0.2-2.2,0.2
	c-1.1,0.8-2,2-2.2,3.4c-0.1,0.9-0.9,1.5-1.8,1.5c-0.1,0-0.2,0-0.3,0c-1-0.2-1.6-1.1-1.5-2c0.3-1.7,1.1-3.2,2.2-4.4
	c-4.4-3-10.3-3-16.2-2.5c0.3,1.1,0.7,2.2,1.2,3.2C80.4,140.9,91.5,146.7,101.6,144.8z"/>
<path d="M71.2,127.1c0.5,2.1,1.1,4,1.9,5.8c4.2,9.4,14.5,15.8,24.8,15.8h0c1.5,0,3-0.1,4.5-0.4c7.8-1.5,15-7,18.8-14.4
	c1.7-3.3,2.7-6.9,2.8-10.5l0.6-11.1c0-0.5-0.2-1-0.5-1.3c-0.3-0.4-0.8-0.6-1.3-0.6c-10.3-0.1-21.6-0.3-32.5-0.6
	c-5.2-0.1-10.3-0.2-15.2-0.3c-0.8,0-2.8-0.1-3.9,1.4c-0.8,1-0.8,2.2-0.8,2.8C70.1,119.2,70.4,123.3,71.2,127.1
	C71.2,127.1,71.2,127.1,71.2,127.1z M75.1,128.3c5.9-0.5,11.7-0.5,16.2,2.5c-1.1,1.2-1.9,2.8-2.2,4.4c-0.2,1,0.5,1.9,1.5,2
	c0.1,0,0.2,0,0.3,0c0.9,0,1.6-0.6,1.8-1.5c0.2-1.3,1.1-2.6,2.2-3.4c0.8,0.1,1.5-0.1,2.2-0.2l0.2,0c7-1.3,14,0.2,19.8,1.9
	c-3.5,5.5-9.2,9.6-15.3,10.7c-10.1,1.9-21.2-4-25.3-13.3C75.8,130.5,75.4,129.4,75.1,128.3z"/>
</svg>
