<?xml version="1.0" encoding="utf-8"?>
<!-- Generator: Adobe Illustrator 26.0.1, SVG Export Plug-In . SVG Version: 6.00 Build 0)  -->
<svg version="1.1" id="Layer_1" xmlns="http://www.w3.org/2000/svg" xmlns:xlink="http://www.w3.org/1999/xlink" x="0px" y="0px"
	 viewBox="0 0 200 200" style="enable-background:new 0 0 200 200;" xml:space="preserve">
<style type="text/css">
	.st0{fill:#F466BA;}
	.st1{fill:#FFFFFF;}
	.st2{fill:#F89DC6;}
	.st3{fill:#B42026;}
	.st4{fill:#EF3643;}
	.st5{fill:#190D07;}
	.st6{fill:#D53F4C;}
	.st7{fill:#D42049;}
	.st8{fill:#040606;}
	.st9{fill:#751449;}
	.st10{fill:#510D2C;}
	.st11{fill:#76214F;}
	.st12{fill:#C42289;}
	.st13{fill:#A41C6F;}
	.st14{fill:#D03D9A;}
	.st15{fill:#7A171B;}
	.st16{fill:#C62C36;}
	.st17{fill:#F24F57;}
	.st18{fill:#65BED9;}
	.st19{fill:#FF929D;}
	.st20{fill:#F56E1D;}
	.st21{fill:#D93B5A;}
	.st22{fill:#EDC1C2;}
	.st23{fill:#010101;}
	.st24{fill:#030303;}
	.st25{fill:#F8FBFB;}
	.st26{fill:#F5F8F8;}
	.st27{fill:#F6F9F9;}
	.st28{fill:#66CEF5;}
	.st29{fill:#EF8F8F;}
	.st30{fill:#FFE164;}
	.st31{fill:#F7C1C1;}
	.st32{fill:#B6ECFF;}
</style>
<path class="st2" d="M158.2,136c-9.1,4.1-19.3,1.2-16.5,7.5c2.8,6.2,12.5,7.9,21.6,3.8c9.1-4.1,14.2-12.5,11.4-18.8
	C171.9,122.3,167.3,131.9,158.2,136z M158.9,138.2c0.3,0,0.6,0.3,0.6,0.6c0,0.3-0.3,0.6-0.6,0.6c-0.3,0-0.6-0.3-0.6-0.6
	C158.3,138.5,158.5,138.2,158.9,138.2z M147.3,140c0.4,0,0.8,0.4,0.8,0.8c0,0.4-0.4,0.8-0.8,0.8c-0.4,0-0.8-0.4-0.8-0.8
	C146.5,140.4,146.9,140,147.3,140z M144.4,141.9c0-0.5,0.4-1,1-1s1,0.4,1,1s-0.4,1-1,1S144.4,142.5,144.4,141.9z M148.1,147.9
	c-1.4,0-2.5-1.1-2.5-2.5c0-1.4,1.1-2.5,2.5-2.5c1.4,0,2.5,1.1,2.5,2.5C150.6,146.8,149.5,147.9,148.1,147.9z M151.5,142.9
	c-0.5,0-0.9-0.4-0.9-1s0.4-1,0.9-1c0.5,0,1,0.4,1,1S152.1,142.9,151.5,142.9z M153.4,147.9c-0.5,0-0.9-0.4-0.9-0.9s0.4-0.9,0.9-0.9
	s0.9,0.4,0.9,0.9S153.9,147.9,153.4,147.9z M155.4,147c-0.5,0-1-0.4-1-1c0-0.5,0.4-1,1-1c0.5,0,0.9,0.4,0.9,1
	C156.4,146.6,155.9,147,155.4,147z M156.4,142.9c-1.1,0-1.9-0.9-1.9-1.9c0-1.1,0.9-1.9,1.9-1.9c1.1,0,1.9,0.9,1.9,1.9
	C158.3,142,157.4,142.9,156.4,142.9z M159.1,146.1c-0.5,0-0.8-0.4-0.8-0.8c0-0.5,0.4-0.8,0.8-0.8c0.5,0,0.8,0.4,0.8,0.8
	C159.9,145.8,159.6,146.1,159.1,146.1z M162.1,145.1c-0.9,0-1.6-0.7-1.6-1.6c0-0.9,0.7-1.6,1.6-1.6c0.9,0,1.6,0.7,1.6,1.6
	C163.7,144.4,163,145.1,162.1,145.1z M163,141c-0.5,0-1-0.4-1-1s0.4-1,1-1c0.5,0,0.9,0.4,0.9,1S163.6,141,163,141z"/>
<path class="st2" d="M42.5,146c2,0.9,4,1.5,5.9,1.9c-1.1-0.3-1.8-1.3-1.8-2.4c0-1.4,1.1-2.5,2.5-2.5s2.5,1.1,2.5,2.5
	c0,1.4-1.1,2.5-2.5,2.5c-0.1,0-0.2,0-0.2,0c5.4,0.9,10.4-0.2,13.3-3.1c-0.4-0.3-0.7-0.8-0.7-1.3c0-0.9,0.7-1.6,1.6-1.6
	c0.3,0,0.7,0.1,0.9,0.3c0,0,0,0,0-0.1c0.2-0.5,0.4-0.9,0.4-1.3c-0.1,0.1-0.3,0.1-0.4,0.1c-0.5,0-0.9-0.4-0.9-1c0-0.5,0.4-0.9,0.9-1
	c-1.9-2.2-9.5-1.2-16.5-4.4c-9.1-4.1-13.7-13.7-16.5-7.5C28.3,133.4,33.4,141.8,42.5,146z M61,145.3c0,0.5-0.4,0.8-0.8,0.8
	c-0.5,0-0.8-0.4-0.8-0.8c0-0.5,0.4-0.8,0.8-0.8C60.6,144.5,61,144.8,61,145.3z M59.9,138.2c0.3,0,0.6,0.3,0.6,0.6
	c0,0.3-0.3,0.6-0.6,0.6c-0.3,0-0.6-0.3-0.6-0.6C59.3,138.5,59.6,138.2,59.9,138.2z M57.4,139.1c1.1,0,1.9,0.9,1.9,1.9
	c0,1.1-0.9,1.9-1.9,1.9c-1.1,0-1.9-0.9-1.9-1.9C55.5,139.9,56.3,139.1,57.4,139.1z M56.4,145.1c0.5,0,1,0.4,1,1c0,0.5-0.4,1-1,1
	c-0.5,0-0.9-0.4-0.9-1C55.5,145.6,55.9,145.1,56.4,145.1z M54.4,146.1c0.5,0,0.9,0.4,0.9,0.9s-0.4,0.9-0.9,0.9s-0.9-0.4-0.9-0.9
	S53.9,146.1,54.4,146.1z M52.6,141c0.5,0,0.9,0.4,0.9,1s-0.4,1-0.9,1c-0.5,0-1-0.4-1-1S52,141,52.6,141z M48.3,140
	c0.4,0,0.8,0.4,0.8,0.8c0,0.4-0.4,0.8-0.8,0.8s-0.8-0.4-0.8-0.8C47.5,140.4,47.9,140,48.3,140z M46.4,141c0.5,0,1,0.4,1,1
	s-0.4,1-1,1c-0.5,0-1-0.4-1-1S45.9,141,46.4,141z"/>
<path d="M28.1,94c2.1,1.5,5,1.1,6.6-1l0,0l0,0l0,0c0.1-0.2,2.3-3.1,6.2-5.9c2-1.4,4.3-2.8,7.1-3.9c2.7-1,5.8-1.7,9.3-1.7
	c3.6,0,7.6,0.7,12.1,2.6c2.4,1,5.2-0.1,6.2-2.5s-0.1-5.2-2.5-6.2c-5.6-2.4-10.9-3.4-15.8-3.4c-4.8,0-9.1,1-12.8,2.4
	c-5.6,2.2-9.8,5.3-12.7,8c-2.9,2.6-4.4,4.8-4.6,5C25.6,89.6,26,92.5,28.1,94z"/>
<path class="st1" d="M58.2,114.3c-1,0.6-1.8,1.7-1.8,3c0,1.9,1.6,3.5,3.5,3.5c1.9,0,3.5-1.6,3.5-3.5c0-0.4-0.1-0.8-0.2-1.2
	c0,0,0,0,0,0c4.4,0,8-3.6,8-8c0-4.4-3.6-8-8-8c-4.4,0-8,3.6-8,8C55.2,110.6,56.4,112.8,58.2,114.3z"/>
<path class="st1" d="M53.5,113.8c0.9,0,1.7-0.8,1.7-1.7c0-1-0.8-1.7-1.7-1.7c-0.9,0-1.7,0.8-1.7,1.7C51.8,113,52.6,113.8,53.5,113.8
	z"/>
<path class="st1" d="M67.4,116.4c-0.9,0-1.7,0.8-1.7,1.7c0,0.9,0.8,1.7,1.7,1.7c0.9,0,1.7-0.8,1.7-1.7
	C69.1,117.2,68.3,116.4,67.4,116.4z"/>
<path class="st1" d="M62.9,121.9c-0.6,0-1.2,0.5-1.2,1.2c0,0.6,0.5,1.2,1.2,1.2c0.6,0,1.2-0.5,1.2-1.2
	C64,122.4,63.5,121.9,62.9,121.9z"/>
<ellipse cx="156.4" cy="141" rx="1.9" ry="1.9"/>
<path d="M158.9,139.5c0.3,0,0.6-0.3,0.6-0.6c0-0.3-0.3-0.6-0.6-0.6c-0.3,0-0.6,0.3-0.6,0.6C158.3,139.2,158.5,139.5,158.9,139.5z"/>
<path d="M162.1,141.9c-0.9,0-1.6,0.7-1.6,1.6c0,0.9,0.7,1.6,1.6,1.6c0.9,0,1.6-0.7,1.6-1.6C163.7,142.6,163,141.9,162.1,141.9z"/>
<path d="M163,139.1c-0.5,0-1,0.4-1,1s0.4,1,1,1c0.5,0,0.9-0.4,0.9-1S163.6,139.1,163,139.1z"/>
<path d="M159.1,144.5c-0.5,0-0.8,0.4-0.8,0.8c0,0.5,0.4,0.8,0.8,0.8c0.5,0,0.8-0.4,0.8-0.8C159.9,144.8,159.6,144.5,159.1,144.5z"/>
<path d="M155.4,145.1c-0.5,0-1,0.4-1,1c0,0.5,0.4,1,1,1c0.5,0,0.9-0.4,0.9-1C156.4,145.6,155.9,145.1,155.4,145.1z"/>
<path d="M148.1,142.9c-1.4,0-2.5,1.1-2.5,2.5c0,1.4,1.1,2.5,2.5,2.5c1.4,0,2.5-1.1,2.5-2.5C150.6,144,149.5,142.9,148.1,142.9z"/>
<path d="M151.5,141c-0.5,0-0.9,0.4-0.9,1s0.4,1,0.9,1c0.5,0,1-0.4,1-1S152.1,141,151.5,141z"/>
<path d="M153.4,146.1c-0.5,0-0.9,0.4-0.9,0.9s0.4,0.9,0.9,0.9s0.9-0.4,0.9-0.9S153.9,146.1,153.4,146.1z"/>
<path d="M146.3,141.9c0-0.5-0.4-1-1-1s-1,0.4-1,1s0.4,1,1,1S146.3,142.5,146.3,141.9z"/>
<path d="M147.3,141.6c0.4,0,0.8-0.4,0.8-0.8c0-0.4-0.4-0.8-0.8-0.8c-0.4,0-0.8,0.4-0.8,0.8C146.5,141.2,146.9,141.6,147.3,141.6z"/>
<ellipse cx="57.4" cy="141" rx="1.9" ry="1.9"/>
<path d="M59.9,139.5c0.3,0,0.6-0.3,0.6-0.6c0-0.3-0.3-0.6-0.6-0.6c-0.3,0-0.6,0.3-0.6,0.6C59.3,139.2,59.6,139.5,59.9,139.5z"/>
<path d="M61.5,143.5c0,0.5,0.3,1,0.7,1.3c0.3,0.2,0.6,0.3,0.9,0.3c0.9,0,1.6-0.7,1.6-1.6c0-0.5-0.3-1-0.7-1.3
	c-0.3-0.2-0.6-0.3-0.9-0.3C62.2,141.9,61.5,142.6,61.5,143.5z"/>
<path d="M63.1,140c0,0.5,0.4,1,0.9,1c0.2,0,0.3,0,0.4-0.1c0.3-0.2,0.5-0.5,0.5-0.8c0-0.5-0.4-1-0.9-1c0,0,0,0,0,0
	C63.5,139.1,63.1,139.5,63.1,140z"/>
<path d="M59.3,145.3c0,0.5,0.4,0.8,0.8,0.8c0.5,0,0.8-0.4,0.8-0.8c0-0.5-0.4-0.8-0.8-0.8C59.7,144.5,59.3,144.8,59.3,145.3z"/>
<path d="M56.4,147c0.5,0,1-0.4,1-1c0-0.5-0.4-1-1-1c-0.5,0-0.9,0.4-0.9,1C55.5,146.6,55.9,147,56.4,147z"/>
<path d="M51.6,145.4c0-1.4-1.1-2.5-2.5-2.5s-2.5,1.1-2.5,2.5c0,1.2,0.8,2.1,1.8,2.4c0.1,0,0.3,0.1,0.4,0.1c0.1,0,0.2,0,0.2,0
	C50.5,147.9,51.6,146.8,51.6,145.4z"/>
<path d="M52.6,142.9c0.5,0,0.9-0.4,0.9-1s-0.4-1-0.9-1c-0.5,0-1,0.4-1,1S52,142.9,52.6,142.9z"/>
<path d="M54.4,147.9c0.5,0,0.9-0.4,0.9-0.9s-0.4-0.9-0.9-0.9s-0.9,0.4-0.9,0.9S53.9,147.9,54.4,147.9z"/>
<path d="M46.4,142.9c0.5,0,1-0.4,1-1s-0.4-1-1-1c-0.5,0-1,0.4-1,1S45.9,142.9,46.4,142.9z"/>
<path d="M48.3,141.6c0.4,0,0.8-0.4,0.8-0.8c0-0.4-0.4-0.8-0.8-0.8s-0.8,0.4-0.8,0.8C47.5,141.2,47.9,141.6,48.3,141.6z"/>
<path d="M38.1,114c-0.7,0-1.3-0.1-2-0.3c-0.7-0.2-1.4-0.5-2.1-1c-1.1-0.7-2.5-0.4-3.3,0.7c-0.7,1.1-0.4,2.6,0.7,3.3
	c1.1,0.7,2.3,1.3,3.4,1.6c1.1,0.3,2.2,0.4,3.3,0.4c0.7,0,1.4-0.1,2.1-0.2c1.7,8.5,9.2,14.8,18.2,14.8c10.3,0,18.6-8.3,18.6-18.6
	s-8.3-18.6-18.6-18.6c-8.1,0-15,5.3-17.6,12.6c-0.2-0.1-0.4-0.1-0.6-0.2c-0.7-0.3-1.5-0.7-2.2-1.2c-0.7-0.5-1.3-1.2-1.8-2.2
	c-0.6-1.1-2.1-1.5-3.2-0.9c-1.1,0.6-1.5,2.1-0.9,3.2c0.8,1.5,1.9,2.6,3,3.5c1.6,1.2,3.2,1.9,4.7,2.3c0,0.2,0,0.3,0,0.5
	C39.3,114,38.7,114,38.1,114z M62.9,124.2c-0.6,0-1.2-0.5-1.2-1.2c0-0.6,0.5-1.2,1.2-1.2c0.6,0,1.2,0.5,1.2,1.2
	C64,123.7,63.5,124.2,62.9,124.2z M67.4,119.8c-0.9,0-1.7-0.8-1.7-1.7c0-0.9,0.8-1.7,1.7-1.7c0.9,0,1.7,0.8,1.7,1.7
	C69.1,119,68.3,119.8,67.4,119.8z M63.2,100.1c4.4,0,8,3.6,8,8c0,4.4-3.6,8-8,8c0,0,0,0,0,0c0.1,0.4,0.2,0.8,0.2,1.2
	c0,1.9-1.6,3.5-3.5,3.5c-1.9,0-3.5-1.6-3.5-3.5c0-1.3,0.7-2.4,1.8-3c-1.8-1.5-2.9-3.7-2.9-6.2C55.2,103.6,58.8,100.1,63.2,100.1z
	 M53.5,110.3c0.9,0,1.7,0.8,1.7,1.7c0,0.9-0.8,1.7-1.7,1.7c-0.9,0-1.7-0.8-1.7-1.7C51.8,111.1,52.6,110.3,53.5,110.3z"/>
<path d="M122,136.4c-0.1,2.7-1,4.8-2.2,6.1c-0.6,0.7-1.2,1.1-1.9,1.5c-0.7,0.3-1.4,0.5-2.1,0.5c-0.6,0-1.3-0.1-1.9-0.4
	c-1-0.4-2-1.2-3-2.5c-1-1.3-1.9-3.2-2.6-5.6c-0.3-1.1-1.3-1.8-2.4-1.7c-1.1,0-2,0.8-2.2,1.9c-0.6,3-1.9,5.3-3.4,6.7
	c-0.7,0.7-1.5,1.3-2.3,1.6c-0.8,0.3-1.5,0.5-2.2,0.5c-0.7,0-1.3-0.1-1.8-0.4c-0.4-0.2-0.8-0.5-1.2-0.9c-0.6-0.6-1.1-1.4-1.5-2.6
	c-0.4-1.2-0.6-2.7-0.6-4.5c0-1.3-1.1-2.4-2.4-2.4s-2.4,1.1-2.4,2.4c0,2,0.2,3.9,0.7,5.5c0.4,1.2,0.8,2.3,1.4,3.2
	c0.9,1.4,2.1,2.6,3.4,3.3c1.3,0.8,2.8,1.1,4.3,1.1c1.4,0,2.8-0.3,4.2-0.9c2.5-1.1,4.7-3.1,6.3-5.8c0.7,1.2,1.6,2.3,2.5,3.2
	c1.1,1,2.2,1.8,3.5,2.3c1.2,0.5,2.5,0.8,3.8,0.8c1.4,0,2.8-0.3,4.1-0.9c1.9-0.9,3.6-2.5,4.7-4.4c1.2-2,1.9-4.4,2-7.2
	c0.1-1.3-0.9-2.4-2.3-2.5C123.1,134.1,122,135.1,122,136.4z"/>
<path d="M175.9,79.7c-2.5-1.9-5.7-3.8-9.4-5.2c-3.7-1.4-8-2.4-12.8-2.4c-4.9,0-10.2,1-15.8,3.4c-2.4,1-3.5,3.8-2.5,6.2
	c1,2.4,3.8,3.5,6.2,2.5c4.5-1.9,8.5-2.6,12.1-2.6c3.5,0,6.7,0.7,9.5,1.8c4.2,1.6,7.5,4.1,9.8,6.1c1.1,1,2,2,2.6,2.6
	c0.3,0.3,0.5,0.6,0.6,0.7c0.1,0.1,0.1,0.1,0.1,0.2l0,0l0,0l0,0l0,0c1.5,2.1,4.5,2.6,6.6,1c2.1-1.5,2.6-4.5,1-6.6
	C183.6,87.2,181,83.5,175.9,79.7z"/>
<path class="st1" d="M155.7,108.1c0-4.4-3.6-8-8-8c-4.4,0-8,3.6-8,8c0,4.4,3.6,8,8,8c0,0,0,0,0,0c-0.1,0.4-0.2,0.8-0.2,1.2
	c0,1.9,1.6,3.5,3.5,3.5c1.9,0,3.5-1.6,3.5-3.5c0-1.3-0.7-2.4-1.8-3C154.5,112.8,155.7,110.6,155.7,108.1z"/>
<path class="st1" d="M157.4,110.3c-0.9,0-1.7,0.8-1.7,1.7c0,0.9,0.8,1.7,1.7,1.7c0.9,0,1.7-0.8,1.7-1.7
	C159.1,111.1,158.3,110.3,157.4,110.3z"/>
<path class="st1" d="M143.5,116.4c-0.9,0-1.7,0.8-1.7,1.7c0,0.9,0.8,1.7,1.7,1.7c0.9,0,1.7-0.8,1.7-1.7
	C145.2,117.2,144.5,116.4,143.5,116.4z"/>
<path class="st1" d="M148.1,121.9c-0.6,0-1.2,0.5-1.2,1.2c0,0.6,0.5,1.2,1.2,1.2c0.6,0,1.2-0.5,1.2-1.2
	C149.2,122.4,148.7,121.9,148.1,121.9z"/>
<path d="M176.9,112.8c-0.7,0.5-1.4,0.8-2.1,1c-0.7,0.2-1.4,0.3-2,0.3c-0.6,0-1.2-0.1-1.7-0.2c0-0.2,0-0.3,0-0.5
	c0.4-0.1,0.8-0.2,1.3-0.4c1.1-0.4,2.3-1,3.4-1.9c1.1-0.9,2.2-2.1,3-3.5c0.6-1.1,0.2-2.6-0.9-3.2c-1.1-0.6-2.6-0.2-3.2,0.9
	c-0.5,0.9-1.2,1.6-1.8,2.2c-0.8,0.7-1.8,1.1-2.7,1.4c-2.5-7.3-9.4-12.6-17.6-12.6c-10.3,0-18.6,8.3-18.6,18.6s8.3,18.6,18.6,18.6
	c9,0,16.4-6.4,18.2-14.8c0.7,0.1,1.3,0.2,2.1,0.2c1,0,2.1-0.1,3.3-0.4c1.1-0.3,2.3-0.8,3.4-1.6c1.1-0.7,1.4-2.2,0.7-3.3
	C179.4,112.4,178,112.1,176.9,112.8z M143.5,119.8c-0.9,0-1.7-0.8-1.7-1.7c0-0.9,0.8-1.7,1.7-1.7c0.9,0,1.7,0.8,1.7,1.7
	C145.2,119,144.5,119.8,143.5,119.8z M148.1,124.2c-0.6,0-1.2-0.5-1.2-1.2c0-0.6,0.5-1.2,1.2-1.2c0.6,0,1.2,0.5,1.2,1.2
	C149.2,123.7,148.7,124.2,148.1,124.2z M154.5,117.3c0,1.9-1.6,3.5-3.5,3.5c-1.9,0-3.5-1.6-3.5-3.5c0-0.4,0.1-0.8,0.2-1.2
	c0,0,0,0,0,0c-4.4,0-8-3.6-8-8c0-4.4,3.6-8,8-8c4.4,0,8,3.6,8,8c0,2.5-1.1,4.7-2.9,6.2C153.8,114.9,154.5,116,154.5,117.3z
	 M157.4,113.8c-0.9,0-1.7-0.8-1.7-1.7c0-1,0.8-1.7,1.7-1.7c0.9,0,1.7,0.8,1.7,1.7C159.1,113,158.3,113.8,157.4,113.8z"/>
</svg>
