<?xml version="1.0" encoding="utf-8"?>
<!-- Generator: Adobe Illustrator 26.0.1, SVG Export Plug-In . SVG Version: 6.00 Build 0)  -->
<svg version="1.1" id="Layer_1" xmlns="http://www.w3.org/2000/svg" xmlns:xlink="http://www.w3.org/1999/xlink" x="0px" y="0px"
	 viewBox="0 0 200 200" style="enable-background:new 0 0 200 200;" xml:space="preserve">
<style type="text/css">
	.st0{fill:#F466BA;}
	.st1{fill:#FFFFFF;}
	.st2{fill:#F89DC6;}
	.st3{fill:#B42026;}
	.st4{fill:#EF3643;}
	.st5{fill:#190D07;}
	.st6{fill:#D53F4C;}
	.st7{fill:#D42049;}
	.st8{fill:#040606;}
	.st9{fill:#751449;}
	.st10{fill:#510D2C;}
	.st11{fill:#76214F;}
	.st12{fill:#C42289;}
	.st13{fill:#A41C6F;}
	.st14{fill:#D03D9A;}
	.st15{fill:#7A171B;}
	.st16{fill:#C62C36;}
	.st17{fill:#F24F57;}
	.st18{fill:#65BED9;}
	.st19{fill:#FF929D;}
	.st20{fill:#F56E1D;}
	.st21{fill:#D93B5A;}
	.st22{fill:#EDC1C2;}
	.st23{fill:#010101;}
	.st24{fill:#030303;}
	.st25{fill:#F8FBFB;}
	.st26{fill:#F5F8F8;}
	.st27{fill:#F6F9F9;}
	.st28{fill:#66CEF5;}
	.st29{fill:#EF8F8F;}
	.st30{fill:#FFE164;}
	.st31{fill:#F7C1C1;}
	.st32{fill:#B6ECFF;}
</style>
<path class="st2" d="M149.7,128.8c7.5-3.4,11.7-10.3,9.4-15.5c-2.3-5.1-6.1,2.8-13.6,6.2c-7.5,3.4-16,1-13.6,6.2
	C134.2,130.8,142.2,132.2,149.7,128.8z M149.5,122c0.4,0,0.8,0.4,0.8,0.8c0,0.4-0.4,0.8-0.8,0.8c-0.4,0-0.8-0.4-0.8-0.8
	C148.7,122.3,149.1,122,149.5,122z M148.7,124.3c0.7,0,1.3,0.6,1.3,1.3c0,0.7-0.6,1.3-1.3,1.3c-0.7,0-1.3-0.6-1.3-1.3
	C147.4,124.9,148,124.3,148.7,124.3z M146.9,127.1c0,0.4-0.3,0.7-0.7,0.7c-0.4,0-0.7-0.3-0.7-0.7c0-0.4,0.3-0.7,0.7-0.7
	C146.6,126.4,146.9,126.7,146.9,127.1z M146,121.3c0.3,0,0.5,0.2,0.5,0.5c0,0.3-0.2,0.5-0.5,0.5s-0.5-0.2-0.5-0.5
	C145.5,121.5,145.8,121.3,146,121.3z M144,122c0.9,0,1.6,0.7,1.6,1.6s-0.7,1.6-1.6,1.6c-0.9,0-1.6-0.7-1.6-1.6S143.1,122,144,122z
	 M143.2,127c0.4,0,0.8,0.4,0.8,0.8c0,0.4-0.4,0.8-0.8,0.8c-0.4,0-0.8-0.4-0.8-0.8C142.4,127.3,142.7,127,143.2,127z M136.5,122.8
	c0.4,0,0.6,0.3,0.6,0.6s-0.3,0.6-0.6,0.6s-0.6-0.3-0.6-0.6S136.1,122.8,136.5,122.8z M134.1,124.3c0-0.4,0.4-0.8,0.8-0.8
	c0.4,0,0.8,0.4,0.8,0.8c0,0.4-0.4,0.8-0.8,0.8C134.4,125.1,134.1,124.8,134.1,124.3z M137.1,129.3c-1.2,0-2.1-0.9-2.1-2.1
	c0-1.2,0.9-2.1,2.1-2.1c1.2,0,2.1,0.9,2.1,2.1C139.2,128.4,138.3,129.3,137.1,129.3z M140,125.1c-0.4,0-0.8-0.4-0.8-0.8
	c0-0.4,0.4-0.8,0.8-0.8c0.4,0,0.8,0.4,0.8,0.8C140.8,124.8,140.4,125.1,140,125.1z M140.8,128.6c0-0.4,0.3-0.7,0.7-0.7
	c0.4,0,0.7,0.3,0.7,0.7c0,0.4-0.3,0.7-0.7,0.7C141.1,129.3,140.8,129,140.8,128.6z"/>
<path class="st2" d="M67.9,123.5c-0.1,0.1-0.2,0.1-0.3,0.1c-0.4,0-0.8-0.4-0.8-0.8c0-0.4,0.3-0.8,0.8-0.8c-1.6-1.8-7.9-1-13.6-3.6
	c-7.5-3.4-11.3-11.3-13.6-6.2c-2.3,5.1,1.9,12.1,9.4,15.5c1.6,0.7,3.3,1.2,4.9,1.5c-0.9-0.2-1.6-1-1.6-2c0-1.2,0.9-2.1,2.1-2.1
	c1.2,0,2.1,0.9,2.1,2.1c0,1.2-0.9,2.1-2.1,2.1c-0.1,0-0.2,0-0.3,0c4.5,0.8,8.7-0.2,11.1-2.5c-0.3-0.2-0.5-0.6-0.5-1.1
	c0-0.7,0.6-1.3,1.3-1.3c0.3,0,0.5,0.1,0.8,0.2c0,0,0,0,0,0C67.8,124.1,67.9,123.8,67.9,123.5z M53,125.1c-0.4,0-0.8-0.4-0.8-0.8
	c0-0.4,0.4-0.8,0.8-0.8c0.4,0,0.8,0.4,0.8,0.8C53.8,124.8,53.4,125.1,53,125.1z M54.5,124.1c-0.4,0-0.6-0.3-0.6-0.6s0.3-0.6,0.6-0.6
	c0.4,0,0.6,0.3,0.6,0.6S54.9,124.1,54.5,124.1z M64.1,121.3c0.3,0,0.5,0.2,0.5,0.5c0,0.3-0.2,0.5-0.5,0.5c-0.3,0-0.5-0.2-0.5-0.5
	C63.6,121.5,63.9,121.3,64.1,121.3z M58.1,125.1c-0.4,0-0.8-0.4-0.8-0.8c0-0.4,0.4-0.8,0.8-0.8c0.4,0,0.8,0.4,0.8,0.8
	C58.9,124.8,58.5,125.1,58.1,125.1z M59.6,129.3c-0.4,0-0.7-0.3-0.7-0.7c0-0.4,0.3-0.7,0.7-0.7c0.4,0,0.7,0.3,0.7,0.7
	C60.3,129,60,129.3,59.6,129.3z M61.3,128.6c-0.4,0-0.8-0.4-0.8-0.8c0-0.4,0.3-0.8,0.8-0.8s0.8,0.4,0.8,0.8
	C62.1,128.2,61.7,128.6,61.3,128.6z M62.1,125.1c-0.9,0-1.6-0.7-1.6-1.6s0.7-1.6,1.6-1.6c0.9,0,1.6,0.7,1.6,1.6
	S62.9,125.1,62.1,125.1z M64.3,127.8c-0.4,0-0.7-0.3-0.7-0.7c0-0.4,0.3-0.7,0.7-0.7c0.4,0,0.7,0.3,0.7,0.7
	C65,127.5,64.7,127.8,64.3,127.8z"/>
<path d="M78.3,102c0-8.5-6.9-15.4-15.4-15.4c-8.5,0-15.4,6.9-15.4,15.4s6.9,15.4,15.4,15.4C71.4,117.3,78.3,110.4,78.3,102z
	 M63.2,101.7c0,0,0.2,1.3-0.1,1.5c-0.3,0.2-1.1-1-1.1-1s-1.1,0.6-1.4,0.4c-0.3-0.2,0.6-1.4,0.6-1.4s-1-0.9-0.8-1.2
	c0.2-0.4,1.5,0.1,1.5,0.1s0.5-1.3,0.9-1.2c0.4,0.1,0.4,1.5,0.4,1.5s1.2,0.2,1.4,0.5C64.7,101.3,63.2,101.7,63.2,101.7z M65.2,97.4
	c0,0-3.4-0.5-3.5-1.6c-0.2-1,3.4-1.9,3.4-1.9s-0.6-3.5,0.4-3.9c1-0.3,2.8,2.7,2.8,2.7s2.9-1.3,3.8-0.8s-1.7,3.5-1.7,3.5
	s2.3,2.4,1.9,3.3c-0.3,0.9-3.8-0.5-3.8-0.5s-1.7,2.8-2.6,2.9C65,101.2,65.2,97.4,65.2,97.4z M71.1,105.2c0,0,0.4,2.2-0.1,2.6
	c-0.5,0.4-2-1.7-2-1.7s-2,1-2.5,0.7c-0.5-0.3,1-2.4,1-2.4s-1.7-1.5-1.4-2.2c0.3-0.6,2.6,0.2,2.6,0.2s0.9-2.2,1.6-2
	c0.7,0.2,0.6,2.5,0.6,2.5s2.1,0.3,2.4,0.9C73.6,104.5,71.1,105.2,71.1,105.2z"/>
<path d="M37,79.4c-1.3,1.7-0.9,4.2,0.9,5.4c1.7,1.3,4.2,0.9,5.4-0.9l0,0l0,0c0,0,1.9-2.5,5.1-4.9C50,78,52,76.9,54.3,76
	c2.3-0.8,4.8-1.4,7.7-1.4c3,0,6.3,0.6,10,2.2c2,0.8,4.3-0.1,5.1-2.1c0.8-2-0.1-4.3-2.1-5.1c-4.6-2-9-2.8-13.1-2.8
	c-4,0-7.6,0.8-10.6,2c-4.6,1.8-8.1,4.4-10.5,6.6C38.4,77.5,37.1,79.3,37,79.4z"/>
<path d="M139.7,86.6c-8.5,0-15.4,6.9-15.4,15.4s6.9,15.4,15.4,15.4c8.5,0,15.4-6.9,15.4-15.4S148.2,86.6,139.7,86.6z M131.3,100.4
	c0,0,0.2,1.3-0.1,1.5c-0.3,0.2-1.1-1-1.1-1s-1.1,0.6-1.4,0.4c-0.3-0.2,0.6-1.4,0.6-1.4s-1-0.9-0.8-1.3c0.2-0.4,1.5,0.1,1.5,0.1
	s0.5-1.3,0.9-1.2c0.4,0.1,0.4,1.4,0.4,1.4s1.2,0.2,1.4,0.5C132.8,100,131.3,100.4,131.3,100.4z M133.3,96.1c0,0-3.4-0.5-3.5-1.6
	c-0.2-1,3.4-1.9,3.4-1.9s-0.6-3.5,0.4-3.9c1-0.3,2.8,2.7,2.8,2.7s2.9-1.3,3.8-0.8c0.9,0.5-1.7,3.5-1.7,3.5s2.3,2.4,1.9,3.4
	c-0.3,0.9-3.8-0.5-3.8-0.5s-1.7,2.8-2.6,2.9C133.1,99.9,133.3,96.1,133.3,96.1z M139.1,103.9c0,0,0.4,2.2-0.1,2.6
	c-0.5,0.4-2-1.7-2-1.7s-2,1-2.5,0.7c-0.5-0.3,1-2.4,1-2.4s-1.7-1.5-1.4-2.2c0.3-0.6,2.6,0.2,2.6,0.2s0.9-2.2,1.6-2
	c0.7,0.2,0.6,2.5,0.6,2.5s2.1,0.3,2.4,0.9C141.7,103.2,139.1,103.9,139.1,103.9z"/>
<path d="M159,73.1c-2.1-1.6-4.7-3.1-7.8-4.3c-3.1-1.2-6.7-2-10.6-2c-4,0-8.4,0.8-13.1,2.8c-2,0.8-2.9,3.1-2.1,5.1
	c0.8,2,3.1,2.9,5.1,2.1c3.7-1.6,7.1-2.2,10-2.2c2.9,0,5.5,0.6,7.8,1.5c3.4,1.3,6.2,3.4,8.1,5.1c0.9,0.9,1.7,1.6,2.1,2.1
	c0.2,0.3,0.4,0.5,0.5,0.6c0.1,0.1,0.1,0.1,0.1,0.1l0,0l0,0c1.3,1.7,3.7,2.1,5.4,0.9c1.7-1.3,2.1-3.7,0.9-5.4
	C165.4,79.2,163.2,76.2,159,73.1z"/>
<path d="M144,125.1c0.9,0,1.6-0.7,1.6-1.6s-0.7-1.6-1.6-1.6c-0.9,0-1.6,0.7-1.6,1.6S143.1,125.1,144,125.1z"/>
<path d="M146,122.3c0.3,0,0.5-0.2,0.5-0.5c0-0.3-0.2-0.5-0.5-0.5s-0.5,0.2-0.5,0.5C145.5,122.1,145.8,122.3,146,122.3z"/>
<path d="M148.7,127c0.7,0,1.3-0.6,1.3-1.3c0-0.7-0.6-1.3-1.3-1.3c-0.7,0-1.3,0.6-1.3,1.3C147.4,126.4,148,127,148.7,127z"/>
<path d="M149.5,123.6c0.4,0,0.8-0.4,0.8-0.8c0-0.4-0.4-0.8-0.8-0.8c-0.4,0-0.8,0.4-0.8,0.8C148.7,123.2,149.1,123.6,149.5,123.6z"/>
<path d="M145.5,127.1c0,0.4,0.3,0.7,0.7,0.7c0.4,0,0.7-0.3,0.7-0.7c0-0.4-0.3-0.7-0.7-0.7C145.8,126.4,145.5,126.7,145.5,127.1z"/>
<path d="M143.2,128.6c0.4,0,0.8-0.4,0.8-0.8c0-0.4-0.4-0.8-0.8-0.8c-0.4,0-0.8,0.4-0.8,0.8C142.4,128.2,142.7,128.6,143.2,128.6z"/>
<path d="M137.1,125.1c-1.2,0-2.1,0.9-2.1,2.1c0,1.2,0.9,2.1,2.1,2.1c1.2,0,2.1-0.9,2.1-2.1C139.2,126.1,138.3,125.1,137.1,125.1z"/>
<path d="M140,123.6c-0.4,0-0.8,0.4-0.8,0.8c0,0.4,0.4,0.8,0.8,0.8c0.4,0,0.8-0.4,0.8-0.8C140.8,123.9,140.4,123.6,140,123.6z"/>
<path d="M142.2,128.6c0-0.4-0.3-0.7-0.7-0.7c-0.4,0-0.7,0.3-0.7,0.7c0,0.4,0.3,0.7,0.7,0.7C141.9,129.3,142.2,129,142.2,128.6z"/>
<path d="M135.7,124.3c0-0.4-0.4-0.8-0.8-0.8c-0.4,0-0.8,0.4-0.8,0.8c0,0.4,0.4,0.8,0.8,0.8C135.3,125.1,135.7,124.8,135.7,124.3z"/>
<path d="M136.5,124.1c0.4,0,0.6-0.3,0.6-0.6s-0.3-0.6-0.6-0.6s-0.6,0.3-0.6,0.6S136.1,124.1,136.5,124.1z"/>
<path d="M62.1,122c-0.9,0-1.6,0.7-1.6,1.6s0.7,1.6,1.6,1.6c0.9,0,1.6-0.7,1.6-1.6S62.9,122,62.1,122z"/>
<path d="M64.1,122.3c0.3,0,0.5-0.2,0.5-0.5c0-0.3-0.2-0.5-0.5-0.5c-0.3,0-0.5,0.2-0.5,0.5C63.6,122.1,63.9,122.3,64.1,122.3z"/>
<path d="M65.5,125.7c0,0.4,0.2,0.8,0.5,1.1c0.2,0.2,0.5,0.3,0.8,0.3c0.7,0,1.3-0.6,1.3-1.3c0-0.4-0.2-0.8-0.6-1.1
	c-0.2-0.2-0.5-0.2-0.8-0.2C66.1,124.3,65.5,124.9,65.5,125.7z"/>
<path d="M66.8,122.8c0,0.4,0.4,0.8,0.8,0.8c0.1,0,0.2,0,0.3-0.1c0.3-0.1,0.4-0.4,0.4-0.7c0-0.4-0.4-0.8-0.8-0.8c0,0,0,0,0,0
	C67.2,122,66.8,122.3,66.8,122.8z"/>
<path d="M64.3,126.4c-0.4,0-0.7,0.3-0.7,0.7c0,0.4,0.3,0.7,0.7,0.7c0.4,0,0.7-0.3,0.7-0.7C65,126.7,64.7,126.4,64.3,126.4z"/>
<path d="M61.3,127c-0.4,0-0.8,0.4-0.8,0.8c0,0.4,0.3,0.8,0.8,0.8s0.8-0.4,0.8-0.8C62.1,127.3,61.7,127,61.3,127z"/>
<path d="M57.3,127.2c0-1.2-0.9-2.1-2.1-2.1c-1.2,0-2.1,0.9-2.1,2.1c0,1,0.7,1.8,1.6,2c0.1,0,0.2,0,0.3,0c0.1,0,0.2,0,0.3,0
	C56.4,129.3,57.3,128.4,57.3,127.2z"/>
<path d="M58.1,123.6c-0.4,0-0.8,0.4-0.8,0.8c0,0.4,0.4,0.8,0.8,0.8c0.4,0,0.8-0.4,0.8-0.8C58.9,123.9,58.5,123.6,58.1,123.6z"/>
<path d="M59.6,127.8c-0.4,0-0.7,0.3-0.7,0.7c0,0.4,0.3,0.7,0.7,0.7c0.4,0,0.7-0.3,0.7-0.7C60.3,128.1,60,127.8,59.6,127.8z"/>
<path d="M53,123.6c-0.4,0-0.8,0.4-0.8,0.8c0,0.4,0.4,0.8,0.8,0.8c0.4,0,0.8-0.4,0.8-0.8C53.8,123.9,53.4,123.6,53,123.6z"/>
<path d="M54.5,122.8c-0.4,0-0.6,0.3-0.6,0.6s0.3,0.6,0.6,0.6c0.4,0,0.6-0.3,0.6-0.6S54.9,122.8,54.5,122.8z"/>
<path d="M113.3,129c1.2-1.5,2.2-3.3,2.8-5.3c0.3-1-0.3-2.1-1.3-2.4c-1-0.3-2.1,0.3-2.4,1.3c-0.4,1.5-1.1,2.8-2,3.9
	c-1.4,1.7-3.3,3-5.4,4c-2.2,0.9-4.6,1.4-6.9,1.4c-1.5,0-3-0.2-4.3-0.6c-2-0.6-3.8-1.6-5.2-2.9c-0.7-0.7-1.2-1.5-1.7-2.4
	c-0.4-0.9-0.8-1.9-1-3.1c-0.2-1.1-1.2-1.8-2.2-1.6c-1.1,0.2-1.8,1.2-1.6,2.2c0.3,2.1,1,3.9,2,5.5c1.5,2.4,3.7,4.1,6.1,5.2
	c2.4,1.1,5.2,1.6,7.9,1.6c3.8,0,7.7-1,11-3C110.6,131.8,112.1,130.6,113.3,129z"/>
<path d="M103.5,136.5c-0.2,0.4-0.4,0.7-0.8,1c-0.5,0.4-1.2,0.8-1.9,1.1c-0.8,0.2-1.6,0.4-2.5,0.4c-1.2,0-2.3-0.2-3.2-0.7
	c-0.5-0.2-0.8-0.5-1.1-0.8c-0.3-0.3-0.5-0.6-0.7-0.9c-0.3-0.7-1-1-1.7-0.7c-0.7,0.3-1,1-0.7,1.7c0.3,0.7,0.7,1.3,1.3,1.8
	c0.8,0.8,1.8,1.3,2.8,1.6c1.1,0.3,2.2,0.5,3.3,0.5c1.5,0,3-0.3,4.3-0.9c0.7-0.3,1.3-0.7,1.8-1.2c0.5-0.5,1-1.1,1.4-1.8
	c0.3-0.6,0.1-1.4-0.6-1.7C104.6,135.6,103.8,135.8,103.5,136.5z"/>
<path class="st1" d="M68.5,98.3c0,0,3.5,1.4,3.8,0.5c0.3-0.9-1.9-3.3-1.9-3.3s2.6-3,1.7-3.5s-3.8,0.8-3.8,0.8s-1.8-3-2.8-2.7
	c-1,0.3-0.4,3.9-0.4,3.9s-3.6,0.8-3.4,1.9c0.2,1,3.5,1.6,3.5,1.6s-0.2,3.8,0.7,3.8C66.8,101.2,68.5,98.3,68.5,98.3z"/>
<path class="st1" d="M70.8,102.9c0,0,0.1-2.3-0.6-2.5c-0.7-0.2-1.6,2-1.6,2s-2.3-0.8-2.6-0.2c-0.3,0.6,1.4,2.2,1.4,2.2
	s-1.5,2.1-1,2.4c0.5,0.3,2.5-0.7,2.5-0.7s1.5,2.1,2,1.7c0.5-0.4,0.1-2.6,0.1-2.6s2.5-0.7,2.2-1.4C73,103.2,70.8,102.9,70.8,102.9z"
	/>
<path class="st1" d="M63.1,100.4c0,0,0-1.3-0.4-1.5c-0.4-0.1-0.9,1.2-0.9,1.2s-1.3-0.5-1.5-0.1c-0.2,0.4,0.8,1.2,0.8,1.2
	s-0.9,1.2-0.6,1.4c0.3,0.2,1.4-0.4,1.4-0.4s0.8,1.2,1.1,1c0.3-0.2,0.1-1.5,0.1-1.5s1.5-0.4,1.3-0.8
	C64.3,100.6,63.1,100.4,63.1,100.4z"/>
<path class="st1" d="M136.6,97c0,0,3.5,1.4,3.8,0.5c0.3-0.9-1.9-3.4-1.9-3.4s2.6-3,1.7-3.5c-0.9-0.5-3.8,0.8-3.8,0.8s-1.8-3-2.8-2.7
	c-1,0.3-0.4,3.9-0.4,3.9s-3.6,0.8-3.4,1.9c0.2,1,3.5,1.6,3.5,1.6s-0.2,3.8,0.7,3.8C134.9,99.9,136.6,97,136.6,97z"/>
<path class="st1" d="M138.9,101.6c0,0,0.1-2.3-0.6-2.5c-0.7-0.2-1.6,2-1.6,2s-2.3-0.8-2.6-0.2c-0.3,0.6,1.4,2.2,1.4,2.2
	s-1.5,2.1-1,2.4c0.5,0.3,2.5-0.7,2.5-0.7s1.5,2.1,2,1.7c0.5-0.4,0.1-2.6,0.1-2.6s2.5-0.7,2.2-1.4C141,101.9,138.9,101.6,138.9,101.6
	z"/>
<path class="st1" d="M131.2,99.1c0,0,0-1.3-0.4-1.4c-0.4-0.1-0.9,1.2-0.9,1.2s-1.3-0.5-1.5-0.1c-0.2,0.4,0.8,1.3,0.8,1.3
	s-0.9,1.2-0.6,1.4c0.3,0.2,1.4-0.4,1.4-0.4s0.8,1.2,1.1,1c0.3-0.2,0.1-1.5,0.1-1.5s1.5-0.4,1.3-0.8
	C132.4,99.3,131.2,99.1,131.2,99.1z"/>
</svg>
