<?xml version="1.0" encoding="utf-8"?>
<!-- Generator: Adobe Illustrator 26.0.1, SVG Export Plug-In . SVG Version: 6.00 Build 0)  -->
<svg version="1.1" id="Layer_1" xmlns="http://www.w3.org/2000/svg" xmlns:xlink="http://www.w3.org/1999/xlink" x="0px" y="0px"
	 viewBox="0 0 200 200" style="enable-background:new 0 0 200 200;" xml:space="preserve">
<style type="text/css">
	.st0{fill:#F466BA;}
	.st1{fill:#FFFFFF;}
	.st2{fill:#F89DC6;}
	.st3{fill:#B42026;}
	.st4{fill:#EF3643;}
	.st5{fill:#190D07;}
	.st6{fill:#D53F4C;}
	.st7{fill:#D42049;}
	.st8{fill:#040606;}
	.st9{fill:#751449;}
	.st10{fill:#510D2C;}
	.st11{fill:#76214F;}
	.st12{fill:#C42289;}
	.st13{fill:#A41C6F;}
	.st14{fill:#D03D9A;}
	.st15{fill:#7A171B;}
	.st16{fill:#C62C36;}
	.st17{fill:#F24F57;}
	.st18{fill:#65BED9;}
	.st19{fill:#FF929D;}
	.st20{fill:#F56E1D;}
	.st21{fill:#D93B5A;}
	.st22{fill:#EDC1C2;}
	.st23{fill:#010101;}
	.st24{fill:#030303;}
	.st25{fill:#F8FBFB;}
	.st26{fill:#F5F8F8;}
	.st27{fill:#F6F9F9;}
	.st28{fill:#66CEF5;}
	.st29{fill:#EF8F8F;}
	.st30{fill:#FFE164;}
	.st31{fill:#F7C1C1;}
	.st32{fill:#B6ECFF;}
</style>
<path class="st2" d="M171,113.2c-2.8-6.2-7.4,3.3-16.4,7.5c-9.1,4.1-19.2,1.2-16.4,7.5c2.8,6.2,12.4,7.9,21.5,3.8
	C168.7,127.9,173.8,119.5,171,113.2z M155.2,122.9c0.3,0,0.6,0.3,0.6,0.6c0,0.3-0.3,0.6-0.6,0.6c-0.3,0-0.6-0.3-0.6-0.6
	C154.6,123.2,154.9,122.9,155.2,122.9z M143.7,124.7c0.4,0,0.8,0.4,0.8,0.8c0,0.4-0.4,0.8-0.8,0.8c-0.4,0-0.8-0.4-0.8-0.8
	C142.9,125.1,143.2,124.7,143.7,124.7z M140.8,126.6c0-0.5,0.4-1,1-1c0.5,0,1,0.4,1,1s-0.4,1-1,1
	C141.2,127.6,140.8,127.2,140.8,126.6z M144.4,132.6c-1.4,0-2.5-1.1-2.5-2.5c0-1.4,1.1-2.5,2.5-2.5c1.4,0,2.5,1.1,2.5,2.5
	C147,131.5,145.8,132.6,144.4,132.6z M147.9,127.6c-0.5,0-0.9-0.4-0.9-1c0-0.5,0.4-1,0.9-1c0.5,0,0.9,0.4,0.9,1
	C148.9,127.2,148.4,127.6,147.9,127.6z M149.8,132.6c-0.5,0-0.9-0.4-0.9-0.9c0-0.5,0.4-0.9,0.9-0.9c0.5,0,0.9,0.4,0.9,0.9
	C150.6,132.2,150.2,132.6,149.8,132.6z M151.8,131.7c-0.5,0-0.9-0.4-0.9-1c0-0.5,0.4-1,0.9-1c0.5,0,0.9,0.4,0.9,1
	C152.7,131.3,152.3,131.7,151.8,131.7z M152.7,127.6c-1,0-1.9-0.9-1.9-1.9c0-1.1,0.9-1.9,1.9-1.9s1.9,0.9,1.9,1.9
	C154.6,126.7,153.8,127.6,152.7,127.6z M155.5,130.8c-0.5,0-0.8-0.4-0.8-0.8c0-0.5,0.4-0.8,0.8-0.8s0.8,0.4,0.8,0.8
	C156.3,130.5,155.9,130.8,155.5,130.8z M158.4,129.8c-0.9,0-1.6-0.7-1.6-1.6c0-0.9,0.7-1.6,1.6-1.6c0.9,0,1.6,0.7,1.6,1.6
	C160,129.1,159.3,129.8,158.4,129.8z M159.4,125.7c-0.5,0-0.9-0.4-0.9-1c0-0.5,0.4-1,0.9-1c0.5,0,1,0.4,1,1
	C160.3,125.2,159.9,125.7,159.4,125.7z"/>
<path class="st2" d="M27.7,111.9c-2.8,6.2,2.3,14.6,11.4,18.8c2,0.9,4,1.5,5.9,1.9c-1.1-0.3-1.9-1.3-1.9-2.4c0-1.4,1.1-2.5,2.5-2.5
	c1.4,0,2.5,1.1,2.5,2.5c0,1.4-1.1,2.5-2.5,2.5c-0.1,0-0.2,0-0.3,0c5.4,0.9,10.4-0.2,13.4-3.1c-0.4-0.3-0.7-0.8-0.7-1.3
	c0-0.9,0.7-1.6,1.6-1.6c0.3,0,0.7,0.1,0.9,0.3c0,0,0,0,0-0.1c0.2-0.5,0.4-0.9,0.4-1.3c-0.1,0.1-0.3,0.1-0.4,0.1
	c-0.5,0-0.9-0.4-0.9-1c0-0.5,0.4-1,0.9-1c-1.9-2.2-9.5-1.2-16.4-4.4C35,115.3,30.5,105.7,27.7,111.9z M57.5,130
	c0,0.5-0.4,0.8-0.8,0.8c-0.5,0-0.8-0.4-0.8-0.8c0-0.5,0.4-0.8,0.8-0.8C57.1,129.1,57.5,129.5,57.5,130z M56.4,122.9
	c0.3,0,0.6,0.3,0.6,0.6c0,0.3-0.3,0.6-0.6,0.6c-0.3,0-0.6-0.3-0.6-0.6C55.8,123.2,56.1,122.9,56.4,122.9z M53.9,123.8
	c1,0,1.9,0.9,1.9,1.9c0,1.1-0.8,1.9-1.9,1.9c-1,0-1.9-0.9-1.9-1.9C52,124.6,52.8,123.8,53.9,123.8z M52.9,129.8c0.5,0,1,0.4,1,1
	c0,0.5-0.4,1-1,1c-0.5,0-0.9-0.4-0.9-1C52,130.3,52.4,129.8,52.9,129.8z M50.9,130.8c0.5,0,0.9,0.4,0.9,0.9c0,0.5-0.4,0.9-0.9,0.9
	c-0.5,0-0.9-0.4-0.9-0.9C50,131.2,50.4,130.8,50.9,130.8z M49.1,125.7c0.5,0,1,0.4,1,1c0,0.5-0.4,1-1,1c-0.5,0-0.9-0.4-0.9-1
	C48.1,126.1,48.6,125.7,49.1,125.7z M44.8,124.7c0.4,0,0.8,0.4,0.8,0.8c0,0.4-0.4,0.8-0.8,0.8c-0.4,0-0.8-0.4-0.8-0.8
	C44.1,125.1,44.4,124.7,44.8,124.7z M42.9,125.7c0.5,0,1,0.4,1,1s-0.4,1-1,1c-0.5,0-1-0.4-1-1S42.4,125.7,42.9,125.7z"/>
<path d="M54.9,80.8c-10.3,0-18.6,8.3-18.6,18.6c0,10.3,8.3,18.7,18.6,18.7c10.2,0,18.6-8.3,18.6-18.7C73.4,89.2,65.1,80.8,54.9,80.8
	z M51.8,107.1c-1.9,0-3.5-1.6-3.5-3.5c0-1.9,1.6-3.5,3.5-3.5c1.9,0,3.5,1.6,3.5,3.5C55.2,105.6,53.7,107.1,51.8,107.1z M59.7,100.8
	c-4.4,0-8-3.6-8-8c0-4.4,3.6-8,8-8s8,3.6,8,8C67.7,97.2,64.1,100.8,59.7,100.8z"/>
<path d="M40.9,59.2c-5.6,2.2-9.8,5.3-12.7,8c-2.9,2.6-4.4,4.8-4.6,5c-1.5,2.1-1.1,5.1,1,6.6c2.1,1.5,5,1.1,6.6-1l0,0
	c0.1-0.2,2.3-3.1,6.2-5.9c2-1.4,4.3-2.8,7.1-3.9c2.7-1,5.8-1.7,9.3-1.7c3.6,0,7.6,0.7,12.1,2.6c2.4,1,5.1-0.1,6.2-2.5
	c1-2.4-0.1-5.2-2.5-6.2c-5.6-2.4-10.9-3.4-15.8-3.4C49,56.8,44.7,57.7,40.9,59.2z"/>
<path class="st1" d="M59.7,84.7c-4.4,0-8,3.6-8,8c0,4.4,3.6,8,8,8s8-3.6,8-8C67.7,88.3,64.1,84.7,59.7,84.7z"/>
<ellipse class="st1" cx="51.8" cy="103.6" rx="3.5" ry="3.5"/>
<path d="M147.5,118.1c10.2,0,18.6-8.3,18.6-18.7c0-10.3-8.3-18.6-18.6-18.6c-10.2,0-18.6,8.3-18.6,18.6
	C129,109.8,137.3,118.1,147.5,118.1z M154.2,103.6c0,1.9-1.6,3.5-3.5,3.5s-3.5-1.6-3.5-3.5c0-1.9,1.6-3.5,3.5-3.5
	S154.2,101.7,154.2,103.6z M142.7,84.7c4.4,0,8,3.6,8,8c0,4.4-3.6,8-8,8c-4.4,0-8-3.6-8-8C134.7,88.3,138.3,84.7,142.7,84.7z"/>
<path d="M148.7,56.8c-4.8,0-10.2,1-15.8,3.4c-2.4,1-3.5,3.8-2.5,6.2c1,2.4,3.8,3.5,6.2,2.5c4.5-1.9,8.5-2.6,12.1-2.6
	c3.5,0,6.7,0.7,9.5,1.8c4.2,1.6,7.5,4.1,9.8,6.1c1.1,1,2,2,2.5,2.6c0.3,0.3,0.5,0.6,0.6,0.7c0.1,0.1,0.1,0.1,0.1,0.2l0,0
	c1.5,2.1,4.5,2.6,6.6,1c2.1-1.5,2.6-4.5,1-6.6c-0.2-0.3-2.9-4-7.9-7.7c-2.5-1.9-5.7-3.8-9.4-5.2C157.8,57.7,153.5,56.8,148.7,56.8z"
	/>
<path class="st1" d="M142.7,100.8c4.4,0,8-3.6,8-8c0-4.4-3.6-8-8-8c-4.4,0-8,3.6-8,8C134.7,97.2,138.3,100.8,142.7,100.8z"/>
<path class="st1" d="M147.2,103.6c0,1.9,1.6,3.5,3.5,3.5s3.5-1.6,3.5-3.5c0-1.9-1.6-3.5-3.5-3.5S147.2,101.7,147.2,103.6z"/>
<path d="M80.2,141.1c0,3.2,5.1,10.8,23.3,10.8c18.3,0,23.3-7.6,23.3-10.8s0-23-23.3-23C84.9,118.1,80.2,137.9,80.2,141.1z
	 M124,140.4c0,2.8-4.4,9.5-20.5,9.5c-16,0-20.5-6.7-20.5-9.5c0-2.8,13-9.8,20.5-1.5C112.4,127.4,124,137.6,124,140.4z"/>
<path class="st3" d="M83,140.4c0,2.8,4.5,9.5,20.5,9.5c16.2,0,20.5-6.7,20.5-9.5c0-2.8-11.7-12.9-20.5-1.5
	C95.9,130.6,83,137.6,83,140.4z"/>
<ellipse cx="152.7" cy="125.7" rx="1.9" ry="1.9"/>
<path d="M155.2,124.1c0.3,0,0.6-0.3,0.6-0.6c0-0.3-0.3-0.6-0.6-0.6c-0.3,0-0.6,0.3-0.6,0.6C154.6,123.9,154.9,124.1,155.2,124.1z"/>
<path d="M158.4,126.6c-0.9,0-1.6,0.7-1.6,1.6c0,0.9,0.7,1.6,1.6,1.6c0.9,0,1.6-0.7,1.6-1.6C160,127.3,159.3,126.6,158.4,126.6z"/>
<path d="M159.4,123.8c-0.5,0-0.9,0.4-0.9,1c0,0.5,0.4,1,0.9,1c0.5,0,1-0.4,1-1C160.3,124.2,159.9,123.8,159.4,123.8z"/>
<path d="M155.5,129.1c-0.5,0-0.8,0.4-0.8,0.8c0,0.5,0.4,0.8,0.8,0.8s0.8-0.4,0.8-0.8C156.3,129.5,155.9,129.1,155.5,129.1z"/>
<path d="M151.8,129.8c-0.5,0-0.9,0.4-0.9,1c0,0.5,0.4,1,0.9,1c0.5,0,0.9-0.4,0.9-1C152.7,130.3,152.3,129.8,151.8,129.8z"/>
<path d="M144.4,127.6c-1.4,0-2.5,1.1-2.5,2.5c0,1.4,1.1,2.5,2.5,2.5c1.4,0,2.5-1.1,2.5-2.5C147,128.7,145.8,127.6,144.4,127.6z"/>
<path d="M147.9,125.7c-0.5,0-0.9,0.4-0.9,1c0,0.5,0.4,1,0.9,1c0.5,0,0.9-0.4,0.9-1C148.9,126.1,148.4,125.7,147.9,125.7z"/>
<path d="M149.8,130.8c-0.5,0-0.9,0.4-0.9,0.9c0,0.5,0.4,0.9,0.9,0.9c0.5,0,0.9-0.4,0.9-0.9C150.6,131.2,150.2,130.8,149.8,130.8z"/>
<path d="M142.7,126.6c0-0.5-0.4-1-1-1c-0.5,0-1,0.4-1,1s0.4,1,1,1C142.3,127.6,142.7,127.2,142.7,126.6z"/>
<path d="M143.7,126.3c0.4,0,0.8-0.4,0.8-0.8c0-0.4-0.4-0.8-0.8-0.8c-0.4,0-0.8,0.4-0.8,0.8C142.9,125.9,143.2,126.3,143.7,126.3z"/>
<path d="M53.9,127.6c1,0,1.9-0.9,1.9-1.9c0-1.1-0.8-1.9-1.9-1.9c-1,0-1.9,0.9-1.9,1.9C52,126.7,52.8,127.6,53.9,127.6z"/>
<circle cx="56.4" cy="123.5" r="0.6"/>
<path d="M58,128.2c0,0.5,0.3,1,0.7,1.3c0.3,0.2,0.6,0.3,0.9,0.3c0.9,0,1.6-0.7,1.6-1.6c0-0.5-0.3-1-0.7-1.3
	c-0.3-0.2-0.6-0.3-0.9-0.3C58.7,126.6,58,127.3,58,128.2z"/>
<path d="M59.6,124.7c0,0.5,0.4,1,0.9,1c0.2,0,0.3,0,0.4-0.1c0.3-0.2,0.5-0.5,0.5-0.9c0-0.5-0.4-1-1-1c0,0,0,0,0,0
	C60,123.8,59.6,124.2,59.6,124.7z"/>
<path d="M55.8,130c0,0.5,0.4,0.8,0.8,0.8c0.5,0,0.8-0.4,0.8-0.8c0-0.5-0.4-0.8-0.8-0.8C56.2,129.1,55.8,129.5,55.8,130z"/>
<path d="M52.9,131.7c0.5,0,1-0.4,1-1c0-0.5-0.4-1-1-1c-0.5,0-0.9,0.4-0.9,1C52,131.3,52.4,131.7,52.9,131.7z"/>
<path d="M48.1,130.1c0-1.4-1.1-2.5-2.5-2.5c-1.4,0-2.5,1.1-2.5,2.5c0,1.2,0.8,2.1,1.9,2.4c0.1,0,0.2,0,0.3,0.1c0.1,0,0.2,0,0.3,0
	C47,132.6,48.1,131.5,48.1,130.1z"/>
<path d="M49.1,127.6c0.5,0,1-0.4,1-1c0-0.5-0.4-1-1-1c-0.5,0-0.9,0.4-0.9,1C48.1,127.2,48.6,127.6,49.1,127.6z"/>
<path d="M50.9,132.6c0.5,0,0.9-0.4,0.9-0.9c0-0.5-0.4-0.9-0.9-0.9c-0.5,0-0.9,0.4-0.9,0.9C50,132.2,50.4,132.6,50.9,132.6z"/>
<path d="M42.9,127.6c0.5,0,1-0.4,1-1s-0.4-1-1-1c-0.5,0-1,0.4-1,1S42.4,127.6,42.9,127.6z"/>
<path d="M44.8,126.3c0.4,0,0.8-0.4,0.8-0.8c0-0.4-0.4-0.8-0.8-0.8c-0.4,0-0.8,0.4-0.8,0.8C44.1,125.9,44.4,126.3,44.8,126.3z"/>
</svg>
