<?xml version="1.0" encoding="utf-8"?>
<!-- Generator: Adobe Illustrator 26.0.1, SVG Export Plug-In . SVG Version: 6.00 Build 0)  -->
<svg version="1.1" id="Layer_1" xmlns="http://www.w3.org/2000/svg" xmlns:xlink="http://www.w3.org/1999/xlink" x="0px" y="0px"
	 viewBox="0 0 200 200" style="enable-background:new 0 0 200 200;" xml:space="preserve">
<style type="text/css">
	.st0{fill:#F466BA;}
	.st1{fill:#FFFFFF;}
	.st2{fill:#F89DC6;}
	.st3{fill:#B42026;}
	.st4{fill:#EF3643;}
	.st5{fill:#190D07;}
	.st6{fill:#D53F4C;}
	.st7{fill:#D42049;}
	.st8{fill:#040606;}
	.st9{fill:#751449;}
	.st10{fill:#510D2C;}
	.st11{fill:#76214F;}
	.st12{fill:#C42289;}
	.st13{fill:#A41C6F;}
	.st14{fill:#D03D9A;}
	.st15{fill:#7A171B;}
	.st16{fill:#C62C36;}
	.st17{fill:#F24F57;}
	.st18{fill:#65BED9;}
	.st19{fill:#FF929D;}
	.st20{fill:#F56E1D;}
	.st21{fill:#D93B5A;}
	.st22{fill:#EDC1C2;}
	.st23{fill:#010101;}
	.st24{fill:#030303;}
	.st25{fill:#F8FBFB;}
	.st26{fill:#F5F8F8;}
	.st27{fill:#F6F9F9;}
	.st28{fill:#66CEF5;}
	.st29{fill:#EF8F8F;}
	.st30{fill:#FFE164;}
	.st31{fill:#F7C1C1;}
	.st32{fill:#B6ECFF;}
</style>
<path class="st31" d="M139.3,123.3c-0.5-1.4-1-2.8-1.4-4.2c-0.3-0.9,0.2-2,1.1-2.3c0.9-0.3,2,0.2,2.3,1.1c0.8,2.3,1.6,4.7,2.5,7.1
	c3.3,1,6.9,1.5,10.4,1.8c-1.1-3-2.2-6-3.1-9.1c-0.3-1,0.3-1.9,1.2-2.2c1-0.3,1.9,0.3,2.2,1.2c1,3.5,2.2,6.9,3.5,10.3c0,0,0,0,0,0
	c3.9,0.1,7.9-0.3,10.9-3.2c-1.9-2.4-3.9-4.8-6.1-6.9c-0.7-0.7-0.7-1.8,0-2.5c0.7-0.7,1.8-0.7,2.5,0c2.1,2,4,4.2,5.9,6.5
	c0.6-1.1,1-2.2,1.2-3.4c1.2-6.8-3.5-12.8-9.6-15.7c-2.3-1.1-5-1.8-7.7-2.2c-1.4,3.4-4.5,6.3-8.8,8.1c-2.8,1.2-5.7,1.7-8.5,1.7v0
	c-2.3,0-4.5-0.4-6.4-1.2c-0.6,1.2-1.1,2.6-1.1,4c-0.1,2.9,1.6,5.6,3.8,7.6C135.6,121.3,137.4,122.4,139.3,123.3z"/>
<path class="st31" d="M37,115.5c0.8,0.6,1,1.7,0.4,2.5c-2.1,2.9-3.8,5.9-5.3,9.1c2.8,1.1,5.9,1.1,8.9,0.8c1-3.8,2.9-7.3,4.6-10.4
	c0.5-0.9,1.6-1.2,2.4-0.7c0.9,0.5,1.2,1.6,0.7,2.4c-1.5,2.6-2.9,5.3-3.9,8.1c3.4-0.5,6.8-1.3,9.9-2.5l2.7-8.9
	c0.3-0.9,1.3-1.5,2.2-1.2c0.9,0.3,1.5,1.3,1.2,2.2l-1.7,5.8c1.8-1,3.4-2.2,4.8-3.7c2.1-2.1,3.6-4.9,3.3-7.8c-0.3-2.3-1.4-4.3-3-5.9
	c-2.9,2.2-6.4,3.6-10.1,3.9c-0.6,0.1-1.2,0.1-1.8,0.1c-4.9,0-9.7-1.9-13-5.2c-0.8-0.8-1.5-1.7-2.2-2.6c-1.1,0.4-2.2,0.9-3.2,1.5
	c-5.9,3.3-10.1,9.7-8.5,16.4c0.3,1.2,0.8,2.4,1.6,3.5c0.6,0.9,1.2,1.6,1.9,2.2c1.5-3.2,3.4-6.3,5.5-9.2
	C35,115.1,36.2,114.9,37,115.5z"/>
<path d="M52.4,109.4c0.6,0,1.2,0,1.8-0.1c3.7-0.3,7.2-1.7,10.1-3.9c1.2-0.9,2.3-1.9,3.3-3c1-1.2,1.7-2.3,2.2-3.4
	c0.4-1.1,0.7-2.2,0.9-3.6c0.9-8.8-5.3-18.2-14.2-21.3c-2.4-0.9-4.9-1.1-7.3-0.7c-4.7,0.8-9.1,4.2-11.9,9.3c-3.7,6.7-3.6,13.7-0.1,19
	c0.6,0.9,1.3,1.8,2.2,2.6C42.7,107.5,47.5,109.4,52.4,109.4z M57.8,97L57.8,97c-0.4,0-1.3-0.2-1.7-0.9c-0.2-0.3-0.2-0.8-0.1-1.3
	c0.3-1,1.3-2,2-2.4c0.8-0.4,1.7-0.4,2.4,0c0.7,0.4,1.3,1.2,1,2.1c-0.4,1.2-1.5,2.2-2.6,2.4C58.6,97,58.2,97.1,57.8,97z M50.4,92.6
	c-3,1.5-6.5,0.9-8.4-1.5c-1-1.2-1.1-3.2-0.4-5.3c1-2.7,3.2-5,5.2-5.5v0c0.1,0,0.2,0,0.3-0.1c3.4-0.5,5.4,1.8,6.2,4.2
	C54.1,87.3,53.5,91,50.4,92.6z"/>
<path class="st1" d="M53.2,84.4c-0.7-2.4-2.8-4.7-6.2-4.2c-0.1,0-0.2,0-0.3,0.1v0c-2.1,0.5-4.3,2.8-5.2,5.5
	c-0.8,2.1-0.6,4.1,0.4,5.3c1.9,2.4,5.4,3,8.4,1.5C53.5,91,54.1,87.3,53.2,84.4z"/>
<path class="st1" d="M61.6,94.5c0.3-0.9-0.3-1.7-1-2.1c-0.7-0.4-1.6-0.3-2.4,0c-0.7,0.4-1.7,1.4-2,2.4c-0.2,0.5-0.1,0.9,0.1,1.3
	c0.4,0.7,1.3,0.8,1.7,0.9v0c0.4,0,0.8,0,1.2-0.1C60.1,96.7,61.2,95.7,61.6,94.5z"/>
<path d="M137.8,109.4c2.8,0,5.7-0.6,8.5-1.7c4.3-1.8,7.4-4.7,8.8-8.1c0.2-0.6,0.4-1.2,0.6-1.8c0.6-2.6,0.4-5.5-0.4-9
	c-1.4-5.5-4-9.8-7.5-12.6c-1.8-1.4-3.8-2.4-6.1-2.8c-5.5-1.1-11.3,1-14.8,5.4c-2,2.5-3.4,5.8-4,9.6c-1.1,6.1-0.1,14.7,6.6,18.9
	c0.6,0.4,1.2,0.7,1.9,1C133.2,109,135.4,109.4,137.8,109.4L137.8,109.4z M127.5,87.2c0.3-2.9,1.9-5.6,3.8-6.6l0,0
	c0.1,0,0.2-0.1,0.3-0.1c3.2-1.3,5.7,0.5,7,2.6c1.6,2.6,1.8,6.4-0.9,8.6c-2.6,2.2-6.2,2.4-8.6,0.5C127.9,91.3,127.3,89.4,127.5,87.2z
	 M141.5,92.8c0.1-0.9,0.6-1.6,1.3-2c0.3-0.2,0.7-0.3,1-0.3c0.5,0,1,0.2,1.3,0.6c0.7,1,1,2.4,0.5,3.5c-0.1,0.4-0.3,0.7-0.6,1
	c-0.2,0.3-0.9,1-1.7,0.9c-0.4,0-0.8-0.3-1.1-0.7C141.7,95,141.4,93.6,141.5,92.8z"/>
<path class="st1" d="M129.1,92.2c2.4,1.9,6,1.7,8.6-0.5c2.6-2.2,2.4-6,0.9-8.6c-1.3-2.1-3.8-3.9-7-2.6c-0.1,0-0.2,0.1-0.3,0.1l0,0
	c-1.9,0.9-3.5,3.7-3.8,6.6C127.3,89.4,127.9,91.3,129.1,92.2z"/>
<path class="st1" d="M143.4,96.5c0.8,0.1,1.4-0.6,1.7-0.9c0.2-0.3,0.5-0.6,0.6-1c0.4-1,0.2-2.5-0.5-3.5c-0.3-0.4-0.8-0.6-1.3-0.6
	c-0.4,0-0.7,0.1-1,0.3c-0.7,0.4-1.2,1.2-1.3,2c-0.1,0.8,0.2,2.2,0.8,3C142.7,96.3,143,96.5,143.4,96.5z"/>
<path d="M87.1,105.4c-0.5-0.9-1.6-1.2-2.4-0.7c-0.9,0.5-1.2,1.6-0.7,2.4c2,3.7,5.8,6.4,10,7c0.6,0.1,1.2,0.1,1.9,0.1h0
	c3.6,0,7.2-1.4,9.7-4c0.9-0.9,1.5-1.8,2.2-2.7l-2.9-2.1c-0.6,0.8-1.2,1.6-1.9,2.3c-2.2,2.2-5.4,3.3-8.5,2.8
	C91.4,110.1,88.5,108.2,87.1,105.4z"/>
<path d="M139,116.9c-0.9,0.3-1.4,1.3-1.1,2.3c0.5,1.4,1,2.8,1.4,4.2c0.7,2.1,1.5,4.2,2.2,6.2c0.3,0.7,1,1.2,1.7,1.2
	c0.2,0,0.4,0,0.6-0.1c0.9-0.3,1.4-1.4,1.1-2.3c-0.4-1.1-0.8-2.2-1.2-3.3c-0.8-2.3-1.7-4.7-2.5-7.1C140.9,117,139.9,116.5,139,116.9z
	"/>
<path d="M154.5,116.7c-0.3-1-1.3-1.5-2.2-1.2c-1,0.3-1.5,1.3-1.2,2.2c0.9,3.1,1.9,6.1,3.1,9.1c0.2,0.5,0.4,1,0.6,1.5
	c0.3,0.7,1,1.1,1.7,1.1v0c0.2,0,0.4,0,0.7-0.1c0.9-0.4,1.4-1.4,1-2.3c0,0,0,0,0,0C156.7,123.7,155.5,120.2,154.5,116.7z"/>
<path d="M162.8,114.4c-0.7,0.7-0.7,1.8,0,2.5c2.2,2.2,4.2,4.5,6.1,6.9c0.6,0.8,1.2,1.6,1.8,2.5c0.4,0.5,0.9,0.8,1.5,0.8l0,0
	c0.4,0,0.7-0.1,1-0.3c0.8-0.6,1-1.7,0.4-2.5c-0.8-1.1-1.6-2.2-2.5-3.3c-1.8-2.3-3.8-4.5-5.9-6.5
	C164.6,113.7,163.5,113.7,162.8,114.4z"/>
<path d="M30.1,131.6c0.6-1.5,1.2-3,1.9-4.5c1.5-3.2,3.3-6.2,5.3-9.1c0.6-0.8,0.4-1.9-0.4-2.5c-0.8-0.6-1.9-0.4-2.5,0.4
	c-2.1,2.9-3.9,6-5.5,9.2c-0.8,1.7-1.5,3.4-2.2,5.2c-0.3,0.9,0.1,2,1.1,2.3c0.2,0.1,0.4,0.1,0.6,0.1l0,0
	C29.2,132.8,29.9,132.3,30.1,131.6z"/>
<path d="M48,116.8c-0.9-0.5-2-0.2-2.4,0.7c-1.7,3.1-3.6,6.6-4.6,10.4c-0.2,0.8-0.4,1.6-0.5,2.4c-0.1,1,0.5,1.9,1.5,2
	c0.1,0,0.2,0,0.3,0v0c0.9,0,1.6-0.6,1.8-1.5c0.2-1.2,0.5-2.3,0.9-3.4c1-2.8,2.4-5.5,3.9-8.1C49.2,118.4,48.9,117.3,48,116.8z"/>
<path d="M59.7,114.8c-0.9-0.3-1.9,0.3-2.2,1.2l-2.7,8.9l-1,3.3c-0.3,0.9,0.3,1.9,1.2,2.2c0.2,0.1,0.3,0.1,0.5,0.1
	c0.8,0,1.5-0.5,1.7-1.3l1.9-6.4l1.7-5.8C61.2,116.1,60.6,115.1,59.7,114.8z"/>
</svg>
