<?xml version="1.0" encoding="utf-8"?>
<!-- Generator: Adobe Illustrator 26.0.1, SVG Export Plug-In . SVG Version: 6.00 Build 0)  -->
<svg version="1.1" id="Layer_1" xmlns="http://www.w3.org/2000/svg" xmlns:xlink="http://www.w3.org/1999/xlink" x="0px" y="0px"
	 viewBox="0 0 200 200" style="enable-background:new 0 0 200 200;" xml:space="preserve">
<style type="text/css">
	.st0{fill:#F466BA;}
	.st1{fill:#FFFFFF;}
	.st2{fill:#F89DC6;}
	.st3{fill:#B42026;}
	.st4{fill:#EF3643;}
	.st5{fill:#190D07;}
	.st6{fill:#D53F4C;}
	.st7{fill:#D42049;}
	.st8{fill:#040606;}
	.st9{fill:#751449;}
	.st10{fill:#510D2C;}
	.st11{fill:#76214F;}
	.st12{fill:#C42289;}
	.st13{fill:#A41C6F;}
	.st14{fill:#D03D9A;}
	.st15{fill:#7A171B;}
	.st16{fill:#C62C36;}
	.st17{fill:#F24F57;}
	.st18{fill:#65BED9;}
	.st19{fill:#FF929D;}
	.st20{fill:#F56E1D;}
	.st21{fill:#D93B5A;}
	.st22{fill:#EDC1C2;}
	.st23{fill:#010101;}
	.st24{fill:#030303;}
	.st25{fill:#F8FBFB;}
	.st26{fill:#F5F8F8;}
	.st27{fill:#F6F9F9;}
	.st28{fill:#66CEF5;}
	.st29{fill:#EF8F8F;}
	.st30{fill:#FFE164;}
	.st31{fill:#F7C1C1;}
	.st32{fill:#B6ECFF;}
</style>
<path class="st2" d="M46.9,124.1c-1.1-0.3-1.9-1.3-1.9-2.5c0-1.4,1.1-2.6,2.6-2.6c1.4,0,2.6,1.1,2.6,2.6c0,0.7-0.3,1.2-0.6,1.7
	c0.9-0.2,1.8-0.4,2.8-0.6c0.2-0.2,0.4-0.4,0.7-0.4c0.2,0,0.4,0.1,0.5,0.2c0.2,0,0.4,0,0.6-0.1c0-0.1,0-0.1,0-0.2c0-0.5,0.4-1,1-1
	c0.5,0,1,0.4,1,1c0,0,0,0.1,0,0.1c8.9,0,16.1,4.3,15.4-2c-0.8-6.9-9.6-11.6-19.7-10.4c-10.1,1.2-17.6,7.7-16.8,14.6
	C35.5,130,40.1,126.5,46.9,124.1z M62.7,115.1c0.5,0,1,0.4,1,1c0,0.5-0.4,1-1,1c-0.5,0-1-0.4-1-1C61.8,115.6,62.2,115.1,62.7,115.1z
	 M61.8,118c0.9,0,1.6,0.7,1.6,1.6c0,0.9-0.7,1.6-1.6,1.6c-0.9,0-1.6-0.7-1.6-1.6C60.2,118.8,60.9,118,61.8,118z M59.6,121.5
	c0,0.5-0.4,0.9-0.9,0.9c-0.5,0-0.8-0.4-0.8-0.9s0.4-0.9,0.8-0.9C59.2,120.6,59.6,121,59.6,121.5z M58.5,114.3c0.3,0,0.6,0.3,0.6,0.6
	c0,0.3-0.3,0.6-0.6,0.6c-0.3,0-0.6-0.3-0.6-0.6C57.9,114.6,58.2,114.3,58.5,114.3z M55.9,115.1c1.1,0,1.9,0.9,1.9,1.9
	c0,1.1-0.9,1.9-1.9,1.9c-1.1,0-1.9-0.9-1.9-1.9C54,116,54.9,115.1,55.9,115.1z M51.1,117.1c0.5,0,1,0.4,1,1c0,0.5-0.4,1-1,1
	c-0.5,0-1-0.4-1-1C50.1,117.5,50.5,117.1,51.1,117.1z M46.7,116.1c0.4,0,0.8,0.4,0.8,0.8c0,0.4-0.4,0.8-0.8,0.8
	c-0.4,0-0.8-0.4-0.8-0.8C46,116.5,46.3,116.1,46.7,116.1z M44.8,117.1c0.5,0,1,0.4,1,1c0,0.5-0.4,1-1,1c-0.5,0-1-0.4-1-1
	C43.8,117.5,44.3,117.1,44.8,117.1z"/>
<path d="M28.9,74.6L28.9,74.6c0,0,3.3-1.2,9.2-1.2c3.6,0,8.1,0.4,13.6,1.8c5.4,1.4,11.8,3.8,18.9,7.7c2.3,1.3,5.2,0.4,6.5-1.9
	c1.3-2.3,0.4-5.2-1.9-6.5c-7.8-4.3-14.9-7-21.1-8.6c-6.2-1.6-11.6-2.1-16-2.1c-7.6,0-12.1,1.6-12.5,1.8c-2.5,0.9-3.7,3.7-2.8,6.2
	C23.7,74.3,26.4,75.5,28.9,74.6z"/>
<path d="M44,96.7c-1.8,1.2-2.7,2.1-2.9,2.3c-1.5,1.6-1.5,4.1,0,5.7c1.6,1.5,4.1,1.5,5.6,0l0,0l0,0c0,0,1.2-1.2,3.4-2.3
	c1.1-0.6,2.3-1.1,3.8-1.5c1.5-0.4,3.2-0.7,5.1-0.7c2.9,0,6.2,0.6,10.1,2.3c1.7,0.8,3.8,0.2,4.9-1.4c1.1-1.6,0.9-3.7-0.4-5.1
	c-3.9-4.1-8.3-7.2-12.6-9.5c-6.4-3.4-12.7-5.1-17.4-6c-4.7-0.8-7.8-0.9-8-0.9c-2.2,0-4,1.8-4,4c0,2.2,1.8,4,4,4v0
	c0.1,0,5,0,11.4,1.8c2.5,0.7,5.2,1.6,7.9,2.9c-1.2,0.2-2.4,0.4-3.4,0.7C48.3,94.2,45.7,95.6,44,96.7z"/>
<path d="M176.5,65.6c-0.4-0.2-4.9-1.8-12.5-1.8c-4.4,0-9.7,0.5-16,2.1c-6.2,1.6-13.3,4.3-21.1,8.6c-2.3,1.3-3.2,4.2-1.9,6.5
	c1.3,2.3,4.2,3.2,6.5,1.9c7.1-3.9,13.4-6.3,18.9-7.7c5.4-1.4,10-1.8,13.6-1.8c3.1,0,5.5,0.3,7.1,0.6c0.8,0.2,1.3,0.3,1.7,0.4
	c0.2,0.1,0.3,0.1,0.3,0.1l0,0l0,0c2.5,0.9,5.2-0.3,6.1-2.8C180.2,69.4,179,66.6,176.5,65.6z"/>
<path d="M170.4,83.8c0-2.2-1.8-4-4-4c-0.2,0-5.7,0-13.2,2c-3.7,1-7.9,2.5-12.2,4.8c-4.3,2.3-8.6,5.4-12.6,9.5
	c-1.3,1.4-1.5,3.5-0.4,5.1c1.1,1.6,3.1,2.1,4.9,1.4c3.9-1.7,7.2-2.3,10.1-2.3c2,0,3.8,0.3,5.3,0.7c2.3,0.7,4.1,1.6,5.3,2.4
	c0.6,0.4,1,0.8,1.3,1c0.1,0.1,0.2,0.2,0.3,0.3l0,0l0,0l0,0c1.5,1.5,4.1,1.6,5.6,0c1.6-1.6,1.6-4.1,0-5.7v0c-0.2-0.2-1.9-1.9-4.9-3.5
	c-1.5-0.8-3.4-1.6-5.6-2.3c-1.1-0.3-2.2-0.5-3.4-0.7c4.7-2.2,9.2-3.4,12.7-4c2-0.4,3.7-0.6,4.9-0.6c0.6,0,1-0.1,1.3-0.1
	c0.1,0,0.3,0,0.3,0h0.1C168.6,87.8,170.4,86,170.4,83.8z"/>
<path d="M55.9,119c1.1,0,1.9-0.9,1.9-1.9c0-1.1-0.9-1.9-1.9-1.9c-1.1,0-1.9,0.9-1.9,1.9C54,118.1,54.9,119,55.9,119z"/>
<path d="M58.5,115.5c0.3,0,0.6-0.3,0.6-0.6c0-0.4-0.3-0.6-0.6-0.6c-0.3,0-0.6,0.3-0.6,0.6C57.9,115.3,58.2,115.5,58.5,115.5z"/>
<path d="M61.8,121.3c0.9,0,1.6-0.7,1.6-1.6c0-0.9-0.7-1.6-1.6-1.6c-0.9,0-1.6,0.7-1.6,1.6C60.2,120.6,60.9,121.3,61.8,121.3z"/>
<path d="M62.7,117.1c0.5,0,1-0.4,1-1c0-0.5-0.4-1-1-1c-0.5,0-1,0.4-1,1C61.8,116.6,62.2,117.1,62.7,117.1z"/>
<path d="M57.9,121.5c0,0.5,0.4,0.9,0.8,0.9c0.5,0,0.9-0.4,0.9-0.9s-0.4-0.9-0.9-0.9C58.3,120.6,57.9,121,57.9,121.5z"/>
<path d="M55,121.3c-0.5,0-1,0.4-1,1c0,0.1,0,0.1,0,0.2c0.1,0.4,0.5,0.8,0.9,0.8c0.5,0,0.9-0.4,0.9-0.8c0,0,0-0.1,0-0.1
	C55.9,121.7,55.5,121.3,55,121.3z"/>
<path d="M47.5,119c-1.4,0-2.6,1.1-2.6,2.6c0,1.2,0.8,2.2,1.9,2.5c0.2,0,0.4,0.1,0.6,0.1c0.8,0,1.4-0.3,1.9-0.9
	c0.4-0.5,0.6-1,0.6-1.7C50.1,120.2,49,119,47.5,119z"/>
<path d="M51.1,119c0.5,0,1-0.4,1-1c0-0.5-0.4-1-1-1c-0.5,0-1,0.4-1,1C50.1,118.6,50.5,119,51.1,119z"/>
<path d="M52.2,122.7c-0.1,0.2-0.2,0.3-0.2,0.6c0,0.5,0.4,0.9,0.9,0.9c0.5,0,0.9-0.4,0.9-0.9c0-0.3-0.1-0.5-0.4-0.7
	c-0.2-0.1-0.3-0.2-0.5-0.2C52.6,122.3,52.4,122.5,52.2,122.7z"/>
<path d="M44.8,119c0.5,0,1-0.4,1-1c0-0.5-0.4-1-1-1c-0.5,0-1,0.4-1,1C43.8,118.6,44.3,119,44.8,119z"/>
<path d="M46.7,117.7c0.4,0,0.8-0.4,0.8-0.8c0-0.4-0.4-0.8-0.8-0.8c-0.4,0-0.8,0.4-0.8,0.8C46,117.3,46.3,117.7,46.7,117.7z"/>
<path class="st2" d="M151.9,121.6c0-1.4,1.1-2.6,2.6-2.6c1.4,0,2.6,1.1,2.6,2.6c0,1.2-0.8,2.2-1.9,2.5c6.8,2.4,11.4,6,12,0.6
	c0.8-6.9-6.7-13.4-16.8-14.6c-10.1-1.2-18.9,3.5-19.7,10.4c-0.7,6.3,6.6,2,15.4,2c0,0,0-0.1,0-0.1c0-0.5,0.4-1,1-1c0.5,0,1,0.4,1,1
	c0,0.1,0,0.1,0,0.2c0.2,0,0.4,0,0.6,0.1c0.2-0.1,0.3-0.2,0.5-0.2c0.3,0,0.5,0.1,0.7,0.4c1,0.1,1.9,0.4,2.8,0.6
	C152.1,122.8,151.9,122.2,151.9,121.6z M157.1,117.1c0.5,0,1,0.4,1,1c0,0.5-0.4,1-1,1c-0.5,0-1-0.4-1-1
	C156.2,117.5,156.6,117.1,157.1,117.1z M155.2,116.1c0.4,0,0.8,0.4,0.8,0.8c0,0.4-0.4,0.8-0.8,0.8c-0.4,0-0.8-0.4-0.8-0.8
	C154.4,116.5,154.8,116.1,155.2,116.1z M143.4,114.3c0.3,0,0.6,0.3,0.6,0.6c0,0.3-0.3,0.6-0.6,0.6c-0.3,0-0.6-0.3-0.6-0.6
	C142.8,114.6,143.1,114.3,143.4,114.3z M138.2,116.1c0-0.5,0.4-1,1-1c0.5,0,1,0.4,1,1c0,0.5-0.4,1-1,1
	C138.7,117.1,138.2,116.6,138.2,116.1z M140.2,121.3c-0.9,0-1.6-0.7-1.6-1.6c0-0.9,0.7-1.6,1.6-1.6c0.9,0,1.6,0.7,1.6,1.6
	C141.8,120.6,141.1,121.3,140.2,121.3z M143.2,122.3c-0.5,0-0.9-0.4-0.9-0.9s0.4-0.9,0.9-0.9c0.5,0,0.8,0.4,0.8,0.9
	S143.7,122.3,143.2,122.3z M146,119c-1.1,0-1.9-0.9-1.9-1.9c0-1.1,0.9-1.9,1.9-1.9c1.1,0,1.9,0.9,1.9,1.9
	C147.9,118.1,147.1,119,146,119z M150.9,119c-0.5,0-1-0.4-1-1c0-0.5,0.4-1,1-1c0.5,0,1,0.4,1,1C151.9,118.6,151.4,119,150.9,119z"/>
<path d="M146,115.1c-1.1,0-1.9,0.9-1.9,1.9c0,1.1,0.9,1.9,1.9,1.9c1.1,0,1.9-0.9,1.9-1.9C147.9,116,147.1,115.1,146,115.1z"/>
<path d="M143.4,115.5c0.3,0,0.6-0.3,0.6-0.6c0-0.4-0.3-0.6-0.6-0.6c-0.3,0-0.6,0.3-0.6,0.6C142.8,115.3,143.1,115.5,143.4,115.5z"/>
<path d="M140.2,118c-0.9,0-1.6,0.7-1.6,1.6c0,0.9,0.7,1.6,1.6,1.6c0.9,0,1.6-0.7,1.6-1.6C141.8,118.8,141.1,118,140.2,118z"/>
<path d="M140.2,116.1c0-0.5-0.4-1-1-1c-0.5,0-1,0.4-1,1c0,0.5,0.4,1,1,1C139.7,117.1,140.2,116.6,140.2,116.1z"/>
<path d="M143.2,120.6c-0.5,0-0.9,0.4-0.9,0.9s0.4,0.9,0.9,0.9c0.5,0,0.8-0.4,0.8-0.9S143.7,120.6,143.2,120.6z"/>
<path d="M147,121.3c-0.5,0-1,0.4-1,1c0,0,0,0.1,0,0.1c0.1,0.5,0.5,0.8,0.9,0.8c0.5,0,0.8-0.3,0.9-0.8c0-0.1,0-0.1,0-0.2
	C147.9,121.7,147.5,121.3,147,121.3z"/>
<path d="M157,121.6c0-1.4-1.1-2.6-2.6-2.6c-1.4,0-2.6,1.1-2.6,2.6c0,0.7,0.3,1.2,0.7,1.7c0.5,0.5,1.1,0.9,1.9,0.9
	c0.2,0,0.4,0,0.6-0.1C156.1,123.8,157,122.8,157,121.6z"/>
<path d="M150.9,117.1c-0.5,0-1,0.4-1,1c0,0.5,0.4,1,1,1c0.5,0,1-0.4,1-1C151.9,117.5,151.4,117.1,150.9,117.1z"/>
<path d="M149,122.3c-0.2,0-0.4,0.1-0.5,0.2c-0.2,0.2-0.4,0.4-0.4,0.7c0,0.5,0.4,0.9,0.9,0.9s0.9-0.4,0.9-0.9c0-0.2-0.1-0.4-0.2-0.6
	C149.5,122.5,149.3,122.3,149,122.3z"/>
<path d="M157.1,119c0.5,0,1-0.4,1-1c0-0.5-0.4-1-1-1c-0.5,0-1,0.4-1,1C156.2,118.6,156.6,119,157.1,119z"/>
<path d="M155.2,117.7c0.4,0,0.8-0.4,0.8-0.8c0-0.4-0.4-0.8-0.8-0.8c-0.4,0-0.8,0.4-0.8,0.8C154.4,117.3,154.8,117.7,155.2,117.7z"/>
<path d="M95.6,135c2.4,1.7,5.3,2.6,8.1,2.6c1.9,0,3.8-0.4,5.6-1.2c2.7-1.2,5.1-3.3,6.7-6.2c1.7-2.9,2.6-6.6,2.6-11
	c0-1.3-1.1-2.4-2.4-2.4c-1.3,0-2.4,1.1-2.4,2.4c0,2.5-0.4,4.5-0.9,6.3c-0.9,2.6-2.3,4.4-3.9,5.5c-1.6,1.2-3.5,1.7-5.3,1.7
	c-2.5,0-5-1-6.9-3.1c-1-1-1.8-2.3-2.3-3.9c-0.6-1.6-0.9-3.5-0.9-5.7c0-1.3-1.1-2.4-2.4-2.4c-1.3,0-2.4,1.1-2.4,2.4
	c0,2.7,0.4,5.2,1.2,7.4C91.2,130.7,93.2,133.2,95.6,135z"/>
</svg>
