<?xml version="1.0" encoding="utf-8"?>
<!-- Generator: Adobe Illustrator 26.0.1, SVG Export Plug-In . SVG Version: 6.00 Build 0)  -->
<svg version="1.1" id="Layer_1" xmlns="http://www.w3.org/2000/svg" xmlns:xlink="http://www.w3.org/1999/xlink" x="0px" y="0px"
	 viewBox="0 0 200 200" style="enable-background:new 0 0 200 200;" xml:space="preserve">
<style type="text/css">
	.st0{fill:#F466BA;}
	.st1{fill:#FFFFFF;}
	.st2{fill:#F89DC6;}
	.st3{fill:#B42026;}
	.st4{fill:#EF3643;}
	.st5{fill:#190D07;}
	.st6{fill:#D53F4C;}
	.st7{fill:#D42049;}
	.st8{fill:#040606;}
	.st9{fill:#751449;}
	.st10{fill:#510D2C;}
	.st11{fill:#76214F;}
	.st12{fill:#C42289;}
	.st13{fill:#A41C6F;}
	.st14{fill:#D03D9A;}
	.st15{fill:#7A171B;}
	.st16{fill:#C62C36;}
	.st17{fill:#F24F57;}
	.st18{fill:#65BED9;}
	.st19{fill:#FF929D;}
	.st20{fill:#F56E1D;}
	.st21{fill:#D93B5A;}
	.st22{fill:#EDC1C2;}
	.st23{fill:#010101;}
	.st24{fill:#030303;}
	.st25{fill:#F8FBFB;}
	.st26{fill:#F5F8F8;}
	.st27{fill:#F6F9F9;}
	.st28{fill:#66CEF5;}
	.st29{fill:#EF8F8F;}
	.st30{fill:#FFE164;}
	.st31{fill:#F7C1C1;}
	.st32{fill:#B6ECFF;}
</style>
<path class="st31" d="M33.1,132.8c0.2,1.1,0.5,2.3,1.1,3.3c3,5.5,8.3,5.9,13.3,5.8c7.3-0.2,15-1.3,20.4-5.9c2.1-1.8,3.7-4.1,3.7-6.8
	c-0.1-4-2.8-7.1-6.3-9.2c-1.3,1.6-3.4,3.5-6.5,3.5c0,0,0,0,0,0c0,0,0,0,0,0c0,0-0.1,0-0.1,0c-3.9-0.1-8.4-2.8-12.7-5.7
	c-0.1-0.1-0.2-0.2-0.3-0.3c-1.2,0.3-2.4,0.7-3.5,1.2C36.6,121.2,32.2,126.5,33.1,132.8z"/>
<path class="st29" d="M58.8,118.7c0.9,0,1.8-0.6,3-2l1.7-2c6.6-7.9,13.4-16,12.7-26.2c-0.2-2.7-0.5-7.2-2.4-9.1
	c-2-2.1-6.2-1.2-8.8,0.9c-1.4,1.1-2.5,2.6-3.4,4.2c-0.4,0.8-0.8,1.7-1,2.5c-0.2,0.9-0.4,1.7-0.5,2.7c-0.1,1-0.9,1.9-2,2.1
	c-1,0.2-2.1-0.3-2.6-1.3c-0.2-0.4-0.4-0.8-0.6-1.3c-0.5-1-1-2.1-1.6-2.9c-0.8-1.1-1.8-2-2.9-2.6c-1.5-0.8-2.6-1.2-3.6-1.2l0,0
	c-0.4,0-0.8,0.1-1.2,0.2c-2,0.8-4.4,3-5.5,5.1c-2.6,4.6-0.8,11.4,0.1,14.1c1.6,5,4.6,9.1,8.6,11.9C50.8,115.3,55.8,118.7,58.8,118.7
	z"/>
<path d="M58.7,123.5C58.8,123.5,58.8,123.5,58.7,123.5c3.1,0,5.2-1.9,6.6-3.5c0.1-0.1,0.2-0.2,0.2-0.3l1.7-2
	c6.9-8.2,14.7-17.5,13.8-29.7c-0.3-3.5-0.6-8.9-3.7-12.1c-4-4.3-11.1-3-15.4,0.5c-1.9,1.6-3.4,3.5-4.6,5.8c-0.1,0.3-0.3,0.6-0.4,0.9
	c-1.2-1.5-2.6-2.7-4.1-3.6c-3.4-1.9-6.3-2.3-8.9-1.2c-3,1.2-6.2,4.1-7.9,7.2c-3.3,6-1.6,13.8-0.3,17.9c1.9,5.9,5.4,10.7,10.1,14.1
	c0.1,0.1,0.2,0.2,0.3,0.3C50.3,120.7,54.8,123.5,58.7,123.5z M40.2,102c-0.9-2.7-2.6-9.5-0.1-14.1c1.2-2.1,3.5-4.3,5.5-5.1
	c0.4-0.1,0.8-0.2,1.2-0.2l0,0c1,0,2.2,0.4,3.6,1.2c1.1,0.6,2,1.5,2.9,2.6c0.6,0.8,1.1,1.9,1.6,2.9c0.2,0.4,0.4,0.9,0.6,1.3
	c0.5,0.9,1.5,1.4,2.6,1.3c1-0.2,1.8-1,2-2.1c0.1-1,0.3-1.9,0.5-2.7c0.2-0.9,0.6-1.7,1-2.5c0.8-1.6,2-3.1,3.4-4.2
	c2.5-2.1,6.8-3,8.8-0.9c1.8,2,2.2,6.5,2.4,9.1c0.7,10.2-6.1,18.4-12.7,26.2l-1.7,2c-1.2,1.4-2.1,2-3,2c-3,0-8-3.4-10.1-4.9
	C44.7,111.1,41.8,107,40.2,102z"/>
<path class="st31" d="M153.8,115.1L153.8,115.1c-0.5,0-1-0.1-1.5-0.2c-1.6-0.5-2.5-1.8-3-2.5l-0.2-0.2c-3.5,2-6.3,5-6.5,8.9
	c-0.1,2.6,1.5,5.1,3.5,6.9c5.2,4.8,13,6.1,20.2,6.5c5,0.3,10.4,0.1,13.5-5.3c0.6-1,1-2.1,1.2-3.2c1.1-6.2-3.2-11.7-8.7-14.3
	c-1.5-0.7-3.1-1.2-4.8-1.6c-3.7,1.9-7.5,3.5-11.3,4.8C155.7,114.8,154.8,115.1,153.8,115.1z"/>
<path class="st29" d="M179.7,75.2c-1.8-0.5-4.5-0.3-7,0.6c-2.1,0.7-4.1,2-5.6,3.5c-0.6,0.6-2.3,3.5-3.4,5.7
	c-0.4,0.9-1.3,1.4-2.3,1.3c-1-0.1-1.8-0.7-2.1-1.6l-1.4-4c-1.6-3.6-6.1-7.9-9.2-7.9l0,0c-0.1,0-0.3,0-0.4,0
	c-0.7,0.1-1.5,0.4-2.5,1.1c-3.7,2.5-4.7,8.6-4.5,13.5c0.3,5.6,4.1,11,7.1,15.3l4.8,6.8c0.1,0.2,0.5,0.7,0.6,0.8c0,0,0.3-0.1,0.9-0.3
	c6.6-2.2,13-5.4,19.2-9.5c6-4,9-8.4,9.6-14.4C183.8,83.9,184.1,76.5,179.7,75.2z"/>
<path d="M181,70.6c-2.8-0.8-6.4-0.6-10,0.6c-2.8,1-5.4,2.6-7.5,4.7c-0.5,0.5-1.1,1.3-1.7,2.3c-2.4-4.8-8.5-10.8-14.3-10.1
	c-1.5,0.2-3,0.8-4.6,1.9c-6.7,4.5-6.8,14.7-6.6,17.7c0.4,7,4.6,13,8,17.8l4.7,6.6l0.2,0.2c0.5,0.8,1.4,2,3,2.5
	c0.5,0.2,1,0.2,1.5,0.2l0,0c1,0,1.9-0.3,2.5-0.5c3.8-1.3,7.6-2.9,11.3-4.8c3.1-1.6,6.1-3.3,9.1-5.3c7.3-4.8,11-10.5,11.7-18
	C189.2,78.1,186.5,72.2,181,70.6z M183.5,86.1c-0.6,6-3.6,10.5-9.6,14.4c-6.2,4.1-12.7,7.3-19.2,9.5c-0.5,0.2-0.8,0.3-0.9,0.3
	c-0.2-0.1-0.5-0.6-0.6-0.8l-4.8-6.8c-3.1-4.3-6.9-9.6-7.1-15.3c-0.2-4.9,0.8-11,4.5-13.5c0.9-0.6,1.8-1,2.5-1.1c0.1,0,0.3,0,0.4,0
	l0,0c3.1,0,7.5,4.2,9.2,7.9l1.4,4c0.3,0.9,1.2,1.6,2.1,1.6c1,0.1,1.9-0.5,2.3-1.3c1.1-2.2,2.8-5.1,3.4-5.7c1.6-1.6,3.5-2.8,5.6-3.5
	c2.6-0.9,5.2-1.1,7-0.6C184.1,76.5,183.8,83.9,183.5,86.1z"/>
<path d="M95.9,126.6c1,0.3,2,0.4,3,0.4l0,0c2.8,0,5.5-1,7.7-2.9c0.7,0.7,1.5,1.3,2.4,1.7c2.8,1.3,5.9,1.6,8.4,0.6
	c2-0.8,3.7-2.5,4.4-4.6c0.7-1.8,0.5-3.7-0.3-5.3c-0.6-1.2-2.1-1.6-3.3-0.9c-1.2,0.6-1.6,2.1-1,3.3c0.2,0.4,0.1,1,0,1.3
	c-0.3,0.8-0.9,1.5-1.6,1.7c-1.3,0.5-3,0.3-4.5-0.4c-0.9-0.4-1.4-1.1-1.8-2.2c-0.3-0.9-1.1-1.5-2-1.6c-0.9-0.1-1.8,0.3-2.3,1
	c-1.8,2.7-5,4-7.8,3.2c-1.4-0.4-2.9-1.7-2.7-2.7c0.3-1.3-0.5-2.6-1.8-2.9c-1.3-0.3-2.6,0.5-2.9,1.8C89,122.1,92.2,125.5,95.9,126.6z
	"/>
</svg>
