<?xml version="1.0" encoding="utf-8"?>
<!-- Generator: Adobe Illustrator 26.0.1, SVG Export Plug-In . SVG Version: 6.00 Build 0)  -->
<svg version="1.1" id="Layer_1" xmlns="http://www.w3.org/2000/svg" xmlns:xlink="http://www.w3.org/1999/xlink" x="0px" y="0px"
	 viewBox="0 0 200 200" style="enable-background:new 0 0 200 200;" xml:space="preserve">
<style type="text/css">
	.st0{fill:#F466BA;}
	.st1{fill:#FFFFFF;}
	.st2{fill:#F89DC6;}
	.st3{fill:#B42026;}
	.st4{fill:#EF3643;}
	.st5{fill:#190D07;}
	.st6{fill:#D53F4C;}
	.st7{fill:#D42049;}
	.st8{fill:#040606;}
	.st9{fill:#751449;}
	.st10{fill:#510D2C;}
	.st11{fill:#76214F;}
	.st12{fill:#C42289;}
	.st13{fill:#A41C6F;}
	.st14{fill:#D03D9A;}
	.st15{fill:#7A171B;}
	.st16{fill:#C62C36;}
	.st17{fill:#F24F57;}
	.st18{fill:#65BED9;}
	.st19{fill:#FF929D;}
	.st20{fill:#F56E1D;}
	.st21{fill:#D93B5A;}
	.st22{fill:#EDC1C2;}
	.st23{fill:#010101;}
	.st24{fill:#030303;}
	.st25{fill:#F8FBFB;}
	.st26{fill:#F5F8F8;}
	.st27{fill:#F6F9F9;}
	.st28{fill:#66CEF5;}
	.st29{fill:#EF8F8F;}
	.st30{fill:#FFE164;}
	.st31{fill:#F7C1C1;}
	.st32{fill:#B6ECFF;}
</style>
<path class="st2" d="M155.9,118c-9,4.1-19.2,1.2-16.4,7.4c2.8,6.2,12.4,7.9,21.4,3.8c9-4.1,14.1-12.4,11.3-18.6
	C169.5,104.3,164.9,113.9,155.9,118z M156.5,120.1c0.3,0,0.6,0.3,0.6,0.6c0,0.3-0.3,0.6-0.6,0.6c-0.3,0-0.6-0.3-0.6-0.6
	C155.9,120.4,156.2,120.1,156.5,120.1z M145,121.9c0.4,0,0.8,0.4,0.8,0.8c0,0.4-0.3,0.8-0.8,0.8c-0.4,0-0.8-0.3-0.8-0.8
	C144.2,122.3,144.6,121.9,145,121.9z M142.2,123.8c0-0.5,0.4-1,1-1c0.5,0,1,0.4,1,1c0,0.5-0.4,1-1,1
	C142.6,124.8,142.2,124.4,142.2,123.8z M145.8,129.8c-1.4,0-2.5-1.1-2.5-2.5c0-1.4,1.1-2.5,2.5-2.5c1.4,0,2.5,1.1,2.5,2.5
	C148.3,128.7,147.2,129.8,145.8,129.8z M149.3,124.8c-0.5,0-0.9-0.4-0.9-0.9c0-0.5,0.4-0.9,0.9-0.9c0.5,0,0.9,0.4,0.9,0.9
	C150.2,124.3,149.8,124.8,149.3,124.8z M151.1,129.8c-0.5,0-0.9-0.4-0.9-0.9c0-0.5,0.4-0.9,0.9-0.9c0.5,0,0.9,0.4,0.9,0.9
	C152,129.4,151.6,129.8,151.1,129.8z M153.1,128.9c-0.5,0-0.9-0.4-0.9-0.9c0-0.5,0.4-0.9,0.9-0.9c0.5,0,0.9,0.4,0.9,0.9
	C154,128.5,153.6,128.9,153.1,128.9z M154,124.8c-1,0-1.9-0.8-1.9-1.9c0-1,0.8-1.9,1.9-1.9c1,0,1.9,0.8,1.9,1.9
	C155.9,123.9,155.1,124.8,154,124.8z M156.8,128c-0.5,0-0.8-0.4-0.8-0.8c0-0.5,0.4-0.8,0.8-0.8c0.5,0,0.8,0.4,0.8,0.8
	C157.6,127.6,157.2,128,156.8,128z M159.7,127c-0.9,0-1.6-0.7-1.6-1.6c0-0.9,0.7-1.6,1.6-1.6c0.9,0,1.6,0.7,1.6,1.6
	C161.3,126.3,160.6,127,159.7,127z M160.7,122.9c-0.5,0-0.9-0.4-0.9-1c0-0.5,0.4-0.9,0.9-0.9c0.5,0,0.9,0.4,0.9,0.9
	C161.6,122.5,161.2,122.9,160.7,122.9z"/>
<path class="st2" d="M62.7,122.8c-0.1,0.1-0.3,0.1-0.4,0.1c-0.5,0-0.9-0.4-0.9-1c0-0.5,0.4-0.9,0.9-0.9c-1.9-2.1-9.5-1.2-16.4-4.3
	c-9-4.1-13.6-13.6-16.4-7.4c-2.8,6.2,2.3,14.5,11.3,18.6c2,0.9,4,1.5,5.9,1.8c-1.1-0.3-1.9-1.3-1.9-2.4c0-1.4,1.1-2.5,2.5-2.5
	c1.4,0,2.5,1.1,2.5,2.5c0,1.4-1.1,2.5-2.5,2.5c-0.1,0-0.2,0-0.3,0c5.4,0.9,10.4-0.2,13.3-3.1c-0.4-0.3-0.7-0.8-0.7-1.3
	c0-0.9,0.7-1.6,1.6-1.6c0.3,0,0.7,0.1,0.9,0.3c0,0,0,0,0-0.1C62.5,123.6,62.7,123.2,62.7,122.8z M44.8,124.8c-0.5,0-1-0.4-1-1
	c0-0.5,0.4-1,1-1c0.5,0,1,0.4,1,1C45.7,124.4,45.3,124.8,44.8,124.8z M46.6,123.5c-0.4,0-0.8-0.3-0.8-0.8c0-0.4,0.3-0.8,0.8-0.8
	c0.4,0,0.8,0.4,0.8,0.8C47.4,123.1,47.1,123.5,46.6,123.5z M58.2,120.1c0.3,0,0.6,0.3,0.6,0.6c0,0.3-0.3,0.6-0.6,0.6
	c-0.3,0-0.6-0.3-0.6-0.6C57.5,120.4,57.8,120.1,58.2,120.1z M50.9,124.8c-0.5,0-0.9-0.4-0.9-0.9c0-0.5,0.4-0.9,0.9-0.9
	c0.5,0,0.9,0.4,0.9,0.9C51.8,124.3,51.4,124.8,50.9,124.8z M52.7,129.8c-0.5,0-0.9-0.4-0.9-0.9c0-0.5,0.4-0.9,0.9-0.9
	c0.5,0,0.9,0.4,0.9,0.9C53.6,129.4,53.2,129.8,52.7,129.8z M54.7,128.9c-0.5,0-0.9-0.4-0.9-0.9c0-0.5,0.4-0.9,0.9-0.9
	c0.5,0,0.9,0.4,0.9,0.9C55.7,128.5,55.2,128.9,54.7,128.9z M55.7,124.8c-1,0-1.9-0.8-1.9-1.9c0-1,0.8-1.9,1.9-1.9
	c1,0,1.9,0.8,1.9,1.9C57.5,123.9,56.7,124.8,55.7,124.8z M58.4,128c-0.5,0-0.8-0.4-0.8-0.8c0-0.5,0.4-0.8,0.8-0.8
	c0.5,0,0.8,0.4,0.8,0.8C59.2,127.6,58.8,128,58.4,128z"/>
<path d="M28.1,80.2c2.1,1.5,5,1.1,6.5-1h0l0,0l0,0l0,0c0.1-0.2,2.3-3.1,6.2-5.8c2-1.4,4.3-2.8,7-3.8c2.7-1,5.8-1.7,9.2-1.7
	c3.6,0,7.5,0.7,12,2.6c2.4,1,5.1-0.1,6.1-2.5c1-2.4-0.1-5.1-2.5-6.1c-5.6-2.4-10.9-3.3-15.7-3.3c-4.8,0-9.1,1-12.8,2.4
	c-5.6,2.1-9.8,5.3-12.7,7.9c-2.9,2.6-4.4,4.7-4.6,4.9C25.5,75.7,26,78.6,28.1,80.2z"/>
<path d="M154,121c-1,0-1.9,0.8-1.9,1.9c0,1,0.8,1.9,1.9,1.9c1,0,1.9-0.8,1.9-1.9C155.9,121.8,155.1,121,154,121z"/>
<path d="M156.5,121.4c0.3,0,0.6-0.3,0.6-0.6c0-0.3-0.3-0.6-0.6-0.6c-0.3,0-0.6,0.3-0.6,0.6C155.9,121.1,156.2,121.4,156.5,121.4z"/>
<path d="M159.7,123.8c-0.9,0-1.6,0.7-1.6,1.6c0,0.9,0.7,1.6,1.6,1.6c0.9,0,1.6-0.7,1.6-1.6C161.3,124.5,160.6,123.8,159.7,123.8z"/>
<path d="M160.7,121c-0.5,0-0.9,0.4-0.9,0.9c0,0.5,0.4,1,0.9,1c0.5,0,0.9-0.4,0.9-1C161.6,121.4,161.2,121,160.7,121z"/>
<path d="M156.8,126.3c-0.5,0-0.8,0.4-0.8,0.8c0,0.5,0.4,0.8,0.8,0.8c0.5,0,0.8-0.4,0.8-0.8C157.6,126.7,157.2,126.3,156.8,126.3z"/>
<ellipse cx="153.1" cy="128" rx="0.9" ry="0.9"/>
<path d="M145.8,124.8c-1.4,0-2.5,1.1-2.5,2.5c0,1.4,1.1,2.5,2.5,2.5c1.4,0,2.5-1.1,2.5-2.5C148.3,125.9,147.2,124.8,145.8,124.8z"/>
<path d="M149.3,122.9c-0.5,0-0.9,0.4-0.9,0.9c0,0.5,0.4,0.9,0.9,0.9c0.5,0,0.9-0.4,0.9-0.9C150.2,123.3,149.8,122.9,149.3,122.9z"/>
<path d="M151.1,128c-0.5,0-0.9,0.4-0.9,0.9c0,0.5,0.4,0.9,0.9,0.9c0.5,0,0.9-0.4,0.9-0.9C152,128.4,151.6,128,151.1,128z"/>
<path d="M144.1,123.8c0-0.5-0.4-1-1-1c-0.5,0-1,0.4-1,1c0,0.5,0.4,1,1,1C143.7,124.8,144.1,124.4,144.1,123.8z"/>
<path d="M145,123.5c0.4,0,0.8-0.3,0.8-0.8c0-0.4-0.3-0.8-0.8-0.8c-0.4,0-0.8,0.4-0.8,0.8C144.2,123.1,144.6,123.5,145,123.5z"/>
<path d="M55.7,121c-1,0-1.9,0.8-1.9,1.9c0,1,0.8,1.9,1.9,1.9c1,0,1.9-0.8,1.9-1.9C57.5,121.8,56.7,121,55.7,121z"/>
<path d="M58.2,121.4c0.3,0,0.6-0.3,0.6-0.6c0-0.3-0.3-0.6-0.6-0.6c-0.3,0-0.6,0.3-0.6,0.6C57.5,121.1,57.8,121.4,58.2,121.4z"/>
<path d="M59.8,125.4c0,0.5,0.3,1,0.7,1.3c0.3,0.2,0.6,0.3,0.9,0.3c0.9,0,1.6-0.7,1.6-1.6c0-0.5-0.3-1-0.7-1.3
	c-0.3-0.2-0.6-0.3-0.9-0.3C60.5,123.8,59.8,124.5,59.8,125.4z"/>
<path d="M61.4,121.9c0,0.5,0.4,1,0.9,1c0.2,0,0.3,0,0.4-0.1c0.3-0.2,0.5-0.5,0.5-0.8c0-0.5-0.4-0.9-0.9-0.9c0,0,0,0,0,0
	C61.8,121,61.4,121.4,61.4,121.9z"/>
<path d="M58.4,126.3c-0.5,0-0.8,0.4-0.8,0.8c0,0.5,0.4,0.8,0.8,0.8c0.5,0,0.8-0.4,0.8-0.8C59.2,126.7,58.8,126.3,58.4,126.3z"/>
<path d="M54.7,127c-0.5,0-0.9,0.4-0.9,0.9c0,0.5,0.4,0.9,0.9,0.9c0.5,0,0.9-0.4,0.9-0.9C55.7,127.4,55.2,127,54.7,127z"/>
<path d="M49.9,127.3c0-1.4-1.1-2.5-2.5-2.5c-1.4,0-2.5,1.1-2.5,2.5c0,1.2,0.8,2.1,1.9,2.4c0.1,0,0.2,0.1,0.4,0.1c0.1,0,0.2,0,0.3,0
	C48.8,129.8,49.9,128.7,49.9,127.3z"/>
<path d="M50.9,122.9c-0.5,0-0.9,0.4-0.9,0.9c0,0.5,0.4,0.9,0.9,0.9c0.5,0,0.9-0.4,0.9-0.9C51.8,123.3,51.4,122.9,50.9,122.9z"/>
<path d="M52.7,128c-0.5,0-0.9,0.4-0.9,0.9c0,0.5,0.4,0.9,0.9,0.9c0.5,0,0.9-0.4,0.9-0.9C53.6,128.4,53.2,128,52.7,128z"/>
<path d="M44.8,122.9c-0.5,0-1,0.4-1,1c0,0.5,0.4,1,1,1c0.5,0,1-0.4,1-1C45.7,123.3,45.3,122.9,44.8,122.9z"/>
<path d="M46.6,121.9c-0.4,0-0.8,0.4-0.8,0.8c0,0.4,0.3,0.8,0.8,0.8c0.4,0,0.8-0.3,0.8-0.8C47.4,122.3,47.1,121.9,46.6,121.9z"/>
<path d="M25.7,102.5c1.1,0.7,2.3,1.2,3.4,1.6c1.1,0.3,2.2,0.4,3.2,0.4c2.1,0,3.8-0.5,5.1-1c0.1,0,0.2-0.1,0.3-0.1
	c1,2.3,2.5,4.4,4.2,6.1c3.8,3.8,9,6.1,14.7,6.1c5.7,0,11-2.3,14.7-6.1c3.8-3.8,6.1-9,6.1-14.8c0-1.3-1-2.3-2.3-2.3
	c-1.3,0-2.3,1-2.3,2.3c0,4.5-1.8,8.5-4.7,11.4c-2.9,2.9-6.9,4.7-11.4,4.7c-4.5,0-8.5-1.8-11.4-4.7c-2.9-2.9-4.7-7-4.7-11.4
	c0-1.3-1-2.3-2.3-2.3c-0.1,0-0.1,0-0.2,0c-0.2,0-0.3,0-0.5,0l0,0l0,0c0,0-0.1,0-0.3,0c-0.6,0-2.1-0.1-3.6-0.6
	c-0.7-0.3-1.5-0.7-2.1-1.2c-0.7-0.5-1.3-1.2-1.8-2.1c-0.6-1.1-2.1-1.5-3.2-0.9c-1.1,0.6-1.5,2.1-0.9,3.2c0.8,1.5,1.9,2.6,3,3.5
	c1.7,1.3,3.5,2,5,2.4c0.9,0.2,1.7,0.3,2.4,0.4c0.1,0.6,0.2,1.2,0.3,1.9c-0.2,0.1-0.4,0.2-0.7,0.3c-0.9,0.3-2,0.6-3.2,0.6
	c-0.7,0-1.3-0.1-2-0.3c-0.7-0.2-1.4-0.5-2.1-1c-1.1-0.7-2.5-0.4-3.2,0.7C24.3,100.3,24.6,101.8,25.7,102.5z"/>
<path d="M147.5,115.6c5.7,0,11-2.3,14.7-6.1c1.8-1.8,3.2-3.8,4.2-6.1c0.1,0,0.2,0.1,0.3,0.1c1.3,0.5,3,0.9,5.1,1
	c1,0,2.1-0.1,3.3-0.4c1.1-0.3,2.3-0.8,3.4-1.6c1.1-0.7,1.4-2.2,0.7-3.3c-0.7-1.1-2.2-1.4-3.2-0.7c-0.7,0.5-1.4,0.8-2.1,1
	c-0.7,0.2-1.3,0.3-2,0.3c-1.3,0-2.5-0.3-3.4-0.7c-0.2-0.1-0.3-0.1-0.5-0.2c0.1-0.6,0.2-1.2,0.3-1.9c1.1-0.1,2.5-0.3,4-0.9
	c1.1-0.4,2.3-1,3.4-1.9c1.1-0.9,2.2-2,3-3.5c0.6-1.1,0.2-2.6-0.9-3.2c-1.1-0.6-2.6-0.2-3.2,0.9c-0.5,0.9-1.1,1.6-1.8,2.1
	c-1,0.8-2.2,1.3-3.2,1.5c-1.1,0.3-2,0.3-2.5,0.3c-0.1,0-0.2,0-0.3,0l-0.1,0h0l0,0c-0.2,0-0.4,0-0.5,0c-0.1,0-0.1,0-0.2,0
	c-1.3,0-2.3,1-2.3,2.3c0,4.5-1.8,8.5-4.7,11.4c-2.9,2.9-6.9,4.7-11.4,4.7c-4.5,0-8.5-1.8-11.4-4.7c-2.9-2.9-4.7-7-4.7-11.4
	c0-1.3-1-2.3-2.3-2.3c-1.3,0-2.3,1-2.3,2.3c0,5.8,2.3,11,6.1,14.8C136.5,113.3,141.8,115.6,147.5,115.6z"/>
<path d="M135.1,70.4c4.5-1.9,8.5-2.6,12.1-2.6c3.5,0,6.6,0.7,9.4,1.8c4.1,1.6,7.5,4,9.7,6.1c1.1,1,2,1.9,2.5,2.6
	c0.3,0.3,0.5,0.6,0.6,0.7c0.1,0.1,0.1,0.1,0.1,0.2l0,0l0,0c1.5,2.1,4.4,2.5,6.5,1c2.1-1.5,2.6-4.5,1-6.6c-0.2-0.3-2.9-3.9-7.9-7.7
	c-2.5-1.9-5.6-3.8-9.3-5.2c-3.7-1.4-8-2.4-12.8-2.4c-4.8,0-10.1,1-15.7,3.3c-2.4,1-3.5,3.8-2.5,6.1
	C129.9,70.3,132.7,71.4,135.1,70.4z"/>
<path d="M105,123.6c7.7-1.4,16.1,4.4,18.3-0.5c4.1-9.3-8.6-11.5-21.2-9.2c-12.6,2.3-21.4,7.6-14.1,15.7
	C91.5,133.6,97.9,124.9,105,123.6z M104.4,118.6c3.8-4.4,11.8,1.6,17.3,4.1c-2.1,4.8-9.3-2.2-17-0.8c-7.1,1.3-12.1,10-15.6,6.1
	C91.4,124.7,95,117,104.4,118.6z"/>
<path class="st3" d="M104.7,121.9c7.7-1.4,14.8,5.6,17,0.8c-5.5-2.5-13.5-8.5-17.3-4.1c-9.5-1.6-13,6.1-15.3,9.4
	C92.6,131.9,97.6,123.2,104.7,121.9z"/>
</svg>
