<?xml version="1.0" encoding="utf-8"?>
<!-- Generator: Adobe Illustrator 26.0.1, SVG Export Plug-In . SVG Version: 6.00 Build 0)  -->
<svg version="1.1" id="Layer_1" xmlns="http://www.w3.org/2000/svg" xmlns:xlink="http://www.w3.org/1999/xlink" x="0px" y="0px"
	 viewBox="0 0 200 200" style="enable-background:new 0 0 200 200;" xml:space="preserve">
<style type="text/css">
	.st0{fill:#F466BA;}
	.st1{fill:#FFFFFF;}
	.st2{fill:#F89DC6;}
	.st3{fill:#B42026;}
	.st4{fill:#EF3643;}
	.st5{fill:#190D07;}
	.st6{fill:#D53F4C;}
	.st7{fill:#D42049;}
	.st8{fill:#040606;}
	.st9{fill:#751449;}
	.st10{fill:#510D2C;}
	.st11{fill:#76214F;}
	.st12{fill:#C42289;}
	.st13{fill:#A41C6F;}
	.st14{fill:#D03D9A;}
	.st15{fill:#7A171B;}
	.st16{fill:#C62C36;}
	.st17{fill:#F24F57;}
	.st18{fill:#65BED9;}
	.st19{fill:#FF929D;}
	.st20{fill:#F56E1D;}
	.st21{fill:#D93B5A;}
	.st22{fill:#EDC1C2;}
	.st23{fill:#010101;}
	.st24{fill:#030303;}
	.st25{fill:#F8FBFB;}
	.st26{fill:#F5F8F8;}
	.st27{fill:#F6F9F9;}
	.st28{fill:#66CEF5;}
	.st29{fill:#EF8F8F;}
	.st30{fill:#FFE164;}
	.st31{fill:#F7C1C1;}
	.st32{fill:#B6ECFF;}
</style>
<path class="st2" d="M154.7,128.2c8.9-4,13.8-12.2,11.1-18.3c-2.7-6.1-7.2,3.3-16,7.3c-8.9,4-18.8,1.2-16,7.3
	S145.8,132.2,154.7,128.2z M154.4,120.1c0.5,0,0.9,0.4,0.9,0.9c0,0.5-0.4,0.9-0.9,0.9c-0.5,0-0.9-0.4-0.9-0.9
	C153.5,120.5,153.9,120.1,154.4,120.1z M153.5,122.9c0.9,0,1.6,0.7,1.6,1.6c0,0.9-0.7,1.6-1.6,1.6c-0.9,0-1.6-0.7-1.6-1.6
	C152,123.6,152.6,122.9,153.5,122.9z M151.4,126.2c0,0.5-0.4,0.8-0.8,0.8c-0.5,0-0.8-0.4-0.8-0.8c0-0.5,0.4-0.8,0.8-0.8
	C151,125.4,151.4,125.8,151.4,126.2z M150.4,119.3c0.3,0,0.6,0.3,0.6,0.6s-0.3,0.6-0.6,0.6c-0.3,0-0.6-0.3-0.6-0.6
	S150,119.3,150.4,119.3z M147.9,120.1c1,0,1.9,0.8,1.9,1.9c0,1-0.8,1.9-1.9,1.9c-1,0-1.9-0.8-1.9-1.9
	C146.1,121,146.9,120.1,147.9,120.1z M147,126c0.5,0,0.9,0.4,0.9,0.9c0,0.5-0.4,0.9-0.9,0.9c-0.5,0-0.9-0.4-0.9-0.9
	C146.1,126.5,146.5,126,147,126z M145,127c0.5,0,0.9,0.4,0.9,0.9c0,0.5-0.4,0.9-0.9,0.9c-0.5,0-0.9-0.4-0.9-0.9
	C144.1,127.4,144.5,127,145,127z M143.2,122c0.5,0,0.9,0.4,0.9,0.9c0,0.5-0.4,0.9-0.9,0.9c-0.5,0-0.9-0.4-0.9-0.9
	C142.3,122.4,142.7,122,143.2,122z M142.3,126.3c0,1.4-1.1,2.5-2.5,2.5c-1.4,0-2.5-1.1-2.5-2.5s1.1-2.5,2.5-2.5
	C141.2,123.9,142.3,125,142.3,126.3z M139.1,121.1c0.4,0,0.8,0.3,0.8,0.8s-0.3,0.8-0.8,0.8c-0.4,0-0.8-0.3-0.8-0.8
	S138.7,121.1,139.1,121.1z M137.2,122c0.5,0,0.9,0.4,0.9,0.9c0,0.5-0.4,0.9-0.9,0.9c-0.5,0-0.9-0.4-0.9-0.9
	C136.3,122.4,136.7,122,137.2,122z"/>
<path class="st2" d="M58.4,121.9c-0.1,0.1-0.3,0.1-0.4,0.1c-0.5,0-0.9-0.4-0.9-0.9c0-0.5,0.4-0.9,0.9-0.9c-1.9-2.1-9.3-1.2-16-4.3
	c-8.9-4-13.3-13.4-16-7.3c-2.7,6.1,2.2,14.3,11.1,18.3c1.9,0.9,3.9,1.5,5.8,1.8c-1-0.3-1.8-1.2-1.8-2.4c0-1.4,1.1-2.5,2.5-2.5
	c1.4,0,2.5,1.1,2.5,2.5s-1.1,2.5-2.5,2.5c-0.1,0-0.2,0-0.3,0c5.3,0.9,10.2-0.2,13-3c-0.4-0.3-0.6-0.7-0.6-1.3c0-0.9,0.7-1.6,1.6-1.6
	c0.3,0,0.6,0.1,0.9,0.3c0,0,0,0,0-0.1C58.2,122.7,58.3,122.3,58.4,121.9z M40.8,123.9c-0.5,0-0.9-0.4-0.9-0.9c0-0.5,0.4-0.9,0.9-0.9
	c0.5,0,0.9,0.4,0.9,0.9C41.7,123.4,41.3,123.9,40.8,123.9z M42.6,122.6c-0.4,0-0.8-0.3-0.8-0.8s0.3-0.8,0.8-0.8
	c0.4,0,0.8,0.3,0.8,0.8S43.1,122.6,42.6,122.6z M53.9,119.3c0.3,0,0.6,0.3,0.6,0.6s-0.3,0.6-0.6,0.6c-0.3,0-0.6-0.3-0.6-0.6
	S53.6,119.3,53.9,119.3z M46.8,123.9c-0.5,0-0.9-0.4-0.9-0.9c0-0.5,0.4-0.9,0.9-0.9c0.5,0,0.9,0.4,0.9,0.9
	C47.7,123.4,47.3,123.9,46.8,123.9z M48.6,128.8c-0.5,0-0.9-0.4-0.9-0.9c0-0.5,0.4-0.9,0.9-0.9s0.9,0.4,0.9,0.9
	C49.5,128.4,49.1,128.8,48.6,128.8z M50.5,127.9c-0.5,0-0.9-0.4-0.9-0.9c0-0.5,0.4-0.9,0.9-0.9s0.9,0.4,0.9,0.9
	C51.5,127.5,51.1,127.9,50.5,127.9z M51.5,123.9c-1,0-1.9-0.8-1.9-1.9c0-1,0.8-1.9,1.9-1.9c1,0,1.9,0.8,1.9,1.9
	C53.3,123,52.5,123.9,51.5,123.9z M54.1,127c-0.5,0-0.8-0.4-0.8-0.8c0-0.5,0.4-0.8,0.8-0.8c0.4,0,0.8,0.4,0.8,0.8
	C55,126.7,54.6,127,54.1,127z"/>
<path d="M147.9,123.9c1,0,1.9-0.8,1.9-1.9c0-1-0.8-1.9-1.9-1.9c-1,0-1.9,0.8-1.9,1.9C146.1,123,146.9,123.9,147.9,123.9z"/>
<path d="M150.4,120.5c0.3,0,0.6-0.3,0.6-0.6s-0.3-0.6-0.6-0.6c-0.3,0-0.6,0.3-0.6,0.6S150,120.5,150.4,120.5z"/>
<path d="M153.5,126c0.9,0,1.6-0.7,1.6-1.6c0-0.9-0.7-1.6-1.6-1.6c-0.9,0-1.6,0.7-1.6,1.6C152,125.3,152.6,126,153.5,126z"/>
<path d="M154.4,122c0.5,0,0.9-0.4,0.9-0.9c0-0.5-0.4-0.9-0.9-0.9c-0.5,0-0.9,0.4-0.9,0.9C153.5,121.6,153.9,122,154.4,122z"/>
<path d="M149.8,126.2c0,0.5,0.4,0.8,0.8,0.8c0.5,0,0.8-0.4,0.8-0.8c0-0.5-0.4-0.8-0.8-0.8C150.1,125.4,149.8,125.8,149.8,126.2z"/>
<path d="M147,127.9c0.5,0,0.9-0.4,0.9-0.9c0-0.5-0.4-0.9-0.9-0.9c-0.5,0-0.9,0.4-0.9,0.9C146.1,127.5,146.5,127.9,147,127.9z"/>
<path d="M137.4,126.3c0,1.4,1.1,2.5,2.5,2.5c1.4,0,2.5-1.1,2.5-2.5s-1.1-2.5-2.5-2.5C138.5,123.9,137.4,125,137.4,126.3z"/>
<path d="M143.2,123.9c0.5,0,0.9-0.4,0.9-0.9c0-0.5-0.4-0.9-0.9-0.9c-0.5,0-0.9,0.4-0.9,0.9C142.3,123.4,142.7,123.9,143.2,123.9z"/>
<path d="M145,128.8c0.5,0,0.9-0.4,0.9-0.9c0-0.5-0.4-0.9-0.9-0.9c-0.5,0-0.9,0.4-0.9,0.9C144.1,128.4,144.5,128.8,145,128.8z"/>
<path d="M137.2,123.9c0.5,0,0.9-0.4,0.9-0.9c0-0.5-0.4-0.9-0.9-0.9c-0.5,0-0.9,0.4-0.9,0.9C136.3,123.4,136.7,123.9,137.2,123.9z"/>
<path d="M139.1,122.6c0.4,0,0.8-0.3,0.8-0.8s-0.3-0.8-0.8-0.8c-0.4,0-0.8,0.3-0.8,0.8S138.7,122.6,139.1,122.6z"/>
<path d="M51.5,120.1c-1,0-1.9,0.8-1.9,1.9c0,1,0.8,1.9,1.9,1.9c1,0,1.9-0.8,1.9-1.9C53.3,121,52.5,120.1,51.5,120.1z"/>
<path d="M53.9,120.5c0.3,0,0.6-0.3,0.6-0.6s-0.3-0.6-0.6-0.6c-0.3,0-0.6,0.3-0.6,0.6S53.6,120.5,53.9,120.5z"/>
<path d="M55.5,124.5c0,0.5,0.3,1,0.6,1.3c0.3,0.2,0.6,0.3,0.9,0.3c0.9,0,1.6-0.7,1.6-1.6c0-0.5-0.3-1-0.7-1.3
	c-0.3-0.2-0.6-0.3-0.9-0.3C56.2,122.9,55.5,123.6,55.5,124.5z"/>
<path d="M57.1,121.1c0,0.5,0.4,0.9,0.9,0.9c0.1,0,0.3,0,0.4-0.1c0.3-0.2,0.5-0.5,0.5-0.8c0-0.5-0.4-0.9-0.9-0.9c0,0,0,0,0,0
	C57.5,120.1,57.1,120.5,57.1,121.1z"/>
<path d="M54.1,125.4c-0.5,0-0.8,0.4-0.8,0.8c0,0.5,0.4,0.8,0.8,0.8c0.4,0,0.8-0.4,0.8-0.8C55,125.8,54.6,125.4,54.1,125.4z"/>
<path d="M50.5,126c-0.5,0-0.9,0.4-0.9,0.9c0,0.5,0.4,0.9,0.9,0.9s0.9-0.4,0.9-0.9C51.5,126.5,51.1,126,50.5,126z"/>
<path d="M45.9,126.3c0-1.4-1.1-2.5-2.5-2.5c-1.4,0-2.5,1.1-2.5,2.5c0,1.1,0.8,2.1,1.8,2.4c0.1,0,0.2,0.1,0.4,0.1c0.1,0,0.2,0,0.3,0
	C44.8,128.8,45.9,127.7,45.9,126.3z"/>
<path d="M46.8,122c-0.5,0-0.9,0.4-0.9,0.9c0,0.5,0.4,0.9,0.9,0.9c0.5,0,0.9-0.4,0.9-0.9C47.7,122.4,47.3,122,46.8,122z"/>
<path d="M48.6,127c-0.5,0-0.9,0.4-0.9,0.9c0,0.5,0.4,0.9,0.9,0.9s0.9-0.4,0.9-0.9C49.5,127.4,49.1,127,48.6,127z"/>
<path d="M40.8,122c-0.5,0-0.9,0.4-0.9,0.9c0,0.5,0.4,0.9,0.9,0.9c0.5,0,0.9-0.4,0.9-0.9C41.7,122.4,41.3,122,40.8,122z"/>
<path d="M42.6,121.1c-0.4,0-0.8,0.3-0.8,0.8s0.3,0.8,0.8,0.8c0.4,0,0.8-0.3,0.8-0.8S43.1,121.1,42.6,121.1z"/>
<path d="M22.1,101.9c1.1,0.7,2.2,1.2,3.3,1.5c1.1,0.3,2.2,0.4,3.2,0.4c2,0,3.7-0.5,4.9-0.9c0.1,0,0.2-0.1,0.3-0.1
	c1,2.3,2.4,4.3,4.1,6c3.7,3.7,8.8,6,14.4,6c5.6,0,10.7-2.3,14.4-6c3.7-3.7,6-8.8,6-14.5c0-1.3-1-2.3-2.3-2.3c-1.3,0-2.3,1-2.3,2.3
	c0,4.4-1.8,8.4-4.6,11.2c-2.9,2.9-6.8,4.7-11.2,4.7s-8.3-1.8-11.2-4.7c-2.9-2.9-4.6-6.8-4.6-11.2c0-1.3-1-2.3-2.3-2.3
	c0,0-0.1,0-0.1,0c-0.2,0-0.3,0-0.5,0v0h0h0c0,0-0.1,0-0.3,0c-0.6,0-2.1-0.1-3.5-0.6c-0.7-0.3-1.4-0.7-2.1-1.2
	c-0.7-0.5-1.3-1.2-1.8-2.1c-0.6-1.1-2-1.5-3.1-0.9c-1.1,0.6-1.5,2-0.9,3.1c0.8,1.4,1.8,2.6,2.9,3.4c1.6,1.3,3.4,2,4.9,2.4
	c0.9,0.2,1.7,0.3,2.3,0.4c0.1,0.6,0.2,1.2,0.3,1.8c-0.2,0.1-0.4,0.2-0.6,0.3c-0.8,0.3-2,0.6-3.2,0.6c-0.6,0-1.3-0.1-2-0.3
	c-0.7-0.2-1.3-0.5-2-0.9c-1.1-0.7-2.5-0.4-3.2,0.7C20.8,99.8,21.1,101.2,22.1,101.9z"/>
<path d="M141.5,114.9c5.6,0,10.7-2.3,14.4-6c1.7-1.7,3.1-3.8,4.1-6c0.1,0,0.2,0.1,0.3,0.1c1.2,0.5,2.9,0.9,4.9,0.9
	c1,0,2.1-0.1,3.2-0.4c1.1-0.3,2.2-0.8,3.3-1.5c1.1-0.7,1.4-2.1,0.7-3.2c-0.7-1.1-2.1-1.4-3.2-0.7c-0.7,0.5-1.4,0.8-2,0.9
	c-0.7,0.2-1.3,0.3-2,0.3c-1.3,0-2.5-0.3-3.3-0.6c-0.2-0.1-0.3-0.1-0.5-0.2c0.1-0.6,0.2-1.2,0.3-1.8c1-0.1,2.4-0.3,3.9-0.9
	c1.1-0.4,2.2-1,3.3-1.9c1.1-0.9,2.1-2,2.9-3.4c0.6-1.1,0.2-2.5-0.9-3.1c-1.1-0.6-2.5-0.2-3.1,0.9c-0.5,0.9-1.1,1.6-1.8,2.1
	c-1,0.8-2.1,1.3-3.2,1.5c-1,0.3-2,0.3-2.4,0.3c-0.1,0-0.2,0-0.3,0l0,0l0,0h0h0v0c-0.2,0-0.3,0-0.5,0c0,0-0.1,0-0.1,0
	c-1.3,0-2.3,1-2.3,2.3c0,4.4-1.8,8.4-4.6,11.2c-2.9,2.9-6.8,4.7-11.2,4.7c-4.4,0-8.3-1.8-11.2-4.7c-2.9-2.9-4.6-6.8-4.6-11.2
	c0-1.3-1-2.3-2.3-2.3c-1.3,0-2.3,1-2.3,2.3c0,5.7,2.3,10.8,6,14.5C130.8,112.6,135.9,114.9,141.5,114.9z"/>
<path d="M80.5,119.6c0.9,1.4,2,2.5,3.3,3.2c1.3,0.7,2.8,1.1,4.2,1.1c1.4,0,2.8-0.3,4.1-0.9c2.4-1.1,4.5-3,6.1-5.7
	c0.7,1.2,1.5,2.2,2.4,3.1c1,1,2.2,1.8,3.4,2.3c1.2,0.5,2.4,0.8,3.7,0.8c1.4,0,2.8-0.3,4-0.9c1.9-0.9,3.5-2.4,4.6-4.3
	c1.1-1.9,1.8-4.3,2-7c0.1-1.3-0.9-2.4-2.2-2.4c-1.3-0.1-2.3,0.9-2.4,2.2c-0.1,2.7-1,4.7-2.1,6c-0.6,0.6-1.2,1.1-1.8,1.4
	c-0.7,0.3-1.3,0.5-2,0.5c-0.6,0-1.2-0.1-1.9-0.4c-1-0.4-2-1.2-3-2.5c-1-1.3-1.9-3.1-2.5-5.5c-0.3-1-1.2-1.7-2.3-1.7
	c-1.1,0-2,0.8-2.2,1.9c-0.6,3-1.8,5.2-3.3,6.6c-0.7,0.7-1.5,1.2-2.3,1.6c-0.8,0.3-1.5,0.5-2.2,0.5c-0.6,0-1.2-0.1-1.8-0.4
	c-0.4-0.2-0.8-0.5-1.2-0.9c-0.6-0.6-1.1-1.4-1.5-2.5c-0.4-1.1-0.6-2.6-0.6-4.4c0-1.3-1-2.3-2.3-2.3s-2.3,1-2.3,2.3
	c0,2,0.2,3.8,0.7,5.3C79.4,117.7,79.9,118.7,80.5,119.6z"/>
<path d="M127.6,77.4c0.7,0.4,1.6,0.1,2-0.7c1.8-3.6,4-5.5,5.7-6.6c0.8-0.5,1.6-0.8,2.1-1c0.3-0.1,0.4-0.1,0.6-0.2c0.1,0,0.1,0,0.1,0
	l0,0l0,0c0.8-0.1,1.4-0.9,1.2-1.7c-0.1-0.8-0.9-1.4-1.7-1.2c-0.1,0-1.8,0.3-3.9,1.6c-2.1,1.3-4.7,3.7-6.8,7.8
	C126.5,76.1,126.8,77,127.6,77.4z"/>
<path d="M131.8,74.1c-0.8,0.9-1.6,1.9-2.2,3.2c-0.4,0.7-0.1,1.6,0.7,2c0.7,0.4,1.6,0.1,2-0.7c0.5-1,1.1-1.9,1.7-2.5
	c0.9-0.9,1.9-1.5,2.9-1.8c1-0.3,2-0.5,2.8-0.5c0.7,0,1.4,0.1,1.8,0.2c0.2,0,0.4,0.1,0.5,0.1c0.1,0,0.1,0,0.1,0l0,0h0l0,0
	c0.8,0.2,1.6-0.2,1.8-1c0.3-0.8-0.2-1.6-1-1.9c-0.1,0-1.4-0.4-3.3-0.5c-1.5,0-3.3,0.3-5.1,1.2C133.6,72.6,132.7,73.3,131.8,74.1z"/>
<path d="M63,67.2L63,67.2L63,67.2L63,67.2c0.1,0,1.2,0.2,2.7,1.2c1.5,1,3.4,2.7,5,5.9c0.4,0.7,1.3,1,2,0.7c0.7-0.4,1-1.3,0.7-2
	c-1.9-3.8-4.3-6-6.3-7.2c-2-1.2-3.5-1.5-3.6-1.5c-0.8-0.1-1.6,0.4-1.7,1.2C61.7,66.3,62.2,67.1,63,67.2z"/>
<path d="M59.4,72.1L59.4,72.1c0,0,1-0.3,2.2-0.3c1,0,2.3,0.2,3.4,0.8c0.6,0.3,1.2,0.7,1.7,1.3c0.6,0.6,1.1,1.3,1.6,2.3
	c0.4,0.7,1.3,1,2,0.7c0.7-0.4,1-1.3,0.7-2c-0.6-1.2-1.3-2.2-2.1-3c-1.2-1.2-2.5-2-3.7-2.4c-1.3-0.4-2.5-0.6-3.5-0.6
	c-1.8,0-3,0.4-3.1,0.4c-0.8,0.2-1.2,1.1-1,1.9C57.8,71.9,58.6,72.3,59.4,72.1z"/>
</svg>
