<?xml version="1.0" encoding="utf-8"?>
<!-- Generator: Adobe Illustrator 26.0.1, SVG Export Plug-In . SVG Version: 6.00 Build 0)  -->
<svg version="1.1" id="Layer_1" xmlns="http://www.w3.org/2000/svg" xmlns:xlink="http://www.w3.org/1999/xlink" x="0px" y="0px"
	 viewBox="0 0 200 200" style="enable-background:new 0 0 200 200;" xml:space="preserve">
<style type="text/css">
	.st0{fill:#F466BA;}
	.st1{fill:#FFFFFF;}
	.st2{fill:#F89DC6;}
	.st3{fill:#B42026;}
	.st4{fill:#EF3643;}
	.st5{fill:#190D07;}
	.st6{fill:#D53F4C;}
	.st7{fill:#D42049;}
	.st8{fill:#040606;}
	.st9{fill:#751449;}
	.st10{fill:#510D2C;}
	.st11{fill:#76214F;}
	.st12{fill:#C42289;}
	.st13{fill:#A41C6F;}
	.st14{fill:#D03D9A;}
	.st15{fill:#7A171B;}
	.st16{fill:#C62C36;}
	.st17{fill:#F24F57;}
	.st18{fill:#65BED9;}
	.st19{fill:#FF929D;}
	.st20{fill:#F56E1D;}
	.st21{fill:#D93B5A;}
	.st22{fill:#EDC1C2;}
	.st23{fill:#010101;}
	.st24{fill:#030303;}
	.st25{fill:#F8FBFB;}
	.st26{fill:#F5F8F8;}
	.st27{fill:#F6F9F9;}
	.st28{fill:#66CEF5;}
	.st29{fill:#EF8F8F;}
	.st30{fill:#FFE164;}
	.st31{fill:#F7C1C1;}
	.st32{fill:#B6ECFF;}
</style>
<path class="st2" d="M151.1,127.7c-8.8,4-18.6,1.2-15.9,7.2c2.7,6,12.1,7.7,20.8,3.7c8.8-4,13.7-12.1,11-18.1
	C164.4,114.4,159.9,123.7,151.1,127.7z M151.8,129.8c0.3,0,0.6,0.3,0.6,0.6s-0.3,0.6-0.6,0.6c-0.3,0-0.6-0.3-0.6-0.6
	S151.4,129.8,151.8,129.8z M140.6,131.6c0.4,0,0.8,0.3,0.8,0.8c0,0.4-0.3,0.8-0.8,0.8s-0.8-0.3-0.8-0.8
	C139.8,131.9,140.1,131.6,140.6,131.6z M137.8,133.4c0-0.5,0.4-0.9,0.9-0.9s0.9,0.4,0.9,0.9c0,0.5-0.4,0.9-0.9,0.9
	S137.8,133.9,137.8,133.4z M141.3,139.2c-1.3,0-2.4-1.1-2.4-2.4c0-1.3,1.1-2.4,2.4-2.4s2.4,1.1,2.4,2.4
	C143.8,138.1,142.7,139.2,141.3,139.2z M144.7,134.3c-0.5,0-0.9-0.4-0.9-0.9c0-0.5,0.4-0.9,0.9-0.9c0.5,0,0.9,0.4,0.9,0.9
	C145.6,133.9,145.2,134.3,144.7,134.3z M146.5,139.2c-0.5,0-0.9-0.4-0.9-0.9c0-0.5,0.4-0.9,0.9-0.9c0.5,0,0.9,0.4,0.9,0.9
	C147.3,138.8,146.9,139.2,146.5,139.2z M148.4,138.4c-0.5,0-0.9-0.4-0.9-0.9c0-0.5,0.4-0.9,0.9-0.9c0.5,0,0.9,0.4,0.9,0.9
	C149.3,137.9,148.9,138.4,148.4,138.4z M149.3,134.3c-1,0-1.8-0.8-1.8-1.8c0-1,0.8-1.8,1.8-1.8c1,0,1.8,0.8,1.8,1.8
	C151.2,133.5,150.4,134.3,149.3,134.3z M152,137.5c-0.4,0-0.8-0.4-0.8-0.8c0-0.4,0.4-0.8,0.8-0.8c0.4,0,0.8,0.4,0.8,0.8
	C152.8,137.1,152.4,137.5,152,137.5z M154.9,136.5c-0.9,0-1.5-0.7-1.5-1.6c0-0.9,0.7-1.5,1.5-1.5c0.9,0,1.5,0.7,1.5,1.5
	C156.4,135.8,155.7,136.5,154.9,136.5z M155.8,132.5c-0.5,0-0.9-0.4-0.9-0.9s0.4-0.9,0.9-0.9c0.5,0,0.9,0.4,0.9,0.9
	S156.3,132.5,155.8,132.5z"/>
<path class="st2" d="M39.3,137.3c1.9,0.9,3.9,1.5,5.7,1.8c-1-0.3-1.8-1.2-1.8-2.4c0-1.3,1.1-2.4,2.4-2.4c1.3,0,2.4,1.1,2.4,2.4
	c0,1.3-1.1,2.4-2.4,2.4c-0.1,0-0.2,0-0.3,0c5.3,0.9,10.1-0.2,12.9-3c-0.4-0.3-0.6-0.7-0.6-1.2c0-0.9,0.7-1.5,1.5-1.5
	c0.3,0,0.6,0.1,0.9,0.3c0,0,0,0,0-0.1c0.2-0.5,0.3-0.9,0.4-1.3c-0.1,0.1-0.3,0.1-0.4,0.1c-0.5,0-0.9-0.4-0.9-0.9
	c0-0.5,0.4-0.9,0.9-0.9c-1.9-2.1-9.2-1.2-15.9-4.2c-8.8-4-13.2-13.3-15.9-7.2C25.5,125.2,30.5,133.3,39.3,137.3z M57.1,136.7
	c0,0.5-0.4,0.8-0.8,0.8c-0.4,0-0.8-0.4-0.8-0.8c0-0.4,0.4-0.8,0.8-0.8C56.7,135.9,57.1,136.2,57.1,136.7z M56.1,129.8
	c0.3,0,0.6,0.3,0.6,0.6s-0.3,0.6-0.6,0.6c-0.3,0-0.6-0.3-0.6-0.6S55.7,129.8,56.1,129.8z M53.6,130.6c1,0,1.8,0.8,1.8,1.8
	c0,1-0.8,1.8-1.8,1.8c-1,0-1.8-0.8-1.8-1.8C51.8,131.5,52.6,130.6,53.6,130.6z M52.7,136.5c0.5,0,0.9,0.4,0.9,0.9
	c0,0.5-0.4,0.9-0.9,0.9c-0.5,0-0.9-0.4-0.9-0.9C51.8,136.9,52.2,136.5,52.7,136.5z M50.8,137.5c0.5,0,0.9,0.4,0.9,0.9
	c0,0.5-0.4,0.9-0.9,0.9c-0.5,0-0.9-0.4-0.9-0.9C49.9,137.9,50.3,137.5,50.8,137.5z M49,132.5c0.5,0,0.9,0.4,0.9,0.9
	c0,0.5-0.4,0.9-0.9,0.9c-0.5,0-0.9-0.4-0.9-0.9C48.1,132.9,48.5,132.5,49,132.5z M44.9,131.6c0.4,0,0.8,0.3,0.8,0.8
	c0,0.4-0.3,0.8-0.8,0.8c-0.4,0-0.8-0.3-0.8-0.8C44.1,131.9,44.4,131.6,44.9,131.6z M43,132.5c0.5,0,0.9,0.4,0.9,0.9
	c0,0.5-0.4,0.9-0.9,0.9s-0.9-0.4-0.9-0.9C42.1,132.9,42.5,132.5,43,132.5z"/>
<path d="M57,73.2c-5.9,0-10,1.3-10.3,1.3c-2.4,0.7-3.8,3.3-3,5.7c0.7,2.4,3.3,3.8,5.7,3l0,0c0,0,3.2-0.9,7.6-0.9
	c1.8,0,3.8,0.2,5.8,0.6c3.1,0.6,6.4,1.8,9.5,3.9c3.1,2.1,6.2,5.2,8.9,9.9c1.3,2.2,4.1,2.9,6.2,1.6c2.2-1.3,2.9-4.1,1.6-6.3
	c-2.2-3.8-4.8-7-7.5-9.5c-4.1-3.8-8.6-6.2-12.9-7.6C64.5,73.6,60.4,73.2,57,73.2z"/>
<path d="M166.7,85.1c-0.8-1.9-2-4.2-3.7-6.6c-1.2-1.8-2.8-3.7-4.6-5.6c-2.8-2.8-6.3-5.4-10.6-7.2c-4.3-1.9-9.5-3.1-15.4-3.1
	c-0.5,0-1,0-1.5,0c-2.5,0.1-4.5,2.2-4.4,4.7c0.1,2.5,2.2,4.5,4.7,4.4c0.4,0,0.8,0,1.2,0c5.6,0,9.9,1.3,13.4,3.1
	c2.6,1.4,4.8,3.1,6.6,5c2.7,2.8,4.5,5.8,5.6,8.2c0.6,1.2,0.9,2.1,1.2,2.8c0.1,0.3,0.2,0.6,0.2,0.7c0,0.1,0,0.1,0,0.2l0,0l0,0
	c0.7,2.4,3.1,3.9,5.6,3.2c2.4-0.7,3.9-3.2,3.2-5.6C168.2,89.2,167.8,87.6,166.7,85.1z"/>
<path d="M149.3,130.6c-1,0-1.8,0.8-1.8,1.8c0,1,0.8,1.8,1.8,1.8c1,0,1.8-0.8,1.8-1.8C151.2,131.5,150.4,130.6,149.3,130.6z"/>
<path d="M151.8,131c0.3,0,0.6-0.3,0.6-0.6s-0.3-0.6-0.6-0.6c-0.3,0-0.6,0.3-0.6,0.6S151.4,131,151.8,131z"/>
<path d="M154.9,133.4c-0.9,0-1.5,0.7-1.5,1.5c0,0.9,0.7,1.6,1.5,1.6c0.9,0,1.5-0.7,1.5-1.6C156.4,134.1,155.7,133.4,154.9,133.4z"/>
<path d="M155.8,130.6c-0.5,0-0.9,0.4-0.9,0.9s0.4,0.9,0.9,0.9c0.5,0,0.9-0.4,0.9-0.9S156.3,130.6,155.8,130.6z"/>
<path d="M152,135.9c-0.4,0-0.8,0.4-0.8,0.8c0,0.5,0.4,0.8,0.8,0.8c0.4,0,0.8-0.4,0.8-0.8C152.8,136.2,152.4,135.9,152,135.9z"/>
<path d="M148.4,136.5c-0.5,0-0.9,0.4-0.9,0.9c0,0.5,0.4,0.9,0.9,0.9c0.5,0,0.9-0.4,0.9-0.9C149.3,136.9,148.9,136.5,148.4,136.5z"/>
<path d="M141.3,134.3c-1.3,0-2.4,1.1-2.4,2.4c0,1.3,1.1,2.4,2.4,2.4s2.4-1.1,2.4-2.4C143.8,135.4,142.7,134.3,141.3,134.3z"/>
<path d="M144.7,132.5c-0.5,0-0.9,0.4-0.9,0.9c0,0.5,0.4,0.9,0.9,0.9c0.5,0,0.9-0.4,0.9-0.9C145.6,132.9,145.2,132.5,144.7,132.5z"/>
<path d="M146.5,137.5c-0.5,0-0.9,0.4-0.9,0.9c0,0.5,0.4,0.9,0.9,0.9c0.5,0,0.9-0.4,0.9-0.9C147.3,137.9,146.9,137.5,146.5,137.5z"/>
<path d="M139.7,133.4c0-0.5-0.4-0.9-0.9-0.9s-0.9,0.4-0.9,0.9c0,0.5,0.4,0.9,0.9,0.9S139.7,133.9,139.7,133.4z"/>
<path d="M140.6,133.1c0.4,0,0.8-0.3,0.8-0.8c0-0.4-0.3-0.8-0.8-0.8s-0.8,0.3-0.8,0.8C139.8,132.7,140.1,133.1,140.6,133.1z"/>
<path d="M53.6,134.3c1,0,1.8-0.8,1.8-1.8c0-1-0.8-1.8-1.8-1.8c-1,0-1.8,0.8-1.8,1.8C51.8,133.5,52.6,134.3,53.6,134.3z"/>
<path d="M56.1,131c0.3,0,0.6-0.3,0.6-0.6s-0.3-0.6-0.6-0.6c-0.3,0-0.6,0.3-0.6,0.6S55.7,131,56.1,131z"/>
<path d="M57.6,135c0,0.5,0.3,1,0.6,1.2c0.3,0.2,0.6,0.3,0.9,0.3c0.9,0,1.5-0.7,1.5-1.6c0-0.5-0.3-1-0.7-1.3
	c-0.3-0.2-0.6-0.3-0.9-0.3C58.3,133.4,57.6,134.1,57.6,135z"/>
<path d="M59.2,131.6c0,0.5,0.4,0.9,0.9,0.9c0.1,0,0.3,0,0.4-0.1c0.3-0.2,0.5-0.5,0.5-0.8c0-0.5-0.4-0.9-0.9-0.9c0,0,0,0,0,0
	C59.6,130.6,59.2,131.1,59.2,131.6z"/>
<path d="M55.5,136.7c0,0.5,0.4,0.8,0.8,0.8c0.4,0,0.8-0.4,0.8-0.8c0-0.4-0.4-0.8-0.8-0.8C55.8,135.9,55.5,136.2,55.5,136.7z"/>
<path d="M52.7,138.4c0.5,0,0.9-0.4,0.9-0.9c0-0.5-0.4-0.9-0.9-0.9c-0.5,0-0.9,0.4-0.9,0.9C51.8,137.9,52.2,138.4,52.7,138.4z"/>
<path d="M48.1,136.8c0-1.3-1.1-2.4-2.4-2.4c-1.3,0-2.4,1.1-2.4,2.4c0,1.1,0.8,2.1,1.8,2.4c0.1,0,0.2,0,0.3,0.1c0.1,0,0.2,0,0.3,0
	C47,139.2,48.1,138.1,48.1,136.8z"/>
<path d="M49,134.3c0.5,0,0.9-0.4,0.9-0.9c0-0.5-0.4-0.9-0.9-0.9c-0.5,0-0.9,0.4-0.9,0.9C48.1,133.9,48.5,134.3,49,134.3z"/>
<path d="M50.8,139.2c0.5,0,0.9-0.4,0.9-0.9c0-0.5-0.4-0.9-0.9-0.9c-0.5,0-0.9,0.4-0.9,0.9C49.9,138.8,50.3,139.2,50.8,139.2z"/>
<path d="M43,134.3c0.5,0,0.9-0.4,0.9-0.9c0-0.5-0.4-0.9-0.9-0.9s-0.9,0.4-0.9,0.9C42.1,133.9,42.5,134.3,43,134.3z"/>
<path d="M44.9,133.1c0.4,0,0.8-0.3,0.8-0.8c0-0.4-0.3-0.8-0.8-0.8c-0.4,0-0.8,0.3-0.8,0.8C44.1,132.7,44.4,133.1,44.9,133.1z"/>
<path d="M110.6,130.1c-0.7,0.3-1.2,0.8-1.7,1.2c-0.8,0.8-1.4,1.7-1.9,2.5c-0.4,0.6-0.7,1.2-1,1.7c-0.5,0.8-0.9,1.4-1.4,1.7
	c-0.2,0.2-0.4,0.3-0.6,0.4c-0.2,0.1-0.5,0.1-0.8,0.1c-0.4,0-0.7-0.1-0.8-0.1c-0.1-0.1-0.2-0.1-0.3-0.2c-0.1-0.1-0.2-0.2-0.3-0.4
	c-0.2-0.3-0.4-0.8-0.6-1.5c-0.1-0.5-0.3-1-0.5-1.5c-0.2-0.4-0.3-0.9-0.6-1.3c-0.2-0.3-0.4-0.7-0.7-1c-0.4-0.5-1-0.9-1.7-1.2
	c-0.7-0.3-1.5-0.4-2.2-0.4c-0.9,0-1.7,0.2-2.5,0.5c-0.7,0.3-1.2,0.6-1.7,1c-0.9,0.7-1.5,1.5-2.1,2.3c-0.4,0.6-0.8,1.1-1.1,1.6
	c-0.2,0.4-0.5,0.7-0.7,1c-0.3,0.4-0.6,0.7-0.7,0.8c-0.1,0-0.1,0.1-0.1,0.1c-0.2,0-0.4,0-0.5-0.1c-0.2-0.1-0.3-0.1-0.5-0.3
	c-0.1-0.1-0.3-0.3-0.4-0.6c-0.2-0.4-0.4-1-0.5-1.7c-0.1-0.7-0.2-1.6-0.2-2.5c0-0.2,0-0.4,0-0.6c0-1.3-1-2.4-2.3-2.4
	c-1.3,0-2.4,1-2.4,2.3c0,0.3,0,0.5,0,0.8c0,1.2,0.1,2.3,0.3,3.4c0.1,0.8,0.4,1.6,0.7,2.3c0.2,0.6,0.5,1.1,0.9,1.6
	c0.5,0.8,1.2,1.4,2.1,1.9c0.9,0.5,1.9,0.7,2.9,0.7c0.8,0,1.7-0.2,2.3-0.6c0.6-0.3,1-0.7,1.4-1.1c0.7-0.7,1.2-1.5,1.6-2.1
	c0.3-0.5,0.7-1,1-1.5c0.5-0.7,0.9-1.2,1.3-1.5c0.2-0.1,0.4-0.2,0.6-0.3c0.2-0.1,0.4-0.1,0.7-0.1c0.1,0,0.2,0,0.3,0
	c0.1,0,0.1,0,0.1,0.1c0,0,0.1,0.1,0.2,0.2c0.2,0.3,0.3,0.8,0.6,1.4c0.2,0.5,0.3,1.1,0.6,1.7c0.2,0.5,0.4,0.9,0.7,1.4
	c0.2,0.4,0.5,0.7,0.8,1.1c0.5,0.5,1.2,1,1.9,1.3c0.8,0.3,1.6,0.4,2.5,0.4c1,0,1.9-0.2,2.8-0.5c0.7-0.3,1.4-0.7,1.9-1.2
	c0.9-0.8,1.6-1.7,2.1-2.6c0.4-0.7,0.8-1.3,1.1-1.8c0.2-0.4,0.5-0.8,0.7-1.1c0.3-0.5,0.6-0.7,0.8-0.9c0.1-0.1,0.2-0.1,0.3-0.1
	c0.1,0,0.2-0.1,0.4-0.1c0.9,0,1.6,0.2,2.1,0.4c0.4,0.2,0.7,0.4,0.9,0.6c0.4,0.4,0.7,0.9,0.9,1.5c0.2,0.6,0.3,1.4,0.3,2.1
	c0,1.3,1,2.3,2.3,2.3c1.3,0,2.3-1.1,2.3-2.3c0-1.1-0.1-2.2-0.4-3.2c-0.2-0.8-0.6-1.6-1-2.3c-0.7-1.1-1.7-2.1-2.9-2.8
	c-1.3-0.7-2.8-1-4.5-1C112.3,129.5,111.4,129.8,110.6,130.1z"/>
<path d="M60.6,100.1c-1.6-0.8-3.3-1.2-5-1.2c-1.8,0-3.7,0.5-5.4,1.5c-1.9,1.1-3.4,2.7-4.4,4.4c-1,1.8-1.5,3.8-1.5,5.8
	c0,2.3,0.6,4.5,2,6.6c1.5,2.3,3.5,4,5.7,5.2c2.3,1.2,4.8,1.8,7.3,1.8c2.7,0,5.4-0.7,7.8-2.1c2.8-1.6,4.9-3.9,6.4-6.5
	c1.5-2.6,2.2-5.5,2.2-8.5c0-3.3-0.9-6.6-2.9-9.6c-2.2-3.3-5.1-5.9-8.5-7.7c-3.3-1.7-7.1-2.7-10.8-2.7c-4,0-8,1-11.6,3.2
	c-1,0.6-1.4,2-0.8,3c0.6,1,2,1.4,3,0.8c2.9-1.7,6.1-2.6,9.3-2.6c3.1,0,6.1,0.7,8.8,2.2c2.7,1.4,5.1,3.5,6.8,6.2
	c1.5,2.3,2.2,4.8,2.2,7.2c0,2.2-0.6,4.4-1.6,6.3c-1.1,1.9-2.7,3.6-4.8,4.9c-1.7,1-3.6,1.5-5.6,1.5c-1.8,0-3.6-0.4-5.3-1.3
	c-1.6-0.9-3-2.1-4.1-3.7c-0.9-1.3-1.3-2.8-1.3-4.2c0-1.3,0.3-2.5,1-3.6c0.6-1.1,1.6-2.1,2.8-2.8c1-0.6,2.1-0.9,3.2-0.9
	c1,0,2.1,0.3,3,0.7c0.3,0.1,0.6,0.3,0.8,0.5c-0.1-0.1-0.2-0.1-0.3-0.2c-0.8-0.4-1.7-0.7-2.7-0.7c-1,0-2,0.3-2.9,0.8l0,0
	c-1,0.6-1.7,1.4-2.2,2.3c-0.5,0.9-0.8,2-0.8,3c0,1.2,0.3,2.4,1,3.4c0.7,1.1,1.7,2,2.8,2.6c1.1,0.6,2.3,0.9,3.6,0.9
	c1.3,0,2.7-0.3,3.9-1.1c1.3-0.8,2.4-1.9,3.1-3.1c0.7-1.3,1.1-2.7,1.1-4.1c0-1.6-0.5-3.2-1.4-4.6v0C63.5,102.1,62.2,100.9,60.6,100.1
	z M61.1,110.3c-0.3,0.6-0.8,1.1-1.5,1.5c-0.5,0.3-1.1,0.4-1.6,0.4c-0.5,0-1.1-0.1-1.6-0.4c-0.5-0.3-0.9-0.6-1.2-1.1
	c-0.2-0.3-0.3-0.7-0.3-1c0-0.3,0.1-0.6,0.2-0.9c0.1-0.3,0.4-0.5,0.7-0.7h0c0.2-0.1,0.4-0.2,0.6-0.2c0.2,0,0.4,0.1,0.6,0.2
	c0.2,0.1,0.3,0.2,0.5,0.4c0.7,1,2,1.3,3,0.6c0.6-0.4,0.9-0.9,1-1.6c0,0.2,0,0.4,0,0.6C61.6,109,61.4,109.7,61.1,110.3z"/>
<path d="M123.5,93.3c0.6,1,2,1.4,3,0.8c2.9-1.7,6.1-2.6,9.3-2.6c3.1,0,6.1,0.7,8.8,2.2c2.7,1.4,5.1,3.5,6.8,6.2
	c1.5,2.3,2.2,4.8,2.2,7.2c0,2.2-0.6,4.4-1.6,6.3c-1.1,1.9-2.7,3.6-4.8,4.9c-1.7,1-3.6,1.5-5.6,1.5c-1.8,0-3.6-0.4-5.3-1.3
	c-1.6-0.9-3-2.1-4.1-3.7c-0.9-1.3-1.3-2.8-1.3-4.2c0-1.3,0.3-2.5,1-3.6c0.6-1.1,1.6-2.1,2.8-2.8c1-0.6,2.1-0.9,3.2-0.9
	c1,0,2.1,0.3,3,0.7c0.3,0.2,0.6,0.3,0.8,0.5c-0.1-0.1-0.2-0.1-0.3-0.2c-0.8-0.4-1.7-0.7-2.7-0.7c-1,0-2,0.3-2.9,0.8l0,0
	c-1,0.6-1.7,1.4-2.2,2.3c-0.5,0.9-0.8,2-0.8,3c0,1.2,0.3,2.4,1,3.4v0c0.7,1.1,1.7,2,2.8,2.6c1.1,0.6,2.3,0.9,3.6,0.9
	c1.3,0,2.7-0.3,3.9-1.1c1.3-0.8,2.4-1.9,3.1-3.1c0.7-1.3,1.1-2.7,1.1-4.1c0-1.6-0.5-3.2-1.4-4.7h0c-1-1.6-2.4-2.8-3.9-3.6
	c-1.6-0.8-3.3-1.2-5-1.2c-1.8,0-3.7,0.5-5.4,1.5c-1.9,1.1-3.4,2.7-4.4,4.4c-1,1.8-1.5,3.8-1.5,5.8c0,2.3,0.6,4.5,2,6.6
	c1.5,2.3,3.5,4,5.7,5.2c2.3,1.2,4.8,1.8,7.3,1.8c2.7,0,5.4-0.7,7.8-2.1c2.8-1.6,4.9-3.9,6.4-6.5c1.5-2.6,2.2-5.5,2.2-8.5
	c0-3.3-0.9-6.6-2.9-9.6c-2.2-3.3-5.1-5.9-8.5-7.7c-3.3-1.7-7.1-2.7-10.8-2.7c-4,0-8,1-11.6,3.2C123.2,90.9,122.8,92.3,123.5,93.3z
	 M143.4,110.3c-0.3,0.6-0.8,1.1-1.5,1.5c-0.5,0.3-1.1,0.4-1.6,0.4c-0.5,0-1.1-0.1-1.6-0.4c-0.5-0.3-0.9-0.6-1.2-1.1h0
	c-0.2-0.3-0.3-0.7-0.3-1c0-0.3,0.1-0.6,0.2-0.9c0.1-0.3,0.4-0.5,0.7-0.7h0c0.2-0.1,0.4-0.2,0.6-0.2c0.2,0,0.4,0.1,0.6,0.2
	c0.2,0.1,0.3,0.2,0.5,0.4c0.7,1,2,1.3,3,0.6c0.6-0.4,0.9-0.9,1-1.6c0,0.2,0,0.4,0,0.6C143.9,109,143.7,109.7,143.4,110.3z"/>
</svg>
