<?xml version="1.0" encoding="utf-8"?>
<!-- Generator: Adobe Illustrator 26.0.1, SVG Export Plug-In . SVG Version: 6.00 Build 0)  -->
<svg version="1.1" id="Layer_1" xmlns="http://www.w3.org/2000/svg" xmlns:xlink="http://www.w3.org/1999/xlink" x="0px" y="0px"
	 viewBox="0 0 200 200" style="enable-background:new 0 0 200 200;" xml:space="preserve">
<style type="text/css">
	.st0{fill:#F466BA;}
	.st1{fill:#FFFFFF;}
	.st2{fill:#F89DC6;}
	.st3{fill:#B42026;}
	.st4{fill:#EF3643;}
	.st5{fill:#190D07;}
	.st6{fill:#D53F4C;}
	.st7{fill:#D42049;}
	.st8{fill:#040606;}
	.st9{fill:#751449;}
	.st10{fill:#510D2C;}
	.st11{fill:#76214F;}
	.st12{fill:#C42289;}
	.st13{fill:#A41C6F;}
	.st14{fill:#D03D9A;}
	.st15{fill:#7A171B;}
	.st16{fill:#C62C36;}
	.st17{fill:#F24F57;}
	.st18{fill:#65BED9;}
	.st19{fill:#FF929D;}
	.st20{fill:#F56E1D;}
	.st21{fill:#D93B5A;}
	.st22{fill:#EDC1C2;}
	.st23{fill:#010101;}
	.st24{fill:#030303;}
	.st25{fill:#F8FBFB;}
	.st26{fill:#F5F8F8;}
	.st27{fill:#F6F9F9;}
	.st28{fill:#66CEF5;}
	.st29{fill:#EF8F8F;}
	.st30{fill:#FFE164;}
	.st31{fill:#F7C1C1;}
	.st32{fill:#B6ECFF;}
</style>
<path class="st4" d="M106,120.8c0.1-0.6,0.1-1.3,0.1-2c-0.9-0.3-1.7-0.6-2.5-1c-1.4-0.8-2.5-1.8-3.4-2.9c-0.6-0.7-1.1-1.5-1.6-2.2
	c-0.5,0.8-1.1,1.6-1.8,2.4c-0.9,1-2,2-3.3,2.9c0,0.1,0,0.3,0,0.4c0,0.6,0,1.3,0.1,1.9c0.1,0.6,0.1,1.2,0.2,1.7
	c0.1,0.3,0.1,0.5,0.2,0.7c0.2,0.7,0.6,1.1,1.1,1.5c0.5,0.4,1.2,0.8,2.3,1c0.7,0.2,1.6,0.2,2.6,0.2c1.1,0,2-0.1,2.6-0.3
	c0.6-0.2,1.1-0.5,1.5-0.8c0.3-0.2,0.5-0.5,0.7-0.8c0.3-0.4,0.6-0.9,0.9-1.5c0,0,0.1-0.2,0.1-0.4C105.9,121.4,105.9,121.1,106,120.8z
	"/>
<path class="st2" d="M64.9,106c-3.1-6.9-13.8-8.8-23.8-4.2c-10.1,4.5-15.7,13.8-12.6,20.7c2.1,4.8,5.2,1.2,10.2-3
	c-0.5-0.3-0.8-0.9-0.8-1.5c0-1,0.8-1.8,1.8-1.8c0.8,0,1.4,0.5,1.7,1.1c1.6-1.2,3.4-2.3,5.3-3.1c0.1-0.1,0.2-0.1,0.3-0.1
	c-0.1-0.3-0.2-0.6-0.2-1c0-1.2,0.9-2.1,2.1-2.1c1,0,1.9,0.7,2.1,1.7c1.5-0.4,2.9-0.7,4.3-0.9c0.1-0.5,0.5-0.8,1-0.8
	c0.4,0,0.7,0.2,0.9,0.5C63,110.7,66.9,110.4,64.9,106z M36.8,115.2c-0.6,0-1.1-0.5-1.1-1.1c0-0.6,0.5-1.1,1.1-1.1
	c0.6,0,1.1,0.5,1.1,1.1C37.9,114.7,37.4,115.2,36.8,115.2z M38.9,113.8c-0.5,0-0.9-0.4-0.9-0.9c0-0.5,0.4-0.9,0.9-0.9
	c0.5,0,0.9,0.4,0.9,0.9C39.8,113.4,39.4,113.8,38.9,113.8z M43.6,115.2c-0.6,0-1-0.5-1-1.1c0-0.6,0.5-1.1,1-1.1
	c0.6,0,1.1,0.5,1.1,1.1C44.6,114.7,44.2,115.2,43.6,115.2z M51.7,111.4c-0.4,0-0.7-0.3-0.7-0.7c0-0.4,0.3-0.7,0.7-0.7
	c0.4,0,0.7,0.3,0.7,0.7C52.4,111.1,52.1,111.4,51.7,111.4z"/>
<path class="st2" d="M161.1,103.6c-10-4.6-20.7-2.7-23.8,4.2c-1.9,4.2,1.5,4.6,6.7,5.4c0-0.1,0-0.1,0-0.2c0.1-1,0.9-1.7,1.9-1.7
	c1,0.1,1.7,0.9,1.7,1.9c0,0.2-0.1,0.4-0.1,0.5c2.6,0.5,5.4,1.1,8.1,2.4c10,4.6,15.1,15.1,18.2,8.3
	C176.8,117.4,171.2,108.2,161.1,103.6z M144.8,110.2c-0.6,0-1-0.5-1-1.1c0-0.6,0.5-1,1.1-1c0.6,0,1,0.5,1,1.1
	C145.9,109.8,145.4,110.2,144.8,110.2z M149.5,108.8c-0.4,0-0.7-0.3-0.6-0.7c0-0.4,0.3-0.7,0.7-0.6c0.4,0,0.7,0.3,0.6,0.7
	C150.2,108.5,149.9,108.8,149.5,108.8z M152.1,112.7c-1.2-0.1-2-1.1-2-2.2c0.1-1.2,1.1-2,2.2-2c1.2,0.1,2,1.1,2,2.2
	C154.2,111.9,153.2,112.8,152.1,112.7z M157.4,113c-0.6,0-1-0.5-1-1.1c0-0.6,0.5-1,1.1-1c0.6,0,1,0.5,1,1.1
	C158.5,112.6,158,113,157.4,113z M161,117.1c-0.6,0-1.1-0.6-1.1-1.2c0-0.6,0.6-1.1,1.2-1.1c0.6,0,1.1,0.6,1.1,1.2
	C162.2,116.7,161.6,117.2,161,117.1z M162.2,111.8c-0.5,0-0.8-0.4-0.8-0.9c0-0.5,0.4-0.8,0.9-0.8c0.5,0,0.8,0.4,0.8,0.9
	C163,111.5,162.6,111.9,162.2,111.8z M164.2,113.4c-0.6,0-1-0.5-1-1.1c0-0.6,0.5-1,1.1-1c0.6,0,1,0.5,1,1.1S164.8,113.4,164.2,113.4
	z"/>
<path d="M152.3,108.5c-1.2-0.1-2.1,0.8-2.2,2c-0.1,1.2,0.8,2.2,2,2.2c1.2,0.1,2.2-0.8,2.2-2C154.4,109.5,153.5,108.6,152.3,108.5z"
	/>
<path d="M149.6,107.4c-0.4,0-0.7,0.3-0.7,0.6c0,0.4,0.3,0.7,0.6,0.7c0.4,0,0.7-0.3,0.7-0.6C150.2,107.7,150,107.4,149.6,107.4z"/>
<path d="M145.8,111.3c-1-0.1-1.8,0.7-1.9,1.7c0,0.1,0,0.1,0,0.2c0.1,0.9,0.8,1.6,1.7,1.7c0.8,0,1.5-0.4,1.7-1.1
	c0.1-0.2,0.1-0.3,0.1-0.5C147.5,112.2,146.8,111.3,145.8,111.3z"/>
<path d="M144.9,108.1c-0.6,0-1.1,0.4-1.1,1c0,0.6,0.4,1.1,1,1.1c0.6,0,1.1-0.4,1.1-1C145.9,108.6,145.5,108.1,144.9,108.1z"/>
<path d="M149.8,115.2c0-0.5-0.4-1-0.9-1c-0.5,0-1,0.4-1,0.9c0,0.5,0.4,1,0.9,1C149.4,116.1,149.8,115.7,149.8,115.2z"/>
<path d="M154,116.3c0-0.6-0.4-1.1-1-1.1c-0.6,0-1.1,0.4-1.1,1c0,0.6,0.4,1.1,1,1.1C153.4,117.4,153.9,116.9,154,116.3z"/>
<path d="M161.1,114.8c-0.6,0-1.2,0.5-1.2,1.1c0,0.6,0.5,1.2,1.1,1.2c0.6,0,1.2-0.5,1.2-1.1C162.2,115.4,161.8,114.9,161.1,114.8z"/>
<path d="M157.5,110.9c-0.6,0-1.1,0.4-1.1,1c0,0.6,0.4,1.1,1,1.1c0.6,0,1.1-0.4,1.1-1C158.5,111.4,158.1,110.9,157.5,110.9z"/>
<path d="M156.1,117.5c0-0.5-0.4-1-0.9-1c-0.5,0-1,0.4-1,0.9c0,0.5,0.4,1,0.9,1C155.6,118.5,156,118.1,156.1,117.5z"/>
<path d="M164.3,111.3c-0.6,0-1.1,0.4-1.1,1c0,0.6,0.4,1.1,1,1.1s1.1-0.4,1.1-1S164.9,111.3,164.3,111.3z"/>
<path d="M162.3,110.1c-0.5,0-0.9,0.3-0.9,0.8c0,0.5,0.3,0.9,0.8,0.9c0.5,0,0.9-0.3,0.9-0.8C163.1,110.5,162.7,110.1,162.3,110.1z"/>
<path d="M48.9,111c-1.2,0-2.1,0.9-2.1,2.1c0,0.3,0.1,0.7,0.2,1c0.3,0.7,1,1.1,1.9,1.1c1.2,0,2.1-0.9,2.1-2.1c0-0.1,0-0.3,0-0.4
	C50.8,111.7,49.9,111,48.9,111z"/>
<path d="M51.7,110.1c-0.4,0-0.7,0.3-0.7,0.7c0,0.4,0.3,0.7,0.7,0.7c0.4,0,0.7-0.3,0.7-0.7C52.4,110.4,52.1,110.1,51.7,110.1z"/>
<path d="M53.5,115.9c0,1,0.8,1.8,1.8,1.8c1,0,1.8-0.8,1.8-1.8c0-1-0.8-1.8-1.8-1.8C54.3,114.1,53.5,114.9,53.5,115.9z"/>
<path d="M56.3,111c-0.5,0-0.9,0.3-1,0.8c0,0.1-0.1,0.2-0.1,0.3c0,0.6,0.5,1.1,1,1.1c0.6,0,1.1-0.5,1.1-1.1c0-0.2-0.1-0.4-0.2-0.5
	C57,111.2,56.7,111,56.3,111z"/>
<circle cx="51.9" cy="117.9" r="0.9"/>
<path d="M46.8,118.7c0,0.6,0.5,1.1,1.1,1.1c0.6,0,1.1-0.5,1.1-1.1c0-0.6-0.5-1.1-1.1-1.1C47.3,117.7,46.8,118.1,46.8,118.7z"/>
<path d="M39.8,116.2c-1,0-1.8,0.8-1.8,1.8c0,0.6,0.3,1.1,0.8,1.5c0.3,0.2,0.6,0.3,1,0.3c1,0,1.8-0.8,1.8-1.8c0-0.2,0-0.4-0.1-0.6
	C41.2,116.7,40.5,116.2,39.8,116.2z"/>
<path d="M43.6,113.1c-0.6,0-1,0.5-1,1.1c0,0.6,0.5,1.1,1,1.1c0.6,0,1.1-0.5,1.1-1.1C44.6,113.6,44.2,113.1,43.6,113.1z"/>
<path d="M44.6,119.8c0,0.5,0.4,1,1,1c0.5,0,1-0.4,1-1c0-0.5-0.4-1-1-1C45.1,118.8,44.6,119.2,44.6,119.8z"/>
<path d="M36.8,113.1c-0.6,0-1.1,0.5-1.1,1.1c0,0.6,0.5,1.1,1.1,1.1c0.6,0,1.1-0.5,1.1-1.1C37.9,113.6,37.4,113.1,36.8,113.1z"/>
<path d="M38.9,112c-0.5,0-0.9,0.4-0.9,0.9c0,0.5,0.4,0.9,0.9,0.9c0.5,0,0.9-0.4,0.9-0.9C39.8,112.4,39.4,112,38.9,112z"/>
<path d="M78.4,114.9c1,1.6,2.3,2.8,3.8,3.6c1.5,0.8,3.1,1.2,4.8,1.2c0.5,0,0.9,0,1.4-0.1c0,0.6,0.1,1.2,0.1,1.7
	c0.1,0.5,0.1,1,0.2,1.5c0.1,0.5,0.2,0.9,0.4,1.4c0.3,1,0.9,1.9,1.6,2.7c1,1.2,2.4,2.1,4,2.7c1.6,0.6,3.4,0.8,5.4,0.8
	c1.4,0,2.6-0.1,3.7-0.5c0.8-0.2,1.6-0.5,2.3-0.9c1.1-0.6,1.9-1.4,2.6-2.2c0.7-0.8,1.2-1.7,1.7-2.5l-2.3-1.2l2.3,1.2
	c0.3-0.5,0.4-1,0.6-1.5c0.2-0.7,0.3-1.5,0.3-2.2c0-0.6,0.1-1.1,0.1-1.6c0.9-0.2,1.7-0.4,2.5-0.8c2.1-1,3.9-2.7,5.2-4.9
	s2.1-4.9,2.2-7.9c0.1-1.4-1.1-2.7-2.5-2.7c-1.4-0.1-2.7,1.1-2.7,2.5c-0.1,3-1.1,5.3-2.4,6.7c-0.6,0.7-1.4,1.3-2.1,1.6
	c-0.7,0.4-1.5,0.5-2.3,0.5c-0.1,0-0.3,0-0.4,0c-0.2,0-0.4-0.1-0.7-0.1c-0.4-0.1-0.7-0.2-1.1-0.3c-1.1-0.5-2.3-1.3-3.4-2.8
	c-1-1.3-1.8-3-2.5-5.2l0,0c0,0,0,0,0,0c-0.1-0.3-0.2-0.7-0.3-1c-0.3-1.2-1.4-2-2.6-1.9c-1.2,0-2.2,0.9-2.5,2.1
	c-0.7,3.3-2.1,5.8-3.8,7.4c-0.8,0.8-1.7,1.4-2.6,1.8c-0.9,0.4-1.7,0.6-2.5,0.6c-0.7,0-1.4-0.2-2-0.4c-0.5-0.2-0.9-0.5-1.3-1
	c-0.6-0.6-1.2-1.6-1.6-2.8c-0.4-1.3-0.7-2.9-0.7-5c0-1.4-1.2-2.6-2.6-2.6c-1.4,0-2.6,1.2-2.6,2.6c0,2.2,0.3,4.3,0.8,6
	C77.2,112.6,77.8,113.8,78.4,114.9z M104.8,123.4c-0.2,0.3-0.5,0.5-0.7,0.8c-0.4,0.3-0.8,0.6-1.5,0.8c-0.6,0.2-1.5,0.3-2.6,0.3
	c-1,0-1.9-0.1-2.6-0.2c-1.1-0.2-1.8-0.6-2.3-1c-0.5-0.4-0.8-0.9-1.1-1.5c0-0.1-0.1-0.4-0.2-0.7c-0.1-0.5-0.2-1-0.2-1.7
	c-0.1-0.6-0.1-1.3-0.1-1.9c0-0.1,0-0.3,0-0.4c1.3-0.9,2.4-1.9,3.3-2.9c0.7-0.8,1.3-1.6,1.8-2.4c0.4,0.7,1,1.5,1.6,2.2
	c0.9,1.1,2.1,2.1,3.4,2.9c0.7,0.4,1.6,0.8,2.5,1c0,0.7,0,1.4-0.1,2c0,0.3-0.1,0.6-0.1,0.8c-0.1,0.2-0.1,0.3-0.1,0.4
	C105.4,122.5,105.1,123,104.8,123.4z"/>
<path d="M131.9,67.1c0.8,0.4,1.8,0.1,2.2-0.8c2-4.1,4.5-6.2,6.4-7.4c1-0.6,1.8-0.9,2.4-1.1c0.3-0.1,0.5-0.2,0.6-0.2
	c0.1,0,0.1,0,0.1,0l0,0l0,0l0,0v0c0.9-0.1,1.5-1,1.4-1.9c-0.1-0.9-1-1.5-1.9-1.4c-0.2,0-2,0.3-4.4,1.8c-2.4,1.5-5.4,4.2-7.7,8.8
	C130.7,65.7,131,66.7,131.9,67.1z"/>
<path d="M136.7,63.5c-0.9,1-1.8,2.2-2.5,3.6c-0.4,0.8-0.1,1.8,0.7,2.3c0.8,0.4,1.8,0.1,2.2-0.8c0.6-1.2,1.3-2.1,1.9-2.8
	c1-1.1,2.1-1.7,3.3-2.1c1.1-0.4,2.2-0.5,3.2-0.5c0.8,0,1.5,0.1,2,0.2c0.2,0,0.4,0.1,0.6,0.1c0.1,0,0.1,0,0.1,0l0,0l0,0
	c0.9,0.3,1.8-0.2,2.1-1.1c0.3-0.9-0.2-1.8-1.1-2.1c-0.1,0-1.6-0.5-3.8-0.5c-1.7,0-3.8,0.3-5.8,1.4C138.7,61.8,137.6,62.5,136.7,63.5
	z"/>
<path d="M58.7,55.6L58.7,55.6c0,0,1.3,0.2,3,1.3c1.7,1.1,3.9,3.1,5.7,6.7c0.4,0.8,1.4,1.2,2.2,0.8c0.8-0.4,1.2-1.4,0.8-2.3
	c-2.1-4.3-4.9-6.8-7.1-8.2c-2.2-1.4-4-1.7-4.1-1.7c-0.9-0.1-1.8,0.5-1.9,1.4C57.1,54.6,57.8,55.5,58.7,55.6z"/>
<path d="M54.5,61.1L54.5,61.1L54.5,61.1c0.1,0,1.1-0.3,2.5-0.3c1.2,0,2.6,0.2,3.9,0.9c0.7,0.3,1.3,0.8,2,1.5
	c0.6,0.6,1.2,1.5,1.8,2.6c0.4,0.8,1.4,1.2,2.3,0.8c0.8-0.4,1.2-1.4,0.8-2.3c-0.7-1.4-1.5-2.5-2.4-3.4c-1.3-1.4-2.8-2.2-4.3-2.7
	c-1.4-0.5-2.8-0.7-4-0.7c-2,0-3.4,0.4-3.5,0.5c-0.9,0.3-1.4,1.2-1.1,2.1C52.7,60.9,53.6,61.4,54.5,61.1z"/>
<path d="M27.4,81.2L27.4,81.2c0.1,0,5.4,0,12.5,2c2.7,0.7,5.6,1.8,8.6,3.1c-1.3,0.2-2.6,0.5-3.7,0.8c-3.6,1-6.4,2.5-8.3,3.8
	c-1.9,1.3-3,2.3-3.1,2.5c-1.7,1.7-1.7,4.5,0,6.1c1.7,1.7,4.4,1.7,6.1,0l0,0l0,0l0,0l0,0c0.1-0.1,1.4-1.3,3.6-2.5
	c1.2-0.6,2.6-1.2,4.2-1.6c1.6-0.4,3.5-0.7,5.6-0.7c3.1,0,6.7,0.6,11,2.5c1.9,0.8,4.1,0.2,5.3-1.5c1.2-1.7,1-4-0.4-5.5
	c-4.3-4.5-9-7.8-13.7-10.3c-7-3.7-13.8-5.6-19-6.5c-5.1-0.9-8.5-0.9-8.7-0.9c-2.4,0-4.3,1.9-4.3,4.3C23.1,79.2,25,81.2,27.4,81.2z"
	/>
<path d="M133.4,97.1c4.2-1.9,7.9-2.5,11-2.5c2.2,0,4.1,0.3,5.8,0.8c2.5,0.7,4.5,1.8,5.8,2.6c0.7,0.4,1.1,0.8,1.4,1.1
	c0.2,0.1,0.3,0.2,0.3,0.3l0,0l0,0l0,0c1.7,1.7,4.4,1.7,6.1,0c1.7-1.7,1.7-4.4,0-6.1c-0.2-0.2-2-2-5.3-3.8c-1.7-0.9-3.7-1.8-6.1-2.5
	c-1.2-0.3-2.4-0.6-3.7-0.8c5.1-2.4,10-3.6,13.9-4.3c2.2-0.4,4.1-0.6,5.3-0.7c0.6,0,1.1-0.1,1.4-0.1c0.2,0,0.3,0,0.3,0h0.1
	c2.4,0,4.3-1.9,4.3-4.3c0-2.4-1.9-4.3-4.3-4.3c-0.3,0-6.2,0-14.4,2.2c-4.1,1.1-8.7,2.7-13.3,5.2c-4.7,2.5-9.4,5.8-13.7,10.3
	c-1.4,1.5-1.6,3.8-0.4,5.5C129.2,97.3,131.5,98,133.4,97.1z"/>
</svg>
