<?xml version="1.0" encoding="utf-8"?>
<!-- Generator: Adobe Illustrator 26.0.1, SVG Export Plug-In . SVG Version: 6.00 Build 0)  -->
<svg version="1.1" id="Layer_1" xmlns="http://www.w3.org/2000/svg" xmlns:xlink="http://www.w3.org/1999/xlink" x="0px" y="0px"
	 viewBox="0 0 200 200" style="enable-background:new 0 0 200 200;" xml:space="preserve">
<style type="text/css">
	.st0{fill:#F466BA;}
	.st1{fill:#FFFFFF;}
	.st2{fill:#F89DC6;}
	.st3{fill:#B42026;}
	.st4{fill:#EF3643;}
	.st5{fill:#190D07;}
	.st6{fill:#D53F4C;}
	.st7{fill:#D42049;}
	.st8{fill:#040606;}
	.st9{fill:#751449;}
	.st10{fill:#510D2C;}
	.st11{fill:#76214F;}
	.st12{fill:#C42289;}
	.st13{fill:#A41C6F;}
	.st14{fill:#D03D9A;}
	.st15{fill:#7A171B;}
	.st16{fill:#C62C36;}
	.st17{fill:#F24F57;}
	.st18{fill:#65BED9;}
	.st19{fill:#FF929D;}
	.st20{fill:#F56E1D;}
	.st21{fill:#D93B5A;}
	.st22{fill:#EDC1C2;}
	.st23{fill:#010101;}
	.st24{fill:#030303;}
	.st25{fill:#F8FBFB;}
	.st26{fill:#F5F8F8;}
	.st27{fill:#F6F9F9;}
	.st28{fill:#66CEF5;}
	.st29{fill:#EF8F8F;}
	.st30{fill:#FFE164;}
	.st31{fill:#F7C1C1;}
	.st32{fill:#B6ECFF;}
</style>
<path d="M25.8,88.1c2.6,5.1,8.5,8.4,14.6,8.4l0,0c1.1,0,2.1-0.1,3.2-0.3c2.5-0.5,4.6-1.4,6.3-2.8c3.1-2.5,4.9-6.5,4.7-10.8
	c-0.1-2.7-1-5.3-2.6-7.7c-4-5.7-11.5-8-18.2-5.7l-1.6,0.6c0,0-0.1,0-0.1,0c-3.1,1.3-5.4,3.9-6.7,7.3C24,80.8,24.2,84.9,25.8,88.1z
	 M37.2,79.7c-0.2,0.2-0.4,0.3-0.6,0.5c-1,0.5-2.2,0.4-3.3-0.3c-1.7-1-1.6-2.7-1-3.9l0,0c0.6-1.1,2.1-1.6,3.3-1.1
	c0.2,0.1,0.4,0.2,0.5,0.3c0.7,0.6,1.3,1.3,1.5,2.1C37.9,78.1,37.7,79.1,37.2,79.7z"/>
<path d="M172.4,72c-2.6-2-5.6-3.5-8.8-4.5c-0.4-0.1-0.9-0.2-1.3-0.3c-5.3-1-10.6,1.6-13,6.3c-1.4,2.8-2.2,5.9-2.1,9
	c0.1,1.7,0.3,3.1,0.9,4.3c1.6,3.7,5.4,5.6,8.4,6.9c2,0.8,4.2,1.5,6.6,1.5v0h0.1c6.5,0,11.3-5.5,13.1-11c0.9-2.6,1-4.7,0.4-6.6
	C175.9,74.9,173.9,73.1,172.4,72z M157.7,73.3L157.7,73.3c0.1,0,0.3,0,0.4,0c1.3,0.1,2.2,1.3,2.2,2.7c0,0.3,0,0.5-0.1,0.6
	c-0.3,0.9-0.8,1.7-1.4,2.2c-0.7,0.6-1.7,0.7-2.4,0.5c-0.2-0.1-0.4-0.2-0.7-0.4c-0.9-0.7-1.2-1.9-1-3.2
	C155.2,74,156.5,73.3,157.7,73.3z"/>
<path class="st1" d="M36.2,75.2c-0.1-0.1-0.3-0.2-0.5-0.3c-1.3-0.5-2.7-0.1-3.3,1.1l0,0c-0.6,1.2-0.7,2.8,1,3.9
	c1.1,0.7,2.4,0.8,3.3,0.3c0.2-0.1,0.4-0.3,0.6-0.5c0.5-0.6,0.7-1.5,0.5-2.4C37.4,76.5,36.9,75.8,36.2,75.2z"/>
<path class="st1" d="M154.8,75.7c-0.3,1.3,0.1,2.5,1,3.2c0.2,0.2,0.4,0.3,0.7,0.4c0.7,0.3,1.7,0.1,2.4-0.5c0.6-0.5,1.1-1.2,1.4-2.2
	c0-0.2,0.1-0.4,0.1-0.6c0-1.4-1-2.6-2.2-2.7c-0.1,0-0.2,0-0.4,0h0C156.5,73.3,155.2,74,154.8,75.7z"/>
<path d="M73.5,114.6c4.7,8.6,13.5,14.9,22.7,16.3c1.5,0.2,2.9,0.3,4.4,0.3c11.7,0,23.3-7,28.6-17.4c0.4-0.7,0.7-1.4,1-2.1
	c0.1-0.3,0.2-0.6,0.4-1c0.5-1.3,0.9-2.7,1.2-4.1c0,0,0-0.1,0-0.1c0.1-0.6,0.3-1.2,0.4-1.8v0c0,0,0,0,0,0c0.8-4.5,1-9.3,0.5-15.8
	c0-0.7-0.1-2.1-1.1-3.3c-1.4-1.7-3.7-1.6-4.7-1.5c-5.8,0.3-11.8,0.6-18,0.9c-12.8,0.7-26,1.4-38.2,1.8c-0.6,0-1.1,0.3-1.5,0.7
	c-0.4,0.4-0.6,1-0.5,1.6l1.1,13.1C70.1,106.6,71.4,110.8,73.5,114.6z M78.5,114.7c6.7-2.2,15-4.2,23.3-3l0.2,0
	c0.7,0.1,1.6,0.2,2.6,0.1c1.3,0.9,2.4,2.3,2.7,3.9c0.2,1,1.1,1.7,2.1,1.7c0.1,0,0.3,0,0.4,0c1.1-0.2,1.9-1.3,1.6-2.5
	c-0.4-1.9-1.4-3.7-2.8-5.1c5.1-3.6,12-3.9,19-3.5c-0.3,1.4-0.8,2.6-1.2,3.8c-4.5,11.2-17.5,18.5-29.4,16.6
	C89.7,125.7,82.8,121.1,78.5,114.7z"/>
<path class="st29" d="M96.9,126.8c11.9,1.9,24.9-5.4,29.4-16.6c0.5-1.2,0.9-2.5,1.2-3.8c-6.9-0.4-13.9-0.2-19,3.5
	c1.4,1.4,2.4,3.2,2.8,5.1c0.2,1.1-0.5,2.2-1.6,2.5c-0.1,0-0.3,0-0.4,0c0,0,0,0,0,0h0c0,0,0,0,0,0c-1,0-1.8-0.7-2.1-1.7
	c-0.3-1.6-1.3-3-2.7-3.9c-0.9,0.1-1.8,0-2.6-0.1l-0.2,0c-8.3-1.2-16.5,0.8-23.3,3C82.8,121.1,89.7,125.7,96.9,126.8z"/>
<polygon points="109.3,117.5 109.3,117.5 109.3,117.5 "/>
</svg>
