<?xml version="1.0" encoding="utf-8"?>
<!-- Generator: Adobe Illustrator 26.0.1, SVG Export Plug-In . SVG Version: 6.00 Build 0)  -->
<svg version="1.1" id="Layer_1" xmlns="http://www.w3.org/2000/svg" xmlns:xlink="http://www.w3.org/1999/xlink" x="0px" y="0px"
	 viewBox="0 0 200 200" style="enable-background:new 0 0 200 200;" xml:space="preserve">
<style type="text/css">
	.st0{fill:#F466BA;}
	.st1{fill:#FFFFFF;}
	.st2{fill:#F89DC6;}
	.st3{fill:#B42026;}
	.st4{fill:#EF3643;}
	.st5{fill:#190D07;}
	.st6{fill:#D53F4C;}
	.st7{fill:#D42049;}
	.st8{fill:#040606;}
	.st9{fill:#751449;}
	.st10{fill:#510D2C;}
	.st11{fill:#76214F;}
	.st12{fill:#C42289;}
	.st13{fill:#A41C6F;}
	.st14{fill:#D03D9A;}
	.st15{fill:#7A171B;}
	.st16{fill:#C62C36;}
	.st17{fill:#F24F57;}
	.st18{fill:#65BED9;}
	.st19{fill:#FF929D;}
	.st20{fill:#F56E1D;}
	.st21{fill:#D93B5A;}
	.st22{fill:#EDC1C2;}
	.st23{fill:#010101;}
	.st24{fill:#030303;}
	.st25{fill:#F8FBFB;}
	.st26{fill:#F5F8F8;}
	.st27{fill:#F6F9F9;}
	.st28{fill:#66CEF5;}
	.st29{fill:#EF8F8F;}
	.st30{fill:#FFE164;}
	.st31{fill:#F7C1C1;}
	.st32{fill:#B6ECFF;}
</style>
<path d="M40.3,116.5c2.9-0.6,5.5-1.7,7.5-3.4c3.7-3,5.8-7.9,5.7-13c-0.1-3.2-1.2-6.4-3.1-9.3C45.6,84,36.6,81.1,28.5,84l-1.9,0.7
	c-0.1,0-0.1,0-0.2,0.1c-3.7,1.6-6.5,4.7-8,8.8c-1.6,4.4-1.4,9.3,0.6,13.2c3.1,6.2,10.2,10.1,17.5,10.1
	C37.8,116.9,39.1,116.7,40.3,116.5z M32.7,96.6c-0.2,0.2-0.4,0.4-0.7,0.6c-1.1,0.6-2.6,0.5-4-0.4c-2-1.3-1.9-3.2-1.2-4.7
	c0.5-1,1.6-1.5,2.7-1.5l0,0c0.4,0,0.9,0.1,1.3,0.3c0.3,0.1,0.5,0.2,0.7,0.4c0.9,0.7,1.5,1.6,1.8,2.5C33.5,94.7,33.3,95.9,32.7,96.6z
	"/>
<path d="M188,87.3c-3.2-2.5-6.7-4.3-10.6-5.4c-0.5-0.2-1-0.3-1.6-0.4c-6.3-1.2-12.7,2-15.6,7.5c-1.7,3.4-2.6,7.2-2.5,10.9
	c0.1,2,0.4,3.7,1,5.1c1.9,4.5,6.4,6.8,10.1,8.3c2.4,1,5,1.9,7.9,1.9l0,0h0.1c7.8,0,13.5-6.7,15.7-13.2c1-3.1,1.2-5.7,0.5-8
	C192.2,90.9,189.7,88.7,188,87.3z M170.4,88.9c0.2,0,0.3,0,0.5,0c1.5,0.2,2.7,1.6,2.7,3.3c0,0.3,0,0.5-0.1,0.7
	c-0.3,1.1-0.9,2-1.7,2.6c-0.9,0.7-2,0.9-2.9,0.6c-0.3-0.1-0.5-0.3-0.8-0.5c-1-0.8-1.5-2.3-1.2-3.9C167.4,89.7,168.9,88.9,170.4,88.9
	z"/>
<path class="st1" d="M31.5,91.2c-0.2-0.1-0.4-0.2-0.7-0.4c-0.4-0.2-0.9-0.3-1.3-0.3l0,0c-1.1,0-2.2,0.6-2.7,1.5
	c-0.7,1.4-0.8,3.4,1.2,4.7c1.4,0.9,2.9,1,4,0.4c0.3-0.2,0.5-0.4,0.7-0.6c0.6-0.7,0.8-1.8,0.5-2.9C33,92.8,32.3,91.9,31.5,91.2z"/>
<path class="st1" d="M167,91.8c-0.3,1.6,0.1,3,1.2,3.9c0.3,0.2,0.5,0.4,0.8,0.5c0.9,0.3,2,0.1,2.9-0.6c0.7-0.6,1.3-1.5,1.7-2.6
	c0.1-0.2,0.1-0.4,0.1-0.7c0-1.7-1.2-3.1-2.7-3.3c-0.1,0-0.3,0-0.5,0C168.9,88.9,167.4,89.7,167,91.8z"/>
<path d="M89.4,99.9c-1.4,0-2.6,1-2.6,2.4c-0.1,3.9,0,9,2.7,13.4c1.2,2,2.8,3.8,4.8,5.7c3.3,3,6.8,5.1,10.4,6.1
	c1.7,0.5,3.4,0.7,5.1,0.7l0,0c2.7,0,5.3-0.6,7.5-1.8c4.1-2.2,7.2-6.4,8.7-11.7c1.3-4.6,1.3-9.4,1.3-13.6c0-1.4-1.1-2.5-2.5-2.5h0
	c-1.4,0-2.5,1.1-2.5,2.5c0,4.1,0,8.3-1.1,12.3c-1.1,4-3.4,7.1-6.3,8.7c-2.5,1.3-5.7,1.6-8.8,0.7c-2.8-0.8-5.6-2.5-8.4-5
	c-1.7-1.5-3-3.1-3.9-4.6c-1.5-2.6-2.1-5.7-1.9-10.6C91.9,101.1,90.8,99.9,89.4,99.9z"/>
</svg>
