<?xml version="1.0" encoding="utf-8"?>
<!-- Generator: Adobe Illustrator 26.0.1, SVG Export Plug-In . SVG Version: 6.00 Build 0)  -->
<svg version="1.1" id="Layer_1" xmlns="http://www.w3.org/2000/svg" xmlns:xlink="http://www.w3.org/1999/xlink" x="0px" y="0px"
	 viewBox="0 0 200 200" style="enable-background:new 0 0 200 200;" xml:space="preserve">
<style type="text/css">
	.st0{fill:#F466BA;}
	.st1{fill:#FFFFFF;}
	.st2{fill:#F89DC6;}
	.st3{fill:#B42026;}
	.st4{fill:#EF3643;}
	.st5{fill:#190D07;}
	.st6{fill:#D53F4C;}
	.st7{fill:#D42049;}
	.st8{fill:#040606;}
	.st9{fill:#751449;}
	.st10{fill:#510D2C;}
	.st11{fill:#76214F;}
	.st12{fill:#C42289;}
	.st13{fill:#A41C6F;}
	.st14{fill:#D03D9A;}
	.st15{fill:#7A171B;}
	.st16{fill:#C62C36;}
	.st17{fill:#F24F57;}
	.st18{fill:#65BED9;}
	.st19{fill:#FF929D;}
	.st20{fill:#F56E1D;}
	.st21{fill:#D93B5A;}
	.st22{fill:#EDC1C2;}
	.st23{fill:#010101;}
	.st24{fill:#030303;}
	.st25{fill:#F8FBFB;}
	.st26{fill:#F5F8F8;}
	.st27{fill:#F6F9F9;}
	.st28{fill:#66CEF5;}
	.st29{fill:#EF8F8F;}
	.st30{fill:#FFE164;}
	.st31{fill:#F7C1C1;}
	.st32{fill:#B6ECFF;}
</style>
<path d="M40,84.6l-1.4,0.5c0,0-0.1,0-0.1,0c-2.8,1.2-4.9,3.5-6,6.6c-1.2,3.3-1,7,0.5,10c2.3,4.6,7.7,7.6,13.2,7.6l0,0
	c1,0,1.9-0.1,2.9-0.3c2.2-0.4,4.1-1.3,5.7-2.5c2.8-2.3,4.4-5.9,4.3-9.8c-0.1-2.4-0.9-4.9-2.4-7C52.9,84.5,46.1,82.4,40,84.6z
	 M43.2,94c-0.1,0.2-0.3,0.3-0.5,0.4c-0.9,0.5-2,0.4-3-0.3c-1.5-1-1.4-2.4-0.9-3.5c0.4-0.7,1.2-1.2,2-1.2l0,0c0.3,0,0.7,0.1,1,0.2
	c0.2,0.1,0.4,0.2,0.5,0.3c0.7,0.5,1.2,1.2,1.4,1.9C43.8,92.6,43.7,93.5,43.2,94z"/>
<path class="st1" d="M42.2,90c-0.1-0.1-0.3-0.2-0.5-0.3c-0.3-0.1-0.7-0.2-1-0.2l0,0c-0.9,0-1.6,0.4-2,1.2c-0.6,1.1-0.6,2.6,0.9,3.5
	c1,0.7,2.2,0.8,3,0.3c0.2-0.1,0.4-0.3,0.5-0.4c0.5-0.5,0.6-1.4,0.4-2.2C43.4,91.2,42.9,90.5,42.2,90z"/>
<path d="M80.5,113.1c-0.7,0.8-0.7,2,0,2.7c4.5,4.4,10.7,7,16.8,7v0c1.2,0,2.5-0.1,3.7-0.3c7.5-1.3,14.1-6.9,16.4-13.9
	c0.3-1-0.2-2.1-1.2-2.4c-1-0.3-2.1,0.2-2.4,1.2c-1.9,5.7-7.3,10.3-13.5,11.3c-6,1-12.6-1.1-17.1-5.6
	C82.4,112.4,81.2,112.4,80.5,113.1z"/>
<path d="M173.1,104.7L173.1,104.7c1.3,0,2.6-0.9,3-2.2c0.5-1.7-0.4-3.4-2.1-4c-9.5-3-19.6-3.9-29.5-2.8c3.9-6,10.2-10.6,17.2-12.2
	c1.7-0.4,2.7-2.1,2.3-3.8c-0.4-1.7-2.1-2.8-3.8-2.3c-11,2.6-20.3,10.8-24.3,21.4c-0.4,1.1-0.2,2.3,0.5,3.2c0.7,0.9,1.9,1.3,3,1.1
	c10.8-2.2,22.1-1.7,32.6,1.6C172.5,104.6,172.8,104.7,173.1,104.7z"/>
</svg>
