<?xml version="1.0" encoding="utf-8"?>
<!-- Generator: Adobe Illustrator 26.0.1, SVG Export Plug-In . SVG Version: 6.00 Build 0)  -->
<svg version="1.1" id="Layer_1" xmlns="http://www.w3.org/2000/svg" xmlns:xlink="http://www.w3.org/1999/xlink" x="0px" y="0px"
	 viewBox="0 0 200 200" style="enable-background:new 0 0 200 200;" xml:space="preserve">
<style type="text/css">
	.st0{fill:#F466BA;}
	.st1{fill:#FFFFFF;}
	.st2{fill:#F89DC6;}
	.st3{fill:#B42026;}
	.st4{fill:#EF3643;}
	.st5{fill:#190D07;}
	.st6{fill:#D53F4C;}
	.st7{fill:#D42049;}
	.st8{fill:#040606;}
	.st9{fill:#751449;}
	.st10{fill:#510D2C;}
	.st11{fill:#76214F;}
	.st12{fill:#C42289;}
	.st13{fill:#A41C6F;}
	.st14{fill:#D03D9A;}
	.st15{fill:#7A171B;}
	.st16{fill:#C62C36;}
	.st17{fill:#F24F57;}
	.st18{fill:#65BED9;}
	.st19{fill:#FF929D;}
	.st20{fill:#F56E1D;}
	.st21{fill:#D93B5A;}
	.st22{fill:#EDC1C2;}
	.st23{fill:#010101;}
	.st24{fill:#030303;}
	.st25{fill:#F8FBFB;}
	.st26{fill:#F5F8F8;}
	.st27{fill:#F6F9F9;}
	.st28{fill:#66CEF5;}
	.st29{fill:#EF8F8F;}
	.st30{fill:#FFE164;}
	.st31{fill:#F7C1C1;}
	.st32{fill:#B6ECFF;}
</style>
<path class="st5" d="M39.9,84.6c-0.4,0-0.9,0.1-1.3-0.1l-0.6-0.1c-0.2-0.1-0.4-0.1-0.6-0.2c-0.4-0.1-0.7-0.3-1.1-0.5
	c-0.2-0.1-0.3-0.2-0.5-0.3c-0.1-0.1-0.2-0.1-0.2-0.2c-0.1-0.1-0.1-0.1-0.2-0.2c-0.1-0.1-0.3-0.2-0.4-0.4c-0.1-0.1-0.2-0.3-0.3-0.4
	c-0.2-0.3-0.4-0.5-0.5-0.8c-0.1-0.3-0.2-0.5-0.3-0.7c-0.1-0.2-0.1-0.4-0.2-0.5c0-0.1,0-0.2,0-0.2c0-0.1-0.1-0.2-0.1-0.2
	c-0.1-0.1-0.3,0-0.4,0.1l0,0c0,0,0,0.1-0.1,0.2c-0.1,0.1-0.1,0.3-0.1,0.6c0,0.2-0.1,0.6-0.1,0.9c0,0.4,0,0.8,0.1,1.2
	c0.1,0.2,0.1,0.5,0.2,0.7c0.1,0.2,0.2,0.5,0.3,0.7c0.1,0.1,0.1,0.3,0.2,0.4c0.1,0.1,0.1,0.2,0.2,0.4c0.2,0.2,0.3,0.5,0.5,0.8
	c0.4,0.5,0.8,1,1.3,1.4c0.2,0.2,0.5,0.4,0.7,0.6l0.8,0.5c0.5,0.4,1.1,0.6,1.6,1c0.5,0.3,1.1,0.5,1.6,0.7c0.3,0.1,0.6,0.1,0.8,0.1
	c0.3,0,0.5,0,0.8-0.1c0.1,0,0.3,0,0.4-0.1c3.1,7.9,10.7,13.6,19.7,13.6c11.7,0,21.2-9.5,21.2-21.2c0-11.7-9.5-21.2-21.2-21.2
	c-9.7,0-17.8,6.5-20.3,15.3c0,0-0.1,0-0.1,0c-0.4,0-0.9,0-1.3-0.1l-0.6-0.1c-0.2,0-0.4-0.1-0.6-0.2c-0.4-0.1-0.7-0.3-1.1-0.5
	c-0.2-0.1-0.3-0.2-0.5-0.3c-0.1-0.1-0.2-0.1-0.2-0.2c-0.1-0.1-0.1-0.1-0.2-0.2c-0.1-0.1-0.3-0.2-0.4-0.4c-0.1-0.1-0.2-0.3-0.3-0.4
	c-0.2-0.3-0.4-0.5-0.5-0.8c-0.1-0.3-0.2-0.5-0.3-0.7c-0.1-0.2-0.1-0.4-0.2-0.5c0-0.1,0-0.2,0-0.2c0-0.1-0.1-0.2-0.1-0.2
	c-0.1-0.1-0.3,0-0.4,0.1l0,0c0,0,0,0.1-0.1,0.2c-0.1,0.1-0.1,0.3-0.2,0.6c0,0.2-0.1,0.6-0.1,0.9c0,0.4,0,0.8,0.1,1.2
	c0.1,0.2,0.1,0.5,0.2,0.7c0.1,0.2,0.2,0.5,0.3,0.7c0.1,0.1,0.1,0.3,0.2,0.4c0.1,0.1,0.1,0.2,0.2,0.4c0.2,0.2,0.3,0.5,0.5,0.8
	c0.4,0.5,0.8,1,1.3,1.4c0.2,0.2,0.5,0.4,0.7,0.6l0.8,0.5c0.5,0.4,1.1,0.6,1.6,1c0.2,0.2,0.5,0.3,0.7,0.4c0,0.2,0,0.4,0,0.7
	c0,0.7,0,1.4,0.1,2.2C40.5,84.6,40.2,84.6,39.9,84.6z M69.3,87.9c3.2,0,5.8,2.6,5.8,5.8c0,3.2-2.6,5.8-5.8,5.8
	c-3.2,0-5.8-2.6-5.8-5.8C63.5,90.5,66.1,87.9,69.3,87.9z M55.3,65.4c5.2,0,9.3,4.2,9.3,9.3c0,5.2-4.2,9.3-9.3,9.3
	c-5.2,0-9.3-4.2-9.3-9.3C45.9,69.6,50.1,65.4,55.3,65.4z"/>
<ellipse transform="matrix(1.482870e-03 -1 1 1.482870e-03 -19.6081 129.9155)" class="st1" cx="55.3" cy="74.8" rx="9.3" ry="9.3"/>
<path class="st1" d="M69.3,99.6c3.2,0,5.8-2.6,5.8-5.8c0-3.2-2.6-5.8-5.8-5.8c-3.2,0-5.8,2.6-5.8,5.8C63.5,97,66.1,99.6,69.3,99.6z"
	/>
<path class="st5" d="M140.6,103.6c9,0,16.7-5.6,19.7-13.6c0.1,0,0.3,0.1,0.4,0.1c0.3,0,0.5,0.1,0.8,0.1c0.3,0,0.6-0.1,0.8-0.1
	c0.6-0.1,1.1-0.3,1.7-0.7c0.5-0.3,1.1-0.6,1.6-1l0.8-0.5c0.3-0.2,0.5-0.4,0.7-0.6c0.5-0.4,0.9-0.9,1.3-1.4c0.2-0.2,0.3-0.5,0.5-0.8
	c0.1-0.1,0.1-0.2,0.2-0.4c0.1-0.1,0.1-0.3,0.2-0.4c0.1-0.3,0.2-0.5,0.3-0.7c0.1-0.2,0.1-0.5,0.2-0.7c0.1-0.5,0.1-0.9,0.1-1.2
	c0-0.4-0.1-0.7-0.1-0.9c-0.1-0.3-0.1-0.4-0.2-0.6c0-0.1-0.1-0.2-0.1-0.2l0,0c0-0.1-0.1-0.1-0.2-0.1c-0.2,0-0.3,0.1-0.3,0.2
	c0,0,0,0.1,0,0.2c0,0.1-0.1,0.3-0.2,0.5c-0.1,0.2-0.2,0.4-0.3,0.7c-0.1,0.3-0.3,0.5-0.5,0.8c-0.1,0.1-0.2,0.3-0.3,0.4
	c-0.1,0.1-0.3,0.2-0.4,0.4c-0.1,0.1-0.1,0.1-0.2,0.2c-0.1,0.1-0.2,0.1-0.2,0.2c-0.2,0.1-0.3,0.2-0.5,0.3c-0.4,0.2-0.7,0.4-1.1,0.5
	c-0.2,0.1-0.4,0.1-0.6,0.2l-0.6,0.1c-0.4,0.1-0.9,0.1-1.3,0.1c-0.3,0-0.6,0-0.9,0c0.1-0.7,0.1-1.4,0.1-2.1c0-0.2,0-0.5,0-0.7
	c0.2-0.1,0.5-0.2,0.7-0.4c0.5-0.3,1.1-0.6,1.6-1l0.8-0.5c0.3-0.2,0.5-0.4,0.7-0.6c0.5-0.4,0.9-0.9,1.3-1.4c0.2-0.2,0.3-0.5,0.5-0.8
	c0.1-0.1,0.1-0.2,0.2-0.4c0.1-0.1,0.1-0.3,0.2-0.4c0.1-0.3,0.2-0.5,0.3-0.7c0.1-0.2,0.1-0.5,0.2-0.7c0.1-0.5,0.1-0.9,0.1-1.2
	c0-0.4-0.1-0.7-0.1-0.9c-0.1-0.2-0.1-0.4-0.1-0.6c0-0.1-0.1-0.2-0.1-0.2l0,0c0-0.1-0.1-0.1-0.2-0.1c-0.1,0-0.3,0.1-0.3,0.2
	c0,0,0,0.1,0,0.2c0,0.1-0.1,0.3-0.2,0.5c-0.1,0.2-0.2,0.4-0.3,0.7c-0.1,0.3-0.3,0.5-0.5,0.8c-0.1,0.1-0.2,0.3-0.3,0.4
	c-0.1,0.1-0.3,0.2-0.4,0.4c-0.1,0.1-0.1,0.1-0.2,0.2c-0.1,0.1-0.2,0.1-0.2,0.2c-0.2,0.1-0.3,0.2-0.5,0.3c-0.4,0.2-0.7,0.4-1.1,0.5
	c-0.2,0.1-0.4,0.1-0.6,0.2l-0.6,0.1c-0.4,0.1-0.9,0.1-1.3,0.1c0,0-0.1,0-0.1,0c-2.5-8.8-10.7-15.3-20.3-15.3
	c-11.7,0-21.2,9.5-21.2,21.2C119.4,94.1,128.9,103.6,140.6,103.6z M149.4,87.8c3.2,0,5.8,2.6,5.8,5.8c0,3.2-2.6,5.8-5.8,5.8
	c-3.2,0-5.9-2.6-5.9-5.8C143.5,90.4,146.1,87.8,149.4,87.8z M135.3,65.4c5.2,0,9.3,4.2,9.3,9.3c0,5.1-4.2,9.3-9.3,9.3
	c-5.2,0-9.3-4.2-9.3-9.3C126,69.5,130.1,65.4,135.3,65.4z"/>
<path class="st1" d="M135.3,84c5.2,0,9.3-4.2,9.3-9.3c0-5.2-4.2-9.3-9.3-9.3c-5.2,0-9.3,4.2-9.3,9.3C126,79.8,130.1,84,135.3,84z"/>
<path class="st1" d="M149.4,99.5c3.2,0,5.8-2.6,5.8-5.8c0-3.2-2.6-5.8-5.8-5.8c-3.2,0-5.9,2.6-5.9,5.8
	C143.5,96.9,146.1,99.5,149.4,99.5z"/>
<path class="st5" d="M164,62.5c0.2,0,0.4,0.1,0.6,0.1c1.4,0,2.6-0.9,2.9-2.3c0.3-1.6-0.7-3.2-2.3-3.5l-37.5-8.1
	c-1.6-0.3-3.2,0.7-3.5,2.3c-0.3,1.6,0.7,3.2,2.3,3.5L164,62.5z"/>
<path class="st5" d="M34.8,62.6c0.2,0,0.4,0,0.6-0.1L73,54.4c1.6-0.3,2.6-1.9,2.3-3.5c-0.3-1.6-1.9-2.6-3.5-2.3l-37.5,8.1
	c-1.6,0.3-2.6,1.9-2.3,3.5C32.2,61.6,33.4,62.6,34.8,62.6z"/>
<path class="st5" d="M88.8,114.7c-1.3-0.9-3.2-0.6-4.1,0.7c-2.2,3.2-2.5,6.9-0.8,10.2c2,3.8,6.4,6.4,10.7,6.4c3.7,0,7.1-1.7,9.5-4.5
	c2.4,2.8,5.8,4.5,9.5,4.5c3.8,0,7.3-1.9,9.4-5.2c2.1-3.3,2.3-7.3,0.5-10.9c-0.7-1.5-2.5-2.1-3.9-1.4c-1.5,0.7-2.1,2.5-1.4,3.9
	c1.2,2.4,0.4,4.3-0.2,5.2c-1,1.5-2.6,2.4-4.4,2.4c-2.9,0-5.6-2.1-6.7-5.4c-0.4-1.2-1.5-2-2.8-2s-2.4,0.8-2.8,2
	c-1.2,3.3-3.8,5.4-6.7,5.4c-2.2,0-4.6-1.4-5.5-3.2c-0.7-1.3-0.6-2.6,0.4-4C90.4,117.5,90.1,115.6,88.8,114.7z"/>
<path class="st7" d="M161.6,109.5c0-3.2-5.7-5.9-12.7-5.9c-7,0-12.7,2.6-12.7,5.9c0,3.2,5.7,5.9,12.7,5.9
	C155.9,115.3,161.6,112.7,161.6,109.5z"/>
<path class="st7" d="M45.8,110.8c0,3.2,5.7,5.9,12.7,5.9c7,0,12.7-2.6,12.7-5.9c0-3.2-5.7-5.9-12.7-5.9
	C51.5,104.9,45.8,107.6,45.8,110.8z"/>
</svg>
