<?xml version="1.0" encoding="utf-8"?>
<!-- Generator: Adobe Illustrator 26.0.1, SVG Export Plug-In . SVG Version: 6.00 Build 0)  -->
<svg version="1.1" id="Layer_1" xmlns="http://www.w3.org/2000/svg" xmlns:xlink="http://www.w3.org/1999/xlink" x="0px" y="0px"
	 viewBox="0 0 200 200" style="enable-background:new 0 0 200 200;" xml:space="preserve">
<style type="text/css">
	.st0{fill:#F466BA;}
	.st1{fill:#FFFFFF;}
	.st2{fill:#F89DC6;}
	.st3{fill:#B42026;}
	.st4{fill:#EF3643;}
	.st5{fill:#190D07;}
	.st6{fill:#D53F4C;}
	.st7{fill:#D42049;}
	.st8{fill:#040606;}
	.st9{fill:#751449;}
	.st10{fill:#510D2C;}
	.st11{fill:#76214F;}
	.st12{fill:#C42289;}
	.st13{fill:#A41C6F;}
	.st14{fill:#D03D9A;}
	.st15{fill:#7A171B;}
	.st16{fill:#C62C36;}
	.st17{fill:#F24F57;}
	.st18{fill:#65BED9;}
	.st19{fill:#FF929D;}
	.st20{fill:#F56E1D;}
	.st21{fill:#D93B5A;}
	.st22{fill:#EDC1C2;}
	.st23{fill:#010101;}
	.st24{fill:#030303;}
	.st25{fill:#F8FBFB;}
	.st26{fill:#F5F8F8;}
	.st27{fill:#F6F9F9;}
	.st28{fill:#66CEF5;}
	.st29{fill:#EF8F8F;}
	.st30{fill:#FFE164;}
	.st31{fill:#F7C1C1;}
	.st32{fill:#B6ECFF;}
</style>
<path class="st5" d="M38.9,95.2c0.5,1,1.5,1.6,2.5,1.6c0.4,0,0.8-0.1,1.1-0.3l37.1-17c1-0.4,1.6-1.4,1.6-2.5s-0.6-2.1-1.6-2.5
	l-37.1-17c-1.4-0.6-3,0-3.7,1.4c-0.6,1.4,0,3,1.4,3.7l31.6,14.5L40.3,91.5C38.9,92.2,38.3,93.8,38.9,95.2z"/>
<path class="st1" d="M141.2,74.1c5.3,0,9.6-4.3,9.6-9.6c0-5.3-4.3-9.6-9.6-9.6c-5.3,0-9.6,4.3-9.6,9.6
	C131.5,69.8,135.8,74.1,141.2,74.1z"/>
<path class="st5" d="M109.3,89c0,0,2.2-1.1,5.8-2.3c4.9-1.7,12.3-3.6,20.1-3.5c3.5,0.1,6.8,0.6,9.8,1.4c1.6,0.5,3.2,1.1,4.7,1.8
	c2.9,1.4,5.6,3.3,7.9,5.6c0.5,0.5,1.2,0.8,2,0.8c0.7,0,1.4-0.3,1.9-0.8c1.1-1.1,1.1-2.8,0-3.9c-1.6-1.6-3.4-3.1-5.2-4.3
	c0.5-0.1,1.1-0.3,1.6-0.7c0.6-0.4,1.2-0.6,1.8-1.1l0.9-0.6c0.3-0.2,0.6-0.4,0.8-0.7c0.5-0.4,1-1,1.4-1.5c0.2-0.3,0.4-0.6,0.5-0.8
	c0.1-0.1,0.2-0.3,0.2-0.4c0.1-0.1,0.1-0.3,0.2-0.4c0.1-0.3,0.2-0.5,0.3-0.8c0.1-0.3,0.1-0.5,0.2-0.8c0.1-0.5,0.1-1,0.1-1.4
	c0-0.4-0.1-0.7-0.1-1c-0.1-0.3-0.1-0.5-0.2-0.6c0-0.2-0.1-0.2-0.1-0.2l0,0c0-0.1-0.1-0.1-0.2-0.2c-0.2,0-0.3,0.1-0.3,0.3
	c0,0,0,0.1,0,0.2c0,0.1-0.1,0.3-0.2,0.5c-0.1,0.2-0.2,0.5-0.3,0.8c-0.1,0.3-0.4,0.6-0.6,0.9c-0.1,0.1-0.2,0.3-0.4,0.5
	c-0.1,0.2-0.3,0.3-0.4,0.4c-0.1,0.1-0.2,0.1-0.2,0.2c-0.1,0.1-0.2,0.1-0.3,0.2c-0.2,0.1-0.3,0.3-0.5,0.4c-0.4,0.2-0.8,0.4-1.2,0.6
	c-0.2,0.1-0.4,0.2-0.7,0.2l-0.7,0.2c-0.2,0.1-0.5,0.1-0.7,0.1c-0.3,0-0.5,0-0.7,0c-0.5,0-1-0.1-1.4,0c-0.2,0-0.4,0.1-0.7,0.2
	c-0.2,0.1-0.4,0.1-0.7,0.2c-0.1,0-0.2,0.1-0.3,0.1c0.5-1.6,0.8-3.4,0.9-5.2c0.2-0.1,0.4-0.2,0.6-0.3l0.9-0.6
	c0.3-0.2,0.6-0.4,0.8-0.7c0.5-0.4,1-1,1.4-1.5c0.2-0.3,0.4-0.6,0.5-0.8c0.1-0.1,0.2-0.3,0.2-0.4c0.1-0.1,0.1-0.3,0.2-0.4
	c0.1-0.3,0.2-0.5,0.3-0.8c0.1-0.3,0.1-0.5,0.2-0.8c0.1-0.5,0.1-1,0.1-1.4c0-0.4-0.1-0.7-0.1-1c-0.1-0.3-0.1-0.5-0.2-0.6
	c0-0.2-0.1-0.2-0.1-0.2l0,0c0-0.1-0.1-0.1-0.2-0.2c-0.2,0-0.3,0.1-0.3,0.3c0,0,0,0.1,0,0.2c0,0.1-0.1,0.3-0.2,0.5
	c-0.1,0.2-0.2,0.5-0.3,0.8c-0.1,0.3-0.4,0.6-0.6,0.9c-0.1,0.1-0.2,0.3-0.4,0.5c-0.1,0.2-0.3,0.3-0.4,0.4c-0.1,0.1-0.2,0.1-0.2,0.2
	c-0.1,0.1-0.2,0.1-0.3,0.2c-0.2,0.1-0.3,0.3-0.5,0.4c-0.4,0.2-0.8,0.4-1.2,0.6c-0.1,0-0.3,0.1-0.4,0.1
	c-1.7-10.4-10.7-18.3-21.5-18.3c-12,0-21.8,9.8-21.8,21.8c0,3.3,0.7,6.5,2.1,9.3c-3.6,1.3-5.8,2.3-5.9,2.4c-1.4,0.7-1.9,2.3-1.3,3.7
	C106.3,89.1,107.9,89.6,109.3,89z M141.2,54.8c5.3,0,9.6,4.3,9.6,9.6c0,5.3-4.3,9.6-9.6,9.6c-5.3,0-9.6-4.3-9.6-9.6
	C131.5,59.1,135.8,54.8,141.2,54.8z"/>
<path class="st5" d="M72.8,121.7c-0.6-1-1.1-2.1-1.5-3.1c-0.6-1.4-2.2-2.1-3.6-1.5c-1.4,0.6-2.1,2.2-1.5,3.6
	c0.5,1.3,1.1,2.6,1.8,3.8c1.5,2.6,3.4,5,5.6,7.1c5.8,5.5,13.4,8.5,21.4,8.5c1.4,0,2.9-0.1,4.4-0.3c8.5-1.1,16.1-5.6,21.1-12.2
	c2.3,6.7,7.3,12.1,13.8,14.8c0.3,0.1,0.7,0.2,1,0.2c1.1,0,2.1-0.6,2.6-1.7c0.6-1.4-0.1-3-1.5-3.6c-6.3-2.6-10.6-8.3-11.5-15.2
	c-0.8-5.8,1-11.5,4.9-15.6c1.3-1.3,2.7-2.5,4.3-3.4c0.7-0.4,1.5-0.8,2.3-1.1c1.4-0.6,2.1-2.2,1.5-3.6c-0.6-1.4-2.2-2.1-3.6-1.5
	c-1,0.4-2,0.9-2.9,1.4c-2.1,1.2-3.9,2.6-5.5,4.4c-4.2,4.4-6.5,10.2-6.6,16.3c-3.6,8.4-11.2,14.1-20.5,15.3
	c-7.9,1.1-15.6-1.4-21.3-6.8C75.6,125.9,74,123.9,72.8,121.7z"/>
<path class="st7" d="M48.2,117.5c9.7,0,17.6-3.7,17.6-8.2c0-4.5-7.9-8.2-17.6-8.2c-9.7,0-17.6,3.7-17.6,8.2
	C30.6,113.9,38.5,117.5,48.2,117.5z"/>
<path class="st7" d="M139.1,105.5c0,4.5,7.9,8.2,17.6,8.2c9.7,0,17.6-3.7,17.6-8.2c0-4.5-7.9-8.2-17.6-8.2
	C147,97.3,139.1,101,139.1,105.5z"/>
</svg>
