<?xml version="1.0" encoding="utf-8"?>
<!-- Generator: Adobe Illustrator 26.0.1, SVG Export Plug-In . SVG Version: 6.00 Build 0)  -->
<svg version="1.1" id="Layer_1" xmlns="http://www.w3.org/2000/svg" xmlns:xlink="http://www.w3.org/1999/xlink" x="0px" y="0px"
	 viewBox="0 0 200 200" style="enable-background:new 0 0 200 200;" xml:space="preserve">
<style type="text/css">
	.st0{fill:#F466BA;}
	.st1{fill:#FFFFFF;}
	.st2{fill:#F89DC6;}
	.st3{fill:#B42026;}
	.st4{fill:#EF3643;}
	.st5{fill:#190D07;}
	.st6{fill:#D53F4C;}
	.st7{fill:#D42049;}
	.st8{fill:#040606;}
	.st9{fill:#751449;}
	.st10{fill:#510D2C;}
	.st11{fill:#76214F;}
	.st12{fill:#C42289;}
	.st13{fill:#A41C6F;}
	.st14{fill:#D03D9A;}
	.st15{fill:#7A171B;}
	.st16{fill:#C62C36;}
	.st17{fill:#F24F57;}
	.st18{fill:#65BED9;}
	.st19{fill:#FF929D;}
	.st20{fill:#F56E1D;}
	.st21{fill:#D93B5A;}
	.st22{fill:#EDC1C2;}
	.st23{fill:#010101;}
	.st24{fill:#030303;}
	.st25{fill:#F8FBFB;}
	.st26{fill:#F5F8F8;}
	.st27{fill:#F6F9F9;}
	.st28{fill:#66CEF5;}
	.st29{fill:#EF8F8F;}
	.st30{fill:#FFE164;}
	.st31{fill:#F7C1C1;}
	.st32{fill:#B6ECFF;}
</style>
<path d="M70.1,72.4h2.1v0c2,0,3.6-1.6,3.6-3.6c0-2-1.6-3.6-3.6-3.6H29.3c-2,0-3.6,1.6-3.6,3.6s1.6,3.6,3.6,3.6h15.4
	c-0.7,1-1.3,2.1-1.7,3.3c-1.4,3.8-1.2,8.1,0.5,11.5c2.7,5.3,8.9,8.7,15.2,8.7l0,0c1.1,0,2.2-0.1,3.3-0.3c2.6-0.5,4.8-1.5,6.5-2.9
	c3.2-2.6,5.1-6.8,4.9-11.3c-0.1-2.8-1-5.6-2.7-8C70.6,73,70.4,72.7,70.1,72.4z M55.9,75.8c0.3,0.9,0.1,1.9-0.5,2.5
	c-0.2,0.2-0.4,0.4-0.6,0.5c-1,0.6-2.3,0.4-3.5-0.3c-1.7-1.1-1.7-2.8-1-4h0c0.6-1.2,2.1-1.7,3.5-1.1c0.2,0.1,0.4,0.2,0.6,0.3
	C55.1,74.3,55.7,75,55.9,75.8z"/>
<path class="st1" d="M54.4,73.7c-0.1-0.1-0.3-0.2-0.6-0.3c-1.3-0.5-2.9-0.1-3.5,1.1h0c-0.6,1.2-0.7,2.9,1,4c1.2,0.7,2.5,0.9,3.5,0.3
	c0.3-0.1,0.5-0.3,0.6-0.5c0.5-0.6,0.7-1.6,0.5-2.5C55.7,75,55.1,74.3,54.4,73.7z"/>
<path class="st1" d="M149.1,74.2c-0.3,1.4,0.1,2.6,1,3.4c0.2,0.2,0.5,0.3,0.7,0.4c0.8,0.3,1.8,0.1,2.5-0.5c0.7-0.5,1.2-1.3,1.4-2.2
	c0-0.2,0.1-0.4,0.1-0.6c0-0.9-0.4-1.7-0.9-2.2h-3.8C149.7,72.8,149.3,73.3,149.1,74.2z"/>
<path d="M170.1,65.1h-15.2c0,0-0.1,0-0.1,0h-27.5c-2,0-3.6,1.6-3.6,3.6c0,2,1.6,3.6,3.6,3.6h15.8c-1.3,2.8-2,5.9-1.9,8.9
	c0,1.7,0.3,3.2,0.9,4.5c1.7,3.9,5.6,5.9,8.8,7.2c2.1,0.8,4.4,1.6,6.9,1.6h0.1c6.8,0,11.8-5.8,13.7-11.4c0.9-2.7,1.1-4.9,0.5-6.9
	c-0.4-1.5-1.3-2.8-2.2-3.8h0.4c2,0,3.6-1.6,3.6-3.6C173.8,66.7,172.1,65.1,170.1,65.1z M153.9,72.4c0.6,0.5,1,1.3,0.9,2.2
	c0,0.3,0,0.5-0.1,0.6c-0.3,0.9-0.8,1.7-1.4,2.2c-0.7,0.6-1.8,0.8-2.5,0.5c-0.2-0.1-0.5-0.2-0.7-0.4c-0.9-0.7-1.3-2-1-3.4
	c0.2-0.8,0.5-1.4,1-1.8H153.9z"/>
<path d="M133.7,100.7c0,0-0.1-0.1-0.1-0.1c-0.1-0.1-0.1-0.1-0.2-0.2c-0.3-0.2-0.7-0.3-1.1-0.4c-3.4-0.1-6.7-0.2-10-0.2
	c-5.4-0.1-10.7-0.2-15.9-0.2H106c-1.9,0-3.8,0-5.6,0c-4.9,0-9.8,0-14.9,0l-8.4,0.1c-1.1,0-2,0.8-2.2,1.9l-0.9,8.1c0,0,0,0.1,0,0.1
	l-0.1,0.4c0,0.1,0,0.1,0,0.2c-0.2,5.3,0.9,10.4,3.2,14.9c0,0,0,0,0,0c0.1,0.1,0.1,0.2,0.2,0.4c2.1,4.1,5.2,7.6,9.2,10.3
	c5.3,3.7,13.2,6.2,21.1,6.2h0c5,0,9.9-1,14.2-3.3c3.5-1.9,6.4-4.5,8.5-7.8c0.8-1.2,1.5-2.6,2-4.1c0.3-0.7,0.5-1.4,0.8-2.1
	c0.9-2.9,1.4-6.3,1.6-10.2c0-0.6,0-1.3,0.1-1.9c0.1-3.6,0-7.2-0.3-10.8C134.3,101.6,134.1,101.1,133.7,100.7z M89,132.6
	c-2.7-1.9-5-4.2-6.7-6.9l0,0c2-0.6,4-1,5.9-1.2c6.6-0.8,13,0.3,17.9,3.3l0.1,0.1c0.5,0.3,1.1,0.6,1.9,0.8c0.1,0,0.2,0,0.4,0
	c1.3,0.9,2.4,2,3.1,3.4c0.4,0.7,1.2,1.2,1.9,1.2l0,0c0.3,0,0.7-0.1,1-0.2c1.1-0.6,1.5-1.9,0.9-2.9c-0.6-1.1-1.3-2.2-2.2-3.1
	c3.9-2,8.4-2.8,12.7-2c0.7,0.1,1.5,0.3,2.2,0.6c-0.5,1.2-1,2.3-1.6,3.3c-1.7,2.7-3.9,4.8-6.8,6.3C111.3,139.8,97.5,138.6,89,132.6z
	 M120.9,112.4c-11.4,0.1-23-0.6-34.3-2.1c-2.7-0.3-5.4-0.8-8-1.6h0l0.5-4.5l6.4-0.1c5.1,0,10,0,14.8,0c1.9,0,3.7,0,5.6,0h0h0.3
	c5.2,0,10.5,0.1,15.9,0.2c2.6,0,5.3,0.1,8,0.2c0.1,2.3,0.2,4.6,0.2,6.9C127.4,112.2,124.2,112.3,120.9,112.4z"/>
<path class="st1" d="M130.1,104.4c-2.7-0.1-5.4-0.1-8-0.2c-5.4-0.1-10.6-0.2-15.9-0.2H106h0c-1.9,0-3.7,0-5.6,0c-4.9,0-9.8,0-14.8,0
	l-6.4,0.1l-0.5,4.5h0c2.5,0.9,5.3,1.3,8,1.6c11.4,1.5,22.9,2.2,34.3,2.1c3.3,0,6.5-0.2,9.5-1C130.3,109.1,130.3,106.8,130.1,104.4z"
	/>
<path class="st29" d="M126.6,129c0.6-1,1.2-2.1,1.6-3.3c-0.7-0.2-1.5-0.4-2.2-0.6c-4.3-0.8-8.8-0.1-12.7,2c0.9,0.9,1.6,1.9,2.2,3.1
	c0.6,1.1,0.1,2.4-0.9,2.9c-0.3,0.2-0.7,0.2-1,0.2l0,0c-0.8,0-1.6-0.4-1.9-1.2c-0.7-1.4-1.8-2.6-3.1-3.4c-0.1,0-0.2,0-0.4,0
	c-0.8-0.1-1.4-0.5-1.9-0.8l-0.1-0.1c-4.9-2.9-11.2-4.1-17.9-3.3c-1.9,0.2-3.9,0.6-5.9,1.2l0,0c1.7,2.6,3.9,4.9,6.7,6.9
	c8.5,6,22.3,7.2,30.7,2.7C122.6,133.7,124.9,131.7,126.6,129z"/>
</svg>
