<?xml version="1.0" encoding="utf-8"?>
<!-- Generator: Adobe Illustrator 26.0.1, SVG Export Plug-In . SVG Version: 6.00 Build 0)  -->
<svg version="1.1" id="Layer_1" xmlns="http://www.w3.org/2000/svg" xmlns:xlink="http://www.w3.org/1999/xlink" x="0px" y="0px"
	 viewBox="0 0 200 200" style="enable-background:new 0 0 200 200;" xml:space="preserve">
<style type="text/css">
	.st0{fill:#F466BA;}
	.st1{fill:#FFFFFF;}
	.st2{fill:#F89DC6;}
	.st3{fill:#B42026;}
	.st4{fill:#EF3643;}
	.st5{fill:#190D07;}
	.st6{fill:#D53F4C;}
	.st7{fill:#D42049;}
	.st8{fill:#040606;}
	.st9{fill:#751449;}
	.st10{fill:#510D2C;}
	.st11{fill:#76214F;}
	.st12{fill:#C42289;}
	.st13{fill:#A41C6F;}
	.st14{fill:#D03D9A;}
	.st15{fill:#7A171B;}
	.st16{fill:#C62C36;}
	.st17{fill:#F24F57;}
	.st18{fill:#65BED9;}
	.st19{fill:#FF929D;}
	.st20{fill:#F56E1D;}
	.st21{fill:#D93B5A;}
	.st22{fill:#EDC1C2;}
	.st23{fill:#010101;}
	.st24{fill:#030303;}
	.st25{fill:#F8FBFB;}
	.st26{fill:#F5F8F8;}
	.st27{fill:#F6F9F9;}
	.st28{fill:#66CEF5;}
	.st29{fill:#EF8F8F;}
	.st30{fill:#FFE164;}
	.st31{fill:#F7C1C1;}
	.st32{fill:#B6ECFF;}
</style>
<path d="M51.2,81.4c-3.6-5.2-10.5-7.4-16.7-5.2L33,76.7c0,0-0.1,0-0.1,0c-2.8,1.2-5,3.6-6.1,6.7c-1.2,3.3-1,7.1,0.5,10
	c2.4,4.7,7.8,7.7,13.4,7.7l0,0c1,0,1.9-0.1,2.9-0.3c2.3-0.4,4.2-1.3,5.7-2.5c2.8-2.3,4.5-6,4.3-9.9C53.5,86,52.7,83.5,51.2,81.4z
	 M37.7,85.7c-0.1,0.2-0.3,0.3-0.6,0.4c-0.9,0.5-2,0.4-3.1-0.3c-1.5-1-1.5-2.5-0.9-3.5l0,0c0.5-1,1.9-1.5,3.1-1
	c0.2,0.1,0.4,0.2,0.5,0.3c0.7,0.5,1.2,1.2,1.4,1.9C38.3,84.3,38.1,85.2,37.7,85.7z"/>
<path d="M161.4,78.7c-2.4-1.9-5.1-3.2-8.1-4.1c-0.4-0.1-0.8-0.2-1.2-0.3c-4.8-0.9-9.7,1.5-11.9,5.7c-1.3,2.6-2,5.4-1.9,8.3
	c0,1.5,0.3,2.8,0.8,3.9c1.5,3.4,4.9,5.2,7.7,6.3c1.8,0.7,3.8,1.4,6,1.4v0h0.1c6,0,10.3-5.1,12-10c0.8-2.3,0.9-4.3,0.4-6.1
	C164.6,81.4,162.8,79.7,161.4,78.7z M148,79.9L148,79.9c0.1,0,0.2,0,0.3,0c1.2,0.1,2.1,1.2,2,2.5c0,0.2,0,0.4-0.1,0.6
	c-0.2,0.8-0.7,1.5-1.3,2c-0.7,0.5-1.5,0.7-2.2,0.4c-0.2-0.1-0.4-0.2-0.6-0.4c-0.8-0.6-1.1-1.7-0.9-2.9
	C145.7,80.5,146.8,79.9,148,79.9z"/>
<path class="st1" d="M36.7,81.6c-0.1-0.1-0.3-0.2-0.5-0.3c-1.2-0.5-2.5,0-3.1,1l0,0c-0.6,1.1-0.6,2.6,0.9,3.5c1,0.7,2.2,0.8,3.1,0.3
	c0.2-0.1,0.4-0.3,0.6-0.4c0.5-0.5,0.6-1.4,0.4-2.2C37.9,82.9,37.4,82.2,36.7,81.6z"/>
<path class="st1" d="M145.3,82.1c-0.2,1.2,0.1,2.3,0.9,2.9c0.2,0.2,0.4,0.3,0.6,0.4c0.7,0.2,1.5,0.1,2.2-0.4c0.6-0.4,1-1.1,1.3-2
	c0-0.1,0.1-0.3,0.1-0.6c0-1.3-0.9-2.4-2-2.5c-0.1,0-0.2,0-0.3,0h0C146.8,79.9,145.7,80.5,145.3,82.1z"/>
<path class="st29" d="M83.6,130.1c7.4,7.1,19.2,8.6,26.4,3.2c2.2-1.6,3.9-3.7,5.3-6.3c-0.9-0.5-1.8-1-2.8-1.4
	c-7.4-3.2-15.5-3.8-23.2-3.9c-3.6-0.1-7.3-0.1-11.7,0C79.3,125,81.2,127.8,83.6,130.1z"/>
<path d="M112.4,136.4c3.1-2.3,5.5-5.4,7.3-9.3c0,0,0-0.1,0-0.1c2.2-5,3.4-11.3,3.6-19.3c0.1-5.1,0.1-10.3-0.2-15.3
	c-0.1-1-0.9-1.8-1.8-1.8c-3-0.1-5.9-0.2-8.8-0.3c-4.4-0.1-8.8-0.2-14-0.3c-1.7,0-3.5,0-5.2,0h0c-1.1,0-2.2,0-3.3,0
	c-3.3,0-6.6,0-9.7,0c-2.1,0-4.3,0.1-6.5,0.1l-0.8,0c-1,0-1.8,0.8-1.9,1.8l-0.9,10.6c-0.2,6.4,0.8,12.7,2.9,18.1
	c1.8,4.9,4.5,9,7.9,12.3c5.5,5.3,12.1,7.6,18.3,7.6C104.3,140.4,108.9,139,112.4,136.4z M77.7,121.7c4.3-0.1,8.1-0.1,11.7,0
	c7.7,0.2,15.9,0.8,23.2,3.9c1,0.4,1.9,0.9,2.8,1.4c-1.4,2.6-3.2,4.7-5.3,6.3c-7.2,5.4-19.1,3.9-26.4-3.2
	C81.2,127.8,79.3,125,77.7,121.7z M82.1,93.9c3,0,6.2,0,9.4,0c0,0.8-0.1,1.5-0.1,2.3c0,0.3-0.1,0.8-0.2,1c0,0.1-0.2,0.3-0.6,0.5
	c-1.9,1.1-4.5,1.1-6.2-0.1C83,96.7,82.2,95.3,82.1,93.9z M110.7,97L110.7,97c0,0.2,0,0.3-0.1,0.4c-0.1,0-0.1,0-0.1,0
	c-2.5,0.2-5.1,0-7.6-0.4c-0.2,0-1-0.2-1.2-0.3c-0.2-0.2-0.4-0.6-0.4-0.8c-0.3-0.6-0.5-1.3-0.6-2l0,0c3.6,0,6.9,0.1,10.1,0.2
	C110.8,95.1,110.8,96.1,110.7,97z"/>
<path class="st1" d="M84.2,97.5c1.7,1.2,4.3,1.2,6.2,0.1c0.4-0.3,0.6-0.4,0.6-0.5c0.1-0.2,0.2-0.7,0.2-1c0.1-0.8,0.1-1.5,0.1-2.3
	c-3.2,0-6.3,0-9.4,0C82.2,95.3,83,96.7,84.2,97.5z"/>
<path class="st1" d="M100.7,93.9L100.7,93.9c0.1,0.7,0.3,1.4,0.6,2c0.1,0.1,0.2,0.6,0.4,0.8c0.2,0.2,0.9,0.3,1.2,0.3
	c2.5,0.5,5.1,0.6,7.6,0.4c0,0,0.1,0,0.1,0c0-0.1,0-0.2,0.1-0.4v0c0.1-1,0.1-2,0.1-3C107.6,94,104.3,93.9,100.7,93.9z"/>
</svg>
