<?xml version="1.0" encoding="utf-8"?>
<!-- Generator: Adobe Illustrator 26.0.1, SVG Export Plug-In . SVG Version: 6.00 Build 0)  -->
<svg version="1.1" id="Layer_1" xmlns="http://www.w3.org/2000/svg" xmlns:xlink="http://www.w3.org/1999/xlink" x="0px" y="0px"
	 viewBox="0 0 200 200" style="enable-background:new 0 0 200 200;" xml:space="preserve">
<style type="text/css">
	.st0{fill:#F466BA;}
	.st1{fill:#FFFFFF;}
	.st2{fill:#F89DC6;}
	.st3{fill:#B42026;}
	.st4{fill:#EF3643;}
	.st5{fill:#190D07;}
	.st6{fill:#D53F4C;}
	.st7{fill:#D42049;}
	.st8{fill:#040606;}
	.st9{fill:#751449;}
	.st10{fill:#510D2C;}
	.st11{fill:#76214F;}
	.st12{fill:#C42289;}
	.st13{fill:#A41C6F;}
	.st14{fill:#D03D9A;}
	.st15{fill:#7A171B;}
	.st16{fill:#C62C36;}
	.st17{fill:#F24F57;}
	.st18{fill:#65BED9;}
	.st19{fill:#FF929D;}
	.st20{fill:#F56E1D;}
	.st21{fill:#D93B5A;}
	.st22{fill:#EDC1C2;}
	.st23{fill:#010101;}
	.st24{fill:#030303;}
	.st25{fill:#F8FBFB;}
	.st26{fill:#F5F8F8;}
	.st27{fill:#F6F9F9;}
	.st28{fill:#66CEF5;}
	.st29{fill:#EF8F8F;}
	.st30{fill:#FFE164;}
	.st31{fill:#F7C1C1;}
	.st32{fill:#B6ECFF;}
</style>
<path d="M48,89.3l-1.4,0.5c0,0-0.1,0-0.1,0c-2.6,1.1-4.6,3.3-5.6,6.2c-1.1,3.1-1,6.5,0.4,9.3c2.2,4.3,7.2,7.1,12.3,7.1l0,0
	c0.9,0,1.8-0.1,2.7-0.3c2.1-0.4,3.9-1.2,5.3-2.4c2.6-2.1,4.1-5.5,4-9.1c-0.1-2.3-0.8-4.5-2.2-6.5C60.1,89.2,53.7,87.3,48,89.3z
	 M51,98.1c-0.1,0.2-0.3,0.3-0.5,0.4c-0.8,0.5-1.9,0.4-2.8-0.2c-1.4-0.9-1.3-2.3-0.8-3.3l0,0c0.5-0.9,1.7-1.3,2.8-0.9
	c0.2,0.1,0.4,0.2,0.5,0.2c0.6,0.5,1.1,1.1,1.3,1.8C51.5,96.8,51.4,97.6,51,98.1z"/>
<path d="M157.4,111.2c5.5,0,9.5-4.7,11.1-9.3c0.7-2.2,0.9-4,0.4-5.6c-0.7-2.3-2.4-3.8-3.6-4.8c-2.2-1.7-4.7-3-7.5-3.8
	c-0.4-0.1-0.7-0.2-1.1-0.3c-4.5-0.8-9,1.4-11,5.3c-1.2,2.4-1.8,5-1.7,7.6c0,1.4,0.3,2.6,0.7,3.6c1.4,3.2,4.5,4.8,7.1,5.8
	C153.5,110.5,155.4,111.2,157.4,111.2L157.4,111.2L157.4,111.2z M152.8,92.7L152.8,92.7c0.1,0,0.2,0,0.3,0c1.1,0.1,1.9,1.1,1.9,2.3
	c0,0.2,0,0.4-0.1,0.5c-0.2,0.8-0.6,1.4-1.2,1.8c-0.6,0.5-1.4,0.6-2,0.4c-0.2-0.1-0.4-0.2-0.6-0.3c-0.7-0.6-1-1.6-0.8-2.7
	C150.7,93.2,151.8,92.7,152.8,92.7z"/>
<path class="st1" d="M50.1,94.3c-0.1-0.1-0.3-0.2-0.5-0.2c-1.1-0.4-2.3,0-2.8,0.9l0,0c-0.5,1-0.6,2.4,0.8,3.3c1,0.6,2,0.7,2.8,0.2
	c0.2-0.1,0.4-0.2,0.5-0.4c0.4-0.5,0.6-1.3,0.4-2C51.2,95.4,50.7,94.8,50.1,94.3z"/>
<path class="st1" d="M150.4,94.7c-0.2,1.1,0.1,2.1,0.8,2.7c0.2,0.1,0.4,0.3,0.6,0.3c0.6,0.2,1.4,0.1,2-0.4c0.5-0.4,0.9-1.1,1.2-1.8
	c0-0.1,0.1-0.3,0.1-0.5c0-1.2-0.8-2.2-1.9-2.3c-0.1,0-0.2,0-0.3,0h0C151.8,92.7,150.7,93.2,150.4,94.7z"/>
<path d="M67,76.6c0.3-0.9-0.2-1.9-1.1-2.2c-10.6-3.5-22.6-1.5-31.5,5.2c-0.8,0.6-0.9,1.7-0.3,2.5c0.3,0.5,0.9,0.7,1.4,0.7v0
	c0.4,0,0.8-0.1,1.1-0.4c7.9-6,18.8-7.8,28.2-4.7C65.7,78,66.7,77.5,67,76.6z"/>
<path d="M175.4,81.7c0.6-0.8,0.4-1.9-0.4-2.5c-10.6-7.8-26.1-8.7-37.5-2c-0.8,0.5-1.1,1.6-0.6,2.4c0.5,0.8,1.6,1.1,2.4,0.6
	c10.2-6,24-5.2,33.6,1.8c0.3,0.2,0.7,0.3,1.1,0.3l0,0C174.5,82.4,175.1,82.1,175.4,81.7z"/>
<path d="M81.6,125.8L81.6,125.8c1.2,0,2.4-0.3,3.9-0.8l6.6-2.4c0,0,0,0,0.1,0l0.3-0.1c5.6-1.8,10-2,16.7-1.6
	c2.2,0.1,4.5,0.3,6.5,0.9c0,0,0.1,0,0.1,0c0.2,0,0.3,0.1,0.6,0.2c0.8,0.3,1.6,0.6,2.5,1c2.8,1.2,6,2.6,9.3,1.2h0
	c3-1.3,4.9-4.9,4.4-8.5c-0.4-2.7-1.9-5.4-4.5-7.8c-10-9.4-26-7.6-37.7-4.5c-6.4,1.7-12.3,3.8-15,10.4c-1.3,3.2-0.9,6.9,1.1,9.3
	C77.9,124.9,79.5,125.8,81.6,125.8z M96.4,117.8c1.1-1,2.3-1.7,3.5-2.2c1.9-0.8,4-1,5.6-1.1c0.5,0,1-0.1,1.5-0.1
	c1.1,0,2.2,0.1,3.1,0.5c1.2,0.5,2.3,1.5,3.1,2.8c-1.3-0.2-2.6-0.3-3.9-0.3C104.4,117.1,100.5,117,96.4,117.8z"/>
<path class="st29" d="M109.3,117.4c1.3,0.1,2.6,0.2,3.9,0.3c-0.8-1.3-1.9-2.3-3.1-2.8c-1-0.4-2-0.5-3.1-0.5c-0.5,0-1,0-1.5,0.1
	c-1.6,0.1-3.7,0.3-5.6,1.1c-1.2,0.5-2.4,1.2-3.5,2.2C100.5,117,104.4,117.1,109.3,117.4z"/>
</svg>
