<?xml version="1.0" encoding="utf-8"?>
<!-- Generator: Adobe Illustrator 26.0.1, SVG Export Plug-In . SVG Version: 6.00 Build 0)  -->
<svg version="1.1" id="Layer_1" xmlns="http://www.w3.org/2000/svg" xmlns:xlink="http://www.w3.org/1999/xlink" x="0px" y="0px"
	 viewBox="0 0 200 200" style="enable-background:new 0 0 200 200;" xml:space="preserve">
<style type="text/css">
	.st0{fill:#F466BA;}
	.st1{fill:#FFFFFF;}
	.st2{fill:#F89DC6;}
	.st3{fill:#B42026;}
	.st4{fill:#EF3643;}
	.st5{fill:#190D07;}
	.st6{fill:#D53F4C;}
	.st7{fill:#D42049;}
	.st8{fill:#040606;}
	.st9{fill:#751449;}
	.st10{fill:#510D2C;}
	.st11{fill:#76214F;}
	.st12{fill:#C42289;}
	.st13{fill:#A41C6F;}
	.st14{fill:#D03D9A;}
	.st15{fill:#7A171B;}
	.st16{fill:#C62C36;}
	.st17{fill:#F24F57;}
	.st18{fill:#65BED9;}
	.st19{fill:#FF929D;}
	.st20{fill:#F56E1D;}
	.st21{fill:#D93B5A;}
	.st22{fill:#EDC1C2;}
	.st23{fill:#010101;}
	.st24{fill:#030303;}
	.st25{fill:#F8FBFB;}
	.st26{fill:#F5F8F8;}
	.st27{fill:#F6F9F9;}
	.st28{fill:#66CEF5;}
	.st29{fill:#EF8F8F;}
	.st30{fill:#FFE164;}
	.st31{fill:#F7C1C1;}
	.st32{fill:#B6ECFF;}
</style>
<path d="M77.4,103.7c1.1-1.3,1.9-2.5,2.4-3.8c0.5-1.2,0.8-2.5,1-4c0.5-5-1-10.3-4.4-14.9c-0.4-0.5-1-0.8-1.6-0.8H46.1
	c-0.7,0-1.3,0.4-1.7,1l-0.1,0.2c-0.1,0.2-0.2,0.3-0.3,0.5c-4.8,8.7-3.9,17.8,2.3,23.9c3.7,3.6,9,5.7,14.4,5.7c0.7,0,1.3,0,2-0.1
	C68.3,110.9,73.7,108.1,77.4,103.7z M64.4,90.8c0.7-2,2.2-3.6,3.7-3.9c0.1,0,0.1,0,0.2,0c0.2,0,0.4,0,0.6,0h0c2.5,0,3.4,2.2,3.6,3
	c0.6,2,0.2,4.7-2,5.7c-2.1,1.1-4.6,0.6-5.9-1C64,93.7,63.9,92.3,64.4,90.8z"/>
<path class="st1" d="M70.6,95.5c2.1-1.1,2.6-3.7,2-5.7c-0.2-0.7-1.1-3-3.6-3h0c-0.2,0-0.4,0-0.6,0c-0.1,0-0.1,0-0.2,0
	c-1.4,0.3-3,2-3.7,3.9c-0.5,1.5-0.4,2.8,0.2,3.7C66,96.2,68.5,96.6,70.6,95.5z"/>
<polygon points="153.1,111.5 153.1,111.5 153.1,111.5 "/>
<path d="M169.8,103.7c1.1-1.3,1.9-2.5,2.4-3.8c0.5-1.2,0.8-2.5,1-4c0.5-5-1-10.3-4.4-14.9c-0.4-0.5-1-0.8-1.6-0.8h-28.7
	c-0.7,0-1.3,0.4-1.7,1l-0.1,0.2c-0.1,0.2-0.2,0.3-0.3,0.5c-4.8,8.7-3.9,17.8,2.3,23.9c3.7,3.6,9,5.7,14.4,5.7c0.7,0,1.3,0,1.9-0.1
	C160.7,110.9,166.1,108.1,169.8,103.7z M159.8,87c0.4-0.1,0.8-0.1,1.2-0.1v0c1.9,0,3.6,1,4.3,2.6c0.4,1,0.2,2.3-0.7,3.6
	c-1.1,1.7-3,2.9-4.5,2.9c0,0,0,0-0.1,0c-0.1,0-0.1,0-0.2,0c-3-0.3-3.4-3-3.4-3.9C156.4,90,157.5,87.5,159.8,87z"/>
<path class="st1" d="M159.9,96c0.1,0,0.1,0,0.2,0c0,0,0,0,0.1,0c1.5,0,3.4-1.2,4.5-2.9c0.9-1.3,1.1-2.6,0.7-3.6
	c-0.7-1.6-2.4-2.6-4.3-2.6v0c-0.4,0-0.8,0-1.2,0.1c-2.3,0.5-3.5,3-3.3,5.1C156.5,92.9,156.9,95.7,159.9,96z"/>
<path d="M107.2,134.3c0.3,0,0.7-0.1,1-0.3c8.5-5.2,18.3-8.4,28.3-9.2c1.1-0.1,1.9-1,1.8-2.1c-0.1-1.1-1-1.9-2.1-1.8
	c-10.6,0.9-21,4.2-30,9.8c-0.9,0.6-1.2,1.8-0.7,2.7C105.9,134,106.6,134.3,107.2,134.3z"/>
</svg>
