<?xml version="1.0" encoding="utf-8"?>
<!-- Generator: Adobe Illustrator 26.0.1, SVG Export Plug-In . SVG Version: 6.00 Build 0)  -->
<svg version="1.1" id="Layer_1" xmlns="http://www.w3.org/2000/svg" xmlns:xlink="http://www.w3.org/1999/xlink" x="0px" y="0px"
	 viewBox="0 0 200 200" style="enable-background:new 0 0 200 200;" xml:space="preserve">
<style type="text/css">
	.st0{fill:#F466BA;}
	.st1{fill:#FFFFFF;}
	.st2{fill:#F89DC6;}
	.st3{fill:#B42026;}
	.st4{fill:#EF3643;}
	.st5{fill:#190D07;}
	.st6{fill:#D53F4C;}
	.st7{fill:#D42049;}
	.st8{fill:#040606;}
	.st9{fill:#751449;}
	.st10{fill:#510D2C;}
	.st11{fill:#76214F;}
	.st12{fill:#C42289;}
	.st13{fill:#A41C6F;}
	.st14{fill:#D03D9A;}
	.st15{fill:#7A171B;}
	.st16{fill:#C62C36;}
	.st17{fill:#F24F57;}
	.st18{fill:#65BED9;}
	.st19{fill:#FF929D;}
	.st20{fill:#F56E1D;}
	.st21{fill:#D93B5A;}
	.st22{fill:#EDC1C2;}
	.st23{fill:#010101;}
	.st24{fill:#030303;}
	.st25{fill:#F8FBFB;}
	.st26{fill:#F5F8F8;}
	.st27{fill:#F6F9F9;}
	.st28{fill:#66CEF5;}
	.st29{fill:#EF8F8F;}
	.st30{fill:#FFE164;}
	.st31{fill:#F7C1C1;}
	.st32{fill:#B6ECFF;}
</style>
<path d="M148.4,45.8c-1.2,0.1-2.1,1.1-2.1,2.3l0.9,19.4c0.1,1.2,1,2.1,2.2,2.1h0c0,0,0.1,0,0.1,0c1.2-0.1,2.1-1.1,2.1-2.3l-0.9-19.4
	C150.7,46.7,149.7,45.8,148.4,45.8z"/>
<path d="M160.9,66V51.6c0-1.2-1-2.2-2.2-2.2c-1.2,0-2.2,1-2.2,2.2V66c0,1.2,1,2.2,2.2,2.2C159.9,68.2,160.9,67.2,160.9,66z"/>
<path d="M168.1,51.6c-1.2,0-2.2,1-2.2,2.2v10.8c0,1.2,1,2.2,2.2,2.2c1.2,0,2.2-1,2.2-2.2V53.8C170.3,52.5,169.3,51.6,168.1,51.6z"/>
<path d="M49.4,109.3L49.4,109.3c1.1,0,2.2-0.1,3.3-0.3c2.6-0.5,4.8-1.5,6.6-2.9c3.2-2.6,5.1-6.8,5-11.3c-0.1-2.8-1-5.6-2.7-8.1
	c-4.2-6-12-8.4-19.1-6l-1.7,0.6c0,0-0.1,0-0.1,0c-3.2,1.4-5.7,4.1-7,7.7c-1.4,3.8-1.2,8.1,0.5,11.5C36.8,105.9,43,109.3,49.4,109.3z
	 M46,91.7c-0.2,0.2-0.4,0.4-0.6,0.5c-1,0.6-2.3,0.4-3.5-0.3c-1.7-1.1-1.7-2.8-1-4.1c0.4-0.9,1.4-1.3,2.4-1.3v0
	c0.4,0,0.8,0.1,1.1,0.2c0.3,0.1,0.4,0.2,0.6,0.3c0.8,0.6,1.3,1.4,1.6,2.2C46.8,90.1,46.6,91.1,46,91.7z"/>
<path d="M147.7,78.6c-5.5-1-11.1,1.7-13.6,6.6c-1.5,3-2.3,6.2-2.2,9.5c0.1,1.7,0.3,3.2,0.9,4.5c1.7,3.9,5.6,5.9,8.8,7.2
	c2.1,0.8,4.4,1.6,6.9,1.6v0h0.1c6.8,0,11.8-5.8,13.7-11.5c0.9-2.7,1.1-4.9,0.5-6.9c-0.8-2.8-3-4.7-4.5-5.9c-2.8-2.1-5.9-3.7-9.2-4.7
	C148.6,78.8,148.2,78.7,147.7,78.6z M142.9,85c0.1,0,0.3,0,0.4,0c1.3,0.1,2.4,1.4,2.3,2.8c0,0.3,0,0.5-0.1,0.6
	c-0.3,1-0.8,1.8-1.4,2.3c-0.7,0.6-1.8,0.8-2.5,0.5c-0.2-0.1-0.5-0.2-0.7-0.4c-0.9-0.7-1.3-2-1-3.4C140.2,85.7,141.6,85,142.9,85z"/>
<path class="st1" d="M44.9,87c-0.1-0.1-0.3-0.2-0.6-0.3c-0.4-0.2-0.8-0.2-1.1-0.2v0c-1,0-1.9,0.5-2.4,1.3c-0.6,1.2-0.7,3,1,4.1
	c1.2,0.7,2.5,0.9,3.5,0.3c0.3-0.1,0.5-0.3,0.6-0.5c0.5-0.6,0.7-1.6,0.5-2.5C46.3,88.4,45.7,87.6,44.9,87z"/>
<path class="st1" d="M139.9,87.5c-0.3,1.4,0.1,2.6,1,3.4c0.2,0.2,0.5,0.3,0.7,0.4c0.8,0.3,1.8,0.1,2.5-0.5c0.6-0.5,1.2-1.3,1.4-2.3
	c0.1-0.2,0.1-0.4,0.1-0.6c0-1.4-1-2.7-2.3-2.8c-0.1,0-0.3,0-0.4,0C141.6,85,140.2,85.7,139.9,87.5z"/>
<path d="M65.4,151.8c1.9,2.3,3.9,3.4,6.4,3.4l0,0c1.4,0,3-0.3,4.8-1l8.6-3.2c6.9-2.3,12.4-2.4,20.7-1.9c2.7,0.2,5.5,0.4,8.1,1.1
	c0.2,0,0.4,0.1,0.7,0.2l0.7-1.9h0l-0.3,1.3c0,0,0,0,0.1,0l-0.2,0.7c0.9,0.3,1.9,0.8,2.9,1.2c3.5,1.5,7.5,3.3,11.5,1.5
	c3.8-1.6,6-6.1,5.4-10.5c-0.5-3.4-2.3-6.7-5.6-9.7c-12.4-11.6-32.2-9.5-46.7-5.6c-7.9,2.1-15.3,4.7-18.6,12.9
	C62.4,144.3,62.9,148.8,65.4,151.8z M114,146.4c-2.6-0.6-5.2-0.8-7.8-1c-7.4-0.5-13-0.4-19.2,1.3c0.1-0.1,0.1-0.3,0.2-0.4
	c3-5.2,9.1-8.3,15.1-8.3v0c1.8,0,3.6,0.3,5.3,0.9c1.7,0.6,3,1.4,4,2.4C112.7,142.5,113.5,144.1,114,146.4z"/>
<path class="st29" d="M107.6,138.9c-1.7-0.6-3.5-0.9-5.3-0.9v0c-6,0-12.1,3.2-15.1,8.3c-0.1,0.1-0.1,0.2-0.2,0.4
	c6.3-1.7,11.8-1.7,19.2-1.3c2.6,0.2,5.3,0.3,7.8,1c-0.5-2.3-1.3-3.9-2.4-5.1C110.6,140.3,109.3,139.5,107.6,138.9z"/>
</svg>
