<?xml version="1.0" encoding="utf-8"?>
<!-- Generator: Adobe Illustrator 26.0.1, SVG Export Plug-In . SVG Version: 6.00 Build 0)  -->
<svg version="1.1" id="Layer_1" xmlns="http://www.w3.org/2000/svg" xmlns:xlink="http://www.w3.org/1999/xlink" x="0px" y="0px"
	 viewBox="0 0 200 200" style="enable-background:new 0 0 200 200;" xml:space="preserve">
<style type="text/css">
	.st0{fill:#F466BA;}
	.st1{fill:#FFFFFF;}
	.st2{fill:#F89DC6;}
	.st3{fill:#B42026;}
	.st4{fill:#EF3643;}
	.st5{fill:#190D07;}
	.st6{fill:#D53F4C;}
	.st7{fill:#D42049;}
	.st8{fill:#040606;}
	.st9{fill:#751449;}
	.st10{fill:#510D2C;}
	.st11{fill:#76214F;}
	.st12{fill:#C42289;}
	.st13{fill:#A41C6F;}
	.st14{fill:#D03D9A;}
	.st15{fill:#7A171B;}
	.st16{fill:#C62C36;}
	.st17{fill:#F24F57;}
	.st18{fill:#65BED9;}
	.st19{fill:#FF929D;}
	.st20{fill:#F56E1D;}
	.st21{fill:#D93B5A;}
	.st22{fill:#EDC1C2;}
	.st23{fill:#010101;}
	.st24{fill:#030303;}
	.st25{fill:#F8FBFB;}
	.st26{fill:#F5F8F8;}
	.st27{fill:#F6F9F9;}
	.st28{fill:#66CEF5;}
	.st29{fill:#EF8F8F;}
	.st30{fill:#FFE164;}
	.st31{fill:#F7C1C1;}
	.st32{fill:#B6ECFF;}
</style>
<path class="st6" d="M79.1,119.3c1.4,3.3,3.5,6.3,5.9,8.8c0.2,0.2,0.3,0.3,0.4,0.4c0.1,0.1,0.2,0.2,0.3,0.3
	c5.6-5.2,12.9-8.1,20.6-8.1c8,0,15.6,3.2,21.2,8.7c0,0,0.1-0.1,0.1-0.1c0.9-0.9,1.8-1.8,2.6-2.7c1.9-2.2,3.4-4.7,4.6-7.3H79.1z"/>
<path class="st5" d="M71.9,117.2c1.6,5.7,4.7,10.9,8.8,15.2c0.2,0.2,0.4,0.4,0.5,0.5c0.9,0.9,1.8,1.7,2.7,2.4
	c6.5,5.3,14.6,8.2,23,8.2c0.5,0,1,0,1.5,0c7.5-0.3,14.6-2.9,20.6-7.5c0,0,0,0,0,0c0,0,0,0,0,0c0,0,0,0,0,0c0.9-0.7,1.7-1.4,2.7-2.2
	c1.1-1,2.2-2.1,3.1-3.3c3.3-3.9,5.7-8.4,7.1-13.3c0.2-0.6,0.3-1.2,0.5-1.8c0.6-2.7,1-5.6,1-8.4c0-1.7-1.3-3-3-3H73.5
	c-1.7,0-3,1.3-3,3c0,2.8,0.3,5.6,0.9,8.3C71.6,115.9,71.7,116.5,71.9,117.2z M106.9,137.5c-6,0-11.6-1.7-16.5-4.9
	c4.4-3.8,10-5.9,15.8-5.9c6.1,0,11.9,2.3,16.4,6.4C117.9,136,112.6,137.5,106.9,137.5z M127.6,129.3c0,0-0.1,0.1-0.1,0.1
	c-5.6-5.6-13.2-8.7-21.2-8.7c-7.7,0-15,2.9-20.6,8.1c-0.1-0.1-0.2-0.2-0.3-0.3c-0.1-0.1-0.2-0.2-0.4-0.4c-2.5-2.6-4.5-5.6-5.9-8.8
	h55.7c-1.2,2.6-2.7,5.1-4.6,7.3C129.4,127.6,128.6,128.5,127.6,129.3z M136.7,113.3H77.1c-0.2-1.1-0.4-2.2-0.5-3.4h60.6
	C137.1,111.1,137,112.2,136.7,113.3z"/>
<path class="st7" d="M106.3,126.7c-5.8,0-11.5,2.1-15.8,5.9c4.9,3.2,10.5,4.9,16.5,4.9c5.6,0,11-1.5,15.7-4.4
	C118.2,129,112.4,126.7,106.3,126.7z"/>
<path class="st1" d="M76.6,110c0.1,1.1,0.3,2.3,0.5,3.4h59.6c0.2-1.1,0.4-2.2,0.5-3.4H76.6z"/>
<path class="st5" d="M46.4,85.9c0.6,0.6,1.4,0.9,2.1,0.9c0.8,0,1.5-0.3,2.1-0.9L63,73.4l12.4,12.4c0.6,0.6,1.4,0.9,2.1,0.9
	c0.8,0,1.5-0.3,2.1-0.9c1.2-1.2,1.2-3.1,0-4.2L67.3,69.2l12.4-12.4c1.2-1.2,1.2-3.1,0-4.2c-1.2-1.2-3.1-1.2-4.2,0L63,64.9L50.6,52.5
	c-1.2-1.2-3.1-1.2-4.2,0c-1.2,1.2-1.2,3.1,0,4.2l12.4,12.4L46.4,81.6C45.2,82.8,45.2,84.7,46.4,85.9z"/>
<path class="st5" d="M133.7,52.5c-1.2,1.2-1.2,3.1,0,4.2l12.4,12.4l-12.4,12.4c-1.2,1.2-1.2,3.1,0,4.2c0.6,0.6,1.4,0.9,2.1,0.9
	c0.8,0,1.5-0.3,2.1-0.9l12.4-12.4l12.4,12.4c0.6,0.6,1.4,0.9,2.1,0.9c0.8,0,1.5-0.3,2.1-0.9c1.2-1.2,1.2-3.1,0-4.2l-12.4-12.4
	l12.4-12.4c1.2-1.2,1.2-3.1,0-4.2c-1.2-1.2-3.1-1.2-4.2,0l-12.4,12.4l-12.4-12.4C136.7,51.3,134.8,51.3,133.7,52.5z"/>
<path class="st7" d="M47.3,108c11.5,0,20.8-4.3,20.8-9.6c0-5.3-9.3-9.6-20.8-9.6c-11.5,0-20.8,4.3-20.8,9.6
	C26.5,103.7,35.8,108,47.3,108z"/>
<path class="st7" d="M142.8,98.4c0,5.3,9.3,9.6,20.8,9.6c11.5,0,20.8-4.3,20.8-9.6c0-5.3-9.3-9.6-20.8-9.6
	C152.1,88.8,142.8,93.1,142.8,98.4z"/>
</svg>
