<?xml version="1.0" encoding="utf-8"?>
<!-- Generator: Adobe Illustrator 26.0.1, SVG Export Plug-In . SVG Version: 6.00 Build 0)  -->
<svg version="1.1" id="Layer_1" xmlns="http://www.w3.org/2000/svg" xmlns:xlink="http://www.w3.org/1999/xlink" x="0px" y="0px"
	 viewBox="0 0 200 200" style="enable-background:new 0 0 200 200;" xml:space="preserve">
<style type="text/css">
	.st0{fill:#F466BA;}
	.st1{fill:#FFFFFF;}
	.st2{fill:#F89DC6;}
	.st3{fill:#B42026;}
	.st4{fill:#EF3643;}
	.st5{fill:#190D07;}
	.st6{fill:#D53F4C;}
	.st7{fill:#D42049;}
	.st8{fill:#040606;}
	.st9{fill:#751449;}
	.st10{fill:#510D2C;}
	.st11{fill:#76214F;}
	.st12{fill:#C42289;}
	.st13{fill:#A41C6F;}
	.st14{fill:#D03D9A;}
	.st15{fill:#7A171B;}
	.st16{fill:#C62C36;}
	.st17{fill:#F24F57;}
	.st18{fill:#65BED9;}
	.st19{fill:#FF929D;}
	.st20{fill:#F56E1D;}
	.st21{fill:#D93B5A;}
	.st22{fill:#EDC1C2;}
	.st23{fill:#010101;}
	.st24{fill:#030303;}
	.st25{fill:#F8FBFB;}
	.st26{fill:#F5F8F8;}
	.st27{fill:#F6F9F9;}
	.st28{fill:#66CEF5;}
	.st29{fill:#EF8F8F;}
	.st30{fill:#FFE164;}
	.st31{fill:#F7C1C1;}
	.st32{fill:#B6ECFF;}
</style>
<path d="M136.1,95.6c1.8-4.9,7.5-7.5,11.9-8.2c2.6-0.4,4.9-0.3,6.9,0.2c4.4,1.2,8,4.9,9,9.4c0.3,1.5,1.6,2.5,3.1,2.5v0
	c0.2,0,0.5,0,0.7-0.1c1.7-0.4,2.8-2.1,2.4-3.8c-1.5-6.7-6.9-12.4-13.6-14.2c-2.9-0.7-6.1-0.9-9.5-0.3c-6.4,1-14.2,4.7-16.9,12.3
	c-0.6,1.7,0.3,3.5,1.9,4.1C133.6,98.1,135.5,97.3,136.1,95.6z"/>
<path d="M31.4,96.1c0.4,0.2,0.9,0.3,1.3,0.3c1.2,0,2.3-0.7,2.9-1.8c1.9-4,6.6-7.5,12-9c4.8-1.3,9.4-0.9,12.6,1.2
	c2.4,1.6,3.7,4.5,4.4,6.6c0.6,1.7,2.4,2.6,4,2c1.7-0.6,2.6-2.4,2-4c-1.5-4.5-3.8-7.8-6.9-9.9c-4.7-3.2-11.2-3.9-17.8-2.1
	c-7.3,2-13.4,6.8-16.1,12.4C29.1,93.5,29.8,95.3,31.4,96.1z"/>
<path d="M86.1,119.5c0,3.2,0.1,6.2,0.2,9.2c0,0.8,0.1,1.5,0.1,2.3c0.1,3.9,0.3,8,1.7,11.6c1.2,2.9,3.1,5.2,5.9,7
	c2.6,1.7,5.2,2.7,7.7,3.1c0.6,0.1,1.2,0.1,1.8,0.1c3.1,0,6.1-1.1,8.6-3.3c2.6-2.3,4.6-5.7,5.6-9.7c0.2-0.6,0.3-1.3,0.4-2
	c1.4-6.9,1.1-14.9,0.8-19.1c3.7-1.8,6.6-5.2,7.6-9.1c0.3-1-0.3-2.1-1.4-2.3c-1-0.3-2.1,0.3-2.3,1.4c-0.8,3.1-3.4,5.9-6.6,7.1
	c0,0,0,0,0,0c-0.8,0.3-1.5,0.4-2.2,0.5c-0.2,0-0.3,0-0.5,0c-3.9,0.2-8-2-9.8-5.5c-0.4-0.7-1.1-1.1-1.8-1c-0.4,0-0.7,0.2-1,0.4
	c-0.3,0.2-0.5,0.5-0.6,0.9c-0.2,0.7-0.6,1.3-1.1,1.8c-2,2.3-5.8,3.2-8.9,3.3c-0.7,0-1.4,0-2.1-0.1c-4.1-0.4-8.9-2.3-10.3-6.5
	c-0.3-1-1.4-1.5-2.4-1.2c-1,0.3-1.5,1.4-1.2,2.4C75.8,115.2,80.2,118.4,86.1,119.5z M91.6,142.4c0.3-0.1,0.6-0.3,1-0.4
	c3.6-1.5,6.2-1.6,7.8-0.4l0.2,0.1c0.4,0.3,0.9,0.8,1.7,0.9c0.9,0.1,1.7-0.4,2.1-0.6c3.4-2.1,6.4-3.2,9.3-3.4c0.4,0,0.8,0,1.2,0
	c0,0.1-0.1,0.2-0.1,0.4c-0.6,2.4-2,5.7-4.7,8.1c-2.2,1.9-5,2.8-7.8,2.4c-2-0.3-4.2-1.2-6.4-2.6C94,145.6,92.6,144.2,91.6,142.4
	L91.6,142.4z"/>
<polygon points="103.5,152.7 103.5,152.7 103.5,152.7 "/>
<path class="st29" d="M95.8,146.8c2.2,1.4,4.4,2.3,6.4,2.6c2.8,0.4,5.6-0.5,7.8-2.4c2.7-2.4,4-5.7,4.7-8.1c0-0.1,0.1-0.2,0.1-0.4
	c-0.4,0-0.8,0-1.2,0c-2.8,0.2-5.9,1.4-9.3,3.4c-0.4,0.2-1.2,0.7-2.1,0.6c-0.8-0.1-1.3-0.5-1.7-0.9l-0.2-0.1
	c-1.6-1.3-4.1-1.1-7.8,0.4c-0.3,0.1-0.6,0.3-1,0.4v0C92.6,144.2,94,145.6,95.8,146.8z"/>
</svg>
