<?xml version="1.0" encoding="utf-8"?>
<!-- Generator: Adobe Illustrator 26.0.1, SVG Export Plug-In . SVG Version: 6.00 Build 0)  -->
<svg version="1.1" id="Layer_1" xmlns="http://www.w3.org/2000/svg" xmlns:xlink="http://www.w3.org/1999/xlink" x="0px" y="0px"
	 viewBox="0 0 200 200" style="enable-background:new 0 0 200 200;" xml:space="preserve">
<style type="text/css">
	.st0{fill:#F466BA;}
	.st1{fill:#FFFFFF;}
	.st2{fill:#F89DC6;}
	.st3{fill:#B42026;}
	.st4{fill:#EF3643;}
	.st5{fill:#190D07;}
	.st6{fill:#D53F4C;}
	.st7{fill:#D42049;}
	.st8{fill:#040606;}
	.st9{fill:#751449;}
	.st10{fill:#510D2C;}
	.st11{fill:#76214F;}
	.st12{fill:#C42289;}
	.st13{fill:#A41C6F;}
	.st14{fill:#D03D9A;}
	.st15{fill:#7A171B;}
	.st16{fill:#C62C36;}
	.st17{fill:#F24F57;}
	.st18{fill:#65BED9;}
	.st19{fill:#FF929D;}
	.st20{fill:#F56E1D;}
	.st21{fill:#D93B5A;}
	.st22{fill:#EDC1C2;}
	.st23{fill:#010101;}
	.st24{fill:#030303;}
	.st25{fill:#F8FBFB;}
	.st26{fill:#F5F8F8;}
	.st27{fill:#F6F9F9;}
	.st28{fill:#66CEF5;}
	.st29{fill:#EF8F8F;}
	.st30{fill:#FFE164;}
	.st31{fill:#F7C1C1;}
	.st32{fill:#B6ECFF;}
</style>
<path class="st5" d="M50.9,84.8c0.6,0.6,1.3,0.8,2,0.8c0.7,0,1.4-0.3,2-0.8l10.7-10.7l10.7,10.7c0.6,0.6,1.3,0.8,2,0.8
	c0.7,0,1.4-0.3,2-0.8c1.1-1.1,1.1-2.9,0-4L69.6,70.1l10.7-10.7c1.1-1.1,1.1-2.9,0-4c-1.1-1.1-2.9-1.1-4,0L65.6,66.1L54.9,55.4
	c-1.1-1.1-2.9-1.1-4,0c-1.1,1.1-1.1,2.9,0,4l10.7,10.7L50.9,80.8C49.8,81.9,49.8,83.7,50.9,84.8z"/>
<path class="st5" d="M127.3,84.8c0.6,0.6,1.3,0.8,2,0.8c0.7,0,1.4-0.3,2-0.8L142,74.1l10.7,10.7c0.6,0.6,1.3,0.8,2,0.8
	c0.7,0,1.4-0.3,2-0.8c1.1-1.1,1.1-2.9,0-4L146,70.1l10.7-10.7c1.1-1.1,1.1-2.9,0-4c-1.1-1.1-2.9-1.1-4,0L142,66.1l-10.7-10.7
	c-1.1-1.1-2.9-1.1-4,0c-1.1,1.1-1.1,2.9,0,4L138,70.1l-10.7,10.7C126.2,81.9,126.2,83.7,127.3,84.8z"/>
<path class="st7" d="M51.8,109.9c10.7,0,19.3-4,19.3-8.9c0-4.9-8.6-8.9-19.3-8.9c-10.7,0-19.3,4-19.3,8.9
	C32.5,105.9,41.1,109.9,51.8,109.9z"/>
<ellipse class="st7" cx="160.5" cy="101" rx="19.3" ry="8.9"/>
<path class="st5" d="M71.9,113c-1.1,1.1-1.1,2.9,0,4l10.7,10.7c1.1,1.1,2.9,1.1,4,0l8-8l9.2,9.1c1.1,1.1,2.9,1.1,4,0l7.9-7.9
	l9.2,9.1c0.5,0.5,1.3,0.8,2,0.8c0,0,0,0,0.1,0c0.8,0,1.5-0.3,2-0.9l10.6-11.6c1.1-1.1,1-2.9-0.2-4c-1.1-1.1-2.9-1-4,0.2l-8.6,9.4
	l-9.1-9.1c-1.1-1.1-2.9-1.1-4,0l-7.9,7.9l-9.2-9.1c-1.1-1.1-2.9-1.1-4,0l-8,8l-8.7-8.7C74.8,111.8,73,111.8,71.9,113z"/>
</svg>
