<?xml version="1.0" encoding="utf-8"?>
<!-- Generator: Adobe Illustrator 26.0.1, SVG Export Plug-In . SVG Version: 6.00 Build 0)  -->
<svg version="1.1" id="Layer_1" xmlns="http://www.w3.org/2000/svg" xmlns:xlink="http://www.w3.org/1999/xlink" x="0px" y="0px"
	 viewBox="0 0 200 200" style="enable-background:new 0 0 200 200;" xml:space="preserve">
<style type="text/css">
	.st0{fill:#F466BA;}
	.st1{fill:#FFFFFF;}
	.st2{fill:#F89DC6;}
	.st3{fill:#B42026;}
	.st4{fill:#EF3643;}
	.st5{fill:#190D07;}
	.st6{fill:#D53F4C;}
	.st7{fill:#D42049;}
	.st8{fill:#040606;}
	.st9{fill:#751449;}
	.st10{fill:#510D2C;}
	.st11{fill:#76214F;}
	.st12{fill:#C42289;}
	.st13{fill:#A41C6F;}
	.st14{fill:#D03D9A;}
	.st15{fill:#7A171B;}
	.st16{fill:#C62C36;}
	.st17{fill:#F24F57;}
	.st18{fill:#65BED9;}
	.st19{fill:#FF929D;}
	.st20{fill:#F56E1D;}
	.st21{fill:#D93B5A;}
	.st22{fill:#EDC1C2;}
	.st23{fill:#010101;}
	.st24{fill:#030303;}
	.st25{fill:#F8FBFB;}
	.st26{fill:#F5F8F8;}
	.st27{fill:#F6F9F9;}
	.st28{fill:#66CEF5;}
	.st29{fill:#EF8F8F;}
	.st30{fill:#FFE164;}
	.st31{fill:#F7C1C1;}
	.st32{fill:#B6ECFF;}
</style>
<path class="st5" d="M120.8,81.3c0,11.7,9.5,21.1,21.2,21.1c11.7,0,21.2-9.5,21.2-21.1s-9.5-21.1-21.2-21.1
	C130.3,60.1,120.8,69.6,120.8,81.3z M149.4,86.7c3.2,0,5.9,2.6,5.9,5.8s-2.6,5.8-5.9,5.8c-3.2,0-5.9-2.6-5.9-5.8
	S146.2,86.7,149.4,86.7z M135.3,64.3c5.2,0,9.3,4.2,9.3,9.3c0,5.2-4.2,9.3-9.3,9.3c-5.2,0-9.4-4.2-9.4-9.3
	C126,68.5,130.2,64.3,135.3,64.3z"/>
<path class="st1" d="M135.3,82.9c5.2,0,9.3-4.2,9.3-9.3c0-5.2-4.2-9.3-9.3-9.3c-5.2,0-9.4,4.2-9.4,9.3
	C126,78.8,130.2,82.9,135.3,82.9z"/>
<path class="st1" d="M149.4,98.4c3.2,0,5.9-2.6,5.9-5.8s-2.6-5.8-5.9-5.8c-3.2,0-5.9,2.6-5.9,5.8S146.2,98.4,149.4,98.4z"/>
<path class="st5" d="M65.5,59.7c-11.7,0-21.2,9.5-21.2,21.1S53.7,102,65.5,102c11.7,0,21.2-9.5,21.2-21.1S77.2,59.7,65.5,59.7z
	 M58.8,82.6c-5.2,0-9.4-4.2-9.4-9.3s4.2-9.3,9.4-9.3c5.2,0,9.4,4.2,9.4,9.3S64,82.6,58.8,82.6z M72.9,98c-3.2,0-5.9-2.6-5.9-5.8
	c0-3.2,2.6-5.8,5.9-5.8c3.2,0,5.9,2.6,5.9,5.8C78.7,95.4,76.1,98,72.9,98z"/>
<path class="st1" d="M58.8,63.9c-5.2,0-9.4,4.2-9.4,9.3s4.2,9.3,9.4,9.3c5.2,0,9.4-4.2,9.4-9.3S64,63.9,58.8,63.9z"/>
<path class="st1" d="M72.9,86.3c-3.2,0-5.9,2.6-5.9,5.8c0,3.2,2.6,5.8,5.9,5.8c3.2,0,5.9-2.6,5.9-5.8C78.7,89,76.1,86.3,72.9,86.3z"
	/>
<path class="st5" d="M41.2,60.4c0.4,0.3,0.9,0.4,1.4,0.4c0.9,0,1.9-0.5,2.4-1.4c4.1-7.1,11.8-11.5,20-11.5c1.5,0,2.7-1.2,2.7-2.7
	c0-1.5-1.2-2.7-2.7-2.7c-10.1,0-19.6,5.4-24.7,14.2C39.5,58,39.9,59.7,41.2,60.4z"/>
<path class="st5" d="M138.3,47.3c0,1.5,1.2,2.7,2.7,2.7c8.1,0,15.7,4.3,19.8,11.3c0.5,0.9,1.4,1.3,2.4,1.3c0.5,0,1-0.1,1.4-0.4
	c1.3-0.8,1.7-2.4,1-3.7c-5.1-8.6-14.5-13.9-24.5-13.9C139.5,44.5,138.3,45.8,138.3,47.3z"/>
<ellipse class="st7" cx="147.6" cy="114.2" rx="19.5" ry="9"/>
<path class="st7" d="M62.2,123.2c10.8,0,19.5-4,19.5-9c0-5-8.7-9-19.5-9c-10.8,0-19.5,4-19.5,9C42.7,119.2,51.4,123.2,62.2,123.2z"
	/>
<path class="st5" d="M78.1,125.8c-1.1,1-1.2,2.7-0.2,3.9l8.7,9.8c0.5,0.6,1.2,0.9,2,0.9c0.8,0,1.5-0.3,2-0.9l6.7-7.2l7.3,7.3
	c1.1,1.1,2.8,1.1,3.9,0l6.4-6.4l7.4,7.4c0.5,0.5,1.2,0.8,1.9,0.8c0,0,0,0,0.1,0c0.7,0,1.4-0.3,2-0.9l10-10.9c1-1.1,1-2.8-0.2-3.9
	c-1.1-1-2.8-1-3.9,0.2l-8.1,8.8l-7.3-7.3c-1.1-1.1-2.8-1.1-3.9,0l-6.4,6.4l-7.4-7.4c-0.5-0.5-1.2-0.8-2-0.8c-0.7,0-1.4,0.3-1.9,0.9
	l-6.6,7.1l-6.7-7.6C80.9,124.9,79.2,124.8,78.1,125.8z"/>
</svg>
