<?xml version="1.0" encoding="utf-8"?>
<!-- Generator: Adobe Illustrator 26.0.1, SVG Export Plug-In . SVG Version: 6.00 Build 0)  -->
<svg version="1.1" id="Layer_1" xmlns="http://www.w3.org/2000/svg" xmlns:xlink="http://www.w3.org/1999/xlink" x="0px" y="0px"
	 viewBox="0 0 200 200" style="enable-background:new 0 0 200 200;" xml:space="preserve">
<style type="text/css">
	.st0{fill:#F466BA;}
	.st1{fill:#FFFFFF;}
	.st2{fill:#F89DC6;}
	.st3{fill:#B42026;}
	.st4{fill:#EF3643;}
	.st5{fill:#190D07;}
	.st6{fill:#D53F4C;}
	.st7{fill:#D42049;}
	.st8{fill:#040606;}
	.st9{fill:#751449;}
	.st10{fill:#510D2C;}
	.st11{fill:#76214F;}
	.st12{fill:#C42289;}
	.st13{fill:#A41C6F;}
	.st14{fill:#D03D9A;}
	.st15{fill:#7A171B;}
	.st16{fill:#C62C36;}
	.st17{fill:#F24F57;}
	.st18{fill:#65BED9;}
	.st19{fill:#FF929D;}
	.st20{fill:#F56E1D;}
	.st21{fill:#D93B5A;}
	.st22{fill:#EDC1C2;}
	.st23{fill:#010101;}
	.st24{fill:#030303;}
	.st25{fill:#F8FBFB;}
	.st26{fill:#F5F8F8;}
	.st27{fill:#F6F9F9;}
	.st28{fill:#66CEF5;}
	.st29{fill:#EF8F8F;}
	.st30{fill:#FFE164;}
	.st31{fill:#F7C1C1;}
	.st32{fill:#B6ECFF;}
</style>
<path class="st5" d="M30,83.3c0.1,0.3,0.2,0.6,0.3,0.9c0.1,0.2,0.1,0.3,0.2,0.5c0.1,0.1,0.2,0.3,0.3,0.4c0.2,0.3,0.4,0.6,0.6,0.9
	c0.5,0.5,1,1.2,1.6,1.6c0.3,0.2,0.6,0.5,0.9,0.7l1,0.6c0.7,0.4,1.3,0.7,2,1.1c0.6,0.4,1.3,0.6,2,0.8c-2.1,1.4-4.1,3-5.9,4.8
	c-1.2,1.2-1.2,3.1,0,4.2c0.6,0.6,1.4,0.9,2.1,0.9c0.2,0,0.4,0,0.6-0.1c0.4-0.2,0.7-0.3,1.1-0.5c0.1-0.1,0.3-0.2,0.4-0.3
	c2.6-2.6,5.5-4.6,8.7-6.2c1.6-0.8,3.4-1.4,5.2-2c3.3-1,7-1.5,10.8-1.6c8.7-0.2,16.9,2,22.2,3.8c3.9,1.3,6.3,2.5,6.3,2.5
	c1.5,0.7,3.3,0.1,4-1.4c0.7-1.5,0.1-3.3-1.4-4c-0.1-0.1-2.6-1.2-6.5-2.6c1.5-3.1,2.3-6.5,2.3-10.2c0-13.2-10.7-23.9-24-23.9
	c-11.9,0-21.8,8.7-23.7,20.1c-0.2-0.1-0.3-0.1-0.5-0.2c-0.5-0.2-0.9-0.4-1.4-0.6c-0.2-0.1-0.4-0.3-0.6-0.4c-0.1-0.1-0.2-0.1-0.3-0.2
	c-0.1-0.1-0.2-0.2-0.3-0.2c-0.2-0.2-0.4-0.3-0.5-0.5c-0.1-0.2-0.3-0.3-0.4-0.5c-0.2-0.4-0.5-0.7-0.6-1c-0.2-0.3-0.3-0.6-0.4-0.9
	c-0.1-0.3-0.1-0.5-0.2-0.6c0-0.1,0-0.2,0-0.2c0-0.1-0.1-0.2-0.2-0.2c-0.2-0.1-0.3,0-0.4,0.1l0,0c0,0,0,0.1-0.1,0.2
	c-0.1,0.2-0.1,0.4-0.2,0.7c0,0.3-0.1,0.7-0.1,1.1c0,0.4,0,0.9,0.1,1.5c0.1,0.3,0.1,0.6,0.2,0.8c0.1,0.3,0.2,0.6,0.3,0.9
	c0.1,0.2,0.1,0.3,0.2,0.5c0.1,0.1,0.2,0.3,0.3,0.4c0.2,0.3,0.4,0.6,0.6,0.9c0.5,0.5,1,1.2,1.6,1.6c0.3,0.2,0.6,0.5,0.9,0.7l1,0.6
	c0.2,0.1,0.4,0.2,0.6,0.3c0.1,2.1,0.5,4.1,1.1,6c-0.2-0.1-0.3-0.1-0.5-0.2c-0.2-0.1-0.5-0.2-0.7-0.2c-0.2-0.1-0.5-0.1-0.7-0.2
	c-0.5-0.1-1.1,0-1.6-0.1c-0.3,0-0.5,0-0.8,0c-0.3,0-0.5-0.1-0.8-0.1L36,84.4c-0.3-0.1-0.5-0.2-0.7-0.3c-0.5-0.2-0.9-0.4-1.4-0.6
	c-0.2-0.1-0.4-0.3-0.6-0.4c-0.1-0.1-0.2-0.1-0.3-0.2c-0.1-0.1-0.2-0.2-0.3-0.2c-0.2-0.2-0.4-0.3-0.5-0.5c-0.1-0.2-0.3-0.3-0.4-0.5
	c-0.2-0.4-0.5-0.7-0.6-1c-0.2-0.3-0.3-0.6-0.4-0.9c-0.1-0.3-0.1-0.5-0.2-0.6c0-0.1,0-0.2,0-0.2c0-0.1-0.1-0.2-0.2-0.2
	c-0.2-0.1-0.3,0-0.4,0.1l0,0c0,0,0,0.1-0.1,0.2c-0.1,0.2-0.1,0.4-0.2,0.7c0,0.3-0.1,0.7-0.1,1.1c0,0.4,0,0.9,0.1,1.5
	C29.9,82.7,30,83,30,83.3z M55.2,59.1c5.8,0,10.6,4.7,10.6,10.5c0,5.8-4.7,10.5-10.6,10.5c-5.8,0-10.6-4.7-10.6-10.5
	C44.7,63.8,49.4,59.1,55.2,59.1z"/>
<path class="st5" d="M110.7,146.1c-2.6,1.8-7.3,3-12.3,1.1c-1.5-0.6-3.3,0.2-3.9,1.7s0.2,3.3,1.7,3.9c2.4,0.9,5,1.4,7.5,1.4
	c3.7,0,7.4-1.1,10.4-3.1c3.9-2.6,6.1-6.5,6.1-10.7c0-5-3-9.6-7.9-12.7c5-3.1,7.9-7.7,7.9-12.7c0-4.9-3.1-9.8-7.9-12.6
	c-5.1-3-11.1-3-16.5,0c-1.4,0.8-2,2.6-1.2,4.1c0.8,1.4,2.6,2,4.1,1.2c4.7-2.6,8.6-1.1,10.5,0c2.9,1.7,4.9,4.7,4.9,7.5
	c0,4.2-4.1,8.1-10.2,9.8c-1.3,0.4-2.2,1.5-2.2,2.9s0.9,2.5,2.2,2.9c6.1,1.7,10.2,5.7,10.2,9.8C114.1,142.5,112.9,144.6,110.7,146.1z
	"/>
<path class="st5" d="M170.6,76.2l1-0.6c0.3-0.2,0.6-0.5,0.9-0.7c0.6-0.5,1.1-1.1,1.6-1.6c0.2-0.3,0.4-0.6,0.6-0.9
	c0.1-0.2,0.2-0.3,0.3-0.4c0.1-0.2,0.1-0.3,0.2-0.5c0.1-0.3,0.3-0.6,0.3-0.9c0.1-0.3,0.1-0.6,0.2-0.8c0.1-0.6,0.1-1.1,0.1-1.5
	c0-0.4-0.1-0.8-0.1-1.1c-0.1-0.3-0.1-0.5-0.2-0.7c-0.1-0.2-0.1-0.2-0.1-0.2l0,0c0-0.1-0.1-0.2-0.2-0.2c-0.2,0-0.3,0.1-0.3,0.3
	c0,0,0,0.1,0,0.2c0,0.1-0.1,0.3-0.2,0.6c-0.1,0.3-0.2,0.6-0.4,0.9c-0.1,0.3-0.4,0.7-0.6,1c-0.1,0.2-0.3,0.3-0.4,0.5
	c-0.1,0.2-0.3,0.3-0.5,0.5c-0.1,0.1-0.2,0.2-0.3,0.2c-0.1,0.1-0.2,0.1-0.3,0.2c-0.2,0.1-0.4,0.3-0.6,0.4c-0.4,0.2-0.9,0.5-1.4,0.6
	c-0.2,0.1-0.5,0.2-0.7,0.3l-0.8,0.2c-0.3,0.1-0.5,0.1-0.8,0.1c-0.3,0-0.6,0-0.8,0c-0.5,0-1.1,0-1.6,0.1c-0.3,0-0.5,0.1-0.7,0.2
	c-0.1,0-0.2,0.1-0.3,0.1c-4.9-5.6-12-9.2-20-9.2c-14.6,0-26.4,11.8-26.4,26.4c0,1.7,1.3,3,3,3s3-1.3,3-3c0-11.2,9.2-20.4,20.4-20.4
	c11.3,0,20.4,9.1,20.4,20.4c0,1.7,1.3,3,3,3s3-1.3,3-3c0-0.5,0-1,0-1.5c0.1,0,0.2,0,0.2,0c0.3,0,0.7-0.1,1-0.1
	c0.7-0.2,1.3-0.4,2-0.8c0.7-0.4,1.3-0.7,2-1.1l1-0.6c0.3-0.2,0.6-0.5,0.9-0.7c0.6-0.5,1.1-1.1,1.6-1.6c0.2-0.3,0.4-0.6,0.6-0.9
	c0.1-0.2,0.2-0.3,0.3-0.4c0.1-0.2,0.1-0.3,0.2-0.5c0.1-0.3,0.3-0.6,0.3-0.9c0.1-0.3,0.1-0.6,0.2-0.9c0.1-0.6,0.1-1.1,0.1-1.5
	c0-0.4-0.1-0.8-0.1-1.1c-0.1-0.3-0.1-0.5-0.2-0.7c0-0.2-0.1-0.2-0.1-0.2l0,0c0-0.1-0.1-0.2-0.2-0.2c-0.2,0-0.3,0.1-0.3,0.3
	c0,0,0,0.1,0,0.2c0,0.1-0.1,0.3-0.2,0.6c-0.1,0.3-0.2,0.6-0.4,0.9c-0.1,0.3-0.4,0.7-0.6,1c-0.1,0.2-0.3,0.3-0.4,0.5
	c-0.1,0.2-0.3,0.3-0.5,0.5c-0.1,0.1-0.2,0.2-0.3,0.2c-0.1,0.1-0.2,0.1-0.3,0.2c-0.2,0.1-0.4,0.3-0.6,0.4c-0.4,0.2-0.9,0.5-1.4,0.6
	c-0.3,0.1-0.5,0.2-0.7,0.3l-0.8,0.2c-0.3,0.1-0.5,0.1-0.8,0.1c-0.3,0-0.6,0-0.8,0c-0.5,0-1.1,0-1.6,0.1c-0.3,0-0.5,0.1-0.7,0.2
	c-0.1,0-0.3,0.1-0.4,0.1c-0.5-1.6-1.1-3.1-1.8-4.6c0.2-0.1,0.4-0.2,0.7-0.3C169.3,77,170,76.7,170.6,76.2z"/>
<path class="st1" d="M55.2,80.1c5.8,0,10.6-4.7,10.6-10.5c0-5.8-4.7-10.5-10.6-10.5c-5.8,0-10.6,4.7-10.6,10.5
	C44.7,75.4,49.4,80.1,55.2,80.1z"/>
<path class="st7" d="M179.4,106c0-4.6-8-8.2-17.9-8.2c-9.9,0-17.9,3.7-17.9,8.2c0,4.6,8,8.3,17.9,8.3
	C171.4,114.2,179.4,110.5,179.4,106z"/>
<path class="st7" d="M30.3,106.5c0,4.6,8,8.3,17.9,8.3c9.9,0,17.9-3.7,17.9-8.3c0-4.6-8-8.3-17.9-8.3c-4.4,0-8.5,0.7-11.6,2
	c-0.4,0.2-0.8,0.3-1.1,0.5C32.3,102.2,30.3,104.2,30.3,106.5z"/>
</svg>
