<?xml version="1.0" encoding="utf-8"?>
<!-- Generator: Adobe Illustrator 26.0.1, SVG Export Plug-In . SVG Version: 6.00 Build 0)  -->
<svg version="1.1" id="Layer_1" xmlns="http://www.w3.org/2000/svg" xmlns:xlink="http://www.w3.org/1999/xlink" x="0px" y="0px"
	 viewBox="0 0 200 200" style="enable-background:new 0 0 200 200;" xml:space="preserve">
<style type="text/css">
	.st0{fill:#F466BA;}
	.st1{fill:#FFFFFF;}
	.st2{fill:#F89DC6;}
	.st3{fill:#B42026;}
	.st4{fill:#EF3643;}
	.st5{fill:#190D07;}
	.st6{fill:#D53F4C;}
	.st7{fill:#D42049;}
	.st8{fill:#040606;}
	.st9{fill:#751449;}
	.st10{fill:#510D2C;}
	.st11{fill:#76214F;}
	.st12{fill:#C42289;}
	.st13{fill:#A41C6F;}
	.st14{fill:#D03D9A;}
	.st15{fill:#7A171B;}
	.st16{fill:#C62C36;}
	.st17{fill:#F24F57;}
	.st18{fill:#65BED9;}
	.st19{fill:#FF929D;}
	.st20{fill:#F56E1D;}
	.st21{fill:#D93B5A;}
	.st22{fill:#EDC1C2;}
	.st23{fill:#010101;}
	.st24{fill:#030303;}
	.st25{fill:#F8FBFB;}
	.st26{fill:#F5F8F8;}
	.st27{fill:#F6F9F9;}
	.st28{fill:#66CEF5;}
	.st29{fill:#EF8F8F;}
	.st30{fill:#FFE164;}
	.st31{fill:#F7C1C1;}
	.st32{fill:#B6ECFF;}
</style>
<path d="M129.1,112.1c1.4-0.3,2.3-1.7,2-3.1c-1.2-5.6-5.7-10.3-11.3-11.7c-2.4-0.6-5-0.7-7.9-0.3c-5.3,0.8-11.8,3.9-14,10.2
	c-0.5,1.4,0.2,2.9,1.6,3.4c1.4,0.5,2.9-0.2,3.4-1.6c1.5-4.1,6.2-6.2,9.9-6.8c2.1-0.3,4.1-0.3,5.7,0.2c3.7,1,6.6,4.1,7.5,7.8
	c0.3,1.2,1.4,2.1,2.6,2.1v0C128.7,112.2,128.9,112.1,129.1,112.1z"/>
<path d="M34.4,108c1.5-3.3,5.4-6.2,9.9-7.5c4-1.1,7.8-0.7,10.4,1c2,1.3,3.1,3.7,3.7,5.5c0.5,1.4,1.9,2.1,3.3,1.7
	c1.4-0.5,2.1-2,1.7-3.3c-1.2-3.7-3.2-6.5-5.7-8.2c-3.9-2.6-9.3-3.2-14.8-1.7c-6,1.7-11.1,5.6-13.3,10.3c-0.6,1.3,0,2.9,1.3,3.5
	c0.4,0.2,0.7,0.2,1.1,0.2C33,109.6,34,109,34.4,108z"/>
<path d="M95.1,122.8c0-0.5-0.5-1-1-1l-0.5,0c-1.2,0-2.3,0-3.5,0c-2.4,0-4.8,0-7.1,0c-0.9,0-1.9,0-2.8,0c-2.5,0-5,0.1-7.6,0.1
	c-1.6,0-3.2,0.1-4.8,0.1c-0.5,0-1,0.4-1,1c-0.2,2.8-0.2,5.6-0.1,8.4c0.1,4.4,0.8,7.9,2,10.6c1,2.1,2.3,3.9,4,5.1
	c2.1,1.5,4.5,2.2,6.9,2.2c3,0,5.9-1,8.3-2.6c0.7-0.5,1.3-1,1.9-1.5c1.9-1.8,3.3-4.1,4.3-6.7c1.1-3,1.7-6.4,1.6-10L95.1,122.8z
	 M70.9,142L70.9,142c0.5-0.3,1-0.5,1.5-0.7c4-1.7,8.5-2.1,12.7-2.2c1.9,0,4,0,6.4,0c-0.8,1.8-1.9,3.3-3.2,4.6
	c-4,3.9-10.5,4.7-14.4,1.8C72.6,144.6,71.7,143.5,70.9,142z"/>
<path class="st29" d="M88.3,143.7c1.3-1.3,2.4-2.8,3.2-4.6c-2.4,0-4.4,0-6.4,0c-4.2,0.1-8.7,0.4-12.7,2.2c-0.5,0.2-1,0.5-1.5,0.7v0
	c0.8,1.4,1.7,2.6,2.9,3.5C77.8,148.4,84.3,147.6,88.3,143.7z"/>
<polygon class="st30" points="137.9,87.8 139.9,89.6 170.4,66.3 160.6,59.1 "/>
<path d="M173.9,65l-12.7-9.4c-0.7-0.5-1.7-0.4-2.2,0.3l-24.5,31c-0.5,0.6-0.4,1.6,0.2,2.1l4,3.8c0.3,0.3,0.7,0.4,1.1,0.4
	c0.3,0,0.7-0.1,1-0.3l33.2-25.4c0.4-0.3,0.6-0.8,0.6-1.3C174.6,65.8,174.3,65.3,173.9,65z M139.9,89.6l-2-1.9l22.6-28.7l9.8,7.2
	L139.9,89.6z"/>
<polygon class="st30" points="151.6,95.7 170.7,95.7 167.9,87.8 "/>
<path d="M170.2,85.1c-0.1-0.4-0.5-0.8-0.9-0.9c-0.4-0.2-0.9-0.2-1.3,0l-24,11.7c-0.7,0.3-1,1.1-0.8,1.8c0.2,0.7,0.8,1.2,1.5,1.2H173
	c0.5,0,1-0.3,1.3-0.7c0.3-0.4,0.4-1,0.2-1.4L170.2,85.1z M151.6,95.7l16.3-7.9l2.9,7.9H151.6z"/>
</svg>
