<?xml version="1.0" encoding="utf-8"?>
<!-- Generator: Adobe Illustrator 26.0.1, SVG Export Plug-In . SVG Version: 6.00 Build 0)  -->
<svg version="1.1" id="Layer_1" xmlns="http://www.w3.org/2000/svg" xmlns:xlink="http://www.w3.org/1999/xlink" x="0px" y="0px"
	 viewBox="0 0 200 200" style="enable-background:new 0 0 200 200;" xml:space="preserve">
<style type="text/css">
	.st0{fill:#F466BA;}
	.st1{fill:#FFFFFF;}
	.st2{fill:#F89DC6;}
	.st3{fill:#B42026;}
	.st4{fill:#EF3643;}
	.st5{fill:#190D07;}
	.st6{fill:#D53F4C;}
	.st7{fill:#D42049;}
	.st8{fill:#040606;}
	.st9{fill:#751449;}
	.st10{fill:#510D2C;}
	.st11{fill:#76214F;}
	.st12{fill:#C42289;}
	.st13{fill:#A41C6F;}
	.st14{fill:#D03D9A;}
	.st15{fill:#7A171B;}
	.st16{fill:#C62C36;}
	.st17{fill:#F24F57;}
	.st18{fill:#65BED9;}
	.st19{fill:#FF929D;}
	.st20{fill:#F56E1D;}
	.st21{fill:#D93B5A;}
	.st22{fill:#EDC1C2;}
	.st23{fill:#010101;}
	.st24{fill:#030303;}
	.st25{fill:#F8FBFB;}
	.st26{fill:#F5F8F8;}
	.st27{fill:#F6F9F9;}
	.st28{fill:#66CEF5;}
	.st29{fill:#EF8F8F;}
	.st30{fill:#FFE164;}
	.st31{fill:#F7C1C1;}
	.st32{fill:#B6ECFF;}
</style>
<path class="st1" d="M46.3,108.6c-2.7-3.9-7.9-5.5-12.6-3.9l-1.4,0.5l0,0c-1.8,0.8-3.3,2.4-4.1,4.6c-0.9,2.4-0.8,5.1,0.3,7.2
	c2.1,4.1,7.4,6.5,12.4,5.5c1.6-0.3,3.1-1,4.2-1.8c1.9-1.5,3.1-4.2,3-7C48,112,47.4,110.2,46.3,108.6z"/>
<path d="M32.5,101.1l-1.5,0.5c0,0-0.1,0-0.1,0c-2.9,1.2-5.1,3.6-6.3,6.9c-1.2,3.4-1.1,7.3,0.5,10.3c2.4,4.8,8,7.9,13.7,7.9
	c1,0,2-0.1,3-0.3c2.3-0.5,4.3-1.3,5.9-2.6c2.9-2.3,4.6-6.1,4.4-10.1c-0.1-2.5-0.9-5-2.5-7.2C45.8,101,38.8,98.8,32.5,101.1z
	 M45.1,120.7c-1.1,0.9-2.5,1.5-4.2,1.8c-5,1-10.3-1.4-12.4-5.5c-1.1-2.1-1.2-4.8-0.3-7.2c0.8-2.2,2.2-3.8,4.1-4.6l0,0l1.4-0.5
	c4.7-1.6,9.9-0.1,12.6,3.9c1.1,1.6,1.7,3.4,1.8,5.1C48.2,116.5,47,119.1,45.1,120.7z"/>
<path class="st1" d="M123.4,108c-2.1-1.6-4.5-2.8-7-3.6c-0.3-0.1-0.5-0.1-0.8-0.2c-0.5-0.1-0.9-0.1-1.4-0.1c-2.8,0-5.4,1.5-6.6,3.9
	c-1.1,2.1-1.6,4.3-1.5,6.6c0,1.1,0.2,1.9,0.5,2.6c0.9,2.2,3.6,3.5,5.8,4.4c1.5,0.6,3.2,1.1,4.7,1.2c4.1,0,7.3-4,8.6-7.6
	c0.5-1.6,0.7-2.9,0.4-3.9C125.7,110.2,124.9,109.1,123.4,108z"/>
<path d="M125.8,104.9c-2.5-1.9-5.3-3.3-8.3-4.2c-0.4-0.1-0.8-0.2-1.2-0.3c-5-0.9-10,1.5-12.2,5.9c-1.4,2.7-2,5.6-1.9,8.5
	c0,1.6,0.3,2.9,0.8,4c1.5,3.5,5,5.3,7.9,6.5c1.9,0.8,3.9,1.5,6.2,1.5l0,0h0.1c6.1,0,10.6-5.2,12.3-10.3c0.8-2.4,0.9-4.4,0.4-6.2
	C129.1,107.7,127.2,105.9,125.8,104.9z M125.7,115.1c-1.2,3.6-4.4,7.6-8.6,7.6c-1.6,0-3.2-0.6-4.7-1.2c-2.2-0.9-4.8-2.2-5.8-4.4
	c-0.3-0.7-0.5-1.5-0.5-2.6c-0.1-2.2,0.5-4.5,1.5-6.6c1.2-2.4,3.8-3.9,6.6-3.9c0.5,0,0.9,0,1.4,0.1c0.3,0,0.5,0.1,0.8,0.2
	c2.5,0.7,4.9,2,7,3.6c1.5,1.2,2.3,2.2,2.7,3.3C126.3,112.3,126.2,113.5,125.7,115.1z"/>
<path class="st29" d="M91.5,141.1c-1.2-0.1-2.4-0.2-3.7-0.1c-1.6,0.1-4,0.6-5.6,2.1c-0.4,0.3-0.9,0.5-1.4,0.5c-0.5,0-1-0.3-1.4-0.7
	c-1.3-1.5-3.6-1.9-5.2-2.1c-2.9-0.2-5.8,0.3-8.6,1.6l0,0c0,0.6,0,1.3,0.1,1.9l0.1,0.5c7.5-0.1,17-0.4,26.1-0.9
	C91.7,143.1,91.6,142.1,91.5,141.1z"/>
<path d="M62.1,147.2c0.1,1,1,1.7,1.9,1.7h0c8.3-0.1,19.5-0.4,29.9-1c1-0.1,1.9-0.9,1.9-2c0-2.4-0.3-4.8-0.7-7c0,0,0,0,0,0
	c-1-5-3-8.7-5.8-11c-3.3-2.6-7.9-3.8-12.6-3.2c-4.7,0.6-8.7,2.9-11.2,6.2c-2.2,3-3.5,6.5-3.8,10.2c-0.1,1.3-0.1,2.5,0.1,3.8
	L62.1,147.2z M65.7,145l-0.1-0.5c-0.1-0.6-0.1-1.3-0.1-1.9l0,0c2.7-1.3,5.7-1.8,8.6-1.6c1.7,0.1,3.9,0.6,5.2,2.1
	c0.3,0.4,0.8,0.6,1.4,0.7c0.5,0,1-0.1,1.4-0.5c1.7-1.5,4-2,5.6-2.1c1.3-0.1,2.5,0,3.7,0.1c0.1,1,0.2,2,0.3,3
	C82.7,144.6,73.2,144.9,65.7,145z"/>
<path class="st30" d="M148.6,71.6c-0.6,0.5-1.2,0.9-1.8,1.3c0.1,1.5,0.2,2.7,0.4,3.7C147.5,74.7,148,72.7,148.6,71.6z"/>
<path class="st30" d="M165.6,94.3c-1.5,1.4-2,2.1-2,2.7c0.4-0.4,0.9-0.8,1.4-1.1c1.4-1,3.8-3.4,4.7-5.4c-0.3,0-0.5,0.1-0.8,0.1
	C167.8,92.2,166.4,93.6,165.6,94.3z"/>
<path class="st30" d="M149.8,115.9c0.2,0.5,0.5,1,1,1.2c0.5,0.2,1.1,0,1.7-0.2c7.8-2.9,15.3-6.7,22.3-11.2c-0.9-0.3-1.7-0.4-2.6-0.5
	c-5.3,3.8-11,7.2-16.9,10c-0.3,0.1-0.6,0.2-0.8,0.2h0c-0.7,0-1.4-0.4-1.8-1.1c-0.5-1,0-2.2,0.9-2.6c4.4-2.1,8.6-4.5,12.6-7.1
	c-2.1-0.5-4-1.6-4.5-3.4c-0.4-0.3-0.7-0.6-1-1c-2.1-2.7-1.3-5.6,2.2-8.8c0,0,0.1-0.1,0.1-0.1c-1.5,0.1-3,0.2-4.5,0.1
	c-0.5,0-1-0.1-1.5-0.2c-0.7,0-1.6-0.2-2.4-0.7c-1.7-1-2.3-3.1-1.8-5.7c0.1-0.7,0.4-1.6,0.8-2.4c-0.3,0.2-0.7,0.3-1,0.4
	c-0.3,0.1-0.6,0.3-1,0.4c-1.4,0.7-3.8,1.8-5.8,0.1c-1.8-1.6-2.7-4.8-3-8c-1.4,0.9-2.8,1.7-4.2,2.4c-3.5,3.4-6.8,6.6-10.6,9.3
	l2.2,1.7v0C138.7,96.4,144.7,105.9,149.8,115.9z"/>
<path d="M140,76.6c0.9-0.9,1.9-1.9,2.9-2.8c0,0.5,0.1,1.1,0.1,1.6c0.4,3.2,1.2,6.4,3,8c2,1.7,4.4,0.6,5.8-0.1c0.3-0.2,0.6-0.3,1-0.4
	c0.3-0.1,0.6-0.3,1-0.4c-0.4,0.9-0.6,1.7-0.8,2.4c-0.5,2.7,0.2,4.7,1.8,5.7c0.8,0.5,1.6,0.6,2.4,0.7c0.4,0,0.8,0,1.1,0
	c2-0.1,3.9-0.4,5.8-0.8c-0.3,0.3-0.6,0.6-0.9,0.9c0,0-0.1,0.1-0.1,0.1c-3.6,3.2-4.3,6.1-2.2,8.8c0.3,0.4,0.6,0.7,1,1
	c1.2,0.9,2.7,1.1,3.9,1.3l0.4,0.1c0.8,0.1,1.6,0.3,2.6,0.4c-0.8,0.6-1.6,1.1-2.4,1.6c-4,2.7-8.2,5.1-12.6,7.1
	c-1,0.5-1.4,1.6-0.9,2.6c0.3,0.7,1,1.1,1.8,1.1h0c0.3,0,0.6-0.1,0.8-0.2c5.9-2.8,11.6-6.2,16.9-10c1.1-0.8,2.2-1.6,3.3-2.5
	c0.7-0.5,0.9-1.4,0.6-2.2c-0.3-0.8-1.1-1.3-1.9-1.3c-3.1,0.1-5.4-0.2-7.5-0.5l-0.4-0.1c-1.3-0.2-2-0.4-2.4-0.8
	c-0.2-0.2-0.3-0.4-0.3-0.8c0.1-0.5,0.5-1.3,2-2.7c0.8-0.7,2.1-2.1,3.2-3.7c0.5-0.8,1-1.7,1.3-2.5c0.2-0.7,0-1.4-0.4-1.9
	c-0.5-0.5-1.2-0.7-1.9-0.6l-1.1,0.2c-3,0.6-5.8,1.3-8.7,1.4c-0.3,0-0.9,0.1-1.1,0c-0.1-0.1-0.3-0.6-0.1-1.7c0.3-1.4,1.8-4.2,2.7-5.8
	l0.5-0.9c0.4-0.7,0.3-1.6-0.3-2.3c-0.6-0.6-1.5-0.8-2.2-0.5c-0.9,0.4-2,1-3.2,1.6c-1.1,0.6-2.3,1.2-3,1.5c-0.4,0.2-0.8,0.4-1.2,0.6
	c-0.5,0.2-1.3,0.6-1.5,0.6c-0.4-0.3-1-1.5-1.4-3.7c-0.2-1-0.3-2.2-0.4-3.7c0-1.1-0.1-2.2,0-3.5c0-0.8-0.4-1.5-1.1-1.8
	c-0.7-0.3-1.6-0.2-2.1,0.3c-2.2,2-4.2,4-6.2,5.9c-3.9,3.9-7.7,7.5-11.9,10.4c-0.9,0.6-1.1,1.8-0.5,2.7c0.6,0.9,1.8,1.1,2.7,0.5
	c0.2-0.1,0.4-0.3,0.6-0.4c3.8-2.7,7.2-5.9,10.6-9.3C139.2,77.4,139.6,77,140,76.6z"/>
</svg>
