<?xml version="1.0" encoding="utf-8"?>
<!-- Generator: Adobe Illustrator 26.0.1, SVG Export Plug-In . SVG Version: 6.00 Build 0)  -->
<svg version="1.1" id="Layer_1" xmlns="http://www.w3.org/2000/svg" xmlns:xlink="http://www.w3.org/1999/xlink" x="0px" y="0px"
	 viewBox="0 0 200 200" style="enable-background:new 0 0 200 200;" xml:space="preserve">
<style type="text/css">
	.st0{fill:#F466BA;}
	.st1{fill:#FFFFFF;}
	.st2{fill:#F89DC6;}
	.st3{fill:#B42026;}
	.st4{fill:#EF3643;}
	.st5{fill:#190D07;}
	.st6{fill:#D53F4C;}
	.st7{fill:#D42049;}
	.st8{fill:#040606;}
	.st9{fill:#751449;}
	.st10{fill:#510D2C;}
	.st11{fill:#76214F;}
	.st12{fill:#C42289;}
	.st13{fill:#A41C6F;}
	.st14{fill:#D03D9A;}
	.st15{fill:#7A171B;}
	.st16{fill:#C62C36;}
	.st17{fill:#F24F57;}
	.st18{fill:#65BED9;}
	.st19{fill:#FF929D;}
	.st20{fill:#F56E1D;}
	.st21{fill:#D93B5A;}
	.st22{fill:#EDC1C2;}
	.st23{fill:#010101;}
	.st24{fill:#030303;}
	.st25{fill:#F8FBFB;}
	.st26{fill:#F5F8F8;}
	.st27{fill:#F6F9F9;}
	.st28{fill:#66CEF5;}
	.st29{fill:#EF8F8F;}
	.st30{fill:#FFE164;}
	.st31{fill:#F7C1C1;}
	.st32{fill:#B6ECFF;}
</style>
<path class="st1" d="M40.6,81.9c-0.9,2.4-0.8,5,0.3,7.1c2.1,4.1,7.3,6.4,12.2,5.4c1.6-0.3,3.1-0.9,4.1-1.8c1.9-1.5,3-4.2,2.9-6.9
	c0-1.5-0.5-3-1.4-4.4c-0.2,1.2-0.8,2.3-1.7,3c-0.6,0.5-1.4,0.8-2.3,1c-0.4,0.1-0.7,0.1-1.1,0.1c0,0,0,0,0,0h0c0,0,0,0,0,0
	c-2.1,0-4.1-1.1-5.1-3c-0.6-1.2-0.7-2.7-0.2-4c0.3-0.9,0.9-1.7,1.7-2.2c-1.4-0.1-2.8,0.1-4.1,0.6l-1.4,0.5l0,0
	C42.8,78.2,41.4,79.8,40.6,81.9z"/>
<path d="M51,98.5L51,98.5c1,0,2-0.1,3-0.3c2.3-0.4,4.2-1.3,5.8-2.6c2.9-2.3,4.5-6.1,4.4-10c-0.1-2.5-0.9-5-2.4-7.1
	c-3.7-5.3-10.6-7.5-16.9-5.3l-1.5,0.5c0,0-0.1,0-0.1,0c-2.8,1.2-5,3.6-6.2,6.8c-1.2,3.4-1.1,7.2,0.5,10.2
	C39.9,95.5,45.3,98.5,51,98.5z M46.1,76.9c1.4-0.5,2.8-0.7,4.1-0.6c-0.8,0.5-1.3,1.3-1.7,2.2c-0.5,1.3-0.4,2.8,0.2,4
	c0.9,1.8,3,3,5.1,3c0.4,0,0.7,0,1.1-0.1c0.9-0.2,1.6-0.5,2.3-1c0.9-0.7,1.5-1.8,1.7-3c0.8,1.4,1.3,2.9,1.4,4.4
	c0.1,2.7-1.1,5.4-2.9,6.9c-1.1,0.9-2.5,1.5-4.1,1.8c-4.9,1-10.2-1.4-12.2-5.4c-1-2.1-1.2-4.7-0.3-7.1c0.8-2.1,2.2-3.7,4-4.5l0,0
	L46.1,76.9z"/>
<path class="st1" d="M163.2,83.3c-0.3-1.1-1.1-2.1-2.6-3.2c-2-1.6-4.4-2.8-6.9-3.5c-0.3-0.1-0.5-0.1-0.8-0.2
	c-0.5-0.1-0.9-0.1-1.4-0.1c-2.7,0-5.3,1.5-6.5,3.9c-1,2-1.6,4.3-1.5,6.5c0,1,0.2,1.9,0.5,2.6c0.7,1.6,2.4,2.8,4.1,3.6
	c-0.1-0.6-0.2-1.2-0.1-1.9c0.3-2.1,1.7-4.4,4.2-4.8c0.9-0.2,1.7,0,2.4,0.1c1.1,0.2,2.6,0.7,3.5,2.1c0.3,0.5,0.5,1,0.6,1.6
	c0.2,1.1,0.2,2.2-0.2,3.2c2-1.5,3.4-3.8,4.2-6C163.3,85.5,163.5,84.3,163.2,83.3z"/>
<path d="M166.5,88.4c0.8-2.4,0.9-4.4,0.4-6.1c-0.7-2.5-2.6-4.2-4-5.2c-2.4-1.9-5.2-3.3-8.2-4.2c-0.4-0.1-0.8-0.2-1.2-0.3
	c-4.9-0.9-9.9,1.5-12,5.8c-1.3,2.6-2,5.5-1.9,8.4c0,1.5,0.3,2.8,0.8,4c1.5,3.5,5,5.2,7.8,6.4c1.9,0.7,3.9,1.4,6.1,1.4l0,0h0.1
	C160.4,98.5,164.8,93.4,166.5,88.4z M158.6,93.1c0.3-1.1,0.4-2.2,0.2-3.2c-0.1-0.6-0.3-1.2-0.6-1.6c-0.9-1.4-2.4-1.9-3.5-2.1
	c-0.7-0.2-1.5-0.3-2.4-0.1c-2.5,0.4-3.9,2.7-4.2,4.8c-0.1,0.7-0.1,1.3,0.1,1.9c-1.7-0.8-3.4-2-4.1-3.6c-0.3-0.7-0.4-1.5-0.5-2.6
	c-0.1-2.2,0.4-4.4,1.5-6.5c1.2-2.4,3.8-3.9,6.5-3.9c0.4,0,0.9,0,1.4,0.1c0.3,0,0.5,0.1,0.8,0.2c2.5,0.7,4.9,1.9,6.9,3.5
	c1.5,1.1,2.3,2.2,2.6,3.2c0.3,1,0.2,2.2-0.4,3.8C162.1,89.3,160.6,91.7,158.6,93.1z"/>
<polygon points="53.8,85.5 53.8,85.5 53.8,85.5 "/>
<path d="M155.2,113.6c-0.4-1-1.6-1.4-2.5-1c-2,0.9-4.1,1.6-6.1,2.3c0,0,0,0,0,0c-2.6,0.9-5.4,1.7-8.2,2.4c-2,0.5-3.9,0.9-6,1.3
	c-11.1,2.1-23.3,2.5-37.3,1.3c-4.4-0.4-9-0.9-13.9-1.6c-3.9-0.6-7.8-1.2-12.1-2c-5.1-0.9-10.2-1.9-14-2.7c-2.9-0.6-5.7-1.1-8.5-1.7
	l-2.9-0.6c-1.1-0.2-2.1,0.5-2.3,1.5c-0.2,1.1,0.5,2.1,1.5,2.3l2.9,0.6c2.3,0.5,4.6,0.9,7,1.4l0,0.1c0,1.1,0,2.3,0,3.4
	c0,1.1,0,2.9,1,4.3c0.6,0.9,1.5,1.6,2.7,2.2c1.8,0.8,3.6,1,5.2,1.2c0.6,0.1,1.3,0.2,2.2,0.2l0,0c1.8,0,4.1-0.4,5.5-2.4
	c1.1-1.5,1.1-3.2,1.2-4.5c0-0.3,0-0.7,0-1c2.9,0.5,5.6,0.9,8.3,1.3l-0.1,1.4c-0.1,1.8-0.2,3.7,1,5.4c1.8,2.6,5.2,2.8,7,2.9l4.1,0.2
	c0.3,0,0.6,0,1,0l0,0c1.3,0,3.1-0.2,4.4-1.7c1.5-1.7,1.2-4.2,1-5.3l-0.1-0.8c4.4,0.3,8.6,0.5,12.7,0.5c7.6,0,14.8-0.6,21.5-1.7
	c0.4,1.4,0.8,2.8,1.3,4.1c0.1,0.4,0.4,1.2,1,1.8c0.7,0.7,1.6,0.9,2.3,1c1.1,0.2,2.1,0.3,3.2,0.3l0,0c2.9,0,5.8-0.7,8.4-2.1
	c0.8-0.4,1.6-1,2.1-1.9c0.5-0.9,0.5-1.9,0.6-2.5c0,0,0,0,0,0c0-1.7-0.2-3.5-0.7-5.5c1.6-0.6,3.2-1.2,4.7-1.8
	C155.2,115.7,155.6,114.6,155.2,113.6z M91,127.8l-4.1-0.2c-1.7-0.1-3.4-0.3-4-1.2c-0.4-0.6-0.4-1.8-0.3-3l0.1-1l0,0
	c3.6,0.5,7.1,0.9,10.5,1.2l0.2,1.7c0.1,0.5,0.3,1.8-0.1,2.2C92.9,127.9,91.5,127.8,91,127.8z M66.7,121.4c0,0.9-0.1,1.9-0.4,2.4
	c-0.5,0.7-1.8,0.9-4.1,0.6c-1.4-0.2-2.9-0.4-4.1-0.9c-0.7-0.3-0.9-0.6-1.1-0.8c-0.3-0.5-0.3-1.3-0.3-2.2c0-0.9,0-1.8,0-2.6
	c3,0.6,6.5,1.3,10.1,1.9C66.7,120.4,66.7,120.9,66.7,121.4z M145.8,119.2c0.3,1.5,0.5,2.9,0.5,4.2c0,0.2,0,0.5-0.1,0.6
	c0,0-0.1,0.1-0.6,0.4c-2.8,1.5-6,2-9.1,1.4c-0.1,0-0.2,0-0.2,0v0c0-0.1,0-0.1-0.1-0.2c-0.4-1.2-0.8-2.4-1.1-3.6
	C138.8,121.3,142.3,120.3,145.8,119.2z"/>
<path class="st1" d="M56.6,120.5c0,0.9,0,1.8,0.3,2.2c0.1,0.2,0.4,0.5,1.1,0.8c1.2,0.6,2.7,0.7,4.1,0.9c2.3,0.3,3.6,0.1,4.1-0.6
	c0.4-0.5,0.4-1.5,0.4-2.4c0-0.5,0-1.1,0-1.6c-3.6-0.7-7.1-1.3-10.1-1.9C56.6,118.8,56.6,119.7,56.6,120.5z"/>
<path class="st1" d="M93.4,125.3l-0.2-1.7c-3.4-0.3-6.8-0.7-10.5-1.2l0,0l-0.1,1c-0.1,1.2-0.1,2.3,0.3,3c0.6,0.9,2.3,1.1,4,1.2
	l4.1,0.2c0.5,0,1.9,0.1,2.3-0.3C93.7,127.1,93.5,125.8,93.4,125.3z"/>
<path class="st1" d="M135.1,122c0.3,1.2,0.7,2.4,1.1,3.6c0,0.1,0,0.1,0.1,0.2v0c0,0,0.1,0,0.2,0c3.1,0.6,6.3,0.1,9.1-1.4
	c0.4-0.2,0.6-0.3,0.6-0.4c0-0.1,0.1-0.5,0.1-0.6c0-1.3-0.2-2.7-0.5-4.2C142.3,120.3,138.8,121.3,135.1,122z"/>
</svg>
