<?xml version="1.0" encoding="utf-8"?>
<!-- Generator: Adobe Illustrator 26.0.1, SVG Export Plug-In . SVG Version: 6.00 Build 0)  -->
<svg version="1.1" id="Layer_1" xmlns="http://www.w3.org/2000/svg" xmlns:xlink="http://www.w3.org/1999/xlink" x="0px" y="0px"
	 viewBox="0 0 200 200" style="enable-background:new 0 0 200 200;" xml:space="preserve">
<style type="text/css">
	.st0{fill:#F466BA;}
	.st1{fill:#FFFFFF;}
	.st2{fill:#F89DC6;}
	.st3{fill:#B42026;}
	.st4{fill:#EF3643;}
	.st5{fill:#190D07;}
	.st6{fill:#D53F4C;}
	.st7{fill:#D42049;}
	.st8{fill:#040606;}
	.st9{fill:#751449;}
	.st10{fill:#510D2C;}
	.st11{fill:#76214F;}
	.st12{fill:#C42289;}
	.st13{fill:#A41C6F;}
	.st14{fill:#D03D9A;}
	.st15{fill:#7A171B;}
	.st16{fill:#C62C36;}
	.st17{fill:#F24F57;}
	.st18{fill:#65BED9;}
	.st19{fill:#FF929D;}
	.st20{fill:#F56E1D;}
	.st21{fill:#D93B5A;}
	.st22{fill:#EDC1C2;}
	.st23{fill:#010101;}
	.st24{fill:#030303;}
	.st25{fill:#F8FBFB;}
	.st26{fill:#F5F8F8;}
	.st27{fill:#F6F9F9;}
	.st28{fill:#66CEF5;}
	.st29{fill:#EF8F8F;}
	.st30{fill:#FFE164;}
	.st31{fill:#F7C1C1;}
	.st32{fill:#B6ECFF;}
</style>
<path class="st1" d="M62.6,103.3c-0.2,1.4-0.9,2.7-2,3.6c-0.7,0.6-1.6,1-2.7,1.2c-0.4,0.1-0.9,0.1-1.3,0.1c-2.5,0-4.9-1.4-6-3.5
	c-0.7-1.4-0.8-3.2-0.2-4.8c0.4-1.1,1.1-2,2-2.7c-1.6-0.1-3.3,0.2-4.9,0.7l-1.7,0.6l0,0c-2.1,0.9-3.8,2.8-4.8,5.3
	c-1,2.8-0.9,6,0.3,8.4c2.5,4.8,8.7,7.6,14.5,6.5c1.9-0.4,3.6-1.1,4.9-2.1c2.3-1.8,3.6-4.9,3.5-8.2C64.1,106.8,63.6,105,62.6,103.3z"
	/>
<path d="M45.9,93.7l-1.8,0.6c0,0-0.1,0-0.1,0.1c-3.4,1.4-6,4.3-7.4,8c-1.5,4-1.2,8.5,0.6,12.1c2.9,5.6,9.4,9.2,16.1,9.2l0,0
	c1.2,0,2.3-0.1,3.5-0.3c2.7-0.5,5-1.6,6.9-3.1c3.4-2.7,5.4-7.2,5.2-11.9c-0.1-3-1.1-5.9-2.9-8.5C61.6,93.7,53.3,91.1,45.9,93.7z
	 M60.7,116.7c-1.3,1-3,1.8-4.9,2.1c-5.8,1.1-12.1-1.6-14.5-6.5c-1.2-2.5-1.4-5.6-0.3-8.4c0.9-2.5,2.6-4.4,4.8-5.3l0,0l1.7-0.6
	c1.6-0.6,3.3-0.8,4.9-0.7c-0.9,0.6-1.6,1.6-2,2.7c-0.6,1.6-0.5,3.3,0.2,4.8c1.1,2.2,3.5,3.5,6,3.5c0.4,0,0.9,0,1.3-0.1
	c1-0.2,1.9-0.6,2.7-1.2c1.1-0.9,1.8-2.2,2-3.6c1,1.7,1.5,3.5,1.6,5.3C64.3,111.8,62.9,114.9,60.7,116.7z"/>
<path class="st1" d="M139.7,117.8c1.8,0.7,3.7,1.4,5.5,1.4h0c4.9,0,8.6-4.6,10.1-8.9c0.6-1.9,0.8-3.4,0.4-4.5
	c-0.2-0.6-0.5-1.1-0.9-1.7c0,0.2-0.1,0.4-0.1,0.6c-0.7,2.3-3,3.9-5.4,3.9l0,0c-0.2,0-0.4,0-0.6,0c-1.3-0.1-2.6-0.5-3.8-1.2
	c-1.2-0.6-2-1.4-2.4-2.3c-0.4-0.9-0.6-1.9-0.4-3.2c0.2-1.5,0.9-3,2.1-4.2c-0.2-0.1-0.4-0.1-0.6-0.1c-0.5-0.1-1.1-0.1-1.6-0.1v0
	c-3.3,0-6.3,1.8-7.8,4.6c-1.2,2.4-1.9,5.1-1.8,7.7c0,1.2,0.2,2.2,0.6,3C134,115.2,137.1,116.7,139.7,117.8z"/>
<path d="M128.7,114.5c1.8,4.1,5.9,6.2,9.3,7.6c2.2,0.9,4.6,1.7,7.2,1.7l0,0h0.1c7.2,0,12.4-6.1,14.4-12.1c0.9-2.8,1.1-5.2,0.5-7.3
	c-0.9-2.9-3.1-4.9-4.7-6.2c-2.9-2.2-6.2-3.9-9.7-4.9c-0.5-0.1-0.9-0.2-1.4-0.3c-5.8-1-11.7,1.8-14.3,6.9c-1.6,3.1-2.4,6.6-2.3,9.9
	C127.8,111.6,128.1,113.1,128.7,114.5z M134.1,101.9c1.4-2.8,4.5-4.6,7.8-4.6v0c0.5,0,1.1,0,1.6,0.1c0.2,0,0.4,0.1,0.6,0.1
	c-1.2,1.1-1.9,2.7-2.1,4.2c-0.2,1.2-0.1,2.3,0.4,3.2c0.5,0.9,1.3,1.7,2.4,2.3c1.2,0.6,2.4,1,3.8,1.2c0.2,0,0.4,0,0.6,0l0,0
	c2.5,0,4.7-1.6,5.4-3.9c0.1-0.2,0.1-0.4,0.1-0.6c0.4,0.6,0.7,1.1,0.9,1.7c0.3,1.2,0.2,2.7-0.4,4.5c-1.4,4.3-5.2,8.9-10.1,8.9h0
	c-1.8,0-3.7-0.7-5.5-1.4c-2.6-1-5.7-2.5-6.8-5.1c-0.3-0.8-0.5-1.8-0.6-3C132.2,107,132.9,104.4,134.1,101.9z"/>
<path d="M84.1,141.2c0.5,0.5,1.1,0.8,1.7,0.8v0c0.5,0,1.1-0.2,1.5-0.6c6-5.3,14.6-7.6,22.5-5.9c1.2,0.3,2.5-0.5,2.7-1.8
	c0.3-1.2-0.5-2.5-1.8-2.7c-9.3-2-19.5,0.6-26.5,6.9C83.3,138.7,83.2,140.2,84.1,141.2z"/>
<path class="st30" d="M167,81.1c0.4-0.4,0.7-1,0.7-1.6c0-0.6-0.2-1.2-0.6-1.6c-1.5-1.5-2-3.9-1.4-6c0.5-1.5,1.5-2.9,2.7-4.4
	c0.5-0.6,0.9-1.2,1.3-1.8c2.4-3.5,3.1-6.9,2-9.8c-1-2.5-3.6-4.4-6.6-4.9c-2.2-0.4-4.5-0.1-7.3,0.8c-3.5,1.2-5.9,2.9-7.3,5.1
	c-0.3,0.5-0.4,1.1-0.3,1.7c0.1,0.6,0.5,1.1,1,1.4c1.1,0.7,2.5,0.3,3.2-0.8c0.8-1.3,2.4-2.3,4.8-3.1c1.5-0.5,2.8-0.8,3.9-0.8v0
	c0.4,0,0.8,0,1.1,0.1c1.4,0.2,2.7,1.1,3.1,2.1c0.8,1.9-0.8,4.4-1.5,5.4c-0.4,0.5-0.8,1-1.1,1.5c-1.4,1.8-2.8,3.6-3.5,5.9
	c-1.1,3.6-0.2,7.7,2.4,10.5C164.5,81.9,166.1,81.9,167,81.1z"/>
<path d="M172,70.3c0.5-0.6,1-1.3,1.5-2c3.4-4.8,4.3-9.9,2.5-14.2c-1.7-4-5.5-6.9-10.1-7.7c-2.9-0.5-5.9-0.2-9.5,1
	c-4.6,1.5-7.8,3.9-9.8,7.1c-1,1.6-1.2,3.4-0.8,5.2c0.4,1.8,1.6,3.3,3.1,4.3c3.3,2,7.5,0.9,9.5-2.3c0,0,0.4-0.5,2.3-1.2
	c0.7-0.2,1.2-0.4,1.6-0.4c-0.1,0.1-0.1,0.2-0.2,0.3c-0.3,0.5-0.7,0.9-1.1,1.5c-1.4,1.9-3.2,4.2-4.2,7.3c-1.6,5.2-0.2,11.1,3.5,15
	c1.3,1.4,3.1,2.2,5,2.2v0c1.8,0,3.5-0.7,4.7-1.9c1.3-1.3,2.1-3,2.2-4.8c0.1-1.8-0.6-3.6-1.9-4.9c-0.3-0.3-0.5-1-0.3-1.5
	C170.3,72.5,171.2,71.4,172,70.3z M161.3,70.5c0.7-2.3,2.1-4.1,3.5-5.9c0.4-0.5,0.8-1,1.1-1.5c0.7-1,2.2-3.5,1.5-5.4
	c-0.4-1-1.7-1.9-3.1-2.1c-0.4-0.1-0.7-0.1-1.1-0.1v0c-1.1,0-2.4,0.2-3.9,0.8c-2.5,0.8-4,1.8-4.8,3.1c-0.7,1.1-2.1,1.4-3.2,0.8
	c-0.5-0.3-0.9-0.8-1-1.4c-0.2-0.6-0.1-1.2,0.3-1.7c1.4-2.3,3.8-4,7.3-5.1c2.8-0.9,5.1-1.2,7.3-0.8c3,0.5,5.6,2.4,6.6,4.9
	c1.2,2.8,0.5,6.3-2,9.8c-0.4,0.6-0.9,1.2-1.3,1.8c-1.1,1.5-2.2,2.9-2.7,4.4c-0.6,2-0.1,4.4,1.4,6c0.4,0.4,0.6,1,0.6,1.6
	c0,0.6-0.3,1.2-0.7,1.6c-0.9,0.8-2.4,0.8-3.3-0.1C161.1,78.2,160.1,74.1,161.3,70.5z"/>
<path class="st30" d="M176.3,93.5c-0.4-0.7-1.2-1-1.9-1c-0.4,0-0.9,0.1-1.3,0.4c-0.5,0.3-0.9,0.9-1,1.5c-0.1,0.6,0,1.2,0.3,1.7
	l0.4,0.5c0.7,1,2.2,1.3,3.2,0.6c1.1-0.7,1.3-2.1,0.6-3.2L176.3,93.5z"/>
<path d="M181.5,96.6c0.4-1.8,0-3.7-1-5.2l-0.4-0.5c-2.1-3.2-6.4-4-9.6-1.9c-1.5,1-2.6,2.6-2.9,4.4s0,3.7,1,5.2l0.4,0.5
	c1.3,1.9,3.4,3.1,5.8,3.1c1.4,0,2.7-0.4,3.8-1.2C180.1,100,181.1,98.5,181.5,96.6z M176,97.2c-1,0.7-2.5,0.4-3.2-0.6l-0.4-0.5
	c-0.3-0.5-0.5-1.1-0.3-1.7c0.1-0.6,0.5-1.1,1-1.5c0.4-0.3,0.8-0.4,1.3-0.4c0.7,0,1.5,0.4,1.9,1l0.4,0.5
	C177.3,95.1,177,96.5,176,97.2z"/>
<polygon points="174.7,102.2 174.7,102.2 174.7,102.2 "/>
</svg>
